<?xml version="1.0" encoding="utf-8"?>
<!-- Generator: Adobe Illustrator 23.0.5, SVG Export Plug-In . SVG Version: 6.00 Build 0)  -->
<svg version="1.1" id="Layer_1" xmlns="http://www.w3.org/2000/svg" xmlns:xlink="http://www.w3.org/1999/xlink" x="0px" y="0px"
	 viewBox="0 0 71.8 73.5" style="enable-background:new 0 0 71.8 73.5;" xml:space="preserve">
<style type="text/css">
	.st0{clip-path:url(#SVGID_2_);fill:#EB494B;}
	.st1{clip-path:url(#SVGID_2_);fill:#09518C;}
</style>
<g>
	<defs>
		<rect id="SVGID_1_" y="0" width="71.8" height="73.5"/>
	</defs>
	<clipPath id="SVGID_2_">
		<use xlink:href="#SVGID_1_"  style="overflow:visible;"/>
	</clipPath>
	<path class="st0" d="M26,40.5c0-0.9-0.7-1.7-1.7-1.7h-5.8c-0.9,0-1.7,0.7-1.7,1.7v5.8c0,0.9,0.7,1.7,1.7,1.7h5.8
		c0.9,0,1.7-0.7,1.7-1.7V40.5z"/>
	<path class="st0" d="M40.5,40.5c0-0.9-0.7-1.7-1.7-1.7H33c-0.9,0-1.7,0.7-1.7,1.7v5.8c0,0.9,0.7,1.7,1.7,1.7h5.8
		c0.9,0,1.7-0.7,1.7-1.7V40.5z"/>
	<path class="st0" d="M55,40.5c0-0.9-0.7-1.7-1.7-1.7h-5.8c-0.9,0-1.7,0.7-1.7,1.7v5.8c0,0.9,0.7,1.7,1.7,1.7h5.8
		c0.9,0,1.7-0.7,1.7-1.7V40.5z"/>
	<path class="st0" d="M26,55.1c0-0.9-0.7-1.7-1.7-1.7h-5.8c-0.9,0-1.7,0.7-1.7,1.7v5.8c0,0.9,0.7,1.7,1.7,1.7h5.8
		c0.9,0,1.7-0.7,1.7-1.7V55.1z"/>
	<path class="st0" d="M40.5,55.1c0-0.9-0.7-1.7-1.7-1.7H33c-0.9,0-1.7,0.7-1.7,1.7v5.8c0,0.9,0.7,1.7,1.7,1.7h5.8
		c0.9,0,1.7-0.7,1.7-1.7V55.1z"/>
	<path class="st0" d="M55,55.1c0-0.9-0.7-1.7-1.7-1.7h-5.8c-0.9,0-1.7,0.7-1.7,1.7v5.8c0,0.9,0.7,1.7,1.7,1.7h5.8
		c0.9,0,1.7-0.7,1.7-1.7V55.1z"/>
	<path class="st1" d="M65.5,8.2v8.9c0,4-3.3,7.3-7.3,7.3h-4.6c-4,0-7.3-3.2-7.3-7.3V8.1H25.6v8.9c0,4-3.3,7.3-7.3,7.3h-4.6
		c-4,0-7.3-3.2-7.3-7.3V8.2C2.9,8.3,0,11.2,0,14.8v52.1c0,3.6,2.9,6.6,6.6,6.6h58.7c3.6,0,6.6-3,6.6-6.6V14.8
		C71.8,11.2,69,8.3,65.5,8.2 M63.3,63.6c0,1.6-1.3,2.8-2.8,2.8H11.2c-1.6,0-2.8-1.3-2.8-2.8V36.7c0-1.6,1.3-2.8,2.8-2.8h49.2
		c1.6,0,2.8,1.3,2.8,2.8V63.6z"/>
	<path class="st0" d="M13.7,19.6h4.5c1.4,0,2.5-1.1,2.5-2.5V2.5c0-1.4-1.1-2.5-2.5-2.5h-4.5c-1.4,0-2.5,1.1-2.5,2.5v14.6
		C11.2,18.4,12.3,19.6,13.7,19.6"/>
	<path class="st0" d="M53.5,19.6h4.5c1.4,0,2.5-1.1,2.5-2.5V2.5c0-1.4-1.1-2.5-2.5-2.5h-4.5C52.2,0,51,1.1,51,2.5v14.6
		C51,18.4,52.2,19.6,53.5,19.6"/>
</g>
</svg>
