<?xml version="1.0" encoding="utf-8"?>
<!-- Generator: Adobe Illustrator 23.0.5, SVG Export Plug-In . SVG Version: 6.00 Build 0)  -->
<svg version="1.1" id="Layer_1" xmlns="http://www.w3.org/2000/svg" xmlns:xlink="http://www.w3.org/1999/xlink" x="0px" y="0px"
	 viewBox="0 0 93.4 93.4" style="enable-background:new 0 0 93.4 93.4;" xml:space="preserve">
<style type="text/css">
	.st0{clip-path:url(#SVGID_2_);fill:#09518C;}
	.st1{clip-path:url(#SVGID_2_);fill:#FFFFFF;}
	.st2{clip-path:url(#SVGID_2_);fill:#EB494B;}
</style>
<g>
	<defs>
		<rect id="SVGID_1_" y="0" width="93.4" height="93.4"/>
	</defs>
	<clipPath id="SVGID_2_">
		<use xlink:href="#SVGID_1_"  style="overflow:visible;"/>
	</clipPath>
	<path class="st0" d="M93.4,46.7c0,25.8-20.9,46.7-46.7,46.7S0,72.5,0,46.7C0,20.9,20.9,0,46.7,0S93.4,20.9,93.4,46.7"/>
	<path class="st1" d="M87,46.7C87,69,69,87,46.7,87S6.4,69,6.4,46.7s18-40.3,40.3-40.3S87,24.5,87,46.7"/>
	<path class="st0" d="M46.6,11.1L46.6,11.1c1.5,0,2.8,1.2,2.8,2.7v1.8c0,1.5-1.2,2.7-2.8,2.7c-1.5,0-2.7-1.2-2.7-2.7v-1.8
		C43.8,12.3,45,11.1,46.6,11.1"/>
	<path class="st0" d="M77.9,44.2h1.8c1.5,0,2.8,1.2,2.8,2.8c0,1.5-1.2,2.8-2.8,2.8h-1.8c-1.5,0-2.8-1.2-2.8-2.8
		C75.1,45.5,76.4,44.2,77.9,44.2"/>
	<path class="st0" d="M46.6,75.6L46.6,75.6c1.5,0,2.8,1.2,2.8,2.7v1.8c0,1.5-1.2,2.7-2.8,2.7c-1.5,0-2.7-1.2-2.7-2.7v-1.8
		C43.8,76.8,45,75.6,46.6,75.6"/>
	<path class="st0" d="M13.4,44.2h1.8c1.5,0,2.7,1.2,2.7,2.8c0,1.5-1.2,2.8-2.7,2.8h-1.8c-1.5,0-2.8-1.2-2.8-2.8
		C10.6,45.5,11.9,44.2,13.4,44.2"/>
	<path class="st2" d="M67.2,49.7H43.8V26.3c0-1.5,1.2-2.7,2.7-2.7c1.5,0,2.8,1.2,2.8,2.7v17.9h17.9c1.5,0,2.8,1.2,2.8,2.8
		C70,48.5,68.7,49.7,67.2,49.7"/>
</g>
</svg>
