<?xml version="1.0" encoding="utf-8"?>
<!-- Generator: Adobe Illustrator 23.0.5, SVG Export Plug-In . SVG Version: 6.00 Build 0)  -->
<svg version="1.1" id="Layer_1" xmlns="http://www.w3.org/2000/svg" xmlns:xlink="http://www.w3.org/1999/xlink" x="0px" y="0px"
	 viewBox="0 0 512 512" style="enable-background:new 0 0 512 512;" xml:space="preserve">
<style type="text/css">
	.st0{clip-path:url(#SVGID_2_);}
	.st1{clip-path:url(#SVGID_4_);fill:#F4F7FA;}
	.st2{clip-path:url(#SVGID_4_);fill:#FCF7EB;}
	.st3{clip-path:url(#SVGID_4_);fill:#FFD6D0;}
	.st4{clip-path:url(#SVGID_4_);fill:none;stroke:#CC8F8D;stroke-linecap:round;stroke-miterlimit:10;}
	.st5{clip-path:url(#SVGID_4_);fill:none;stroke:#FFD6D0;stroke-width:2;stroke-linecap:round;stroke-miterlimit:10;}
	.st6{clip-path:url(#SVGID_4_);fill:#1369B7;}
	.st7{clip-path:url(#SVGID_4_);fill:#1B2E34;}
	.st8{clip-path:url(#SVGID_4_);fill:#FAC8BF;}
	.st9{clip-path:url(#SVGID_4_);fill:#EDA19F;}
	.st10{clip-path:url(#SVGID_4_);fill:#007CFF;}
	.st11{clip-path:url(#SVGID_4_);fill:#FF4343;}
	.st12{clip-path:url(#SVGID_4_);fill:#375A64;}
	.st13{clip-path:url(#SVGID_4_);fill:#E82E2E;}
	.st14{clip-path:url(#SVGID_4_);fill:#FF6C6C;}
	.st15{clip-path:url(#SVGID_4_);fill:none;stroke:#904B57;stroke-width:2;stroke-linecap:round;stroke-miterlimit:10;}
	.st16{clip-path:url(#SVGID_4_);fill:none;stroke:#B35267;stroke-width:2;stroke-linecap:round;stroke-miterlimit:10;}
	.st17{clip-path:url(#SVGID_4_);fill:#363857;}
	.st18{clip-path:url(#SVGID_4_);fill:#B35267;}
	.st19{clip-path:url(#SVGID_4_);fill:#FFEDEF;}
	.st20{clip-path:url(#SVGID_4_);fill:#E6919D;}
	.st21{clip-path:url(#SVGID_4_);fill:none;stroke:#363857;stroke-miterlimit:10;}
	.st22{clip-path:url(#SVGID_4_);fill:#FFFFFF;}
	.st23{opacity:0.949;clip-path:url(#SVGID_4_);}
	.st24{clip-path:url(#SVGID_6_);fill:#12252B;}
	.st25{clip-path:url(#SVGID_6_);fill:#597375;}
	.st26{clip-path:url(#SVGID_6_);fill:#FAC8BF;}
	.st27{clip-path:url(#SVGID_4_);fill:#324B4F;}
	.st28{clip-path:url(#SVGID_4_);fill:none;stroke:#EDA19F;stroke-miterlimit:10;}
	.st29{clip-path:url(#SVGID_4_);fill:none;stroke:#1369B7;stroke-miterlimit:10;}
	.st30{clip-path:url(#SVGID_4_);fill:#12252B;}
	.st31{clip-path:url(#SVGID_4_);fill:#CED8E0;}
	.st32{clip-path:url(#SVGID_4_);fill:none;stroke:#1A2E35;stroke-width:0.75;stroke-miterlimit:10;}
	.st33{clip-path:url(#SVGID_4_);fill:none;stroke:#092254;stroke-linecap:round;stroke-miterlimit:10;}
	.st34{clip-path:url(#SVGID_4_);fill:#092254;}
	.st35{clip-path:url(#SVGID_4_);fill:#27416B;}
	.st36{clip-path:url(#SVGID_4_);fill:#FFC800;}
	.st37{clip-path:url(#SVGID_4_);fill:none;stroke:#FFFFFF;stroke-miterlimit:10;}
	.st38{clip-path:url(#SVGID_4_);fill:none;stroke:#FFFFFF;stroke-width:0.5;stroke-miterlimit:10;}
	.st39{clip-path:url(#SVGID_4_);fill:#1A2E35;}
	.st40{clip-path:url(#SVGID_4_);fill:#ECECEC;}
	.st41{clip-path:url(#SVGID_4_);fill:#5BA2F1;}
	.st42{clip-path:url(#SVGID_8_);fill:url(#SVGID_9_);}
	.st43{clip-path:url(#SVGID_11_);fill:url(#SVGID_12_);}
	.st44{clip-path:url(#SVGID_14_);fill:url(#SVGID_15_);}
	.st45{clip-path:url(#SVGID_17_);fill:url(#SVGID_18_);}
	.st46{clip-path:url(#SVGID_20_);fill:url(#SVGID_21_);}
	.st47{opacity:0.3;clip-path:url(#SVGID_23_);}
	.st48{clip-path:url(#SVGID_25_);}
	.st49{clip-path:url(#SVGID_27_);fill:url(#SVGID_28_);}
	.st50{clip-path:url(#SVGID_30_);fill:url(#SVGID_31_);}
	.st51{clip-path:url(#SVGID_33_);fill:url(#SVGID_34_);}
	.st52{clip-path:url(#SVGID_36_);fill:url(#SVGID_37_);}
	.st53{clip-path:url(#SVGID_39_);fill:url(#SVGID_40_);}
	.st54{clip-path:url(#SVGID_42_);fill:url(#SVGID_43_);}
	.st55{opacity:0.3;clip-path:url(#SVGID_45_);}
	.st56{clip-path:url(#SVGID_47_);}
	.st57{clip-path:url(#SVGID_49_);fill:url(#SVGID_50_);}
</style>
<g>
	<defs>
		<rect id="SVGID_1_" y="47.6" width="512" height="416.8"/>
	</defs>
	<clipPath id="SVGID_2_">
		<use xlink:href="#SVGID_1_"  style="overflow:visible;"/>
	</clipPath>
	<g class="st0">
		<defs>
			<rect id="SVGID_3_" y="47.6" width="512" height="416.8"/>
		</defs>
		<clipPath id="SVGID_4_">
			<use xlink:href="#SVGID_3_"  style="overflow:visible;"/>
		</clipPath>
		<path class="st1" d="M442.9,449.1c36.4-47.4,63.7-103.5,68.4-163c4.8-59.6-15.4-122.7-60.6-161.8
			c-45.2-39.1-116.5-48.6-166.1-15.3c-45.1,30.3-68.3,89.6-119,109.3c-25.5,9.9-54.2,8-80.5,15.4c-46.5,13-82.3,57.7-84.9,105.9
			c-2.6,48.2,28.1,96.5,75.4,111.9C192.8,448.8,310.1,446.3,442.9,449.1"/>
		<path class="st2" d="M233.8,116.6c-11.9,46.8-59.1,82.1-107.4,80.4c-25.5-0.9-52-12.6-64.7-34.7s-7-54.9,15.6-66.9
			c19.4-10.3,43.6-3.5,64.6-10c19.8-6.1,35.5-23.8,56.2-25.4c11.6-0.9,23.5,3.8,31.3,12.4C237.2,81.1,239.7,93.2,233.8,116.6"/>
		<path class="st3" d="M385.8,445.5c4.9-26.4,11.8-52.8,23.2-77.8c11.4-25,27.4-48.7,49-67.7c8.2-7.2,19.3-14.2,29.9-11.2
			c10.6,3,14.7,14.7,13.8,24.8c-1.6,17.6-13.5,33.4-25.9,47.5C449.5,391,419.1,417.7,385.8,445.5"/>
		<path class="st4" d="M489.7,298.7c-38.8,44.2-73,92.3-102,143.2"/>
		<path class="st4" d="M473.1,293.2c2.5,6.2,4.1,12.8,4.8,19.4c7.2-1.1,14.6-0.7,21.5,1.3"/>
		<path class="st4" d="M441.6,320.7c5.6,6.8,9.2,15.1,10.3,23.7c10.9-2.3,22.5-1.7,33,1.9"/>
		<path class="st4" d="M416.6,361.1c4.3,6.4,6.9,13.8,7.4,21.4c10.2-2.1,20.7-2.7,31.1-2"/>
		<path class="st4" d="M401.1,398.8c2.4,3.5,4.1,7.5,4.9,11.7c5.4-2.2,11.1-3.8,16.8-4.8"/>
		<path class="st3" d="M378,451.4c24.6-23.2,49.8-46.8,81.8-62.8c8.2-4.1,17.2-7.7,26.6-7.9c9.4-0.3,19.4,3.7,22.3,10.9
			c2.8,7-1.7,15.2-8.7,20.3c-7,5.1-16,7.9-24.7,10.6C443.5,432.1,411.7,441.8,378,451.4"/>
		<path class="st4" d="M501.9,393.8c-43.7,10.4-84.6,29.3-119.3,54.7"/>
		<path class="st4" d="M485.9,385.1c0.1,4.5-0.7,9-2.2,13.3c4.8,2.5,8.4,6.6,10,11.3"/>
		<path class="st4" d="M460.1,392.6c-0.5,5.2-1.8,10.4-3.7,15.3c4.6,3.1,8.3,7.4,10.6,12.1"/>
		<path class="st4" d="M430.1,408c0.8,4,0.7,8.1-0.1,12.1c5.1,1,9.8,3.8,12.7,7.6"/>
		<path class="st4" d="M406.9,426.8c0.3,1.4,0,4.5-1,6.9c4.5,0.2,8.8,2,11.9,4.8"/>
		<path class="st3" d="M382.1,451.4c21.9-56.1,41.9-113.3,60-171.5c4.2-13.3,8.1-29.1,2.2-41.1c-6.2-12.5-20.9-14-31.2-6.7
			c-10.2,7.3-16.6,21.1-21.2,34.8C371.5,328.3,378.6,397.5,382.1,451.4"/>
		<path class="st4" d="M430,236.5c-26.4,49.8-38.7,122.9-46.4,213.6"/>
		<path class="st4" d="M394.2,276c5.4,5.4,9.9,12.1,13.1,19.8c8.6-5.6,18.1-9,27.8-10.1"/>
		<path class="st4" d="M382.2,322c5.9,5,11.2,11,15.7,17.8c7.3-6.9,15.7-12,24.6-14.9"/>
		<path class="st4" d="M381.9,368.7c3.4,2.6,6.3,5.9,8.7,9.7c5.1-4.6,10.7-8.3,16.7-10.8"/>
		<path class="st4" d="M408.8,242.5c5.3,4.7,8.9,12.2,9.8,20.1c7.2-4.8,15.8-6.2,23.8-4"/>
		<path class="st5" d="M236.5,248.8c23.8,49.4,40,102.5,47.8,156.9"/>
		<path class="st3" d="M237,250.8c-10.6-2.4-19.5-10.2-22.8-20.1c-1-3-1.2-6.9,1.5-8.8c2.7-1.9,6.5-0.5,9.1,1.4
			C234,229.7,239.6,240.5,237,250.8"/>
		<path class="st3" d="M241.6,258.7c-2.4-9.7-2.3-20.1,0.4-29.8c0.4-1.4,0.8-2.7,1.7-3.9s2.1-2,3.6-2s2.7,0.9,3.5,2s1.2,2.6,1.4,4
			c0.9,5.3-0.1,10.7-1.9,15.8C248.3,249.8,245.5,254.4,241.6,258.7"/>
		<path class="st3" d="M249,273.9c-0.6-9.3,1.2-18.7,5.1-27.1c1.6-3.5,3.7-6.9,6.7-9.2c1.6-1.2,3.8-2.2,5.6-1.3
			c1.4,0.7,2.2,2.3,2.3,3.9c0.1,1.6-0.4,3.1-1,4.6C263.6,256,256.6,266.1,249,273.9"/>
		<path class="st3" d="M254.9,288c-0.9-11.1,5.3-22.4,15.1-27.7c2.1-1.1,4.8-2,6.8-0.7c1.6,1,2.2,3.2,1.9,5.1
			c-0.3,1.9-1.3,3.6-2.4,5.2C271,277.9,263.8,284.6,254.9,288"/>
		<path class="st3" d="M260.2,305.6c0.7-11.9,8.2-23.2,18.9-28.6c1.7-0.9,3.8-1.5,5.4-0.5c1.5,1,1.8,3.2,1.5,5
			c-0.6,4.2-3.2,7.8-5.9,11C274.8,298.6,268.4,303.8,260.2,305.6"/>
		<path class="st3" d="M265.9,320.1c2.9-11.4,11.5-21.2,22.3-25.7c1.8-0.7,3.9-1.3,5.6-0.5c1.8,0.8,2.7,2.9,2.6,4.8
			c0,1.9-0.9,3.8-1.9,5.4c-3.1,5-7.9,8.8-13.1,11.6C276.4,318.5,270.8,320.4,265.9,320.1"/>
		<path class="st3" d="M242.4,263.7c-5.4-8.4-14.8-14.1-24.8-15.2c-1.4-0.1-2.9-0.2-4.1,0.5c-2.3,1.2-2.8,4.6-1.6,6.9
			c1.6,3,5,4.5,8.3,5.4C226.4,263.1,232.9,264,242.4,263.7"/>
		<path class="st3" d="M250.9,279.4c-5-8.5-15.2-13.6-25-12.4c-2.4,0.3-4.8,1-6.6,2.6c-1.7,1.6-2.6,4.4-1.4,6.5
			c1.3,2.3,4.3,2.9,7,3.2C232.8,280.1,240.8,280.3,250.9,279.4"/>
		<path class="st3" d="M257.3,297.1c-6.8-7.8-17.7-11.9-28.1-10.5c-1.7,0.2-3.5,0.6-4.9,1.7c-1.4,1-2.3,2.8-1.9,4.5
			c0.3,1.4,1.6,2.5,3,3.1c1.4,0.5,2.9,0.6,4.4,0.7C238.7,297,247.6,297.4,257.3,297.1"/>
		<path class="st3" d="M263.9,315.7c-3.5-4.9-8.1-9.3-13.7-11.8c-5.6-2.5-12.2-2.9-17.7-0.4c-1.6,0.7-3.2,1.9-3.5,3.6
			c-0.3,1.7,0.9,3.4,2.4,4.2c1.5,0.8,3.3,1.1,5,1.2C243.2,313.4,250.1,314.2,263.9,315.7"/>
		<path class="st3" d="M268.1,330.5c-6.1-7.4-15.6-11.8-25.2-11.9c-2.5,0-5.2,0.3-7.2,1.8c-2,1.5-3.1,4.5-1.9,6.7
			c1.3,2.2,4.2,2.6,6.7,2.9C247,330.4,253.4,331,268.1,330.5"/>
		<path class="st3" d="M271.1,342.7c-6.6-6.1-16.6-7.1-25.5-5.8c-2.3,0.3-4.7,0.9-6.4,2.5c-1.7,1.6-2.1,4.7-0.4,6.2
			c1.3,1.1,3.2,1,4.9,0.9C251.8,345.8,259.8,345.2,271.1,342.7"/>
		<path class="st3" d="M275.4,357.3c-3.1-3.8-8-5.8-12.9-6.2c-4.9-0.4-9.8,0.5-14.4,2c-1.8,0.6-3.7,1.3-5,2.6
			c-1.4,1.3-2.1,3.5-1.3,5.2c1.1,2.5,4.5,2.7,7.2,2.5C256.6,362.7,264.2,360.7,275.4,357.3"/>
		<path class="st3" d="M278.9,372.9c-9-4.9-20.1-7.2-29.7-3.6c-2.4,0.9-5,2.7-4.8,5.3c0.1,1.6,1.3,2.9,2.8,3.6
			c1.4,0.7,3.1,0.8,4.7,0.8C259.9,379.1,267.8,376.9,278.9,372.9"/>
		<path class="st3" d="M280.5,386.9c-7.5-3.7-16.3-4.5-24.3-2.2c-2.2,0.6-4.5,1.6-6,3.3c-1.5,1.8-2,4.6-0.6,6.4
			c1.4,1.9,4.2,2.2,6.6,2.1C263.1,396.4,270,395.1,280.5,386.9"/>
		<path class="st3" d="M270.9,336.1c2-9.1,8.9-16.9,17.6-20.2c2.3-0.8,4.7-1.4,7.1-0.9c2.4,0.5,4.6,2.3,4.9,4.7
			c0.3,1.9-0.5,3.8-1.8,5.2c-1.3,1.4-3,2.3-4.6,3.2C287.7,331.5,281,334.2,270.9,336.1"/>
		<path class="st3" d="M274.3,353.3c3.3-11,12.5-20,23.6-23c1.4-0.4,3-0.6,4.1,0.2c1.7,1.2,1.4,3.7,0.6,5.6
			c-2,4.6-6.3,7.8-10.8,10.2C287.4,348.8,282.6,350.6,274.3,353.3"/>
		<path class="st3" d="M277.2,366c1.9-4.5,5.3-8.1,9.4-10.7c4.1-2.5,8.8-4,13.6-4.7c1.8-0.2,3.6-0.4,5.3,0.2
			c1.7,0.5,3.2,1.9,3.4,3.7c0.2,1.4-0.6,2.9-1.6,3.9c-1.1,1-2.4,1.6-3.7,2.2C296,363.6,287.9,364.7,277.2,366"/>
		<path class="st3" d="M280.5,381.4c6-9.3,15.8-16.9,26.8-17.3c2.8-0.1,6.2,0.7,7.1,3.3c0.6,1.7-0.2,3.6-1.4,4.8
			c-1.3,1.2-2.9,1.9-4.6,2.5C298.9,377.8,288,377.5,280.5,381.4"/>
		<path class="st5" d="M21.2,407.9c66.9-5.1,134.9,6.6,196.3,33.6"/>
		<path class="st3" d="M32.6,406.8c-8.5-5.9-20.9-5.5-29.1,0.9c-1.1,0.9-2.2,1.9-2.8,3.2c-0.6,1.3-0.7,2.9,0.1,4.1
			c1.2,1.8,3.6,2,5.7,1.9C16.2,416.6,25.2,412.4,32.6,406.8"/>
		<path class="st3" d="M49.2,406.8c-7.3,1.7-13.8,6.4-17.7,12.7c-0.8,1.4-1.6,2.8-1.8,4.4c-0.2,1.6,0.3,3.3,1.5,4.4
			c1.2,1.1,3.1,1.3,4.7,0.8c1.6-0.5,3-1.5,4.2-2.6C46.6,420.3,49.9,410.6,49.2,406.8"/>
		<path class="st3" d="M74.4,407.9c-11.1,2.5-20.5,11.4-23.7,22.4c-0.6,2.2-0.8,5.1,1.2,6.4c2.1,1.4,4.8-0.3,6.7-2.1
			C66.3,427.4,72,418.2,74.4,407.9"/>
		<path class="st3" d="M96.1,408.7c-10.2,4-18,12.4-24.1,21.5c-1.1,1.6-2.2,3.4-2.5,5.4s0.4,4.2,2.1,5.2c1.5,0.9,3.4,0.6,4.9-0.3
			c1.5-0.9,2.6-2.2,3.7-3.6C86.3,429.2,91.2,420.7,96.1,408.7"/>
		<path class="st3" d="M110.8,411c-9.3,3.3-16.4,12-17.8,21.7c-0.2,1.5-0.3,3.1,0.2,4.6c0.4,1.5,1.5,2.8,3,3.3
			c1.8,0.6,3.9-0.4,5.1-1.8c1.3-1.4,1.9-3.3,2.5-5.1C106.5,426,109.1,418.3,110.8,411"/>
		<path class="st3" d="M124.1,412.5c-3.2,4.1-6.5,8.3-8.7,13c-2.2,4.8-3.2,10.2-1.8,15.2c0.4,1.5,1.3,3.1,2.8,3.3
			c1.3,0.2,2.5-0.7,3.5-1.7c3.3-3.5,5.3-8.2,6.2-12.9C127.1,424.8,127,419.9,124.1,412.5"/>
		<path class="st3" d="M147.3,417.1c-3.9,1.6-7,4.8-9.2,8.3c-2.2,3.6-3.7,7.5-4.9,11.5c-0.5,1.6-1,3.3-0.9,4.9
			c0.1,1.7,0.9,3.4,2.4,4.2c1.8,0.9,4.1,0.2,5.5-1.2c1.4-1.4,2.2-3.4,2.8-5.3C145.1,432.9,146.1,426,147.3,417.1"/>
		<path class="st3" d="M41.3,405.7c-7.3-2.2-13.5-7.6-16.8-14.4c-0.4-0.9-0.8-1.8-0.7-2.8c0.2-1.6,1.9-2.7,3.5-3
			c3-0.6,6.2,1,8.2,3.3c2.1,2.3,3.2,5.2,4.1,8.2C40.6,399.9,41.4,402.9,41.3,405.7"/>
		<path class="st3" d="M62.7,407.5c-5.9-3.4-10.7-8.5-13.7-14.6c-0.7-1.4-1.3-2.8-1.4-4.3c-0.1-1.5,0.4-3.2,1.6-4.1
			c1.3-1.1,3.2-1.2,4.8-0.6c1.6,0.6,2.9,1.8,4,3C62.2,391.5,64.7,397.7,62.7,407.5"/>
		<path class="st3" d="M85.5,408c-8-4.7-13-14.1-12.4-23.4c0.1-1.2,0.4-2.7,1.5-3.2c0.8-0.4,1.9-0.2,2.7,0.4
			c0.8,0.6,1.3,1.4,1.7,2.2C82.5,390.1,85,396.8,85.5,408"/>
		<path class="st3" d="M105.9,409.6c-6.5-3.8-10.8-11.1-11-18.6c-0.1-2.5,0.6-5.3,2.8-6.5c1.6-0.8,3.5-0.5,5,0.5
			c1.5,0.9,2.5,2.4,3.4,3.9C109.8,395.2,111,402.9,105.9,409.6"/>
		<path class="st3" d="M122.3,413.2c-3.3-1.7-5.4-5.2-6.3-8.8c-0.9-3.6-0.8-7.4-0.5-11.1c0.1-2.2,0.3-4.4,1.4-6.3
			c1.1-1.9,3.3-3.3,5.4-2.8c2.2,0.5,3.5,2.9,4.2,5.1C128.9,397,128.2,405.7,122.3,413.2"/>
		<path class="st3" d="M140.6,416.2c-5.1-7.4-5.4-17.8-0.8-25.5c0.9-1.5,2.3-3.1,4.1-2.9c1.6,0.2,2.7,1.8,3.3,3.3
			C150.8,399.3,149,409.6,140.6,416.2"/>
		<path class="st6" d="M303.6,323.8l-5.9-20.1c0,0-15.8,6.8-20.9,17.3c-11.4,23.8-18.6,70.1-23.2,76.6c-4.6,6.5-61.4,14.2-61.4,14.2
			l5.8,29.3c0,0,69.5-5,78.8-13.2c12.6-11.1,27.8-59.5,27.8-59.5L303.6,323.8z"/>
		<path class="st7" d="M341.3,203.6c2-8.2,10.8-13.8,19.3-13.1c8.4,0.7,15.8,6.9,19.2,14.6c3.4,7.7,3,16.8,0.3,24.8
			c-1.9,5.4-4.8,11.2-2.7,16.5c1.5,4,5.5,6.4,9.4,8.2c3.9,1.7,8.1,3,11.3,5.9s4.9,7.9,2.6,11.4c-3.4,5.1-12.8,4.2-15,9.9
			c-1.1,2.9,0.4,6.2,0.3,9.3c-0.2,3.9-3.2,7.3-6.8,9c-3.6,1.7-7.6,2.1-11.5,2.2c-6.9,0.2-14.2-0.4-20.2-3.9c-6-3.5-10.4-10.5-9-17.3
			c1.2-5.6,6-10.7,4.3-16.2c-1.2-3.9-5.3-6-8.3-8.9c-6.3-6.1-7.2-16-4.7-24.4C332.3,223.5,338.2,216.5,341.3,203.6"/>
		<path class="st8" d="M349.9,289.3c-9.9,15.3-27.4,32.5-33.7,31.7c-5.2-0.7-10.4-7.9-10.4-20.7c0.7-0.3,1.4-0.7,2.1-1.2
			c1.5-1.2,2.9-2.9,3.7-5c0.2-0.5,0.4-1.1,0.5-1.6c0.8-3.6-0.2-7.7-2.4-10.1c-0.1-0.1-0.2-0.3-0.3-0.4c8.4-7.6,16.7-13,25.1-18.4
			c0.3,5,1.4,9.7,3.2,13.6c0.4,0.9,0.9,1.8,1.4,2.7C341.7,284.3,345.6,287.7,349.9,289.3"/>
		<path class="st9" d="M337.6,277.1c-6.2,8.5-16.8,22-29.8,21.8c1.5-1.2,2.9-2.9,3.7-5c0.2-0.5,0.4-1.1,0.5-1.6
			c0.8-3.6-0.2-7.7-2.4-10.1c-0.1-0.1-0.2-0.3-0.3-0.4c8.4-7.6,16.7-13,25.1-18.4C334.7,268.5,335.8,273.2,337.6,277.1"/>
		<path class="st10" d="M346.2,286.9c0,0-14.1,30.1-31,30.9c-9.6,0.5-8-20.3-8-20.3s-16.1,7.5-20.7,13.3c-5.3,6.6-12,47-11.4,57.5
			c1,19,11,31.4,11,41.7c0,10.3-7.5,35.1-7.5,35.1l102.2-0.3c0,0-5.4-22-6.4-45.3c-1.1-23.3,10.8-75.5,6.6-90.2
			C377.9,299,346.2,286.9,346.2,286.9"/>
		<path class="st6" d="M314.8,317.8c0,0,22.2-8.5,30.5-32.2c0,0,12.1,3.5,12.9,5.5c1.3,3.3-4.4,27.4-11.6,30.9
			C340.5,325.2,314.8,317.8,314.8,317.8"/>
		<path class="st6" d="M314.8,317.8c0,0-7.3-10.5-4.4-22.8c0,0-6.5,2.2-9.9,5.4c-5.1,4.6-14,22.9-11.5,24.7
			C290.7,326.3,314.8,317.8,314.8,317.8"/>
		<path class="st6" d="M313.5,325.2c1.7,0,3.1,1.4,3.1,3.1c0,1.7-1.4,3.1-3.1,3.1c-1.7,0-3.1-1.4-3.1-3.1
			C310.4,326.5,311.8,325.2,313.5,325.2"/>
		<path class="st6" d="M311.3,344c1.7,0,3.1,1.4,3.1,3.1c0,1.7-1.4,3.1-3.1,3.1c-1.7,0-3.1-1.4-3.1-3.1
			C308.2,345.3,309.6,344,311.3,344"/>
		<path class="st11" d="M275,233.2c7.2-1.3,14.5,6.1,16.3,16.3c1.8,10.3-2.6,19.6-9.8,20.9c-7.2,1.3-14.5-6.1-16.3-16.3
			C263.4,243.8,267.8,234.5,275,233.2"/>
		<path class="st8" d="M352,244.8c3.2-25.5-11.5-48.5-32.9-51.2c-21.4-2.7-44.5,15.5-44.5,41.2c0,34.7,13.8,56.9,34.6,52.8
			C329,283.7,348.8,270.3,352,244.8"/>
		<path class="st9" d="M348,241.5c-6.9-1.2-13.2-5.7-16.5-11.9c0.7,4-1,8.3-4.2,10.8c-1.2,0.9-2.9,1.6-4.3,1
			c-1.1-0.4-1.8-1.5-2.3-2.6c-1.8-3.8-2.3-8.2-1.4-12.3c-3.1,7.1-9.8,12.5-17.3,13.9c-2.1,0.4-4.5,0.4-5.9-1.1
			c-1.2-1.3-1.3-3.3-0.7-4.9c0.6-1.6,1.7-3,2.9-4.3c-7.1,5-16,7.2-24.6,6c2.9-11.7,10-22.6,20.3-28.9c10.3-6.3,23.8-7.6,34.7-2.3
			c10.9,5.3,18.4,17.4,17.2,29.4"/>
		<path class="st7" d="M349.1,256.6c-0.7-4.2-2.1-9.1-3.9-14.2c-6.5-4.8-11.4-11.8-14.9-19.2c0,0.3,0,0.5,0,0.8
			c-0.2,5.9-4.3,17.2-6.2,16c-3-1.9-2.5-22.4-3.8-33.5c0.9,6.9-0.1,14.1-3.4,20.2c-3.3,6.1-9.2,10.9-16,12.2
			c-0.9,0.2-1.9,0.2-2.6-0.4c-0.8-0.8-0.4-2.1,0.1-3.2c3.4-8,6.8-16,10.2-24.1c-2.7,6.2-5.7,12.3-10.9,16.3
			c-5.8,4.5-13.6,6.5-22.3,6.4c-0.8,5.2-0.6,9.9-0.1,13.8c-2.2-4.1-3.7-8.5-4.3-13c-1.8-11.5,1.4-23.6,8.3-32.8
			c9.7-12.7,27-19.2,42.6-15.9c3.4,0.2,6.6,0.8,9.7,1.7c12.5,3.8,22.7,13.2,27.1,25.1C364.1,227.6,360.2,245.4,349.1,256.6"/>
		<path class="st12" d="M331.6,187.7c-13.4-0.9-27,1.9-38.2,9.2c-12.8,8.3-21.8,22.7-22.5,37.8c-1.8-11.5,1.4-23.6,8.3-32.8
			c9.7-12.7,27-19.2,42.6-15.9C325.2,186.2,328.5,186.8,331.6,187.7"/>
		<path class="st13" d="M343.9,240.1c0,0,2.4-27.5-13.5-40.1c-19.2-15.2-45-4.6-45-4.6s-1.6-3.6,14.3-8.6c7.8-2.4,26.7-4.8,39.7,7.3
			c15.5,14.4,14.5,39.5,14.5,39.5L343.9,240.1z"/>
		<path class="st11" d="M336.9,249c1.4-10.3,8.3-18,15.6-17c7.2,0.9,12,10.1,10.6,20.4c-1.4,10.3-8.3,18-15.6,17
			C340.3,268.5,335.5,259.3,336.9,249"/>
		<path class="st14" d="M346.3,250.2c1.2-9.2,6-16.2,10.7-15.6c4.7,0.6,7.5,8.6,6.3,17.8c-1.2,9.2-6,16.2-10.7,15.6
			C347.9,267.4,345.1,259.4,346.3,250.2"/>
		<path class="st15" d="M321.5,243.7c-4.3-4.3-10.4-4.7-14.3-3"/>
		<path class="st15" d="M290.9,241.3c-4.5-3.4-10.3-2.2-12.8,0.8"/>
		<path class="st16" d="M294.6,253c-0.1,3.4,0.2,6.8,1.1,10.1"/>
		<path class="st17" d="M312.4,250c1.1,0,2,1.3,2,3c0,1.7-0.9,3-2,3c-1.1,0-2-1.3-2-3C310.4,251.3,311.3,250,312.4,250"/>
		<path class="st17" d="M284.5,250c1.1,0,2,1.3,2,3c0,1.7-0.9,3-2,3c-1.1,0-2-1.3-2-3C282.5,251.3,283.4,250,284.5,250"/>
		<path class="st18" d="M310.5,276c-3.7,1.1-6.3,0-8-1.8c-2.3-2.3-3.1-5.5-3.1-5.5l0.5-0.1l14.8-4.4c0,0,0.4,0.8,0.7,2
			c0.1,0.4,0.2,1,0.3,1.5C316.1,270.6,315.6,274.5,310.5,276"/>
		<path class="st19" d="M315.3,266.2c-3.9,1.5-12.2,3.7-13.4,3.7c-0.8,0-1.5-0.7-2.1-1.3l14.8-4.4C314.7,264.2,315,265,315.3,266.2"
			/>
		<path class="st20" d="M310.5,276c-3.7,1.1-6.3,0-8-1.8c4.4-5,9.8-6.3,13.1-6.6C316.1,270.6,315.6,274.5,310.5,276"/>
		<path class="st21" d="M298,290.5c0,0-7.1,0.1-13.5-5.5c-6.2-5.4-6.9-12-6.7-14.8"/>
		<path class="st17" d="M300.4,286.8c3.4,0,6.1,1.7,6.1,3.7s-2.7,3.7-6.1,3.7c-3.4,0-6.1-1.7-6.1-3.7S297,286.8,300.4,286.8"/>
		<polygon class="st7" points="15,456.3 15,463.6 409.8,464.4 497,445.6 497,438.6 		"/>
		<polygon class="st22" points="157.5,438.8 497,438.6 409.1,456.4 15,456.3 		"/>
		<g class="st23">
			<g>
				<defs>
					<rect id="SVGID_5_" x="144" y="408.8" width="54.7" height="36.2"/>
				</defs>
				<clipPath id="SVGID_6_">
					<use xlink:href="#SVGID_5_"  style="overflow:visible;"/>
				</clipPath>
				<path class="st24" d="M194.5,440.7c-7.4,0.9-15.6,1.5-24.4,1.8c-8.4,0.3-17.3,0.4-26.2,0.4c2.1-7.3,6.9-14,13.4-17.9
					c2-1.2,4.2-2.2,6.5-2.8c5.1-1.4,10.6-1.4,15.5,0.4C186.6,425.3,193.1,433.1,194.5,440.7"/>
				<path class="st25" d="M170.2,442.4c-8.4,0.3-17.3,0.4-26.2,0.4c2.1-7.3,6.9-14,13.4-17.9c2-1.2,4.2-2.2,6.5-2.8
					c2.9,2.1,4.9,5.5,5.8,9C170.7,434.8,170.6,438.7,170.2,442.4"/>
				<path class="st26" d="M198.7,434c-4.4,2.1-8,2.6-13.5,2.2c-1.9,2.5-11.5,10.5-13.9,8.4c-1.9-1.6,5-8.4,6.4-11
					c1-1.9,1.8-4,1.9-6.2c-2.3-2.8-7-5.5-10-4.7c-4.7,1.2-10.5,8-16.3,13c-0.8,0.7-1.6,1.4-2.6,1.7c-1,0.3-2.1,0.1-2.8-0.8
					c-1.1-1.5-0.2-3.9,0.8-5.6c5.4-8.9,12.3-16.5,20.3-22.3c9.9,1.2,16.7,3.7,25.6,7.7C196.9,421.7,198.8,428.7,198.7,434"/>
			</g>
		</g>
		<polygon class="st7" points="181.3,439.7 181.3,445.2 337.9,445.2 372.5,438.4 372.5,435 		"/>
		<polygon class="st27" points="237.8,435 372.5,435 337.6,439.8 181.3,439.7 		"/>
		<path class="st6" d="M363.9,404.9c0,0-10.8,10.7-0.2,28.1c0,0,9.3-1.8,10.1-12.7C374.4,413.3,363.9,404.9,363.9,404.9"/>
		<path class="st8" d="M370.3,422.5c-0.4,0.6-4.9,1.3-8.1,1.6c-0.8,0.1-4,0-4.5,0c0.5,3.7-1.5,6.2-3.5,6.7c-2.5,0.6-5.1-0.8-6.8-2.4
			c-2.5,1.9-4.8,2.4-7.1,1.2c-2.3-1.2-4.3-4.6-4.5-8c-0.5,2.3-0.9,4.2-0.6,5.3c0.4,1.5,5.9,9.1,1.9,10.4c-1.8,0.6-7.9-5.9-8.6-8.8
			c-0.9-3.6-0.7-7.8,1.2-13.2c-3.5,4.2-4.7,6.2-5.1,8c-1,4.5-0.2,12.5-3.4,12.2c-3.8,0-4.5-11.4-2.9-16.3
			c1.1-3.5,8.2-14.6,11.9-15.6c3.5-0.9,22.5-0.1,26.1,0.4c1.8,0.3,3.6,0.5,5.2,0.6c4.5,0.4,8,0.4,8.2,0.5
			C372,407.5,371.2,420.6,370.3,422.5"/>
		<path class="st9" d="M370.3,422.5c-0.4,0.6-4.9,1.3-8.1,1.6c0.8-1.9,1.3-3.9,1.6-5.9c0.6-4.6-0.2-9.4-2.2-13.5
			c4.5,0.4,8,0.4,8.2,0.5C372,407.5,371.2,420.6,370.3,422.5"/>
		<path class="st28" d="M342.5,414.6c0.3,5.1,1.5,8.5,4.3,12.8"/>
		<path class="st28" d="M357.2,423.9c-0.8-0.2-1.8-0.9-2.4-1.5"/>
		<path class="st28" d="M354.7,420.2c0.2,1.5,0,3-0.7,4.4"/>
		<path class="st10" d="M391.6,317.5c-3-6.8-12.1-13.2-20.6-17.9c-0.3,0.2-0.5,0.3-0.8,0.5c-4.8,3.1-8.8,7.4-12.6,11.7
			c-0.2,0.2-0.3,0.4-0.5,0.6c2.3,15.5,5.3,35.1,6.4,42.4c2.3,15.3,19.2,44.8,19,47.9c-0.2,3.1-19,1.5-19,1.5
			c7.5,10.4,5.8,21.5-0.1,28.5c0,0,48.5,2.8,54.3-4.9C423.6,420.2,395.9,327.5,391.6,317.5"/>
		<path class="st29" d="M371.3,311.1c-7.6,23.6-6.6,49.9,3,72.8"/>
		<path class="st29" d="M354.6,351.3c3,10.9,8.9,20.3,17.6,27.5"/>
		<path class="st29" d="M364.6,404.1c2.8,0.6,5.6,0.9,8.4,0.8"/>
		<path class="st29" d="M377.8,433.2c-5.2,0-8.6-0.2-13.6-0.4"/>
		<polygon class="st7" points="52.5,421.4 46.2,278.7 241.8,278.7 248,421.4 		"/>
		<polygon class="st27" points="241.3,421.4 235.1,278.7 241.8,278.7 248,421.4 		"/>
		<polygon class="st30" points="108.8,449.7 127.1,373.1 162.5,373.1 144.3,449.7 		"/>
		<polygon class="st27" points="142,449.7 160.2,373.1 162.5,373.1 144.3,449.7 		"/>
		<rect x="92" y="441.7" class="st30" width="72.3" height="8"/>
		<rect x="159.6" y="441.7" class="st27" width="4.7" height="8"/>
		<path class="st31" d="M374.9,227.9v-19.8c0-8.6,7-15.6,15.6-15.6h79.2c8.6,0,15.6,7,15.6,15.6v19.8c0,8.6-7,15.6-15.6,15.6h-79.2
			C381.9,243.5,374.9,236.5,374.9,227.9"/>
		<polygon class="st31" points="423,235.3 419.4,269.2 451.3,235.9 		"/>
		<path class="st22" d="M398.6,214.6c3.2,0,5.9,2.5,5.9,5.5c0,3.1-2.6,5.5-5.9,5.5c-3.2,0-5.9-2.5-5.9-5.5
			C392.7,217.1,395.3,214.6,398.6,214.6"/>
		<path class="st22" d="M430.5,214.6c3.2,0,5.9,2.5,5.9,5.5c0,3.1-2.6,5.5-5.9,5.5c-3.2,0-5.9-2.5-5.9-5.5
			C424.6,217.1,427.3,214.6,430.5,214.6"/>
		<path class="st22" d="M461.6,214.6c3.2,0,5.9,2.5,5.9,5.5c0,3.1-2.6,5.5-5.9,5.5c-3.2,0-5.9-2.5-5.9-5.5
			C455.7,217.1,458.3,214.6,461.6,214.6"/>
		<path class="st31" d="M240.5,115.7c0,25.8,20.8,46.8,46.4,46.8c25.6,0,46.4-20.9,46.4-46.8c0-25.8-20.8-46.8-46.4-46.8
			C261.2,68.9,240.5,89.9,240.5,115.7"/>
		<path class="st22" d="M243.6,119.4c0,25.8,20.8,46.8,46.4,46.8s46.4-20.9,46.4-46.8c0-25.8-20.8-46.8-46.4-46.8
			S243.6,93.6,243.6,119.4"/>
		<polygon class="st22" points="296.9,157.4 313.8,176.2 313.6,144.7 		"/>
		<path class="st32" d="M323.5,108.3c0,0,4.8-16.4,13.2-19.1c8.1-2.6,17.4,5,23.7,2.9c6.3-2.1,7.9-11.9,4.5-16.3"/>
		<path class="st33" d="M364.8,76.3c0,0-2.3,0.1-4.6-1.1c-2.3-1.2-6.2-5.6-6.2-5.6"/>
		<path class="st33" d="M365.3,75.6c0,0,0.4-2.9,0.1-4.9c-0.3-1.9-4.5-7.1-4.5-7.1"/>
		<path class="st33" d="M365,76.1c0,0-4.5-2.6-5.6-3.8c-1.1-1.2-5.1-5.7-5.1-5.7"/>
		<path class="st33" d="M365.2,75.9c0,0-2.5-5.7-3.5-6.8c-1-1.1-3.6-4.8-3.6-4.8"/>
		<polygon class="st34" points="298,129.7 242.2,126 291.5,95.1 347.2,105.9 		"/>
		<path class="st35" d="M271.6,139.7l-4.9-15.7c0,0,14.9-10.6,27.5-13c12.6-2.4,29.2,0.9,29.2,0.9l2.2,17.5c0,0-19-0.1-29.1,2.1
			C286.3,133.7,271.6,139.7,271.6,139.7"/>
		<path class="st36" d="M188.2,87.8c3,22.3-9.9,29.8-10.7,36.2c-0.4,3.4-0.1,11.8-0.1,11.8l-22.6,5.8c0,0-3.7-7.5-5.7-10.3
			c-3.8-5.2-18.7-5.6-26.8-26.6c-5.3-13.8-0.4-39,23.6-45.1C169.7,53.4,186.2,73.1,188.2,87.8"/>
		<line class="st37" x1="160.9" y1="141.6" x2="145" y2="107.4"/>
		<line class="st37" x1="172" y1="138.8" x2="169.5" y2="101.1"/>
		<path class="st38" d="M145.9,108.6c0,0,3.1,6.7,6.3,5.9c3.2-0.8,3.5-12.1-0.7-11c-4.2,1.1,3.4,13.8,8.7,12.4
			c5.3-1.4,4.8-15.9,1.1-15c-3.7,1,0.3,11.6,5.4,10.3c2.7-0.7,2.9-8.3,2.9-8.3"/>
		
			<rect x="152.1" y="137.7" transform="matrix(0.9687 -0.2483 0.2483 0.9687 -29.669 45.7554)" class="st12" width="28.8" height="5.6"/>
		
			<rect x="153.8" y="144" transform="matrix(0.9687 -0.2483 0.2483 0.9687 -31.1917 46.3573)" class="st12" width="28.8" height="5.6"/>
		
			<rect x="155.4" y="150.3" transform="matrix(0.9687 -0.2483 0.2483 0.9687 -32.7146 46.9592)" class="st12" width="28.8" height="5.6"/>
		<path class="st39" d="M144.4,55.8c-0.8-1.2-1.3-2.6-1.7-3.9c-0.4-1.4-0.6-2.8-0.6-4.2c0.8,1.2,1.3,2.6,1.7,3.9
			C144.2,52.9,144.5,54.3,144.4,55.8"/>
		<path class="st39" d="M127,65.8c-1.3-0.7-2.4-1.6-3.4-2.6c-1-1-1.9-2.1-2.6-3.4c1.3,0.7,2.4,1.6,3.4,2.6
			C125.4,63.4,126.3,64.5,127,65.8"/>
		<path class="st39" d="M117,83.2c-1.5,0.1-2.9-0.2-4.2-0.5c-1.4-0.4-2.7-0.8-4-1.6c1.5-0.1,2.9,0.2,4.2,0.5
			C114.4,81.9,115.7,82.4,117,83.2"/>
		<path class="st39" d="M116.9,103.3c-1.2,0.8-2.6,1.3-3.9,1.7c-1.4,0.4-2.8,0.6-4.2,0.6c1.2-0.8,2.6-1.3,3.9-1.7
			C114.1,103.5,115.5,103.2,116.9,103.3"/>
		<path class="st39" d="M127,120.7c-0.7,1.3-1.6,2.4-2.6,3.4c-1,1-2.1,1.9-3.4,2.6c0.7-1.3,1.6-2.4,2.6-3.4
			C124.6,122.3,125.7,121.4,127,120.7"/>
		<path class="st39" d="M191.9,103.3c1.5-0.1,2.9,0.2,4.2,0.5c1.4,0.4,2.7,0.8,4,1.6c-1.5,0.1-2.9-0.2-4.2-0.5
			C194.5,104.6,193.2,104.1,191.9,103.3"/>
		<path class="st39" d="M191.9,83.2c1.2-0.8,2.6-1.3,3.9-1.7c1.4-0.4,2.8-0.6,4.2-0.6c-1.2,0.8-2.6,1.3-3.9,1.7
			C194.8,83,193.4,83.3,191.9,83.2"/>
		<path class="st39" d="M181.9,65.8c0.7-1.3,1.6-2.4,2.6-3.4c1-1,2.1-1.9,3.4-2.6c-0.7,1.3-1.6,2.4-2.6,3.4
			C184.3,64.2,183.2,65.2,181.9,65.8"/>
		<path class="st39" d="M164.5,55.8c-0.1-1.5,0.2-2.9,0.5-4.2c0.4-1.4,0.8-2.7,1.6-4c0.1,1.5-0.2,2.9-0.5,4.2
			C165.8,53.2,165.3,54.5,164.5,55.8"/>
		<path class="st12" d="M85.7,211.9l1.3,26.6l-16.3,21.1c-6-4.6-10-11.7-10.4-19.8C59.7,225.2,71,212.6,85.7,211.9"/>
		<path class="st40" d="M119.3,239.6c0.3,5.7-1.2,11-4,15.5c-4.5,7.1-12.2,12-21.3,12.5c-6.6,0.3-12.7-1.8-17.6-5.5L92.6,241
			l-1.3-26.6c9.9-0.5,18.8,4.5,23.8,12.2C117.5,230.4,119,234.8,119.3,239.6"/>
		<path class="st41" d="M119.3,239.6c0.3,5.7-1.2,11-4,15.5c-4.5,7.1-12.2,12-21.3,12.5c-6.6,0.3-12.7-1.8-17.6-5.5L92.6,241
			l-1.3-26.6c9.9-0.5,18.8,4.5,23.8,12.2C117.5,230.4,119,234.8,119.3,239.6"/>
	</g>
	<g class="st0">
		<defs>
			<path id="SVGID_7_" d="M415.5,120.4c0,21.8,17.8,40.1,38.9,40.7c20.3,0.6,36.2-15.3,36.2-35.7c0-20.3-15.9-38.4-36.2-40.5
				c-1.3-0.1-2.6-0.2-3.9-0.2C431.1,84.7,415.5,99.9,415.5,120.4"/>
		</defs>
		<clipPath id="SVGID_8_">
			<use xlink:href="#SVGID_7_"  style="overflow:visible;"/>
		</clipPath>
		
			<linearGradient id="SVGID_9_" gradientUnits="userSpaceOnUse" x1="31.8188" y1="437.7583" x2="32.9642" y2="437.7583" gradientTransform="matrix(-38.213 12.2637 12.2637 38.213 -3712.4263 -16990.9746)">
			<stop  offset="0" style="stop-color:#FCB148"/>
			<stop  offset="5.215653e-02" style="stop-color:#FDBA46"/>
			<stop  offset="0.1432" style="stop-color:#FFC244"/>
			<stop  offset="0.3183" style="stop-color:#FFC444"/>
			<stop  offset="0.4843" style="stop-color:#FDB946"/>
			<stop  offset="0.7729" style="stop-color:#F99D4D"/>
			<stop  offset="0.8658" style="stop-color:#F8924F"/>
			<stop  offset="1" style="stop-color:#F8924F"/>
		</linearGradient>
		<polygon class="st42" points="512.9,154.5 422.5,183.5 393.1,91.9 483.5,62.8 		"/>
	</g>
	<g class="st0">
		<defs>
			<path id="SVGID_10_" d="M420.9,118.6c0,21.8,17.8,40.1,38.9,40.7c20.3,0.6,36.2-15.3,36.2-35.7c0-20.3-15.9-38.4-36.2-40.5
				c-1.3-0.1-2.6-0.2-3.9-0.2C436.6,82.9,420.9,98.1,420.9,118.6"/>
		</defs>
		<clipPath id="SVGID_11_">
			<use xlink:href="#SVGID_10_"  style="overflow:visible;"/>
		</clipPath>
		
			<linearGradient id="SVGID_12_" gradientUnits="userSpaceOnUse" x1="32.1173" y1="438.161" x2="33.2627" y2="438.161" gradientTransform="matrix(-34.1142 75.2622 75.2622 34.1142 -31405.6582 -17281.2285)">
			<stop  offset="0" style="stop-color:#FFDB44"/>
			<stop  offset="1" style="stop-color:#FEEF06"/>
		</linearGradient>
		<polygon class="st43" points="525,96.1 483.2,188.2 392,146.8 433.7,54.7 		"/>
	</g>
	<g class="st0">
		<defs>
			<path id="SVGID_13_" d="M422.8,118.7c0,20.8,16.9,38.2,37,38.9c19.4,0.6,34.6-14.6,34.6-34s-15.2-36.7-34.6-38.7
				c-1.2-0.1-2.5-0.2-3.7-0.2C437.7,84.7,422.8,99.2,422.8,118.7"/>
		</defs>
		<clipPath id="SVGID_14_">
			<use xlink:href="#SVGID_13_"  style="overflow:visible;"/>
		</clipPath>
		
			<linearGradient id="SVGID_15_" gradientUnits="userSpaceOnUse" x1="32.6437" y1="437.1865" x2="33.7892" y2="437.1865" gradientTransform="matrix(-6.5824 -35.9594 -35.9594 6.5824 16404.1445 -1529.4174)">
			<stop  offset="0" style="stop-color:#FCB148"/>
			<stop  offset="5.215653e-02" style="stop-color:#FDBA46"/>
			<stop  offset="0.1432" style="stop-color:#FFC244"/>
			<stop  offset="0.3183" style="stop-color:#FFC444"/>
			<stop  offset="0.4843" style="stop-color:#FDB946"/>
			<stop  offset="0.7729" style="stop-color:#F99D4D"/>
			<stop  offset="0.8658" style="stop-color:#F8924F"/>
			<stop  offset="1" style="stop-color:#F8924F"/>
		</linearGradient>
		<polygon class="st44" points="425.1,170.9 409.8,87.1 492.1,72 507.4,155.8 		"/>
	</g>
	<g class="st0">
		<defs>
			<path id="SVGID_16_" d="M424.1,118.8c0,20.1,16.3,36.9,35.7,37.5c18.7,0.6,33.4-14.1,33.4-32.9c0-18.8-14.7-35.5-33.4-37.4
				c-1.2-0.1-2.3-0.2-3.5-0.2C438.5,85.9,424.1,100,424.1,118.8"/>
		</defs>
		<clipPath id="SVGID_17_">
			<use xlink:href="#SVGID_16_"  style="overflow:visible;"/>
		</clipPath>
		
			<linearGradient id="SVGID_18_" gradientUnits="userSpaceOnUse" x1="32.3975" y1="438.44" x2="33.5429" y2="438.44" gradientTransform="matrix(27.1269 57.5853 57.5853 -27.1269 -25674.291 10135.7559)">
			<stop  offset="0" style="stop-color:#FCB148"/>
			<stop  offset="5.215653e-02" style="stop-color:#FDBA46"/>
			<stop  offset="0.1432" style="stop-color:#FFC244"/>
			<stop  offset="0.3183" style="stop-color:#FFC444"/>
			<stop  offset="0.4843" style="stop-color:#FDB946"/>
			<stop  offset="0.7729" style="stop-color:#F99D4D"/>
			<stop  offset="0.8658" style="stop-color:#F8924F"/>
			<stop  offset="1" style="stop-color:#F8924F"/>
		</linearGradient>
		<polygon class="st45" points="480.7,59.3 520.7,144.1 436.7,183.6 396.7,98.8 		"/>
	</g>
	<g class="st0">
		<defs>
			<path id="SVGID_19_" d="M461,135.7v-10.1c1.8,0.6,3.1,1.3,4,2.2c0.8,0.9,1.2,2,1.2,3.3c0,1.5-0.4,2.6-1.3,3.4
				C464,135.3,462.7,135.7,461,135.7C461,135.7,461,135.7,461,135.7 M454.1,112.9c-0.8-0.8-1.2-1.8-1.2-3c0-1.2,0.4-2.2,1.3-3
				c0.9-0.7,2.1-1.2,3.6-1.3v9.1C456.2,114.3,454.9,113.7,454.1,112.9 M457.8,94.2v3.5c-4.9,0-8.7,1.1-11.3,3.2
				c-2.7,2.1-4,5.2-4,9.1c0,3.8,1.2,6.9,3.7,9.3c2.5,2.4,6.2,4.3,11.2,5.5l0,11c-2.2-0.2-4.3-0.5-6.5-1.1c-1.4-0.4-2.7-0.8-4.1-1.3
				c-1.1-0.5-2.4,0.2-2.5,1.5l-0.5,5.6c-0.1,0.9,0.5,1.8,1.4,2.1c1.5,0.4,3,0.8,4.6,1.1c2.1,0.4,4.3,0.6,6.7,0.7l0.8,0v3.8
				c0,1,0.8,1.9,1.8,1.9l0,0c1,0,1.8-0.8,1.8-1.8v-3.8c5-0.3,8.8-1.6,11.5-4.1c2.7-2.4,4.1-5.6,4.1-9.5c0-3.7-1.2-6.7-3.7-9.2
				c-2.5-2.5-6.3-4.4-11.5-5.9v-9.9l0.5,0c1.9,0.2,3.8,0.5,5.6,1c1,0.3,2,0.7,2.9,1.1c1.1,0.5,2.2-0.2,2.3-1.3l0.4-4.3
				c0.1-0.9-0.5-1.8-1.4-2.1c-1.5-0.5-2.9-0.9-4.4-1.2c-2-0.5-4-0.8-6-1v-3.5c0-1-0.8-1.9-1.8-2c-0.1,0-0.1,0-0.2,0
				C458.5,92.5,457.8,93.2,457.8,94.2"/>
		</defs>
		<clipPath id="SVGID_20_">
			<use xlink:href="#SVGID_19_"  style="overflow:visible;"/>
		</clipPath>
		
			<linearGradient id="SVGID_21_" gradientUnits="userSpaceOnUse" x1="32.2422" y1="438.5335" x2="33.3876" y2="438.5335" gradientTransform="matrix(13.6404 51.1217 51.1217 -13.6404 -22406.2637 4426.8188)">
			<stop  offset="0" style="stop-color:#FFDB44"/>
			<stop  offset="1" style="stop-color:#FEEF06"/>
		</linearGradient>
		<polygon class="st46" points="474.3,84 490.9,146.1 444.8,158.5 428.2,96.3 		"/>
	</g>
	<g class="st0">
		<defs>
			<rect id="SVGID_22_" y="47.6" width="512" height="416.8"/>
		</defs>
		<clipPath id="SVGID_23_">
			<use xlink:href="#SVGID_22_"  style="overflow:visible;"/>
		</clipPath>
		<g class="st47">
			<g>
				<defs>
					<rect id="SVGID_24_" x="424.1" y="86.1" width="41.3" height="70.3"/>
				</defs>
				<clipPath id="SVGID_25_">
					<use xlink:href="#SVGID_24_"  style="overflow:visible;"/>
				</clipPath>
				<g class="st48">
					<defs>
						<path id="SVGID_26_" d="M453.8,128.1c1.1-11.2,11.4-15.9,10-26.1c-0.8-6.3-5.6-11.7-11-15.8c-16.2,1.7-28.8,15.1-28.8,32.7
							c0,20.1,16.3,36.9,35.7,37.5c1.9,0.1,3.7,0,5.5-0.3C457.6,148.4,452.8,137.7,453.8,128.1"/>
					</defs>
					<clipPath id="SVGID_27_">
						<use xlink:href="#SVGID_26_"  style="overflow:visible;"/>
					</clipPath>
					
						<linearGradient id="SVGID_28_" gradientUnits="userSpaceOnUse" x1="32.3972" y1="438.3822" x2="33.5426" y2="438.3822" gradientTransform="matrix(27.0722 57.4692 57.4692 -27.0722 -25629.6328 10119.2959)">
						<stop  offset="0" style="stop-color:#FCB148"/>
						<stop  offset="5.215653e-02" style="stop-color:#FDBA46"/>
						<stop  offset="0.1432" style="stop-color:#FFC244"/>
						<stop  offset="0.3183" style="stop-color:#FFC444"/>
						<stop  offset="0.4843" style="stop-color:#FDB946"/>
						<stop  offset="0.7729" style="stop-color:#F99D4D"/>
						<stop  offset="0.8658" style="stop-color:#F8924F"/>
						<stop  offset="1" style="stop-color:#F8924F"/>
					</linearGradient>
					<polygon class="st49" points="457.9,70.2 492.5,143.6 431.6,172.3 397,98.9 					"/>
				</g>
			</g>
		</g>
	</g>
	<g class="st0">
		<defs>
			<path id="SVGID_29_" d="M377.9,171.6c0,15.5,12.6,28.4,27.6,28.9c14.4,0.4,25.6-10.9,25.6-25.3c0-14.4-11.3-27.2-25.6-28.7
				c-0.9-0.1-1.9-0.1-2.8-0.1C389,146.3,377.9,157.1,377.9,171.6"/>
		</defs>
		<clipPath id="SVGID_30_">
			<use xlink:href="#SVGID_29_"  style="overflow:visible;"/>
		</clipPath>
		
			<linearGradient id="SVGID_31_" gradientUnits="userSpaceOnUse" x1="31.7972" y1="437.8203" x2="32.9426" y2="437.8203" gradientTransform="matrix(-27.0922 8.6947 8.6947 27.0922 -2549.8069 -11961.4863)">
			<stop  offset="0" style="stop-color:#FCB148"/>
			<stop  offset="5.215653e-02" style="stop-color:#FDBA46"/>
			<stop  offset="0.1432" style="stop-color:#FFC244"/>
			<stop  offset="0.3183" style="stop-color:#FFC444"/>
			<stop  offset="0.4843" style="stop-color:#FDB946"/>
			<stop  offset="0.7729" style="stop-color:#F99D4D"/>
			<stop  offset="0.8658" style="stop-color:#F8924F"/>
			<stop  offset="1" style="stop-color:#F8924F"/>
		</linearGradient>
		<polygon class="st50" points="447,195.8 382.9,216.4 362,151.4 426.1,130.8 		"/>
	</g>
	<g class="st0">
		<defs>
			<path id="SVGID_32_" d="M381.8,170.3c0,15.5,12.6,28.4,27.6,28.9c14.4,0.4,25.6-10.9,25.6-25.3c0-14.4-11.3-27.2-25.6-28.7
				c-0.9-0.1-1.9-0.1-2.8-0.1C392.9,145,381.8,155.8,381.8,170.3"/>
		</defs>
		<clipPath id="SVGID_33_">
			<use xlink:href="#SVGID_32_"  style="overflow:visible;"/>
		</clipPath>
		
			<linearGradient id="SVGID_34_" gradientUnits="userSpaceOnUse" x1="32.1326" y1="438.189" x2="33.278" y2="438.189" gradientTransform="matrix(-24.1862 53.3593 53.3593 24.1862 -22183.707 -12167.2686)">
			<stop  offset="0" style="stop-color:#FFDB44"/>
			<stop  offset="1" style="stop-color:#FEEF06"/>
		</linearGradient>
		<polygon class="st51" points="455.5,154.3 425.9,219.6 361.3,190.3 390.9,125 		"/>
	</g>
	<g class="st0">
		<defs>
			<path id="SVGID_35_" d="M383.1,170.4c0,14.7,12,27.1,26.3,27.5c13.7,0.4,24.5-10.4,24.5-24.1c0-13.8-10.8-26-24.5-27.4
				c-0.9-0.1-1.7-0.1-2.6-0.1C393.7,146.3,383.1,156.6,383.1,170.4"/>
		</defs>
		<clipPath id="SVGID_36_">
			<use xlink:href="#SVGID_35_"  style="overflow:visible;"/>
		</clipPath>
		
			<linearGradient id="SVGID_37_" gradientUnits="userSpaceOnUse" x1="32.5794" y1="437.1542" x2="33.7248" y2="437.1542" gradientTransform="matrix(-4.6668 -25.4944 -25.4944 4.6668 11712.4072 -999.5772)">
			<stop  offset="0" style="stop-color:#FCB148"/>
			<stop  offset="5.215653e-02" style="stop-color:#FDBA46"/>
			<stop  offset="0.1432" style="stop-color:#FFC244"/>
			<stop  offset="0.3183" style="stop-color:#FFC444"/>
			<stop  offset="0.4843" style="stop-color:#FDB946"/>
			<stop  offset="0.7729" style="stop-color:#F99D4D"/>
			<stop  offset="0.8658" style="stop-color:#F8924F"/>
			<stop  offset="1" style="stop-color:#F8924F"/>
		</linearGradient>
		<polygon class="st52" points="384.7,207.4 373.9,148 432.2,137.3 443.1,196.7 		"/>
	</g>
	<g class="st0">
		<defs>
			<path id="SVGID_38_" d="M384,170.5c0,14.2,11.6,26.1,25.3,26.6c13.3,0.4,23.7-10,23.7-23.3c0-13.3-10.4-25.2-23.7-26.5
				c-0.8-0.1-1.7-0.1-2.5-0.1C394.2,147.2,384,157.1,384,170.5"/>
		</defs>
		<clipPath id="SVGID_39_">
			<use xlink:href="#SVGID_38_"  style="overflow:visible;"/>
		</clipPath>
		
			<linearGradient id="SVGID_40_" gradientUnits="userSpaceOnUse" x1="32.438" y1="438.4485" x2="33.5834" y2="438.4485" gradientTransform="matrix(19.2324 40.8268 40.8268 -19.2324 -18120.2969 7270.7788)">
			<stop  offset="0" style="stop-color:#FCB148"/>
			<stop  offset="5.215653e-02" style="stop-color:#FDBA46"/>
			<stop  offset="0.1432" style="stop-color:#FFC244"/>
			<stop  offset="0.3183" style="stop-color:#FFC444"/>
			<stop  offset="0.4843" style="stop-color:#FDB946"/>
			<stop  offset="0.7729" style="stop-color:#F99D4D"/>
			<stop  offset="0.8658" style="stop-color:#F8924F"/>
			<stop  offset="1" style="stop-color:#F8924F"/>
		</linearGradient>
		<polygon class="st53" points="424.2,128.3 452.5,188.4 392.9,216.4 364.6,156.3 		"/>
	</g>
	<g class="st0">
		<defs>
			<path id="SVGID_41_" d="M410.2,182.5v-7.2c1.3,0.4,2.2,0.9,2.8,1.5c0.6,0.6,0.9,1.4,0.9,2.4c0,1-0.3,1.8-1,2.4
				C412.3,182.2,411.4,182.5,410.2,182.5C410.2,182.5,410.2,182.5,410.2,182.5 M405.3,166.3c-0.6-0.6-0.9-1.3-0.9-2.1
				c0-0.9,0.3-1.6,0.9-2.1c0.6-0.5,1.5-0.8,2.6-0.9v6.4C406.7,167.3,405.9,166.8,405.3,166.3 M407.9,153v2.5c-3.5,0-6.1,0.7-8,2.2
				c-1.9,1.5-2.8,3.7-2.8,6.4c0,2.7,0.9,4.9,2.6,6.6c1.7,1.7,4.4,3,7.9,3.9l0,7.8c-1.6-0.1-3.1-0.4-4.6-0.8c-1-0.3-1.9-0.6-2.9-0.9
				c-0.8-0.3-1.7,0.2-1.7,1l-0.4,3.9c-0.1,0.7,0.4,1.3,1,1.5c1.1,0.3,2.2,0.6,3.3,0.8c1.5,0.3,3.1,0.4,4.7,0.5l0.6,0v2.7
				c0,0.7,0.6,1.3,1.3,1.4l0,0c0.7,0,1.3-0.5,1.3-1.2v-2.7c3.5-0.2,6.2-1.2,8.2-2.9c1.9-1.7,2.9-3.9,2.9-6.8c0-2.6-0.9-4.8-2.6-6.5
				c-1.8-1.7-4.5-3.1-8.1-4.2v-7l0.4,0c1.4,0.1,2.7,0.4,3.9,0.7c0.7,0.2,1.4,0.5,2.1,0.8c0.8,0.3,1.6-0.1,1.6-1l0.3-3.1
				c0.1-0.6-0.4-1.3-1-1.5c-1-0.3-2.1-0.6-3.1-0.9c-1.4-0.3-2.8-0.6-4.2-0.7v-2.4c0-0.7-0.6-1.4-1.3-1.4c0,0-0.1,0-0.1,0
				C408.4,151.8,407.9,152.3,407.9,153"/>
		</defs>
		<clipPath id="SVGID_42_">
			<use xlink:href="#SVGID_41_"  style="overflow:visible;"/>
		</clipPath>
		
			<linearGradient id="SVGID_43_" gradientUnits="userSpaceOnUse" x1="32.2883" y1="438.5522" x2="33.4337" y2="438.5522" gradientTransform="matrix(9.6707 36.2442 36.2442 -9.6707 -15803.334 3223.2656)">
			<stop  offset="0" style="stop-color:#FFDB44"/>
			<stop  offset="1" style="stop-color:#FEEF06"/>
		</linearGradient>
		<polygon class="st54" points="419.6,145.8 431.4,189.8 398.7,198.6 386.9,154.5 		"/>
	</g>
	<g class="st0">
		<defs>
			<rect id="SVGID_44_" y="47.6" width="512" height="416.8"/>
		</defs>
		<clipPath id="SVGID_45_">
			<use xlink:href="#SVGID_44_"  style="overflow:visible;"/>
		</clipPath>
		<g class="st55">
			<g>
				<defs>
					<rect id="SVGID_46_" x="384" y="147.3" width="29.3" height="49.8"/>
				</defs>
				<clipPath id="SVGID_47_">
					<use xlink:href="#SVGID_46_"  style="overflow:visible;"/>
				</clipPath>
				<g class="st56">
					<defs>
						<path id="SVGID_48_" d="M405.1,177c0.8-7.9,8.1-11.3,7.1-18.5c-0.6-4.5-4-8.3-7.8-11.2c-11.5,1.2-20.4,10.7-20.4,23.2
							c0,14.2,11.6,26.1,25.3,26.6c1.3,0,2.6,0,3.9-0.2C407.8,191.4,404.4,183.8,405.1,177"/>
					</defs>
					<clipPath id="SVGID_49_">
						<use xlink:href="#SVGID_48_"  style="overflow:visible;"/>
					</clipPath>
					
						<linearGradient id="SVGID_50_" gradientUnits="userSpaceOnUse" x1="32.4378" y1="438.3906" x2="33.5832" y2="438.3906" gradientTransform="matrix(19.1936 40.7444 40.7444 -19.1936 -18088.6328 7259.1089)">
						<stop  offset="0" style="stop-color:#FCB148"/>
						<stop  offset="5.215653e-02" style="stop-color:#FDBA46"/>
						<stop  offset="0.1432" style="stop-color:#FFC244"/>
						<stop  offset="0.3183" style="stop-color:#FFC444"/>
						<stop  offset="0.4843" style="stop-color:#FDB946"/>
						<stop  offset="0.7729" style="stop-color:#F99D4D"/>
						<stop  offset="0.8658" style="stop-color:#F8924F"/>
						<stop  offset="1" style="stop-color:#F8924F"/>
					</linearGradient>
					<polygon class="st57" points="408,136 432.5,188.1 389.3,208.4 364.8,156.3 					"/>
				</g>
			</g>
		</g>
	</g>
</g>
</svg>
