<?xml version="1.0" encoding="utf-8"?>
<!-- Generator: Adobe Illustrator 23.0.5, SVG Export Plug-In . SVG Version: 6.00 Build 0)  -->
<svg version="1.1" id="Layer_1" xmlns="http://www.w3.org/2000/svg" xmlns:xlink="http://www.w3.org/1999/xlink" x="0px" y="0px"
	 viewBox="0 0 436.4 407.6" style="enable-background:new 0 0 436.4 407.6;" xml:space="preserve">
<style type="text/css">
	.st0{clip-path:url(#SVGID_2_);fill:#DEE8FD;}
	.st1{clip-path:url(#SVGID_4_);}
	.st2{clip-path:url(#SVGID_6_);fill:#DEE8FD;}
	.st3{clip-path:url(#SVGID_6_);fill:#CAE0EF;}
	.st4{clip-path:url(#SVGID_6_);fill:#FFFFFF;}
	.st5{clip-path:url(#SVGID_6_);fill:#EBEBEB;}
	.st6{clip-path:url(#SVGID_6_);fill:#B3CCE0;}
	.st7{clip-path:url(#SVGID_6_);fill:#FAFAFA;}
	.st8{clip-path:url(#SVGID_6_);fill:#E0E0E0;}
	.st9{clip-path:url(#SVGID_8_);fill:#263238;}
	.st10{clip-path:url(#SVGID_10_);fill:#263238;}
	.st11{clip-path:url(#SVGID_10_);fill:#E8505B;}
	.st12{clip-path:url(#SVGID_10_);fill:#6E9BFF;}
	.st13{clip-path:url(#SVGID_4_);fill:#455A64;}
	.st14{clip-path:url(#SVGID_4_);fill:#E0E0E0;}
	.st15{clip-path:url(#SVGID_4_);fill:#EBEBEB;}
	.st16{clip-path:url(#SVGID_4_);fill:#FAFAFA;}
	.st17{clip-path:url(#SVGID_12_);fill:#263238;}
	.st18{clip-path:url(#SVGID_12_);fill:#CAE0EF;}
	.st19{clip-path:url(#SVGID_12_);fill:#6E9BFF;}
	.st20{clip-path:url(#SVGID_12_);fill:#E0E0E0;}
	.st21{clip-path:url(#SVGID_12_);fill:#FAFAFA;}
	.st22{opacity:0.3;clip-path:url(#SVGID_12_);}
	.st23{clip-path:url(#SVGID_14_);fill:#467BFB;}
	.st24{clip-path:url(#SVGID_16_);fill:#FFBE9D;}
	.st25{clip-path:url(#SVGID_16_);fill:#263238;}
	.st26{clip-path:url(#SVGID_16_);fill:#E8505B;}
	.st27{clip-path:url(#SVGID_16_);fill:#6E9BFF;}
	.st28{opacity:0.5;clip-path:url(#SVGID_16_);}
	.st29{clip-path:url(#SVGID_18_);fill:#FFFFFF;}
	.st30{opacity:0.4;clip-path:url(#SVGID_16_);}
	.st31{clip-path:url(#SVGID_20_);fill:#FFFFFF;}
	.st32{clip-path:url(#SVGID_22_);fill:#FFFFFF;}
	.st33{clip-path:url(#SVGID_24_);fill:#FFFFFF;}
	.st34{clip-path:url(#SVGID_16_);fill:#455A64;}
	.st35{clip-path:url(#SVGID_16_);fill:#FAFAFA;}
</style>
<g>
	<defs>
		<rect id="SVGID_1_" y="59" width="436.4" height="289.6"/>
	</defs>
	<clipPath id="SVGID_2_">
		<use xlink:href="#SVGID_1_"  style="overflow:visible;"/>
	</clipPath>
	<path class="st0" d="M436.4,187.9c0,120.5-82,160.7-202.5,160.7C113.4,348.6,0,308.4,0,187.9C0,67.4,77.3,59,197.8,59
		C318.3,59,436.4,67.4,436.4,187.9"/>
</g>
<g>
	<defs>
		<rect id="SVGID_3_" x="39.1" y="36.5" width="358.2" height="334.6"/>
	</defs>
	<clipPath id="SVGID_4_">
		<use xlink:href="#SVGID_3_"  style="overflow:visible;"/>
	</clipPath>
	<g class="st1">
		<defs>
			<rect id="SVGID_5_" x="39.1" y="36.5" width="358.2" height="334.6"/>
		</defs>
		<clipPath id="SVGID_6_">
			<use xlink:href="#SVGID_5_"  style="overflow:visible;"/>
		</clipPath>
		<path class="st2" d="M43,348.7v20.6h4.8c0,0-0.5-4.1,0-6.5c0.5-2.4,5.6-8.7,5.5-14.1H43z"/>
		<path class="st2" d="M81,348.7v20.6h4.8c0,0-0.5-4.1,0-6.5c0.5-2.4,5.6-8.7,5.5-14.1H81z"/>
		<path class="st2" d="M118.3,348.7v20.6h-4.8c0,0,0.5-4.1,0-6.5c-0.5-2.4-5.6-8.7-5.5-14.1H118.3z"/>
		<path class="st2" d="M151.2,348.7v20.6h-4.8c0,0,0.5-4.1,0-6.5c-0.5-2.4-5.6-8.7-5.5-14.1H151.2z"/>
		<rect x="39.8" y="247.1" class="st2" width="113.9" height="102.3"/>
		<polygon class="st2" points="123,247.1 123.8,349.4 153.7,349.4 153.7,247.1 		"/>
		<rect x="44.9" y="254.7" class="st3" width="73.1" height="26"/>
		<rect x="44.9" y="285.9" class="st3" width="73.1" height="26"/>
		<rect x="44.9" y="317.1" class="st3" width="73.1" height="26"/>
		<polygon class="st3" points="72.9,217.8 69.8,247 110.2,247 113.5,217.8 		"/>
		<polygon class="st4" points="74.6,219.9 71.5,245.5 108,245.5 110.9,219.9 		"/>
		<polygon class="st2" points="80.7,224.2 78.8,241.2 101.9,241.2 103,224.2 		"/>
		<polygon class="st5" points="112.1,230.4 120.4,247.1 110.2,247 		"/>
		<path class="st4" d="M84.1,269c0,1.5-1.2,2.7-2.7,2.7c-1.5,0-2.7-1.2-2.7-2.7c0-1.5,1.2-2.7,2.7-2.7
			C82.9,266.4,84.1,267.6,84.1,269"/>
		<path class="st4" d="M84.1,300.6c0,1.5-1.2,2.7-2.7,2.7c-1.5,0-2.7-1.2-2.7-2.7c0-1.5,1.2-2.7,2.7-2.7
			C82.9,297.9,84.1,299.1,84.1,300.6"/>
		<path class="st4" d="M84.1,332.1c0,1.5-1.2,2.7-2.7,2.7c-1.5,0-2.7-1.2-2.7-2.7c0-1.5,1.2-2.7,2.7-2.7
			C82.9,329.4,84.1,330.6,84.1,332.1"/>
		<polygon class="st6" points="117.9,80.9 53.3,80.3 55.1,164.4 119.7,164.7 		"/>
		<polygon class="st7" points="113.7,84.7 57.2,83.2 58.9,159.5 115.4,160.2 		"/>
		<polygon class="st3" points="104.1,96.1 66.6,95.4 67.7,148.8 105.2,148 		"/>
		<polygon class="st2" points="67.7,148.8 104.6,120.6 66.6,95.4 		"/>
		<polygon class="st6" points="395.7,37.1 339.1,36.5 340.7,110.3 397.3,110.5 		"/>
		<polygon class="st7" points="392.1,40.3 342.5,39.1 343.9,106 393.5,106.6 		"/>
		<polygon class="st3" points="383.6,50.4 350.7,49.8 351.7,96.6 384.6,95.9 		"/>
		<polygon class="st2" points="351.7,96.6 384.1,71.9 350.7,49.8 		"/>
		<path class="st2" d="M332.3,314.6c-0.2,0.7,8.2,32.8,8.2,32.8l5.8-1.2l-8-31.6H332.3z"/>
		<polygon class="st2" points="377.2,310 365.6,347.4 372.4,347.4 383.5,312.7 		"/>
		<polygon class="st2" points="387.8,304.2 374.5,347.4 381.3,347.4 394.1,306.9 		"/>
		<polygon class="st3" points="336.4,344.8 343.1,368.2 377.2,368.2 383.5,344.8 		"/>
		<path class="st8" d="M353.9,344.8c0,0,0-0.1-0.1-0.2c0-0.2-0.1-0.4-0.2-0.7c-0.2-0.7-0.4-1.6-0.7-2.8c-0.6-2.4-1.4-5.9-2.3-10.2
			c-1.9-8.7-4.6-20.7-7.6-34.1l0.2,0.2c-1,0-2,0-3,0c-1,0-2,0-3,0l0.2-0.3c3,13.4,5.7,25.4,7.7,34.1c1,4.3,1.7,7.8,2.3,10.3
			c0.3,1.2,0.5,2.1,0.6,2.8c0.1,0.3,0.1,0.5,0.1,0.7c0,0.2,0,0.2,0,0.3c0,0,0-0.1-0.1-0.2c0-0.2-0.1-0.4-0.2-0.7
			c-0.2-0.7-0.4-1.6-0.7-2.8c-0.6-2.4-1.4-5.9-2.4-10.2c-2-8.7-4.7-20.7-7.8-34.1l-0.1-0.3h0.3c0.9,0,1.9,0,3,0c1,0,2.1,0,3,0h0.2
			l0,0.2c3,13.4,5.6,25.4,7.5,34.1c0.9,4.3,1.7,7.8,2.2,10.3c0.2,1.2,0.4,2.1,0.6,2.8c0.1,0.3,0.1,0.5,0.1,0.7
			C353.9,344.7,354,344.8,353.9,344.8"/>
	</g>
	<g class="st1">
		<defs>
			<rect id="SVGID_7_" x="39.1" y="36.5" width="358.2" height="334.6"/>
		</defs>
		<clipPath id="SVGID_8_">
			<use xlink:href="#SVGID_7_"  style="overflow:visible;"/>
		</clipPath>
		<path class="st9" d="M387.2,369.2c0,0.1-77.9,0.2-174.1,0.2c-96.2,0-174.1-0.1-174.1-0.2c0-0.1,77.9-0.2,174.1-0.2
			C309.3,369,387.2,369.1,387.2,369.2"/>
	</g>
	<g class="st1">
		<defs>
			<rect id="SVGID_9_" x="39.1" y="36.5" width="358.2" height="334.6"/>
		</defs>
		<clipPath id="SVGID_10_">
			<use xlink:href="#SVGID_9_"  style="overflow:visible;"/>
		</clipPath>
		<path class="st10" d="M364.8,145.1c0,0-0.2-0.1-0.6-0.2c-0.4-0.1-1-0.1-1.8,0c-0.8,0.2-1.7,0.6-2.6,1.3c-0.9,0.7-1.8,1.8-2.6,3.1
			c-1.7,2.6-3,6.1-4.5,10.3c-1.5,4.2-3.2,9-4.6,14.5l0,0l0,0c-0.2,0.4-0.6,0.8-1,1.2c-0.4,0.3-0.9,0.6-1.5,0.5
			c-0.6-0.1-1-0.4-1.4-0.8c-0.4-0.4-0.7-0.7-1.1-1.1c-0.7-0.8-1.4-1.5-2.3-2.2c-0.8-0.6-1.8-1.3-2.9-1.2c-1,0.1-2,0.8-2.6,1.8
			c-0.6,0.9-0.9,2.1-0.9,3.3c-0.1,2.4,0.5,4.7,1,7.2c0.5,2.5,0.9,5,1.4,7.5c0.2,1.3,0.5,2.6,0.7,3.9c0.1,0.7,0.2,1.3,0.4,2
			c0.1,0.6,0.2,1.5-0.2,2.1c-0.2,0.3-0.7,0.5-1.1,0.4c-0.4-0.1-0.7-0.3-1-0.5c-0.6-0.4-1.1-0.8-1.7-1.2c-1.1-0.8-2.3-1.6-3.5-2.3
			c-1.2-0.7-2.5-1.3-3.9-1.6c-0.7-0.1-1.4-0.2-2.1,0c-0.7,0.2-1.3,0.6-1.7,1.1c-0.9,1.1-1.1,2.6-1.1,4.1c0,1.5,0.2,3,0.4,4.5
			c0.6,3,1.4,5.9,2.5,8.8c0.2,0.7,0.6,1.4,0.7,2.3c0.1,0.4,0,0.9-0.3,1.3c-0.1,0.1-0.2,0.2-0.2,0.2c-0.1,0.1-0.1,0.1-0.3,0.2
			c-0.3,0.1-0.5-0.1-0.7-0.2c-0.7-0.4-1.3-1-1.9-1.5c-0.6-0.5-1.2-1.1-1.8-1.6c-1.2-1.1-2.4-2.2-3.7-3c-0.7-0.4-1.4-0.8-2.2-1
			c-0.8-0.2-1.6-0.1-2.2,0.3c-0.6,0.4-1,1.1-1.2,1.9c-0.2,0.8-0.3,1.6-0.3,2.4c0,1.6,0.2,3.3,0.6,4.9c0.7,3.2,2,6.4,3.6,9.4
			c1.5,3,3.3,6,5.3,8.8c0.9,1.5,2.1,2.8,3.2,4.1c1.1,1.4,2.2,2.7,3.3,4.1l0,0l-0.2-0.1c1.7-0.3,3.5-0.5,5.2-0.8
			c1.7-0.3,3.5-0.4,5.1-0.9c3.4-0.8,6.7-1.7,9.9-3c3.2-1.2,6.2-2.7,9-4.6c1.4-0.9,2.7-2,3.8-3.2c0.5-0.6,1-1.3,1.4-2
			c0.4-0.7,0.5-1.5,0.4-2.2c-0.2-0.7-0.7-1.3-1.4-1.7c-0.7-0.4-1.5-0.6-2.3-0.7c-1.6-0.3-3.2-0.3-4.8-0.3c-0.8,0-1.6,0-2.4,0
			c-0.8,0-1.6,0-2.4-0.2c-0.2-0.1-0.4-0.1-0.6-0.4c-0.1-0.2-0.1-0.2-0.1-0.4c0-0.1,0-0.2,0-0.3c0-0.5,0.3-0.9,0.6-1.1
			c0.6-0.6,1.4-0.8,2.1-1.2c2.8-1.5,5.4-3,7.8-4.9c1.2-0.9,2.3-1.9,3.3-3c1-1.1,1.8-2.4,1.9-3.8c0.1-0.7-0.1-1.4-0.5-2
			c-0.4-0.6-0.9-1-1.5-1.4c-1.2-0.7-2.6-1.1-4-1.4c-1.4-0.3-2.8-0.5-4.1-0.6c-0.7-0.1-1.4-0.1-2.1-0.2c-0.3,0-0.7-0.1-1.1-0.3
			c-0.3-0.2-0.6-0.6-0.6-1c0.1-0.8,0.7-1.3,1.2-1.7c0.5-0.4,1.1-0.8,1.6-1.2c1.1-0.8,2.1-1.6,3.2-2.4c2.1-1.6,4.1-3.1,6.1-4.6
			c2-1.5,4.1-2.8,5.5-4.7c0.7-0.9,1.3-1.9,1.5-3c0.2-1.1-0.1-2.3-0.8-3.1c-0.3-0.4-0.8-0.6-1.3-0.8c-0.5-0.2-1-0.2-1.6-0.3
			c-1.1-0.1-2.1,0-3.2,0.1c-0.5,0-1,0.1-1.6,0.1c-0.5,0-1.1,0-1.5-0.3c-0.5-0.3-0.7-0.9-0.8-1.4c-0.1-0.5,0-1,0.1-1.5l0,0l0,0
			c2.6-5,4.6-9.7,6.3-13.8c1.6-4.1,3.1-7.6,3.6-10.7c0.2-1.5,0.3-2.9,0.2-4c-0.2-1.2-0.5-2.1-1-2.7c-0.4-0.7-0.9-1-1.3-1.2
			c-0.3-0.2-0.5-0.3-0.5-0.3s0.2,0,0.6,0.2c0.4,0.2,0.9,0.6,1.3,1.2c0.5,0.7,0.8,1.6,1,2.8c0.2,1.2,0.1,2.5-0.1,4.1
			c-0.5,3.1-1.9,6.6-3.5,10.7c-1.7,4.1-3.6,8.8-6.3,13.9l0,0c-0.1,0.5-0.1,0.9-0.1,1.4c0.1,0.5,0.3,0.9,0.7,1.2
			c0.4,0.3,0.9,0.3,1.4,0.3c0.5,0,1,0,1.5-0.1c1-0.1,2.1-0.2,3.2-0.1c0.5,0,1.1,0.1,1.6,0.3c0.5,0.2,1.1,0.4,1.5,0.9
			c0.8,0.9,1,2.1,0.9,3.3c-0.2,1.2-0.8,2.3-1.6,3.2c-1.5,1.9-3.6,3.2-5.6,4.7c-2,1.5-4,3.1-6.1,4.6c-1,0.8-2.1,1.6-3.2,2.4
			c-0.5,0.4-1.1,0.8-1.6,1.2c-0.3,0.2-0.5,0.4-0.7,0.6c-0.2,0.2-0.4,0.5-0.4,0.8c0,0.3,0.1,0.5,0.4,0.7c0.3,0.1,0.6,0.2,0.9,0.2
			c0.7,0.1,1.4,0.1,2.1,0.2c1.4,0.1,2.8,0.3,4.2,0.6c1.4,0.3,2.8,0.7,4.1,1.5c0.6,0.4,1.2,0.9,1.7,1.5c0.4,0.6,0.6,1.4,0.6,2.2
			c-0.1,1.6-1,2.9-2,4c-1,1.1-2.2,2.1-3.4,3.1c-2.4,1.8-5.1,3.4-7.9,4.9c-0.7,0.4-1.4,0.7-2,1.2c-0.3,0.2-0.5,0.5-0.5,0.9
			c0,0.1,0,0.2,0,0.3c0,0.1,0,0.2,0.1,0.2c0,0.1,0.2,0.1,0.4,0.2c0.7,0.2,1.5,0.1,2.3,0.1c0.8,0,1.6,0,2.4,0c1.6,0,3.2,0,4.9,0.3
			c0.8,0.1,1.6,0.4,2.4,0.8c0.8,0.4,1.4,1.1,1.6,1.9c0.2,0.9,0,1.8-0.4,2.5c-0.4,0.8-0.9,1.4-1.5,2.1c-1.1,1.3-2.4,2.3-3.8,3.3
			c-2.8,1.9-5.9,3.4-9.1,4.6c-3.2,1.2-6.5,2.2-9.9,3c-1.7,0.5-3.4,0.6-5.2,0.9c-1.7,0.3-3.5,0.5-5.2,0.8l-0.1,0l-0.1-0.1l0,0
			c-1.1-1.4-2.2-2.7-3.3-4.1c-1.1-1.4-2.3-2.7-3.2-4.1c-2-2.9-3.8-5.8-5.3-8.9c-1.5-3.1-2.8-6.2-3.6-9.5c-0.4-1.6-0.6-3.3-0.6-5
			c0-0.8,0.1-1.7,0.3-2.5c0.2-0.8,0.7-1.6,1.4-2.1c0.7-0.5,1.7-0.6,2.5-0.3c0.8,0.2,1.6,0.6,2.3,1c1.4,0.9,2.6,2,3.8,3.1
			c0.6,0.5,1.2,1.1,1.8,1.6c0.6,0.5,1.2,1.1,1.8,1.5c0.2,0.1,0.3,0.2,0.4,0.1c0,0,0.1-0.1,0.2-0.1c0.1-0.1,0.1-0.1,0.2-0.2
			c0.2-0.3,0.3-0.6,0.2-1c-0.1-0.7-0.4-1.4-0.7-2.2c-1.1-2.9-2-5.9-2.5-8.9c-0.3-1.5-0.5-3-0.4-4.5c0-1.5,0.3-3.1,1.2-4.3
			c0.5-0.6,1.1-1.1,1.9-1.3c0.7-0.2,1.5-0.2,2.2,0c1.5,0.3,2.8,1,4,1.7c1.2,0.7,2.4,1.5,3.5,2.4c0.6,0.4,1.1,0.8,1.7,1.2
			c0.3,0.2,0.5,0.4,0.8,0.4c0.3,0.1,0.6,0,0.7-0.2c0.2-0.2,0.3-0.5,0.3-0.9c0-0.3,0-0.6-0.1-1c-0.1-0.7-0.2-1.3-0.4-2
			c-0.2-1.3-0.5-2.6-0.7-3.9c-0.5-2.6-0.9-5.1-1.4-7.5c-0.4-2.4-1.1-4.8-0.9-7.3c0.1-1.2,0.3-2.4,1-3.4c0.7-1,1.7-1.7,2.9-1.9
			c0.6-0.1,1.2,0.1,1.7,0.3c0.5,0.2,1,0.6,1.4,0.9c0.8,0.7,1.6,1.5,2.3,2.3c0.4,0.4,0.7,0.8,1.1,1.1c0.4,0.3,0.8,0.7,1.2,0.7
			c0.5,0.1,0.9-0.1,1.3-0.4c0.4-0.3,0.7-0.7,0.9-1.1l0,0c1.4-5.5,3.2-10.3,4.7-14.5c1.6-4.1,2.9-7.7,4.6-10.3
			c0.9-1.3,1.7-2.3,2.7-3.1c0.9-0.7,1.9-1.2,2.6-1.3c0.8-0.2,1.4-0.1,1.8,0C364.6,145,364.8,145.1,364.8,145.1"/>
		<path class="st10" d="M360.5,156.3c0,0,0,0.1-0.1,0.3c-0.1,0.2-0.2,0.4-0.3,0.8c-0.3,0.7-0.6,1.7-1.1,3c-1,2.6-2.4,6.3-4.2,10.8
			c-3.5,9.2-8.3,21.8-13.6,35.8c-5.3,14-10.2,26.7-13.8,35.8c-1.8,4.6-3.3,8.3-4.3,10.8c-0.5,1.2-0.9,2.2-1.2,2.9
			c-0.1,0.3-0.2,0.6-0.3,0.8c-0.1,0.2-0.1,0.3-0.1,0.3c0,0,0-0.1,0.1-0.3c0.1-0.2,0.2-0.4,0.3-0.8c0.3-0.7,0.6-1.7,1.1-3
			c1-2.6,2.4-6.3,4.2-10.8c3.5-9.2,8.3-21.8,13.6-35.8c5.3-14,10.2-26.7,13.8-35.8c1.8-4.6,3.3-8.3,4.3-10.8
			c0.5-1.2,0.9-2.2,1.2-2.9c0.1-0.3,0.2-0.6,0.3-0.8C360.4,156.4,360.5,156.3,360.5,156.3"/>
		<path class="st10" d="M360.9,184.6c0,0.1-0.8,0.5-2.1,1.2c-1.4,0.8-3.1,1.7-5,2.8c-2,1.1-3.8,2.1-5.1,2.7c-1.3,0.7-2.2,1-2.2,1
			c0-0.1,0.8-0.5,2.1-1.2c1.4-0.8,3.1-1.8,5-2.8c2-1.1,3.8-2,5.1-2.7C360.1,184.9,360.9,184.6,360.9,184.6"/>
		<path class="st10" d="M345.9,191.8c-0.1,0.1-2.1-3.7-4.4-8.3c-2.3-4.6-4.1-8.5-4-8.5c0.1-0.1,2.1,3.7,4.4,8.3
			C344.2,188,346,191.8,345.9,191.8"/>
		<path class="st10" d="M338.7,213.7c0,0-0.7-0.6-1.8-1.6c-1.1-1.1-2.5-2.6-4-4.3c-1.5-1.8-2.8-3.4-3.6-4.6c-0.9-1.2-1.4-2-1.3-2.1
			c0,0,0.6,0.7,1.6,1.9c0.9,1.2,2.2,2.8,3.7,4.5c1.5,1.8,2.9,3.3,3.9,4.4C338.2,212.9,338.8,213.6,338.7,213.7"/>
		<path class="st10" d="M353.8,210.2c0,0.1-0.8,0.3-2.2,0.6c-1.3,0.3-3.2,0.8-5.3,1.2c-2.1,0.5-4,0.9-5.3,1.1
			c-1.4,0.3-2.2,0.4-2.2,0.3c0-0.1,0.8-0.3,2.2-0.6c1.3-0.3,3.2-0.8,5.3-1.2c2.1-0.5,4-0.9,5.3-1.1
			C352.9,210.2,353.7,210.1,353.8,210.2"/>
		<path class="st10" d="M349.9,230.3c0,0.1-1.1,0.3-2.8,0.7c-1.7,0.4-4.1,0.9-6.8,1.5c-2.7,0.6-5.1,1-6.8,1.4
			c-1.8,0.3-2.8,0.5-2.9,0.4c0-0.1,1.1-0.3,2.8-0.7c1.7-0.4,4.1-0.9,6.8-1.5c2.7-0.6,5.1-1,6.8-1.4
			C348.8,230.4,349.9,230.2,349.9,230.3"/>
		<path class="st10" d="M331,234.1c0,0-0.2-0.2-0.6-0.6c-0.4-0.4-0.9-0.9-1.6-1.6c-1.3-1.4-3-3.4-4.8-5.7c-1.8-2.3-3.4-4.4-4.5-6
			c-0.5-0.8-1-1.4-1.3-1.9c-0.3-0.5-0.4-0.7-0.4-0.7c0,0,0.2,0.2,0.5,0.6c0.4,0.5,0.8,1.1,1.4,1.8c1.2,1.5,2.8,3.6,4.6,5.9
			c1.8,2.3,3.5,4.3,4.7,5.7C330.3,233.2,331.1,234.1,331,234.1"/>
		<path class="st11" d="M322.8,289.1c-14.3-11.5-16.3-31.1-14.5-48.5c0.3-2.9,0.2-6,1.8-8.5c1.6-2.5,4.9-4,7.4-2.6
			c2.1,1.2,2.9,3.7,3.9,5.9c1.4,2.9,3.7,5.3,6.4,7c1.8,1.1,4,1.8,5.9,1c2.6-1.2,3.1-4.7,3.3-7.6c0.3-5.4,0.7-10.8,1-16.2
			c0.2-2.9,0.4-5.9,1.5-8.5c1.1-2.7,3.3-5.1,6.1-5.7c2.8-0.6,6.1,1.2,6.5,4.1c0.2,1.2-0.2,2.4-0.2,3.6c0,1.2,0.5,2.6,1.6,3
			c1.1,0.4,2.3-0.3,3.3-1.1c3.2-2.7,5.5-6.3,7.6-10c2.2-3.6,4.3-7.3,7.2-10.3c2.9-3,6.9-5.3,11-5.2c4.2,0.1,8.4,2.9,9.2,7.1
			c0.8,4.2-1.9,8.1-4.7,11.3c-4.2,4.6-9,8.7-14.3,11.9c-1,0.6-2,1.2-2.4,2.3c-0.8,1.9,0.9,3.9,2.8,4.7c2.1,0.9,4.5,0.8,6.7,1.2
			c2.2,0.4,4.6,1.6,5.3,3.8c1,3-1.7,6-4.3,7.8c-5.2,3.7-11,6.6-17,8.3c-2.2,0.6-4.5,1.2-6.3,2.5c-1.8,1.4-3,3.9-2.1,6
			c0.9,2.1,3.5,3,5.8,2.7c2.3-0.3,4.3-1.3,6.5-2c4.1-1.2,9.2-0.6,11.5,3c1.5,2.4,1.5,5.5,0.4,8.2c-1,2.6-2.9,4.8-4.9,6.9
			c-6.9,7-15.5,12.5-24.9,15.1C340.4,292.8,331.8,293.1,322.8,289.1"/>
		<path class="st12" d="M322.8,289.1c-14.3-11.5-16.3-31.1-14.5-48.5c0.3-2.9,0.2-6,1.8-8.5c1.6-2.5,4.9-4,7.4-2.6
			c2.1,1.2,2.9,3.7,3.9,5.9c1.4,2.9,3.7,5.3,6.4,7c1.8,1.1,4,1.8,5.9,1c2.6-1.2,3.1-4.7,3.3-7.6c0.3-5.4,0.7-10.8,1-16.2
			c0.2-2.9,0.4-5.9,1.5-8.5c1.1-2.7,3.3-5.1,6.1-5.7c2.8-0.6,6.1,1.2,6.5,4.1c0.2,1.2-0.2,2.4-0.2,3.6c0,1.2,0.5,2.6,1.6,3
			c1.1,0.4,2.3-0.3,3.3-1.1c3.2-2.7,5.5-6.3,7.6-10c2.2-3.6,4.3-7.3,7.2-10.3c2.9-3,6.9-5.3,11-5.2c4.2,0.1,8.4,2.9,9.2,7.1
			c0.8,4.2-1.9,8.1-4.7,11.3c-4.2,4.6-9,8.7-14.3,11.9c-1,0.6-2,1.2-2.4,2.3c-0.8,1.9,0.9,3.9,2.8,4.7c2.1,0.9,4.5,0.8,6.7,1.2
			c2.2,0.4,4.6,1.6,5.3,3.8c1,3-1.7,6-4.3,7.8c-5.2,3.7-11,6.6-17,8.3c-2.2,0.6-4.5,1.2-6.3,2.5c-1.8,1.4-3,3.9-2.1,6
			c0.9,2.1,3.5,3,5.8,2.7c2.3-0.3,4.3-1.3,6.5-2c4.1-1.2,9.2-0.6,11.5,3c1.5,2.4,1.5,5.5,0.4,8.2c-1,2.6-2.9,4.8-4.9,6.9
			c-6.9,7-15.5,12.5-24.9,15.1C340.4,292.8,331.8,293.1,322.8,289.1"/>
		<path class="st10" d="M321.7,302c1.1-6.9,3.2-14.9,6.4-23.6c3.2-8.6,7.4-17.8,12.2-27.2c1.2-2.4,2.4-4.7,3.6-7
			c1.2-2.3,2.3-4.6,3.6-6.7c2.5-4.3,5.3-8.3,8.1-11.9c2.7-3.7,5.5-7,8.1-10.2c2.6-3.1,5.1-6,7.4-8.5c4.7-5.1,9-8.7,12-11.1
			c1.5-1.2,2.7-2.1,3.6-2.7c0.4-0.3,0.7-0.5,0.9-0.7c0.2-0.1,0.3-0.2,0.3-0.2c0,0-0.1,0.1-0.3,0.3c-0.2,0.2-0.5,0.4-0.9,0.7
			c-0.8,0.6-2,1.5-3.5,2.7c-3,2.4-7.2,6.1-11.9,11.2c-2.3,2.5-4.8,5.4-7.4,8.6c-2.6,3.2-5.3,6.5-8,10.2c-2.7,3.7-5.5,7.6-8,11.9
			c-1.3,2.1-2.4,4.4-3.6,6.7c-1.2,2.3-2.4,4.6-3.6,7c-4.8,9.4-9,18.6-12.2,27.2c-3.2,8.6-5.3,16.6-6.5,23.4"/>
		<path class="st10" d="M347.7,237.5c0,0-0.1-0.4-0.2-1.3c-0.1-0.8-0.2-2-0.3-3.4c-0.2-2.9-0.4-6.9-0.5-11.4
			c-0.2-4.5-0.4-8.5-0.6-11.4c-0.1-1.5-0.2-2.6-0.3-3.4c-0.1-0.8-0.1-1.3-0.1-1.3c0,0,0.1,0.4,0.3,1.2c0.2,0.8,0.3,2,0.5,3.4
			c0.4,2.9,0.6,6.9,0.8,11.4c0.1,4.4,0.3,8.4,0.4,11.4c0.1,1.4,0.1,2.5,0.1,3.5C347.7,237.1,347.7,237.5,347.7,237.5"/>
		<path class="st10" d="M385.4,233.1c0,0-0.5,0.1-1.5,0.1c-1,0-2.4,0-4.1,0.1c-3.4,0.1-8.2,0.5-13.4,1.1c-5.2,0.6-9.9,1.4-13.3,2
			c-1.7,0.3-3.1,0.6-4,0.8c-0.9,0.2-1.5,0.3-1.5,0.3c0,0,0.5-0.2,1.4-0.5c0.9-0.3,2.3-0.6,4-1c3.4-0.8,8.1-1.6,13.3-2.2
			c5.2-0.6,10-0.9,13.4-0.9c1.7,0,3.1,0,4.1,0.1C384.9,233,385.4,233.1,385.4,233.1"/>
		<path class="st10" d="M328.6,277.8c0,0-0.1-0.2-0.2-0.5c-0.1-0.4-0.3-0.8-0.5-1.4c-0.5-1.2-1.1-3-1.8-5.2
			c-1.5-4.4-3.4-10.5-5.4-17.3c-2-6.8-3.8-12.9-5.2-17.4c-0.7-2.1-1.3-3.9-1.7-5.2c-0.2-0.6-0.3-1-0.5-1.4c-0.1-0.3-0.1-0.5-0.1-0.5
			c0,0,0.1,0.2,0.2,0.5c0.1,0.4,0.3,0.8,0.5,1.4c0.5,1.2,1.1,3,1.8,5.2c1.5,4.4,3.4,10.5,5.4,17.3c2,6.8,3.8,12.9,5.2,17.3
			c0.7,2.1,1.3,3.9,1.7,5.2c0.2,0.6,0.3,1,0.5,1.4C328.6,277.6,328.6,277.8,328.6,277.8"/>
		<path class="st10" d="M379.2,265.3c0,0-0.2,0.1-0.5,0.2c-0.4,0.1-0.9,0.2-1.5,0.4c-1.4,0.3-3.2,0.8-5.4,1.4
			c-4.6,1.1-10.9,2.8-17.8,4.6c-7,1.8-13.3,3.4-17.9,4.5c-2.3,0.5-4.2,0.9-5.5,1.2c-0.6,0.1-1.1,0.2-1.5,0.3
			c-0.3,0.1-0.5,0.1-0.5,0.1c0,0,0.2-0.1,0.5-0.2c0.4-0.1,0.9-0.2,1.5-0.4c1.4-0.3,3.2-0.8,5.4-1.4c4.6-1.1,10.9-2.8,17.8-4.6
			c7-1.8,13.3-3.4,17.9-4.5c2.3-0.5,4.2-0.9,5.5-1.2c0.6-0.1,1.1-0.2,1.5-0.3C379,265.3,379.2,265.2,379.2,265.3"/>
	</g>
	<rect x="127.1" y="62.5" class="st13" width="199.1" height="272.8"/>
	<polygon class="st14" points="318.3,319.1 281.4,319.1 143.7,319.1 143.7,73.5 318.3,73.5 318.3,288.5 	"/>
	<polygon class="st15" points="315.5,314.5 279,314.5 142.5,314.5 142.5,70.3 315.5,70.3 315.5,284.1 	"/>
	<polygon class="st16" points="296.9,295.5 277,311.7 139.2,311.7 139.2,70.9 313.9,70.9 313.9,281.8 	"/>
	<g class="st1">
		<defs>
			<rect id="SVGID_11_" x="39.1" y="36.5" width="358.2" height="334.6"/>
		</defs>
		<clipPath id="SVGID_12_">
			<use xlink:href="#SVGID_11_"  style="overflow:visible;"/>
		</clipPath>
		<path class="st17" d="M296.9,295.5c0,0,0.4-0.3,1.1-0.9c0.7-0.6,1.8-1.5,3.2-2.6c2.8-2.3,7.1-5.7,12.6-10.3l0,0.1
			c0-34.6-0.1-111.6-0.1-210.9l0.2,0.2c-52,0-110.9,0-173.1,0h-1.5l0.2-0.2c0,90.5,0,174.1,0,240.8l-0.2-0.2
			c62.9,0,111.2,0.1,137.8,0.1l0,0c6.6-5.4,11.6-9.4,15-12.1c1.7-1.3,2.9-2.4,3.8-3C296.5,295.8,296.9,295.5,296.9,295.5
			s-0.4,0.3-1.2,1c-0.8,0.7-2.1,1.7-3.7,3.1c-3.3,2.7-8.3,6.8-14.9,12.2l0,0h0c-26.6,0-74.9,0.1-137.8,0.1h-0.2v-0.2
			c0-66.8,0-150.3,0-240.8v-0.2h0.2h1.5c62.2,0,121.1,0,173.1,0h0.2v0.2c-0.1,99.3-0.1,176.2-0.1,210.9v0l0,0
			c-5.6,4.5-9.8,7.9-12.7,10.2c-1.4,1.1-2.5,2-3.2,2.6C297.3,295.2,296.9,295.5,296.9,295.5"/>
		<path class="st18" d="M262.3,78.6h-71.5V66.2c0-6.7,5.4-12.1,12.1-12.1h47.7c6.4,0,11.6,5.2,11.6,11.6V78.6z"/>
		<polygon class="st18" points="208.4,54.1 205.8,40.8 246.9,40.8 244.6,54.1 		"/>
		<path class="st19" d="M186.9,138.7h-29.4v-29.4h29.4V138.7z M158.3,137.9h27.8v-27.8h-27.8V137.9z"/>
		<path class="st17" d="M290.9,116.4c0,0.1-20.5,0.2-45.7,0.2c-25.3,0-45.7-0.1-45.7-0.2c0-0.1,20.5-0.2,45.7-0.2
			C270.4,116.2,290.9,116.2,290.9,116.4"/>
		<path class="st17" d="M290.9,122.5c0,0.1-20.5,0.2-45.7,0.2c-25.3,0-45.7-0.1-45.7-0.2c0-0.1,20.5-0.2,45.7-0.2
			C270.4,122.3,290.9,122.4,290.9,122.5"/>
		<path class="st17" d="M290.9,128.6c0,0.1-20.5,0.2-45.7,0.2c-25.3,0-45.7-0.1-45.7-0.2c0-0.1,20.5-0.2,45.7-0.2
			C270.4,128.4,290.9,128.5,290.9,128.6"/>
		<path class="st17" d="M290.9,134.7c0,0.1-20.5,0.2-45.7,0.2c-25.3,0-45.7-0.1-45.7-0.2c0-0.1,20.5-0.2,45.7-0.2
			C270.4,134.5,290.9,134.6,290.9,134.7"/>
		<path class="st19" d="M186.9,184h-29.4v-29.4h29.4V184z M158.3,183.2h27.8v-27.8h-27.8V183.2z"/>
		<polygon class="st19" points="163.3,169.9 167.3,165.7 173.8,170.9 188.7,156.5 192.2,160.7 173.5,179.2 		"/>
		<path class="st17" d="M290.9,161.7c0,0.1-20.5,0.2-45.7,0.2c-25.3,0-45.7-0.1-45.7-0.2c0-0.1,20.5-0.2,45.7-0.2
			C270.4,161.5,290.9,161.6,290.9,161.7"/>
		<path class="st17" d="M290.9,167.8c0,0.1-20.5,0.2-45.7,0.2c-25.3,0-45.7-0.1-45.7-0.2s20.5-0.2,45.7-0.2
			C270.4,167.6,290.9,167.7,290.9,167.8"/>
		<path class="st17" d="M290.9,173.9c0,0.1-20.5,0.2-45.7,0.2c-25.3,0-45.7-0.1-45.7-0.2c0-0.1,20.5-0.2,45.7-0.2
			C270.4,173.7,290.9,173.8,290.9,173.9"/>
		<path class="st17" d="M290.9,180c0,0.1-20.5,0.2-45.7,0.2c-25.3,0-45.7-0.1-45.7-0.2c0-0.1,20.5-0.2,45.7-0.2
			C270.4,179.8,290.9,179.9,290.9,180"/>
		<path class="st19" d="M186.9,227.9h-29.4v-29.4h29.4V227.9z M158.3,227.1h27.8v-27.8h-27.8V227.1z"/>
		<polygon class="st19" points="163.3,213.8 167.3,209.6 173.8,214.8 188.7,200.3 192.2,204.5 173.5,223 		"/>
		<path class="st17" d="M290.9,205.6c0,0.1-20.5,0.2-45.7,0.2c-25.3,0-45.7-0.1-45.7-0.2c0-0.1,20.5-0.2,45.7-0.2
			C270.4,205.4,290.9,205.5,290.9,205.6"/>
		<path class="st17" d="M290.9,211.7c0,0.1-20.5,0.2-45.7,0.2c-25.3,0-45.7-0.1-45.7-0.2c0-0.1,20.5-0.2,45.7-0.2
			C270.4,211.5,290.9,211.6,290.9,211.7"/>
		<path class="st17" d="M290.9,217.8c0,0.1-20.5,0.2-45.7,0.2c-25.3,0-45.7-0.1-45.7-0.2c0-0.1,20.5-0.2,45.7-0.2
			C270.4,217.6,290.9,217.7,290.9,217.8"/>
		<path class="st17" d="M290.9,223.9c0,0.1-20.5,0.2-45.7,0.2c-25.3,0-45.7-0.1-45.7-0.2c0-0.1,20.5-0.2,45.7-0.2
			C270.4,223.7,290.9,223.8,290.9,223.9"/>
		<path class="st19" d="M186.9,270.3h-29.4v-29.4h29.4V270.3z M158.3,269.4h27.8v-27.8h-27.8V269.4z"/>
		<polygon class="st19" points="163.3,256.2 167.3,252 173.8,257.2 188.7,242.7 192.2,246.9 173.5,265.4 		"/>
		<path class="st17" d="M290.9,247.9c0,0.1-20.5,0.2-45.7,0.2c-25.3,0-45.7-0.1-45.7-0.2c0-0.1,20.5-0.2,45.7-0.2
			C270.4,247.7,290.9,247.8,290.9,247.9"/>
		<path class="st17" d="M290.9,254.1c0,0.1-20.5,0.2-45.7,0.2c-25.3,0-45.7-0.1-45.7-0.2c0-0.1,20.5-0.2,45.7-0.2
			C270.4,253.8,290.9,253.9,290.9,254.1"/>
		<path class="st17" d="M290.9,260.2c0,0.1-20.5,0.2-45.7,0.2c-25.3,0-45.7-0.1-45.7-0.2c0-0.1,20.5-0.2,45.7-0.2
			C270.4,260,290.9,260.1,290.9,260.2"/>
		<path class="st17" d="M290.9,266.3c0,0.1-20.5,0.2-45.7,0.2c-25.3,0-45.7-0.1-45.7-0.2c0-0.1,20.5-0.2,45.7-0.2
			C270.4,266.1,290.9,266.2,290.9,266.3"/>
		<polygon class="st20" points="282.5,271.9 263.3,311.5 277,311.5 		"/>
		<polygon class="st21" points="277,311.7 282.5,272.1 313.9,281.8 		"/>
		<path class="st17" d="M277,311.7c0.8-0.6,4.2-3.4,10.6-8.7c6.6-5.4,15.7-12.9,26.2-21.4l0.1,0.4c-3.9-1.2-8-2.5-12.1-3.7
			c-6.8-2.1-13.3-4.1-19.3-6l0.3-0.2c-1.6,11.5-3,21.4-4,28.4C277.6,307.3,277.1,310.8,277,311.7c0,0,0-0.1,0-0.2
			c0-0.1,0-0.3,0.1-0.5c0.1-0.5,0.2-1.2,0.3-2.2c0.3-1.9,0.6-4.7,1.1-8.2c0.9-7.1,2.3-17,3.8-28.6l0-0.2l0.2,0.1
			c6,1.8,12.5,3.8,19.3,5.9c4.2,1.3,8.2,2.5,12.1,3.7l0.4,0.1l-0.3,0.2c-10.6,8.5-19.9,16-26.5,21.4c-3.3,2.6-5.9,4.7-7.7,6.2
			c-0.9,0.7-1.6,1.3-2.1,1.7c-0.2,0.2-0.4,0.3-0.5,0.4C277,311.7,277,311.7,277,311.7"/>
		<g class="st22">
			<g>
				<defs>
					<rect id="SVGID_13_" x="241.8" y="40.8" width="5.1" height="13.2"/>
				</defs>
				<clipPath id="SVGID_14_">
					<use xlink:href="#SVGID_13_"  style="overflow:visible;"/>
				</clipPath>
				<polyline class="st23" points="244.1,40.8 241.8,54.1 244.6,54.1 246.9,40.8 243.3,40.8 				"/>
			</g>
		</g>
	</g>
	<g class="st1">
		<defs>
			<rect id="SVGID_15_" x="39.1" y="36.5" width="358.2" height="334.6"/>
		</defs>
		<clipPath id="SVGID_16_">
			<use xlink:href="#SVGID_15_"  style="overflow:visible;"/>
		</clipPath>
		<path class="st24" d="M123.5,180.2L123.5,180.2c4.2,0.3,7.8-2.9,7.9-7.1c0.2-4,0.3-8.1,0.3-8.1s6.1-0.6,6.5-6.6
			c0.4-6,0.2-19.9,0.2-19.9c-6.8-3.4-14.9-2.9-21.2,1.4l0.4,21.2v11.4C117.7,176.4,119.7,179.9,123.5,180.2"/>
		<path class="st25" d="M132.3,151.1c-1-1.3-2.7-1.8-4.1-0.9c-1.4,0.9-1.9,2.9-1.2,4.4c0.5,1,1.7,2,3,2.2c1.1,0.2,1.9,1.3,1.8,2.5
			c-0.2,1.5-1,2.9-2.1,4.2c-1.8,1.9-4.4,3-7,3.3c-2.6,0.3-5.5-0.2-7-2.3c-1.1-1.5-1.2-3.5-1.2-5.4c-0.1-4.4-0.2-8.9-0.3-13.3
			c0-1.6-0.1-3.2,0.3-4.8c0.4-1.6,1.2-3.1,2.5-4c1.5-1,3.3-1,5-1.6c2.1-0.7,3.9-2.1,5.8-3.1c2-1,4.3-1.6,6.3-0.6
			c1.4,0.7,2.4,2.1,3.7,2.9c1.9,1.1,4.6,0.9,5.5,3.7c0.3,1,0.3,2.1,0,3.1c-1.3,3.9-6.2,5.5-9.6,3.8c-0.1,0.7,0.6,2.1-0.1,4.2
			C133.4,150.1,133.3,151.1,132.3,151.1"/>
		<path class="st25" d="M115.7,138.7c0.9-1.9,1.7-3.9,1.9-6.1c0.2-2.1-0.3-4.4-1.9-5.9c-1.1-1-2.5-1.4-4-1.4
			c-2.8,0.1-5.3,2.1-6.1,4.8c-0.8,2.7,0.3,5.7,2.4,7.4c2.2,1.7,5.3,2.1,7.8,1"/>
		<path class="st26" d="M116.8,136.5c0.1,0,0,1.1-0.9,1.9c-0.9,0.9-2,1-2,0.8c0-0.1,0.9-0.4,1.7-1.1
			C116.5,137.4,116.7,136.5,116.8,136.5"/>
		<path class="st25" d="M114.9,138c0,0-0.5,0.6-1.6,1.2c-0.6,0.3-1.3,0.6-2.2,0.6c-0.8,0-1.9-0.3-2.5-1.1c-0.6-0.9-0.6-1.9-0.4-2.7
			c0.2-0.8,0.6-1.5,1-2c0.8-1,1.4-1.5,1.4-1.4c0.1,0-0.5,0.6-1.2,1.6c-0.3,0.5-0.7,1.1-0.9,1.9c-0.2,0.8-0.1,1.7,0.4,2.4
			c0.5,0.7,1.4,1,2.2,1c0.8,0,1.5-0.2,2-0.5C114.2,138.4,114.8,137.9,114.9,138"/>
		<path class="st25" d="M104.6,144.8c0,0,0.1,0.2,0.3,0.7c0.2,0.4,0.4,1.1,0.9,1.7c0.5,0.6,1.3,1.3,2.4,1.1c1-0.2,1.9-1.1,2.3-2.3
			c0.4-1.2,0.4-2.4,0.6-3.5c0.2-1.1,0.6-2.1,1.2-2.8c0.6-0.7,1.3-0.9,1.8-1c0.5-0.1,0.7,0,0.7,0.1c0,0-0.3,0-0.7,0.1
			c-0.4,0.1-1,0.4-1.6,1c-0.5,0.6-0.8,1.6-1,2.6c-0.2,1.1-0.2,2.3-0.6,3.6c-0.4,1.3-1.4,2.3-2.6,2.5c-0.6,0.1-1.2,0-1.6-0.3
			c-0.5-0.3-0.8-0.6-1-1c-0.5-0.7-0.7-1.4-0.8-1.8C104.6,145.1,104.6,144.8,104.6,144.8"/>
		<path class="st24" d="M101.7,195.4c0,0-3.1,22.5,0,25.4s6,1.9,6,1.9l5.9-4.9l1.2-22.4H101.7z"/>
		<polygon class="st27" points="165.2,132.2 169.1,128 175.7,133.3 190.6,118.8 194.1,123 175.4,141.5 		"/>
		<path class="st24" d="M183.6,133.4l-5.7,3.6c-0.3-2.2-2-4.5-1.9-3.3c0.1,1.1,0,7,0,7L166,161.9c-1.4,3.4-4.2,5.5-6.2,6l-9.4,2.8
			l3.7,12.5l13.1-4.3c3.4-1.1,6.1-3.8,7.2-7.2l9-27.5c0,0,1.1-3.1,1.5-5.4C185.1,136.4,183.6,133.4,183.6,133.4"/>
		<path class="st26" d="M137.2,365.8l-0.1-6.3l-11.8,0.2l0.1,9.2l0.7,0c3.3,0.1,16.6,0.4,18.8-0.3
			C147.3,367.9,137.2,365.8,137.2,365.8"/>
		<g class="st28">
			<g>
				<defs>
					<rect id="SVGID_17_" x="125.3" y="365.5" width="4.3" height="3.3"/>
				</defs>
				<clipPath id="SVGID_18_">
					<use xlink:href="#SVGID_17_"  style="overflow:visible;"/>
				</clipPath>
				<path class="st29" d="M129.6,368.8c-0.2-1-0.7-1.9-1.5-2.5c-0.8-0.6-1.8-0.9-2.8-0.8l0.1,3.3L129.6,368.8z"/>
			</g>
		</g>
		<g class="st30">
			<g>
				<defs>
					<rect id="SVGID_19_" x="125.3" y="367" width="19.9" height="2.1"/>
				</defs>
				<clipPath id="SVGID_20_">
					<use xlink:href="#SVGID_19_"  style="overflow:visible;"/>
				</clipPath>
				<path class="st31" d="M142.1,367c0,0,3.5,1,3.1,1.5s-13.9,0.8-19.9,0.4l0-0.3l15.7-0.1C141.1,368.6,141.4,367.1,142.1,367"/>
			</g>
		</g>
		<path class="st25" d="M125.2,368.7c0,0,0.1,0,0.2,0c0.2,0,0.4,0,0.6,0c0.6,0,1.3,0,2.1,0.1c1.8,0,4.3,0.1,7.1,0
			c2.8,0,5.3-0.1,7.1-0.2c0.8,0,1.6-0.1,2.1-0.1c0.2,0,0.4,0,0.6,0c0.1,0,0.2,0,0.2,0c0,0-0.1,0-0.2,0c-0.2,0-0.4,0-0.6,0
			c-0.6,0-1.3,0-2.1,0.1c-1.8,0.1-4.3,0.1-7.1,0.2c-2.8,0-5.3,0-7.1,0c-0.8,0-1.6,0-2.1,0c-0.2,0-0.4,0-0.6,0
			C125.2,368.7,125.2,368.7,125.2,368.7"/>
		<path class="st25" d="M141.1,368.8c0,0,0.1-0.5,0.4-1c0.3-0.5,0.7-0.8,0.7-0.8c0,0-0.5,0.2-0.8,0.8
			C141,368.2,141,368.8,141.1,368.8"/>
		<path class="st25" d="M137.6,367c0,0,0.2-0.2,0.4-0.5c0.2-0.3,0.3-0.5,0.2-0.5c0,0-0.2,0.2-0.4,0.5
			C137.6,366.8,137.5,367,137.6,367"/>
		<path class="st25" d="M136.6,366.6c0,0,0.2-0.1,0.4-0.3c0.2-0.2,0.3-0.4,0.3-0.4c0,0-0.2,0.1-0.4,0.3
			C136.7,366.4,136.6,366.5,136.6,366.6"/>
		<path class="st25" d="M136,365.5c0,0,0.3,0.1,0.6,0.1c0.3,0,0.6,0,0.6-0.1c0,0-0.3-0.1-0.6-0.1C136.3,365.4,136,365.4,136,365.5"
			/>
		<path class="st25" d="M135.8,364.7c0,0,0.3,0.2,0.7,0.2c0.4,0,0.7-0.1,0.7-0.1c0,0-0.3,0-0.7,0
			C136.1,364.7,135.8,364.6,135.8,364.7"/>
		<path class="st25" d="M138,366c0,0,0.3,0,0.8,0c0.2,0,0.5-0.1,0.8-0.2c0.1-0.1,0.3-0.1,0.5-0.2c0.1-0.1,0.2-0.1,0.2-0.2
			c0-0.1,0-0.2-0.1-0.3c-0.7-0.4-1.5,0.1-1.7,0.4c-0.1,0.2-0.2,0.4-0.2,0.5c0,0.1,0,0.2,0,0.2c0,0,0-0.3,0.3-0.7
			c0.1-0.2,0.4-0.3,0.6-0.4c0.3-0.1,0.6-0.1,0.9,0c0.1,0.1,0.1,0.2-0.1,0.3c-0.1,0.1-0.3,0.1-0.4,0.2c-0.3,0.1-0.6,0.2-0.8,0.2
			C138.2,366,138,366,138,366"/>
		<path class="st25" d="M138.2,366c0,0,0.1-0.2,0.1-0.5c0-0.2-0.1-0.4-0.2-0.6c-0.1-0.2-0.3-0.4-0.6-0.4c-0.2,0-0.3,0.2-0.2,0.4
			c0,0.1,0.1,0.2,0.1,0.3c0.1,0.2,0.2,0.3,0.4,0.5C137.9,366,138.1,366.1,138.2,366c-0.1,0-0.2-0.1-0.4-0.4
			c-0.1-0.1-0.2-0.3-0.3-0.5c-0.1-0.2-0.2-0.4,0-0.5c0.2,0,0.4,0.2,0.5,0.3c0.1,0.2,0.2,0.3,0.2,0.5
			C138.2,365.8,138.1,366,138.2,366"/>
		<path class="st25" d="M125.4,365.4c0,0,0.3,0,0.9,0c0.5,0.1,1.3,0.3,1.9,0.8c0.6,0.5,1,1.2,1.2,1.7c0.2,0.5,0.2,0.8,0.2,0.8
			c0,0,0-0.1,0-0.2s-0.1-0.4-0.1-0.6c-0.2-0.5-0.5-1.2-1.2-1.7c-0.7-0.5-1.4-0.7-2-0.7c-0.3,0-0.5,0-0.6,0
			C125.4,365.4,125.4,365.4,125.4,365.4"/>
		<path class="st25" d="M126.5,360.5c0,0-0.1,1.1-0.1,2.4c0,1.3,0,2.4,0.1,2.4c0,0,0.1-1.1,0.1-2.4
			C126.6,361.6,126.6,360.5,126.5,360.5"/>
		<path class="st25" d="M131.1,367.6c0,0,0.8,0.2,1.7,0.1c1,0,1.7-0.1,1.7-0.2c0,0-0.8,0-1.7,0C131.9,367.6,131.1,367.6,131.1,367.6
			"/>
		<path class="st25" d="M128.8,367.6c0,0,0.1,0.2,0.1,0.3c0.1,0.2,0.1,0.3,0.2,0.3c0,0,0.1-0.2,0-0.4
			C129,367.7,128.8,367.6,128.8,367.6"/>
		<path class="st25" d="M127.9,366.6c0,0,0.1,0.2,0.2,0.3c0.1,0.1,0.2,0.2,0.3,0.2c0,0-0.1-0.2-0.2-0.3
			C128,366.6,127.9,366.5,127.9,366.6"/>
		<path class="st25" d="M126.6,366.1c0,0,0.2,0,0.3,0.1c0.2,0.1,0.3,0.1,0.3,0.1c0,0-0.1-0.2-0.3-0.3
			C126.8,366,126.6,366.1,126.6,366.1"/>
		<path class="st25" d="M125.7,365.9c0,0,0.1,0.1,0.2,0.1c0.1,0,0.2,0,0.2,0c0,0-0.1-0.1-0.2-0.1
			C125.8,365.8,125.8,365.8,125.7,365.9"/>
		<path class="st26" d="M95.5,363.8l4-4.9l-9.1-7.6l-5.9,7.1L85,359c2.4,2.2,12.3,11.1,14.4,12C101.8,372,95.5,363.8,95.5,363.8"/>
		<g class="st28">
			<g>
				<defs>
					<rect id="SVGID_21_" x="84.6" y="355.8" width="3.8" height="5.3"/>
				</defs>
				<clipPath id="SVGID_22_">
					<use xlink:href="#SVGID_21_"  style="overflow:visible;"/>
				</clipPath>
				<path class="st32" d="M87.9,361.1c0.5-0.9,0.7-1.9,0.5-2.9c-0.2-1-0.8-1.8-1.6-2.4l-2.1,2.5L87.9,361.1z"/>
			</g>
		</g>
		<g class="st30">
			<g>
				<defs>
					<rect id="SVGID_23_" x="84.5" y="358.3" width="15.4" height="12.9"/>
				</defs>
				<clipPath id="SVGID_24_">
					<use xlink:href="#SVGID_23_"  style="overflow:visible;"/>
				</clipPath>
				<path class="st33" d="M98.5,367.9c0,0,2.1,3,1.3,3.2c-0.7,0.2-11.1-8.5-15.3-12.7l0.2-0.2l12,10.2
					C96.7,368.4,97.9,367.5,98.5,367.9"/>
			</g>
		</g>
		<path class="st25" d="M84.6,358.1c0,0,0,0.1,0.1,0.1c0.1,0.1,0.3,0.3,0.4,0.4c0.4,0.4,1,0.9,1.6,1.4c1.4,1.2,3.2,2.9,5.4,4.6
			c2.1,1.8,4.1,3.3,5.5,4.5c0.7,0.5,1.2,1,1.7,1.3c0.2,0.1,0.3,0.2,0.5,0.3c0.1,0.1,0.2,0.1,0.2,0.1c0,0,0-0.1-0.2-0.1
			c-0.1-0.1-0.3-0.2-0.5-0.4c-0.5-0.4-1-0.8-1.7-1.3c-1.4-1.1-3.4-2.7-5.5-4.5c-2.1-1.8-4-3.4-5.4-4.6c-0.6-0.6-1.2-1-1.6-1.4
			c-0.2-0.1-0.3-0.3-0.4-0.4C84.6,358.2,84.6,358.1,84.6,358.1"/>
		<path class="st25" d="M96.6,368.6c0,0,0.4-0.3,1-0.5c0.6-0.2,1.1-0.1,1.1-0.2c0,0-0.5-0.2-1.1,0C96.9,368.1,96.5,368.6,96.6,368.6
			"/>
		<path class="st25" d="M95,365c0,0,0.3,0,0.6-0.1s0.5-0.2,0.5-0.2c0,0-0.3,0-0.6,0.1C95.3,364.8,95,365,95,365"/>
		<path class="st25" d="M94.6,364c0,0,0.2,0.1,0.5,0.1c0.3,0,0.5-0.1,0.5-0.1c0,0-0.2-0.1-0.5-0.1C94.8,363.9,94.6,364,94.6,364"/>
		<path class="st25" d="M94.9,362.8c0,0,0.2,0.2,0.4,0.5c0.3,0.2,0.5,0.4,0.5,0.3c0,0-0.2-0.2-0.4-0.5
			C95.1,362.9,94.9,362.7,94.9,362.8"/>
		<path class="st25" d="M95.2,362c0,0,0.1,0.3,0.4,0.6c0.3,0.3,0.6,0.4,0.6,0.4c0,0-0.2-0.2-0.5-0.5C95.4,362.2,95.2,362,95.2,362"
			/>
		<path class="st25" d="M96,364.5c0,0,0.2,0.2,0.6,0.5c0.2,0.1,0.4,0.3,0.7,0.4c0.1,0.1,0.3,0.1,0.5,0.1c0.1,0,0.2,0,0.3-0.1
			c0.1-0.1,0.1-0.2,0.1-0.3c-0.3-0.8-1.1-0.9-1.6-0.8c-0.2,0.1-0.4,0.2-0.5,0.2c-0.1,0.1-0.2,0.1-0.1,0.1c0,0,0.2-0.2,0.7-0.3
			c0.2,0,0.5,0,0.8,0.1c0.3,0.1,0.6,0.3,0.7,0.6c0,0.1-0.1,0.2-0.2,0.2c-0.1,0-0.3-0.1-0.4-0.1c-0.3-0.1-0.5-0.2-0.7-0.3
			C96.2,364.6,96,364.4,96,364.5"/>
		<path class="st25" d="M96.1,364.6c0,0,0.2-0.1,0.4-0.3c0.1-0.1,0.2-0.3,0.2-0.6c0-0.2,0-0.5-0.2-0.7c-0.1-0.1-0.3,0-0.4,0.1
			c-0.1,0.1-0.1,0.2-0.1,0.3c0,0.2,0,0.4,0,0.6C96,364.4,96.1,364.6,96.1,364.6c0-0.1-0.1-0.3-0.1-0.6c0-0.2,0-0.3,0-0.6
			c0-0.2,0.2-0.5,0.3-0.4c0.2,0.1,0.2,0.4,0.2,0.6c0,0.2-0.1,0.4-0.2,0.5C96.3,364.5,96.1,364.6,96.1,364.6"/>
		<path class="st25" d="M86.8,355.8c0,0,0.3,0.2,0.7,0.6c0.4,0.4,0.8,1,1,1.8c0.2,0.8,0,1.6-0.2,2.1c-0.2,0.5-0.4,0.8-0.4,0.8
			c0,0,0.1-0.1,0.2-0.2c0.1-0.1,0.2-0.3,0.3-0.6c0.2-0.5,0.4-1.3,0.2-2.1c-0.2-0.8-0.6-1.5-1-1.9c-0.2-0.2-0.4-0.3-0.5-0.4
			S86.8,355.8,86.8,355.8"/>
		<path class="st25" d="M90.9,352.8c0,0-0.8,0.8-1.6,1.8c-0.9,1-1.6,1.9-1.5,1.9c0,0,0.8-0.8,1.6-1.8
			C90.2,353.7,90.9,352.9,90.9,352.8"/>
		<path class="st25" d="M89.7,361.2c0,0,0.5,0.6,1.2,1.2c0.7,0.6,1.4,1,1.4,1c0,0-0.6-0.5-1.3-1.1C90.3,361.7,89.8,361.2,89.7,361.2
			"/>
		<path class="st25" d="M88,359.7c0,0-0.1,0.2-0.1,0.4c-0.1,0.2-0.1,0.3-0.1,0.4c0,0,0.2-0.1,0.2-0.3C88.1,359.9,88,359.7,88,359.7"
			/>
		<path class="st25" d="M88,358.3c0,0-0.1,0.1,0,0.3c0,0.2,0.1,0.3,0.1,0.3c0,0,0.1-0.1,0-0.3C88.1,358.5,88,358.3,88,358.3"/>
		<path class="st25" d="M87.3,357.1c0,0,0.1,0.1,0.2,0.3c0.1,0.2,0.1,0.3,0.2,0.3c0,0,0.1-0.2,0-0.4
			C87.6,357.2,87.4,357.1,87.3,357.1"/>
		<path class="st25" d="M86.8,356.4c0,0,0,0.1,0,0.2c0.1,0.1,0.1,0.2,0.2,0.1c0,0,0-0.1,0-0.2C86.9,356.4,86.9,356.4,86.8,356.4"/>
		<path class="st25" d="M120.1,231.9c0,0-3.9,16.6-2.8,19.9c1.1,3.3,8.3,5.2,8.3,5.2l-0.2,45.5l-39.8,49.2l14.7,12
			c0,0,43.1-49.3,46.9-58.3c3.8-8.9-2.4-74.4-2.4-74.4L120.1,231.9z"/>
		<path class="st25" d="M140.4,225.1l1.9,138.3l-20.3,0.1l-10.2-112.7c-2.1-2.1-5.2-5.6-4.8-13.4l0.5-9.1L140.4,225.1z"/>
		<path class="st34" d="M119.1,310.3c0,0,0-0.1,0.1-0.2c0.1-0.2,0.2-0.3,0.4-0.6c0.4-0.5,0.9-1.2,1.5-2.1c1.3-1.9,3.2-4.5,5.5-7.6
			l0,0.1c-0.4-4.8-1-10.6-1.6-16.9c-0.7-8.2-1.3-15.7-1.7-21.1c-0.2-2.7-0.3-4.9-0.4-6.4c0-0.7,0-1.3-0.1-1.7c0-0.4,0-0.6,0-0.6
			c0,0,0,0.2,0.1,0.6c0,0.4,0.1,1,0.1,1.7c0.1,1.6,0.3,3.7,0.5,6.4c0.4,5.4,1.1,12.8,1.8,21.1c0.6,6.3,1.1,12.1,1.5,16.9l0,0.1
			l0,0.1c-2.3,3.1-4.2,5.7-5.6,7.5c-0.7,0.9-1.2,1.6-1.6,2.1c-0.2,0.2-0.3,0.4-0.4,0.5C119.1,310.2,119.1,310.3,119.1,310.3"/>
		<path class="st34" d="M125.3,253.1c0,0.1-2.4-0.2-5.4-0.8c-2.9-0.6-5.3-1.3-5.2-1.4c0-0.1,2.4,0.4,5.3,1
			C122.9,252.5,125.3,253,125.3,253.1"/>
		<path class="st34" d="M139.2,300.4c-0.1,0.1-2.3-1.2-5.5-1.4c-3.1-0.3-5.6,0.7-5.6,0.5c0,0,0.6-0.3,1.6-0.6c1-0.3,2.5-0.5,4.1-0.4
			c1.6,0.1,3,0.6,4,1C138.7,299.9,139.2,300.3,139.2,300.4"/>
		<path class="st34" d="M146.3,306.8c0.1,0.1-5.6,7.7-12.7,17.1c-7.1,9.4-13,16.9-13.1,16.8c-0.1-0.1,5.6-7.7,12.7-17.1
			C140.4,314.2,146.2,306.7,146.3,306.8"/>
		<path class="st34" d="M143.6,235.4c0,0-0.2,0.7-1.1,1.5c-0.9,0.8-2.5,1.6-4.3,1.4c-1.8-0.2-3.2-1.3-3.9-2.2
			c-0.7-1-0.8-1.7-0.8-1.7c0.1,0,0.3,0.7,1,1.5c0.7,0.8,2,1.8,3.7,2c1.7,0.2,3.2-0.5,4.1-1.2C143.1,236,143.5,235.4,143.6,235.4"/>
		<path class="st25" d="M115.9,164.2c-3.3-3.1-5.3-7.6-5.5-12.1c-0.2-4.5,1.5-9.1,4.5-12.5"/>
		<path class="st26" d="M104.5,177.1c0,0-4.4,5-5.3,24c0,0,12.5,2.4,12.8,1.7C112.2,202.1,104.5,177.1,104.5,177.1"/>
		<path class="st27" d="M104.5,177.1c0,0-4.4,5-5.3,24c0,0,12.5,2.4,12.8,1.7C112.2,202.1,104.5,177.1,104.5,177.1"/>
		<path class="st26" d="M106.5,232.5H145l-0.6-6c0,0-4.4-22.9-4.4-23.2l0.7-1.5c1.8-3.8,1.9-8.2,0.2-12.1l18.8-6.4l-4.6-15.6
			c-8.6,1.4-21.5,3.1-21.5,3.1l-1.9,0.2c0,0-13.3,0.7-13.6,0.7c-5.6,0.7-12.1,1.1-14.5,7.1c-1.3,3.2-0.1,8,2,12.9l4.9,15.2
			c2,8.3-1.2,7.9-2.9,16.3C107.4,224.6,106.5,231.4,106.5,232.5"/>
		<path class="st27" d="M106.5,232.5H145l-0.6-6c0,0-4.4-22.9-4.4-23.2l0.7-1.5c1.8-3.8,1.9-8.2,0.2-12.1l18.8-6.4l-4.6-15.6
			c-8.6,1.4-21.5,3.1-21.5,3.1l-1.9,0.2c0,0-13.3,0.7-13.6,0.7c-5.6,0.7-12.1,1.1-14.5,7.1c-1.3,3.2-0.1,8,2,12.9l4.9,15.2
			c2,8.3-1.2,7.9-2.9,16.3C107.4,224.6,106.5,231.4,106.5,232.5"/>
		<path class="st25" d="M159.6,183.6c0,0-0.3,0.2-0.8,0.4c-0.5,0.2-1.3,0.5-2.3,0.8c-2,0.7-4.7,1.5-7.7,2.5c-3,1-5.7,1.9-7.6,2.7
			c-1,0.4-1.7,0.7-2.3,1c-0.5,0.2-0.8,0.4-0.8,0.3c0,0,0.3-0.2,0.8-0.5c0.5-0.3,1.3-0.7,2.2-1.1c1.9-0.9,4.6-1.9,7.6-2.8
			c3-1,5.8-1.8,7.8-2.4c1-0.3,1.8-0.5,2.4-0.7C159.2,183.6,159.6,183.6,159.6,183.6"/>
		<path class="st35" d="M157.3,175.3c0,0.1-11.4,0.2-25.4,0.2c-14,0-25.4-0.1-25.4-0.2s11.4-0.2,25.4-0.2
			C145.9,175.1,157.3,175.2,157.3,175.3"/>
		<path class="st35" d="M158.5,182.9c0,0.1-12.7,0.2-28.3,0.2c-15.6,0-28.3-0.1-28.3-0.2c0-0.1,12.7-0.2,28.3-0.2
			C145.8,182.7,158.5,182.8,158.5,182.9"/>
		<path class="st35" d="M105.1,191.5c0,0.1-1.1,0.2-2.4,0.2c-1.3,0-2.4-0.1-2.4-0.2s1.1-0.2,2.4-0.2
			C104,191.3,105.1,191.4,105.1,191.5"/>
		<path class="st35" d="M142.1,191.7c0,0.1-8.3,0.2-18.5,0.2c-10.2,0-18.5-0.1-18.5-0.2c0-0.1,8.3-0.2,18.5-0.2
			C133.8,191.5,142.1,191.6,142.1,191.7"/>
		<path class="st35" d="M141.3,200.6c0,0.1-7.4,0.2-16.6,0.2c-9.2,0-16.6-0.1-16.6-0.2s7.4-0.2,16.6-0.2
			C133.8,200.4,141.3,200.5,141.3,200.6"/>
		<path class="st35" d="M141,208.8c0,0.1-6.7,0.2-15,0.2c-8.3,0-15-0.1-15-0.2c0-0.1,6.7-0.2,15-0.2
			C134.3,208.6,141,208.7,141,208.8"/>
		<path class="st35" d="M142.3,215.5c0,0.1-7.2,0.2-16.1,0.2c-8.9,0-16.1-0.1-16.1-0.2c0-0.1,7.2-0.2,16.1-0.2
			C135.1,215.2,142.3,215.3,142.3,215.5"/>
		<path class="st35" d="M144.4,223.9c0,0.1-8.2,0.2-18.3,0.2c-10.1,0-18.3-0.1-18.3-0.2c0-0.1,8.2-0.2,18.3-0.2
			C136.2,223.7,144.4,223.8,144.4,223.9"/>
		<path class="st25" d="M110.4,206.2c0,0-0.1-0.3-0.3-0.8c-0.2-0.6-0.5-1.3-0.8-2.1c-0.7-1.8-1.6-4.2-2.6-7c-1-2.7-1.8-5.2-2.3-7.1
			c-0.3-0.9-0.5-1.7-0.6-2.2c-0.1-0.5-0.2-0.8-0.1-0.8c0.1,0,0.4,1.1,1,2.9c0.6,1.8,1.4,4.3,2.4,7c1,2.7,1.9,5.2,2.5,7
			c0.3,0.9,0.5,1.6,0.7,2.1C110.3,205.9,110.4,206.2,110.4,206.2"/>
	</g>
</g>
</svg>
