<?xml version="1.0" encoding="utf-8"?>
<!-- Generator: Adobe Illustrator 23.0.5, SVG Export Plug-In . SVG Version: 6.00 Build 0)  -->
<svg version="1.1" id="Capa_1" xmlns="http://www.w3.org/2000/svg" xmlns:xlink="http://www.w3.org/1999/xlink" x="0px" y="0px"
	 viewBox="0 0 512 512" style="enable-background:new 0 0 512 512;" xml:space="preserve">
<style type="text/css">
	.st0{fill:none;stroke:#09518C;stroke-width:10;stroke-miterlimit:10;}
	.st1{fill:none;stroke:#951B1F;stroke-width:10;stroke-miterlimit:10;}
</style>
<g>
	<g>
		<path class="st0" d="M431.7,272.7h-38.2c3.9,10.6,6,22.2,6,34.2v144.3c0,5-0.9,9.8-2.4,14.3h63.2c23.6,0,42.7-19.2,42.7-42.7V344
			C503,304.7,471,272.7,431.7,272.7z"/>
	</g>
</g>
<g>
	<g>
		<path class="st0" d="M112.5,306.8c0-12,2.1-23.5,6-34.2H80.3C41,272.7,9,304.7,9,344v78.7c0,23.6,19.2,42.7,42.7,42.7h63.2
			c-1.5-4.4-2.4-9.3-2.4-14.3V306.8z"/>
	</g>
</g>
<g>
	<g>
		<path class="st0" d="M299.7,235.5h-87.3c-39.4,0-71.3,32-71.3,71.3v144.3c0,7.9,6.4,14.3,14.3,14.3h201.5
			c7.9,0,14.3-6.4,14.3-14.3V306.8C371,267.6,339,235.5,299.7,235.5z"/>
	</g>
</g>
<g>
	<g>
		<path class="st1" d="M256,46.4c-47.3,0-85.8,38.5-85.8,85.8c0,32,17.7,60.1,43.8,74.8c12.4,6.9,26.7,11,41.9,11s29.5-4,41.9-11
			c26.1-14.7,43.8-42.7,43.8-74.8C341.8,84.9,303.3,46.4,256,46.4z"/>
	</g>
</g>
<g>
	<g>
		<path class="st1" d="M105.4,126.4c-35.4,0-64.2,28.8-64.2,64.2s28.8,64.2,64.2,64.2c9,0,17.6-1.8,25.3-5.2
			c13.4-5.8,24.5-16,31.4-28.8c4.8-9,7.5-19.2,7.5-30.1C169.5,155.2,140.8,126.4,105.4,126.4z"/>
	</g>
</g>
<g>
	<g>
		<path class="st1" d="M406.6,126.4c-35.4,0-64.2,28.8-64.2,64.2c0,10.9,2.7,21.1,7.5,30.1c6.9,12.8,17.9,23.1,31.4,28.8
			c7.7,3.4,16.3,5.2,25.3,5.2c35.4,0,64.2-28.8,64.2-64.2S441.9,126.4,406.6,126.4z"/>
	</g>
</g>
</svg>
