<?xml version="1.0" encoding="utf-8"?>
<!-- Generator: Adobe Illustrator 23.0.5, SVG Export Plug-In . SVG Version: 6.00 Build 0)  -->
<svg version="1.1" id="Capa_1" xmlns="http://www.w3.org/2000/svg" xmlns:xlink="http://www.w3.org/1999/xlink" x="0px" y="0px"
	 viewBox="0 0 510 510" style="enable-background:new 0 0 510 510;" xml:space="preserve">
<style type="text/css">
	.st0{fill:none;stroke:#09518C;stroke-width:10;stroke-miterlimit:10;}
	.st1{fill:none;stroke:#951B1F;stroke-width:10;stroke-miterlimit:10;}
</style>
<g>
	<g id="hotel">
		<path class="st0" d="M382.5,51V0h-255v51H51v459h153v-51h102v51h153V51H382.5z M229.5,382.5h-51v-51h51V382.5z M229.5,280.5h-51
			v-51h51V280.5z M229.5,178.5h-51v-51h51V178.5z M331.5,382.5h-51v-51h51V382.5z M331.5,280.5h-51v-51h51V280.5z M331.5,178.5h-51
			v-51h51V178.5z"/>
	</g>
</g>
<rect x="178.5" y="127.5" class="st1" width="51" height="51"/>
<rect x="178.5" y="229.5" class="st1" width="51" height="51"/>
<rect x="280.5" y="127.5" class="st1" width="51" height="51"/>
<rect x="280.3" y="331.7" transform="matrix(3.774703e-03 -1 1 3.774703e-03 -52.5387 661.6469)" class="st1" width="51" height="51"/>
<rect x="280.7" y="229.7" transform="matrix(3.774703e-03 -1 1 3.774703e-03 49.8547 560.4139)" class="st1" width="51" height="51"/>
<rect x="178.3" y="331.3" transform="matrix(3.774703e-03 -1 1 3.774703e-03 -153.7679 559.2648)" class="st1" width="51" height="51"/>
</svg>
