<?xml version="1.0" encoding="utf-8"?>
<!-- Generator: Adobe Illustrator 23.0.5, SVG Export Plug-In . SVG Version: 6.00 Build 0)  -->
<svg version="1.1" id="Capa_1" xmlns="http://www.w3.org/2000/svg" xmlns:xlink="http://www.w3.org/1999/xlink" x="0px" y="0px"
	 viewBox="0 0 512 512" style="enable-background:new 0 0 512 512;" xml:space="preserve">
<style type="text/css">
	.st0{fill:none;stroke:#09518C;stroke-width:10;stroke-miterlimit:10;}
	.st1{fill:none;stroke:#951B1F;stroke-width:10;stroke-miterlimit:10;}
</style>
<g>
	<path class="st0" d="M318.8,240.5h-14.5c-8,0-14.5-6.5-14.5-14.5c0-8,6.5-14.5,14.5-14.5h14.5V8.7H212.5v59.4c33,6.8,58,36,58,71
		c0,8-6.5,14.5-14.5,14.5H140.1c-8,0-14.5-6.5-14.5-14.5c0-35,24.9-64.2,58-71V8.7H82.1c-8,0-14.5,6.5-14.5,14.5v393.1h251.1V240.5z
		 M164.2,226.1c0,8-6.5,14.5-14.5,14.5c-8,0-14.5-6.5-14.5-14.5v-29c0-8,6.5-14.5,14.5-14.5c8,0,14.5,6.5,14.5,14.5V226.1z
		 M212.5,264.7c0,8-6.5,14.5-14.5,14.5c-8,0-14.5-6.5-14.5-14.5v-29c0-8,6.5-14.5,14.5-14.5c8,0,14.5,6.5,14.5,14.5V264.7z
		 M260.8,226.1c0,8-6.5,14.5-14.5,14.5c-8,0-14.5-6.5-14.5-14.5v-29c0-8,6.5-14.5,14.5-14.5c8,0,14.5,6.5,14.5,14.5V226.1z"/>
	<path class="st1" d="M29,459.8v29c0,8,6.5,14.5,14.5,14.5h425c8,0,14.5-6.5,14.5-14.5v-29c0-8-6.5-14.5-14.5-14.5h-425
		C35.5,445.3,29,451.8,29,459.8z"/>
	<path class="st0" d="M157.1,124.6h82c-6-16.9-22.1-29-41-29S163.1,107.7,157.1,124.6L157.1,124.6z"/>
	<path class="st0" d="M347.8,211.6h14.5c8,0,14.5,6.5,14.5,14.5c0,8-6.5,14.5-14.5,14.5h-14.5v175.8h96.6V23.2
		c0-8-6.5-14.5-14.5-14.5h-82.1V211.6z"/>
</g>
</svg>
