<?xml version="1.0" encoding="utf-8"?>
<!-- Generator: Adobe Illustrator 23.0.5, SVG Export Plug-In . SVG Version: 6.00 Build 0)  -->
<svg version="1.1" id="Layer_1" xmlns="http://www.w3.org/2000/svg" xmlns:xlink="http://www.w3.org/1999/xlink" x="0px" y="0px"
	 viewBox="0 0 512 512" style="enable-background:new 0 0 512 512;" xml:space="preserve">
<style type="text/css">
	.st0{display:none;}
	.st1{display:inline;}
	.st2{fill:#951B1F;stroke:#FFFFFF;stroke-miterlimit:10;}
	.st3{fill:none;stroke:#09518C;stroke-width:14;stroke-miterlimit:10;}
	.st4{fill:none;stroke:#951B1F;stroke-width:14;stroke-miterlimit:10;}
	.st5{fill:#951B1F;stroke:#951B1F;stroke-width:14;stroke-miterlimit:10;}
</style>
<g class="st0">
	<g class="st1">
		<path class="st2" d="M501.5,450.1l-33.4-33.4c-6.5-6.5-17.1-6.5-23.6,0s-6.5,17.1,0,23.6l4.9,4.9H129.3l4.9-4.9
			c6.5-6.5,6.5-17.1,0-23.6s-17.1-6.5-23.6,0l-33.4,33.4c-3.3,3.3-4.9,7.7-4.9,11.8c0,4.2,1.7,8.6,4.9,11.8l33.4,33.4
			c6.5,6.5,17.1,6.5,23.6,0s6.5-17.1,0-23.6l-4.9-4.9h320.1l-4.9,4.9c-6.5,6.5-6.5,17.1,0,23.6s17.1,6.5,23.6,0l33.4-33.4
			c3.3-3.3,4.9-7.7,4.9-11.8C506.4,457.6,504.7,453.3,501.5,450.1z"/>
	</g>
</g>
<g class="st0">
	<g class="st1">
		<path class="st2" d="M77.2,349.9l-4.9,4.9V57l4.9,4.9c6.5,6.5,17.1,6.5,23.6,0s6.5-17.1,0-23.6L67.5,4.9c-6.5-6.5-17.1-6.5-23.6,0
			L10.5,38.3C4,44.8,4,55.4,10.5,61.9s17.1,6.5,23.6,0L39,57v297.8l-4.9-4.9c-6.5-6.5-17.1-6.5-23.6,0s-6.5,17.1,0,23.6l33.4,33.4
			c6.5,6.5,17.1,6.5,23.6,0l33.4-33.4c6.5-6.5,6.5-17.1,0-23.6C94.3,343.4,83.8,343.4,77.2,349.9z"/>
	</g>
</g>
<g>
	<g>
		<path class="st3" d="M415,141.6h83.5V24.7C498.4,15.5,491,8,481.7,8H253.6v133.6H337c9.2,0,16.7,7.5,16.7,16.7S346.2,175,337,175
			h-83.5v50c0,9.2-7.5,16.7-16.7,16.7s-16.7-7.5-16.7-16.7V8h-72.3c-9.2,0-16.7,7.5-16.7,16.7v345c0,9.2,7.5,16.7,16.7,16.7h72.3
			V303c0-9.2,7.5-16.7,16.7-16.7s16.7,7.5,16.7,16.7v83.5h228.2c9.2,0,16.7-7.5,16.7-16.7V175H415c-9.2,0-16.7-7.5-16.7-16.7
			S405.7,141.6,415,141.6z"/>
	</g>
</g>
<polyline class="st4" points="10.3,60.6 44.6,28 80.6,58.9 "/>
<line class="st5" x1="44.6" y1="398.3" x2="44.6" y2="28"/>
<polyline class="st4" points="7.4,366 43.7,400 83.7,364.9 "/>
<polyline class="st4" points="434.9,430.8 467.8,464.7 437.4,501 "/>
<line class="st5" x1="97.6" y1="469" x2="467.8" y2="464.7"/>
<polyline class="st4" points="129.4,431.5 95.8,468.2 131.5,507.8 "/>
</svg>
