<?xml version="1.0" encoding="utf-8"?>
<!-- Generator: Adobe Illustrator 23.0.5, SVG Export Plug-In . SVG Version: 6.00 Build 0)  -->
<svg version="1.1" id="Layer_1" xmlns="http://www.w3.org/2000/svg" xmlns:xlink="http://www.w3.org/1999/xlink" x="0px" y="0px"
	 viewBox="0 0 512 512" style="enable-background:new 0 0 512 512;" xml:space="preserve">
<style type="text/css">
	.st0{display:none;}
	.st1{display:inline;fill:#EB494B;}
	.st2{display:inline;}
	.st3{fill:#09518C;}
	.st4{display:inline;fill:#FFFFFF;}
	.st5{display:inline;fill:#EF737A;}
	.st6{display:inline;fill:#FFD301;}
	.st7{display:inline;fill:#09518C;}
	.st8{fill:#EB494B;}
	.st9{fill:#FFFFFF;}
	.st10{fill:#EDF5FF;}
	.st11{fill:#D5E8FE;}
</style>
<g class="st0">
	<path class="st1" d="M416.2,213.8v-84.3h-50.1c-0.8-2-1.5-4-2.4-6l35.3-35.3l-59.6-59.6l-35.3,35.3c-2-0.8-4-1.6-6-2.4V11.4h-84.3
		v50.1c-2,0.8-4,1.5-6,2.4l-35.3-35.3l-59.6,59.6l35.3,35.3c-0.8,2-1.6,4-2.4,6H95.8v84.3h50.1c0.8,2,1.5,4,2.4,6l-35.3,35.3
		l59.6,59.6l35.3-35.3c2,0.8,4,1.6,6,2.4v50.1h84.3v-50.1c2-0.8,4-1.5,6-2.4l35.3,35.3l59.6-59.6l-35.3-35.3c0.8-2,1.6-4,2.4-6
		H416.2z M315,171.7c0,32.6-26.4,59-59,59c-32.6,0-59-26.4-59-59s26.4-59,59-59C288.6,112.7,315,139.1,315,171.7z"/>
	<g class="st2">
		<path class="st3" d="M416.2,121.1h-38l26.9-26.9c1.6-1.6,2.5-3.7,2.4-6c0-2.2-0.9-4.4-2.4-6l-59.6-59.6c-3.4-3.1-8.6-3.1-12,0
			l-26.9,26.9v-38c0-4.7-3.8-8.4-8.4-8.4h-84.3c-4.7,0-8.4,3.8-8.4,8.4v38l-26.9-26.9c-1.6-1.6-3.7-2.5-6-2.4c-2.2,0-4.4,0.9-6,2.4
			l-59.6,59.6c-1.6,1.6-2.5,3.7-2.4,6c0,2.2,0.9,4.4,2.4,6l26.9,26.9h-38c-4.7,0-8.4,3.8-8.4,8.4v84.3c0,4.7,3.8,8.4,8.4,8.4h38
			l-26.9,26.9c-1.6,1.6-2.5,3.7-2.4,6c0,2.2,0.9,4.4,2.4,6l59.6,59.6c3.4,3.1,8.6,3.1,12,0l26.9-26.9v38c0,4.7,3.8,8.4,8.4,8.4h84.3
			c4.7,0,8.4-3.8,8.4-8.4v-38l26.9,26.9c1.6,1.6,3.7,2.5,6,2.4c2.2,0,4.4-0.9,6-2.4l59.6-59.6c1.6-1.6,2.5-3.7,2.4-6
			c0-2.2-0.9-4.4-2.4-6l-26.9-26.9h38c4.7,0,8.4-3.8,8.4-8.4v-84.3C424.7,124.8,420.9,121.1,416.2,121.1z M407.8,205.4h-41.7
			c-3.5,0-6.6,2.1-7.8,5.4c-0.7,1.9-1.4,3.7-2.3,5.6c-1.4,3.2-0.7,6.9,1.8,9.4l29.4,29.4l-47.7,47.7l-29.4-29.4
			c-2.5-2.5-6.2-3.2-9.4-1.8c-1.9,0.8-3.7,1.6-5.6,2.3c-3.3,1.2-5.4,4.4-5.4,7.8v41.7h-67.5v-41.7c0-3.5-2.1-6.6-5.4-7.8
			c-1.9-0.7-3.7-1.4-5.6-2.3c-3.2-1.4-6.9-0.7-9.4,1.8l-29.4,29.4l-47.7-47.7l29.4-29.4c2.5-2.5,3.2-6.2,1.8-9.4
			c-0.8-1.9-1.6-3.7-2.3-5.6c-1.2-3.3-4.4-5.4-7.8-5.4h-41.7v-67.5h41.7c3.5,0,6.6-2.1,7.8-5.4c0.7-1.9,1.4-3.7,2.3-5.6
			c1.4-3.2,0.7-6.9-1.8-9.4l-29.4-29.4l47.7-47.7l29.4,29.4c2.5,2.5,6.2,3.2,9.4,1.8c1.9-0.8,3.7-1.6,5.6-2.3
			c3.3-1.2,5.4-4.4,5.4-7.8V19.9h67.5v41.7c0,3.5,2.1,6.6,5.4,7.8c1.9,0.7,3.7,1.4,5.6,2.3c3.2,1.4,6.9,0.7,9.4-1.8l29.4-29.4
			l47.7,47.7l-29.4,29.4c-2.5,2.5-3.2,6.2-1.8,9.4c0.8,1.9,1.6,3.7,2.3,5.6c1.2,3.3,4.4,5.4,7.8,5.4h41.7V205.4z"/>
		<path class="st3" d="M256,95.8c-41.9,0-75.9,34-75.9,75.9s34,75.9,75.9,75.9s75.9-34,75.9-75.9C331.8,129.8,297.9,95.8,256,95.8z
			 M256,230.7c-32.6,0-59-26.4-59-59s26.4-59,59-59c32.6,0,59,26.4,59,59C315,204.3,288.6,230.7,256,230.7z"/>
		<path class="st3" d="M390.9,492.1H210.2L33.8,390.3c-8.6-5-11.5-16-6.5-24.5c5.1-8.4,15.8-11.3,24.4-6.5
			C52,359.4,253.1,450,256,450h3.1c4,0,7.4-2.8,8.2-6.7c0.8-3.9-1.2-7.8-4.9-9.4L59.7,344.4c-16.7-9.2-37.7-3.3-47.1,13.3
			c-9.4,16.6-3.7,37.7,12.8,47.3l178.3,103c1.3,0.7,2.7,1.1,4.2,1.1h183c4.7,0,8.4-3.8,8.4-8.4C399.4,495.9,395.6,492.1,390.9,492.1
			z"/>
		<path class="st3" d="M433.1,365.6H281.3c-14,0-25.3,11.3-25.3,25.3v16.9c0,14,11.3,25.3,25.3,25.3h101.2c4.7,0,8.4-3.8,8.4-8.4
			c0-4.7-3.8-8.4-8.4-8.4H281.3c-4.7,0-8.4-3.8-8.4-8.4v-16.9c0-4.7,3.8-8.4,8.4-8.4h151.8c23.3,0,59,28.3,59,63.3
			c0,4.7,3.8,8.4,8.4,8.4s8.4-3.8,8.4-8.4C509,402.6,467.3,365.6,433.1,365.6z"/>
		<path class="st3" d="M29.8,78.1c2,0.9,4.4,1,6.5,0.2c2.1-0.8,3.8-2.4,4.7-4.4c2.5-5.5,5.3-11,8.2-16.3c2.2-4.1,0.7-9.1-3.4-11.3
			c-4-2.2-9.1-0.8-11.4,3.2c-3.2,5.7-6.1,11.6-8.8,17.5C23.7,71.2,25.5,76.2,29.8,78.1z"/>
		<path class="st3" d="M41.7,298c3,0,5.8-1.6,7.3-4.2c1.5-2.6,1.6-5.8,0.1-8.4C17.7,228.3,11.3,160.7,31.4,98.6
			c1.2-4.3-1.2-8.9-5.5-10.3c-4.3-1.4-8.9,0.8-10.5,5.1c-21.5,66.5-14.7,139,19,200.3C35.8,296.4,38.6,298,41.7,298z"/>
		<path class="st3" d="M60.6,251.1c1.8,4.3,6.7,6.4,11,4.6c4.3-1.8,6.4-6.7,4.6-11C51.2,183,59.6,112.7,98.4,58.5
			c2.5-3.8,1.6-8.9-2.1-11.6c-3.7-2.7-8.8-1.9-11.6,1.7C42.5,107.6,33.4,184,60.6,251.1z"/>
		<path class="st3" d="M76.6,265.9c-1.9,1.1-3.3,3-3.9,5.1c-0.6,2.2-0.3,4.5,0.9,6.4c3.4,5.8,7.1,11.6,11.1,17.1
			c2.7,3.8,8,4.6,11.8,1.9c3.8-2.7,4.6-8,1.9-11.8c-3.6-5.1-7.1-10.4-10.2-15.7C85.8,264.9,80.6,263.6,76.6,265.9z"/>
		<path class="st3" d="M471,74c1.2,2.8,3.8,4.8,6.9,5.1c3,0.3,6-1,7.8-3.5c1.8-2.5,2-5.8,0.7-8.5c-2.7-5.9-5.6-11.7-8.8-17.4
			c-2.3-4-7.4-5.4-11.4-3.2c-4,2.2-5.5,7.3-3.4,11.3C465.8,63,468.5,68.5,471,74z"/>
		<path class="st3" d="M480.6,98.6c20.1,62.1,13.7,129.7-17.7,186.9c-1.5,2.6-1.5,5.9,0.1,8.5c1.6,2.6,4.4,4.2,7.4,4.1
			c3-0.1,5.8-1.8,7.2-4.5c33.6-61.3,40.5-133.7,19-200.2c-1.6-4.2-6.2-6.4-10.5-5.1C481.9,89.8,479.5,94.3,480.6,98.6L480.6,98.6z"
			/>
		<path class="st3" d="M450,171.7c0,25.1-4.8,49.9-14.2,73.1c-1.8,4.3,0.3,9.2,4.6,11c4.3,1.8,9.2-0.3,11-4.6
			c27.2-67.1,18.1-143.6-24.1-202.5c-2.8-3.6-7.9-4.4-11.6-1.7c-3.7,2.7-4.6,7.8-2.1,11.6C437.3,91.4,450.1,131.1,450,171.7z"/>
		<path class="st3" d="M423.8,269c-3.1,5.4-6.5,10.7-10.2,15.7c-2.7,3.8-1.9,9.1,1.9,11.8c3.8,2.7,9.1,1.9,11.8-1.9
			c4-5.5,7.7-11.3,11.1-17.1c1.6-2.6,1.6-5.8,0.1-8.5c-1.5-2.6-4.3-4.3-7.3-4.3C428.1,264.7,425.3,266.3,423.8,269z"/>
	</g>
</g>
<g class="st0">
	<path class="st4" d="M454.3,401.7c-16.9-15.4-29.4-31.8-38.5-47.6c-3.2-5.6-1.6-12.6,3.6-16.4c45.1-32.9,74.4-86.2,74.3-146.3
		C493.5,91.5,413,11.2,313.1,11.2c-68.1,0-127.4,37.7-158.1,93.4L350.5,376c34.5,23.5,72.9,33.8,97.6,38.2
		C455.3,415.6,459.7,406.6,454.3,401.7L454.3,401.7z"/>
	<path class="st1" d="M162.7,115.2L350.5,376c9.1,6.2,18.5,11.5,27.8,16c24.4-30.8,38.9-69.7,38.9-112
		c0-99.7-80.8-180.5-180.5-180.5C210.3,99.5,185.2,105.1,162.7,115.2z"/>
	<path class="st4" d="M197.6,99.5C97.7,99.5,17.2,179.9,17,279.8C16.9,339.9,46.2,393.2,91.3,426c5.2,3.8,6.8,10.9,3.6,16.4
		c-9.2,15.7-21.6,32.2-38.5,47.6c-5.4,4.9-1,13.9,6.2,12.6c25.4-4.6,65.4-15.3,100.6-40.3c3.6-2.6,8.1-3.6,12.5-3
		c7.2,0.9,14.5,1.3,21.9,1.3c99.7,0,180.5-80.8,180.5-180.5C378.1,180.4,297.3,99.5,197.6,99.5L197.6,99.5z"/>
	<path class="st5" d="M95.4,490c16.9-15.4,29.4-31.8,38.5-47.6c3.2-5.6,1.6-12.6-3.6-16.4C85.3,393.2,56,339.9,56.1,279.8
		c0.2-93.3,70.3-169.5,161-179.2c-6.4-0.7-12.9-1.1-19.5-1.1C97.7,99.5,17.2,179.9,17,279.8C16.9,339.9,46.2,393.2,91.3,426
		c5.2,3.8,6.8,10.9,3.6,16.4c-9.2,15.7-21.6,32.2-38.5,47.6c-5.4,4.9-1,13.9,6.2,12.6c8.7-1.6,19.1-3.9,30.5-7.2
		C93,493.5,93.7,491.6,95.4,490L95.4,490z"/>
	<path class="st6" d="M205.8,460.4c3.8-0.2,7.6-0.5,11.4-0.9c-0.8-0.1-1.6-0.2-2.5-0.3C211.7,458.9,208.6,459.3,205.8,460.4
		L205.8,460.4z"/>
	<path class="st4" d="M296.8,311.1H98.3c-7.6,0-12.9,7.8-9.9,14.8c17.9,42.6,60,72.6,109.2,72.6s91.3-30,109.2-72.6
		C309.7,318.9,304.5,311.1,296.8,311.1L296.8,311.1z"/>
	<path class="st5" d="M130.8,325.9c-3-7,2.3-14.8,9.9-14.8H98.3c-7.6,0-12.9,7.8-9.9,14.8c17.9,42.6,60,72.6,109.2,72.6
		c7.3,0,14.3-0.7,21.2-1.9C179,389.4,146.1,362.3,130.8,325.9L130.8,325.9z"/>
	<path class="st7" d="M81.4,328.6c43.1,102.6,188.9,102.7,232.1,0c5-11.9-3.8-25.1-16.8-25.1H98.2C85.2,303.5,76.4,316.7,81.4,328.6
		z M98.2,318.3h198.6c2.3,0,4,2.4,3.1,4.5c-38,90.5-166.6,90.6-204.7,0C94.2,320.7,95.9,318.3,98.2,318.3L98.2,318.3z"/>
	<path class="st7" d="M105.8,237.3c0-14.7,12-26.7,26.7-26.7s26.7,12,26.7,26.7c0,4.1,3.3,7.4,7.4,7.4s7.4-3.3,7.4-7.4
		c0-22.9-18.6-41.5-41.5-41.5c-22.9,0-41.5,18.6-41.5,41.5c0,4.1,3.3,7.4,7.4,7.4S105.8,241.4,105.8,237.3z"/>
	<path class="st7" d="M235.7,237.3c0-14.7,12-26.7,26.7-26.7c14.7,0,26.7,12,26.7,26.7c0,4.1,3.3,7.4,7.4,7.4s7.4-3.3,7.4-7.4
		c0-22.9-18.6-41.5-41.5-41.5c-22.9,0-41.5,18.6-41.5,41.5c0,4.1,3.3,7.4,7.4,7.4C232.4,244.7,235.7,241.4,235.7,237.3z"/>
	<path class="st7" d="M222,44.3c3.5-2.2,4.6-6.7,2.4-10.2c-2.2-3.5-6.7-4.6-10.2-2.4c-26.5,16.4-48.6,39.3-64.2,66.3
		C70.7,118.3,9.6,190.4,9.5,279.6c-0.1,60.5,28.8,116.9,77.3,152.3c2.2,1.6,2.8,4.5,1.5,6.7c-9.9,17-22.4,32.4-37.1,45.8
		c-10.9,9.9-2,28,12.5,25.4c27.5-4.9,67.8-16.2,103.6-41.5c2-1.4,4.6-2.1,7.3-1.7c34,4.1,68.8-0.9,100.7-15.5
		c3.7-1.7,5.4-6.1,3.7-9.8c-1.7-3.7-6.1-5.4-9.8-3.7c-29.6,13.5-61.6,18-92.7,14.2c-6.3-0.8-12.6,0.8-17.7,4.4
		c-33.3,23.7-71.1,34.2-97.2,39c15.7-14.4,29.1-30.9,39.6-49.1c5.1-8.8,2.7-20.1-5.6-26.1c-44.7-32.6-71.3-85-71.2-140.3
		c0.2-95.3,77.8-172.8,173.1-172.8c95.5,0,173.1,77.7,173.1,173.1c0,55.8-27.2,108.5-72.7,141c-3.3,2.4-4.1,7-1.7,10.3
		c2.4,3.3,7,4.1,10.3,1.7c18.2-13,33.6-28.9,45.9-46.9c33.4,21.1,69.3,30.8,94.2,35.3c14.5,2.6,23.4-15.4,12.5-25.4
		c-14.8-13.4-27.2-28.9-37.1-45.8c-1.3-2.2-0.6-5.1,1.5-6.7c48.4-35.3,77.4-91.6,77.3-152.3C500.7,59.1,368.8-30.5,246.7,15.7
		c-3.8,1.4-5.8,5.7-4.3,9.6c1.4,3.8,5.7,5.8,9.6,4.3c113.2-42.7,234,41.5,234.2,161.7c0.1,55.2-26.5,107.7-71.2,140.3
		c-8.3,6.1-10.8,17.3-5.6,26.1c10.6,18.2,23.9,34.6,39.6,49.1c-23.6-4.3-57.4-13.5-88.6-33.2c16.2-28.1,25.1-60.4,25.1-93.6
		c0-113.5-100.7-202.5-215.4-186C183.7,74,201.4,57,222,44.3L222,44.3z"/>
</g>
<g class="st0">
	<g class="st2">
		<circle class="st8" cx="256" cy="256" r="155.9"/>
	</g>
	<g class="st2">
		<path class="st3" d="M479.2,289.3c-5.3-1-10.5,2.5-11.5,7.8C448.2,398.2,359.2,471.6,256,471.6c-101,0-188.4-70.4-210.4-168.2
			l2.6,2.6c1.9,1.9,4.4,2.9,6.9,2.9c2.5,0,5-1,6.9-2.9c3.8-3.8,3.8-10,0-13.9l-20.2-20.2c-1.8-1.8-4.3-2.9-6.9-2.9s-5.1,1-6.9,2.9
			L7.9,292.1c-3.8,3.8-3.8,10,0,13.9c3.8,3.8,10,3.8,13.9,0l3.6-3.6C47.2,411.9,144,491.2,256,491.2c112.6,0,209.7-80.1,230.9-190.5
			C488,295.4,484.5,290.3,479.2,289.3z"/>
		<path class="st3" d="M504.1,206c-3.8-3.8-10-3.8-13.9,0l-3.6,3.6C464.8,100.1,368,20.8,256,20.8c-112.6,0-209.7,80.1-230.9,190.5
			c-1,5.3,2.5,10.5,7.8,11.5c5.3,1,10.5-2.5,11.5-7.8C63.8,113.8,152.8,40.4,256,40.4c101,0,188.4,70.4,210.4,168.2l-2.6-2.6
			c-3.8-3.8-10-3.8-13.9,0c-3.8,3.8-3.8,10,0,13.9l20.2,20.2c1.8,1.8,4.3,2.9,6.9,2.9c2.6,0,5.1-1,6.9-2.9l20.2-20.2
			C508,216.1,508,209.9,504.1,206L504.1,206z"/>
		<path class="st9" d="M266.3,299.2c1.2,0.5,2.4,0.7,3.6,0.7c3.9,0,7.6-2.3,9.1-6.2l27.1-68.2c2-5-0.5-10.7-5.5-12.7
			c-5-2-10.7,0.5-12.7,5.5l-27.1,68.2C258.9,291.5,261.3,297.2,266.3,299.2L266.3,299.2z"/>
		<path class="st9" d="M321.8,231.7h22.5l-23.9,54.5c-2.2,5,0.1,10.7,5,12.9c1.3,0.6,2.6,0.8,3.9,0.8c3.8,0,7.4-2.2,9-5.9l30-68.2
			c1.3-3,1-6.5-0.8-9.3c-1.8-2.8-4.9-4.4-8.2-4.4h-37.5c-5.4,0-9.8,4.4-9.8,9.8C311.9,227.3,316.3,231.7,321.8,231.7L321.8,231.7z"
			/>
		<path class="st9" d="M196.2,275c1.8,3,5,4.8,8.4,4.8h24.2c0,3.6-0.1,7.1-0.1,10.2c0,5.4,4.3,9.8,9.7,9.9h0.1
			c5.4,0,9.8-4.3,9.8-9.7c0-2.6,0.1-6.2,0.1-10.5c4.9-0.5,8.8-4.7,8.8-9.8c0-5-3.8-9.2-8.7-9.7c0.1-16,0.1-32-0.1-34.4
			c-0.5-6.3-4.4-11.5-9.8-13.2c-5.4-1.7-11.1,0.3-15.3,5.4c-3.9,4.8-20.5,34.6-27.4,47.2C194.4,268.3,194.5,272,196.2,275z
			 M229.1,246.5c0,4.2,0,8.9-0.1,13.7h-7.7C224.1,255.3,226.7,250.6,229.1,246.5L229.1,246.5z"/>
		<path class="st9" d="M190.3,300.4c5.4-0.1,9.7-4.5,9.7-9.9c-0.1-5.4-4.4-9.7-9.8-9.7c0,0-0.1,0-0.1,0c-5.4,0.1-11,0.1-16.1,0.1
			c3.5-4.8,8.1-11,13.8-19.2c4.5-6.4,7.5-12.6,8.8-18.2c0.3-1.3,0.6-3,0.6-4.9c0-15-12.2-27.3-27.3-27.3c-13,0-24.2,9.2-26.8,22
			c-1,5.3,2.4,10.5,7.7,11.5c5.3,1,10.5-2.4,11.5-7.7c0.7-3.6,3.9-6.2,7.5-6.2c4.1,0,7.4,3.2,7.6,7.2l-0.2,1.3
			c-0.6,2.2-2,5.9-5.6,11c-10.8,15.4-17.2,23.8-20.7,28.4c-4.4,5.8-6.9,9-5.2,14.3c1,3.1,3.4,5.6,6.6,6.7c1.3,0.4,2.4,0.8,15.7,0.8
			C173.3,300.6,180.5,300.5,190.3,300.4L190.3,300.4z"/>
	</g>
</g>
<g class="st0">
	<polygon class="st1" points="226.3,153.8 281.4,156.4 284,219.3 344.3,219.3 346.9,284.8 291.8,282.2 286.6,342.5 231.5,339.9 
		221.1,279.6 166,279.6 160.8,221.9 218.4,219.3 	"/>
	<path class="st7" d="M256,509c-3.1,0-6.2-0.5-9.2-1.5c-49.1-17-89.8-40.9-120.7-71C99,410,78.3,377.9,64.6,340.9
		c-25-67.5-23.5-142.3-22.4-202.4c0.2-13,0.5-25.1,0.5-37.1c0-15.5,12.6-28.1,28.1-28.1c69.3,0,122-19.8,165.7-62.3
		c5.3-5.2,12.3-8,19.6-8c7.3,0,14.2,2.8,19.6,8c43.7,42.5,96.4,62.3,165.7,62.3c15.5,0,28.1,12.6,28.1,28.1
		c0,11.7,0.2,23.6,0.5,36.3l0,0.8c1.1,60.1,2.6,134.9-22.4,202.4c-13.7,37-34.4,69.1-61.5,95.5c-31,30.1-71.6,54-120.7,71
		C262.2,508.5,259.1,509,256,509z M256,25.3c-1.5,0-3,0.6-4.1,1.7C203.8,73.8,146.2,95.6,70.7,95.6c-3.2,0-5.8,2.6-5.8,5.8
		c0,12.2-0.2,24.5-0.5,37.5c-1.2,61.3-2.5,130.7,21,194.4c27,73.1,82.2,123.3,168.6,153.2c0.6,0.2,1.3,0.3,1.9,0.3
		c0.6,0,1.3-0.1,1.9-0.3c86.5-30,141.6-80.1,168.7-153.2c23.5-63.6,22.2-133,21-194.2l0-0.5c-0.2-13.2-0.5-25.4-0.5-37.1
		c0-3.2-2.6-5.8-5.8-5.8c-75.5,0-133.1-21.8-181.2-68.6C258.9,25.9,257.5,25.3,256,25.3z"/>
	<path class="st7" d="M256,505.1c-2.7,0-5.3-0.4-7.9-1.3c-48.6-16.8-88.7-40.4-119.3-70.1c-26.7-26-47.1-57.6-60.5-94
		c-24.7-66.9-23.3-141.2-22.2-201c0.2-12.9,0.5-25.2,0.5-37.2c0-13.3,10.8-24.1,24.1-24.1c70.4,0,123.9-20.2,168.5-63.5
		c4.6-4.4,10.5-6.9,16.8-6.9s12.2,2.4,16.8,6.9c44.5,43.3,98.1,63.5,168.5,63.5c13.3,0,24.1,10.8,24.1,24.1
		c0,11.6,0.2,23.6,0.5,36.4l0,0.8c1.1,59.8,2.6,134.1-22.2,201c-13.5,36.4-33.8,68.1-60.5,94c-30.6,29.7-70.7,53.3-119.3,70.1
		C261.3,504.6,258.7,505.1,256,505.1z M256,21.4c-2.6,0-5,1-6.8,2.8c-47.4,46-104.1,67.5-178.5,67.5c-5.4,0-9.7,4.4-9.7,9.7
		c0,12.2-0.2,24.5-0.5,37.5c-1.2,61.6-2.5,131.4,21.3,195.7c27.5,74.3,83.4,125.2,171,155.6c1,0.4,2.1,0.5,3.2,0.5
		c1.1,0,2.1-0.2,3.2-0.5c87.6-30.4,143.6-81.3,171.1-155.6c23.8-64.3,22.4-134.1,21.3-195.7l0-0.5c-0.2-13.2-0.5-25.3-0.5-37
		c0-5.4-4.4-9.7-9.7-9.7c-74.4,0-131.1-21.5-178.5-67.5C260.9,22.3,258.5,21.4,256,21.4z"/>
	<path class="st7" d="M226,355.7c-6.1,0-11.1-5-11.1-11.1v-52.4h-52.4c-6.1,0-11.1-5-11.1-11.1V221c0-6.1,5-11.1,11.1-11.1h52.4
		v-52.4c0-6.1,5-11.1,11.1-11.1H286c6.1,0,11.1,5,11.1,11.1v52.4h52.4c6.1,0,11.1,5,11.1,11.1V281c0,6.1-5,11.1-11.1,11.1h-52.4
		v52.4c0,6.1-5,11.1-11.1,11.1H226z M274.9,333.4V281c0-6.1,5-11.1,11.1-11.1h52.4l0-37.8H286c-6.1,0-11.1-5-11.1-11.1v-52.4h-37.8
		V221c0,6.1-5,11.1-11.1,11.1h-52.4v37.8H226c6.1,0,11.1,5,11.1,11.1v52.4H274.9z"/>
	<path class="st7" d="M226,351.7c-4,0-7.2-3.2-7.2-7.2v-56.3h-56.3c-4,0-7.2-3.2-7.2-7.2V221c0-4,3.2-7.2,7.2-7.2h56.3v-56.3
		c0-4,3.2-7.2,7.2-7.2H286c4,0,7.2,3.2,7.2,7.2v56.3h56.3c4,0,7.2,3.2,7.2,7.2V281c0,4-3.2,7.2-7.2,7.2h-56.3v56.3
		c0,4-3.2,7.2-7.2,7.2H226z M169.7,273.9H226c4,0,7.2,3.2,7.2,7.2v56.3h45.7V281c0-4,3.2-7.2,7.2-7.2h56.3l0-45.7H286
		c-4,0-7.2-3.2-7.2-7.2v-56.3h-45.7V221c0,4-3.2,7.2-7.2,7.2h-56.3V273.9z"/>
</g>
<g class="st0">
	<circle class="st1" cx="408.4" cy="422.7" r="75.6"/>
	<polygon class="st4" points="424.6,387.8 409.1,407.2 392.3,411.7 377.4,404 362.5,413.7 361.3,427.9 396.1,461.5 405.2,458.2 
		453,406.6 453,393 440.1,380.7 428.5,380.7 	"/>
	<g class="st2">
		<path class="st3" d="M370.7,165.6c0.2-7.4-2.6-14.6-7.8-19.8c-5.2-5.2-12.4-8.1-19.8-7.8c-21.3,0.7-41.7,10.2-55.8,26.2
			l-14.1,15.9l-86.8-13.8c-5.3-0.8-10.6,0.9-14.4,4.7l-11,11c-3.5,3.5-5.3,8.4-4.8,13.4c0.5,5,3.2,9.4,7.4,12.2l53,35.1l-26,28.6
			l-29,1.3c-4.2,0.2-8.1,1.9-11,4.9l-11,11c-3.9,3.9-5.6,9.4-4.6,14.7c1,5.4,4.5,9.9,9.5,12.2l33.6,15.3l15.3,33.6
			c2.3,5,6.8,8.5,12.2,9.5c1,0.2,2,0.3,3,0.3c4.4,0,8.6-1.7,11.8-4.9l11-11c2.9-2.9,4.7-6.8,4.9-11l1.3-29l28.6-26l35,53
			c2.8,4.2,7.2,6.9,12.2,7.4c0.6,0.1,1.1,0.1,1.7,0.1c4.4,0,8.6-1.7,11.7-4.9l11-11c3.8-3.8,5.5-9.1,4.7-14.4l-13.8-86.7l15.9-14.1
			C360.4,207.3,370,186.9,370.7,165.6L370.7,165.6z M171.7,195.3c-0.6-0.4-0.8-1-0.8-1.4c0-0.4,0-1,0.5-1.5l11-11
			c0.4-0.4,0.8-0.6,1.3-0.6c0.1,0,0.2,0,0.3,0l77.3,12.3l-34.8,38.4L171.7,195.3z M327.3,326.3l-11,11c-0.5,0.5-1.1,0.6-1.5,0.5
			c-0.4,0-1-0.2-1.4-0.8l-36.3-54.9l38.4-34.8l12.3,77.3C327.9,325.2,327.7,325.8,327.3,326.3z M334.7,210.4l-109.5,98.8
			c-1.5,1.3-2.3,3.2-2.4,5.1l-1.5,32c0,0.5-0.2,0.9-0.6,1.2l-11,11c-0.6,0.6-1.2,0.6-1.7,0.5c-0.4-0.1-1-0.3-1.4-1.1L190.3,322
			c-0.7-1.6-2-2.9-3.7-3.7L150.6,302c-0.7-0.3-1-0.9-1.1-1.4c-0.1-0.4-0.1-1.1,0.5-1.7l11-11c0.3-0.3,0.8-0.5,1.2-0.6l32-1.5
			c2-0.1,3.8-1,5.1-2.4L298.3,174c11.5-12.9,28-20.7,45.3-21.2c0.1,0,0.3,0,0.4,0c3.2,0,6.2,1.2,8.4,3.5c2.4,2.4,3.6,5.5,3.5,8.8
			C355.3,182.4,347.6,198.9,334.7,210.4L334.7,210.4z"/>
		<path class="st3" d="M442.3,339.4c3.7-8,7.2-16.2,10.6-24.6c1.5-3.8-0.4-8.1-4.2-9.6c-3.8-1.5-8.1,0.4-9.6,4.2
			c-3.4,8.7-7.1,17.2-11,25.4c-6.3-1.5-12.9-2.2-19.7-2.2c-2,0-4,0.1-5.9,0.2c5.3-9.9,10.3-20.6,15.1-32.1
			c30.9-73.9,37.6-149.1,33.4-194.8c-0.5-5.2-3.2-9.9-7.6-12.8c-4.4-3-9.8-3.9-14.9-2.4c-62.8,18.2-125.4,5.2-163.3-33.9
			c-2.9-3-6.6-5.3-12.8-5.3c-6.1,0-9.9,2.3-12.8,5.3c-5.9,6.1-12.5,11.7-19.6,16.6c-3.4,2.3-4.2,6.9-1.9,10.3
			c2.3,3.4,6.9,4.2,10.3,1.9c7.9-5.4,15.2-11.6,21.8-18.5c0.4-0.5,1.5-1.7,2.1-1.7c0.8,0,1.8,1.3,2.2,1.7
			c21.6,22.3,50.4,37.3,83.4,43.4c30.2,5.6,62.9,3.6,94.6-5.6c1.1-0.3,2,0.1,2.5,0.4c0.4,0.3,1.1,0.9,1.2,1.9
			c4,43.9-2.5,116.3-32.4,187.7c-5.5,13-12.2,27-20.3,41.1c-33.5,9.9-58.8,39.2-62.5,74.9c-17,13.6-36.6,25.1-59.1,33.1
			c-3.1,1.1-6.2,1.6-9.5,1.6h0c-3.2,0-6.4-0.5-9.5-1.6c-77-27.1-119.7-96-141.9-149c-29.9-71.4-36.4-143.8-32.4-187.7
			c0.1-1.1,0.8-1.7,1.2-1.9c0.4-0.3,1.3-0.7,2.5-0.4c42.9,12.5,87.1,11.5,124.3-2.8c3.8-1.5,5.7-5.7,4.3-9.5
			c-1.5-3.8-5.7-5.7-9.5-4.3c-34.2,13.1-75.1,13.9-114.9,2.4c-5.1-1.5-10.5-0.6-14.9,2.4c-4.3,3-7.1,7.6-7.5,12.8
			c-4.1,45.7,2.5,120.9,33.5,194.7C130,401.9,193,442.1,238.3,458.1c4.6,1.6,9.5,2.5,14.4,2.5h0c4.9,0,9.8-0.8,14.4-2.5
			c16.4-5.8,35-14.7,54.2-28.5c1.1,10,3.8,19.5,7.9,28.3c-19.6,13.9-40.8,25-63.6,33.2c-8.3,3-17.5,3-25.8,0
			c-41.9-15-78.6-39.8-109-73.8c-26.9-30.1-49-67.3-65.7-110.6C37.9,235.8,25.6,147.8,32.4,71.1c0.2-1.7,1.1-3.3,2.5-4.3
			c0.8-0.6,2.6-1.4,4.8-0.8C58,71.4,76.6,74.5,95,75.2c61.3,2.4,118.6-18,153.4-54.6c1.1-1.2,2.7-1.9,4.3-1.9c1.6,0,3.1,0.7,4.3,1.9
			c32.9,34.6,86,54.8,143.6,54.8c3.2,0,6.5-0.1,9.8-0.2c18.4-0.7,37-3.8,55.2-9.2c2.2-0.7,4,0.2,4.8,0.8c1.5,1,2.4,2.6,2.5,4.3
			c5.9,66.2-2.3,141.4-22.5,206.3c-1.2,3.9,1,8,4.9,9.2c3.9,1.2,8-1,9.2-4.9c20.7-66.6,29.1-143.9,23.1-211.9
			c-0.5-6.2-3.8-11.7-8.9-15.2c-5.1-3.5-11.4-4.5-17.3-2.7c-17.1,5.1-34.5,8-51.6,8.7c-57.1,2.2-110.2-16.4-142.1-50
			c-3.9-4.2-9.3-6.4-15-6.4c-5.7,0-11,2.3-15,6.4c-31.9,33.6-85,52.3-142.1,50c-17.2-0.7-34.5-3.6-51.6-8.6
			c-5.9-1.7-12.2-0.8-17.3,2.7c-5.1,3.5-8.4,9-8.9,15.2c-7,78.9,5.6,169.4,33.6,242.1c17.3,45,40.4,83.8,68.5,115.2
			c32.1,35.8,70.8,62,115,77.9c5.8,2.1,11.8,3.1,17.9,3.1c6.1,0,12.1-1,17.9-3.1c23.7-8.5,45.8-20,66.1-34.3
			c15.9,22.6,42.1,37.4,71.8,37.4c48.4,0,87.7-39.3,87.7-87.7C496.2,384,473.9,352.7,442.3,339.4L442.3,339.4z M408.5,493.2
			c-40.2,0-72.9-32.7-72.9-72.9c0-40.2,32.7-72.9,72.9-72.9s72.9,32.7,72.9,72.9S448.7,493.2,408.5,493.2z"/>
		<path class="st3" d="M460.8,397.4c-0.4-6.4-3.3-12.3-8.1-16.5c-10-8.7-25.2-7.8-34,2.2l-20.3,23.1l-1-1c-9.3-9.5-24.5-9.7-34-0.4
			c-9.5,9.3-9.7,24.5-0.4,34l19.1,19.6c4.5,4.6,10.8,7.3,17.2,7.3c0.2,0,0.4,0,0.6,0c6.7-0.2,13.1-3.2,17.5-8.2l37.4-42.7
			C459.1,410,461.2,403.8,460.8,397.4L460.8,397.4z M443.8,405.1l-37.4,42.7c-3.5,4-10,4.1-13.7,0.4c0,0-19.1-19.6-19.1-19.6
			c-5.6-5.7-1.3-15.8,6.7-15.8c5.6,0,9.6,5.8,13.2,9.5c1.4,1.5,3.4,2.3,5.5,2.2c2.1-0.1,4-1,5.4-2.5l25.5-29.1
			c3.4-3.9,9.3-4.2,13.1-0.9c1.9,1.6,3,3.9,3.2,6.4C446.2,400.9,445.4,403.2,443.8,405.1L443.8,405.1z"/>
	</g>
</g>
<g>
	<path class="st3" d="M256,241.4c-8.1,0-14.6,6.5-14.6,14.6v190.6c0,16.1-13.1,29.2-29.2,29.2s-29.2-13.1-29.2-29.2v-14.6
		c0-8.1-6.5-14.6-14.6-14.6s-14.6,6.5-14.6,14.6v14.6c0,32.2,26.2,58.4,58.4,58.4c17.5,0,33.1-7.9,43.8-20.2
		c9-10.3,14.6-23.5,14.6-38.2V256C270.6,247.9,264.1,241.4,256,241.4z"/>
	<path class="st3" d="M256,7c-8.1,0-14.6,6.5-14.6,14.6v29.2c0,8.1,6.5,14.6,14.6,14.6s14.6-6.5,14.6-14.6V21.6
		C270.6,13.5,264.1,7,256,7"/>
	<path class="st3" d="M256,36.2l116.7,234.4c3.7,0,7.5-1.4,10.3-4.3c7-6.9,29.2-24.9,48.1-24.9s42,18,49,24.9
		c4.1,4.1,10.3,5.4,15.9,3.1c5.4-2.3,9-7.6,9-13.5C505,135.3,392.8,36.2,256,36.2L256,36.2z"/>
	<path class="st3" d="M7,256c0,5.9,3.5,11.2,9,13.5c5.4,2.2,11.7,1,15.9-3.1c7-6.9,30.2-24.9,49-24.9s41.1,18,48.1,24.9
		c2.8,2.8,6.6,4.3,10.3,4.3L256,36.2C119.2,36.2,7,135.3,7,256L7,256z"/>
	<path class="st8" d="M256,36.2c-64.5,0-116.7,105.5-116.7,234.4c3.7,0,7.5-1.4,10.3-4.3c7-6.9,29.2-24.9,48.1-24.9
		s41.1,18,48.1,24.9c2.8,2.8,6.6,4.3,10.3,4.3c3.7,0,7.5-1.4,10.3-4.3c7-6.9,29.2-24.9,48.1-24.9s41.1,18,48.1,24.9
		c2.8,2.8,6.6,4.3,10.3,4.3C372.7,141.7,320.5,36.2,256,36.2L256,36.2z"/>
	<path class="st8" d="M314.4,241.4c18.8,0,41.1,18,48.1,24.9c2.8,2.8,6.6,4.3,10.3,4.3c0-128.9-52.3-234.4-116.7-234.4v234.4
		c3.7,0,7.5-1.4,10.3-4.3C273.3,259.4,295.5,241.4,314.4,241.4z"/>
	<path class="st10" d="M285.2,124.7h-14.6v-14.6c0-8.1-6.5-14.6-14.6-14.6c-8.1,0-14.6,6.5-14.6,14.6v14.6h-14.6
		c-8.1,0-14.6,6.5-14.6,14.6s6.5,14.6,14.6,14.6h14.6v14.6c0,8.1,6.5,14.6,14.6,14.6s14.6-6.5,14.6-14.6v-14.6h14.6
		c8.1,0,14.6-6.5,14.6-14.6S293.2,124.7,285.2,124.7z"/>
	<path class="st11" d="M270.6,168.5v-14.6h14.6c8.1,0,14.6-6.5,14.6-14.6s-6.5-14.6-14.6-14.6h-14.6v-14.6c0-8.1-6.5-14.6-14.6-14.6
		v87.5C264.1,183.1,270.6,176.5,270.6,168.5z"/>
</g>
</svg>
