<?xml version="1.0" encoding="utf-8"?>
<!-- Generator: Adobe Illustrator 23.0.5, SVG Export Plug-In . SVG Version: 6.00 Build 0)  -->
<svg version="1.1" id="Layer_1" xmlns="http://www.w3.org/2000/svg" xmlns:xlink="http://www.w3.org/1999/xlink" x="0px" y="0px"
	 viewBox="0 0 512 512" style="enable-background:new 0 0 512 512;" xml:space="preserve">
<style type="text/css">
	.st0{display:none;}
	.st1{display:inline;fill:#EB494B;}
	.st2{display:inline;}
	.st3{fill:#09518C;}
	.st4{display:inline;fill:#FFFFFF;}
	.st5{display:inline;fill:#EF737A;}
	.st6{display:inline;fill:#FFD301;}
	.st7{display:inline;fill:#09518C;}
	.st8{fill:#EB494B;}
	.st9{fill:#FFFFFF;}
</style>
<g class="st0">
	<path class="st1" d="M416.2,213.8v-84.3h-50.1c-0.8-2-1.5-4-2.4-6l35.3-35.3l-59.6-59.6l-35.3,35.3c-2-0.8-4-1.6-6-2.4V11.4h-84.3
		v50.1c-2,0.8-4,1.5-6,2.4l-35.3-35.3l-59.6,59.6l35.3,35.3c-0.8,2-1.6,4-2.4,6H95.8v84.3h50.1c0.8,2,1.5,4,2.4,6l-35.3,35.3
		l59.6,59.6l35.3-35.3c2,0.8,4,1.6,6,2.4v50.1h84.3v-50.1c2-0.8,4-1.5,6-2.4l35.3,35.3l59.6-59.6l-35.3-35.3c0.8-2,1.6-4,2.4-6
		H416.2z M315,171.7c0,32.6-26.4,59-59,59c-32.6,0-59-26.4-59-59s26.4-59,59-59C288.6,112.7,315,139.1,315,171.7z"/>
	<g class="st2">
		<path class="st3" d="M416.2,121.1h-38l26.9-26.9c1.6-1.6,2.5-3.7,2.4-6c0-2.2-0.9-4.4-2.4-6l-59.6-59.6c-3.4-3.1-8.6-3.1-12,0
			l-26.9,26.9v-38c0-4.7-3.8-8.4-8.4-8.4h-84.3c-4.7,0-8.4,3.8-8.4,8.4v38l-26.9-26.9c-1.6-1.6-3.7-2.5-6-2.4c-2.2,0-4.4,0.9-6,2.4
			l-59.6,59.6c-1.6,1.6-2.5,3.7-2.4,6c0,2.2,0.9,4.4,2.4,6l26.9,26.9h-38c-4.7,0-8.4,3.8-8.4,8.4v84.3c0,4.7,3.8,8.4,8.4,8.4h38
			l-26.9,26.9c-1.6,1.6-2.5,3.7-2.4,6c0,2.2,0.9,4.4,2.4,6l59.6,59.6c3.4,3.1,8.6,3.1,12,0l26.9-26.9v38c0,4.7,3.8,8.4,8.4,8.4h84.3
			c4.7,0,8.4-3.8,8.4-8.4v-38l26.9,26.9c1.6,1.6,3.7,2.5,6,2.4c2.2,0,4.4-0.9,6-2.4l59.6-59.6c1.6-1.6,2.5-3.7,2.4-6
			c0-2.2-0.9-4.4-2.4-6l-26.9-26.9h38c4.7,0,8.4-3.8,8.4-8.4v-84.3C424.7,124.8,420.9,121.1,416.2,121.1z M407.8,205.4h-41.7
			c-3.5,0-6.6,2.1-7.8,5.4c-0.7,1.9-1.4,3.7-2.3,5.6c-1.4,3.2-0.7,6.9,1.8,9.4l29.4,29.4l-47.7,47.7l-29.4-29.4
			c-2.5-2.5-6.2-3.2-9.4-1.8c-1.9,0.8-3.7,1.6-5.6,2.3c-3.3,1.2-5.4,4.4-5.4,7.8v41.7h-67.5v-41.7c0-3.5-2.1-6.6-5.4-7.8
			c-1.9-0.7-3.7-1.4-5.6-2.3c-3.2-1.4-6.9-0.7-9.4,1.8l-29.4,29.4l-47.7-47.7l29.4-29.4c2.5-2.5,3.2-6.2,1.8-9.4
			c-0.8-1.9-1.6-3.7-2.3-5.6c-1.2-3.3-4.4-5.4-7.8-5.4h-41.7v-67.5h41.7c3.5,0,6.6-2.1,7.8-5.4c0.7-1.9,1.4-3.7,2.3-5.6
			c1.4-3.2,0.7-6.9-1.8-9.4l-29.4-29.4l47.7-47.7l29.4,29.4c2.5,2.5,6.2,3.2,9.4,1.8c1.9-0.8,3.7-1.6,5.6-2.3
			c3.3-1.2,5.4-4.4,5.4-7.8V19.9h67.5v41.7c0,3.5,2.1,6.6,5.4,7.8c1.9,0.7,3.7,1.4,5.6,2.3c3.2,1.4,6.9,0.7,9.4-1.8l29.4-29.4
			l47.7,47.7l-29.4,29.4c-2.5,2.5-3.2,6.2-1.8,9.4c0.8,1.9,1.6,3.7,2.3,5.6c1.2,3.3,4.4,5.4,7.8,5.4h41.7V205.4z"/>
		<path class="st3" d="M256,95.8c-41.9,0-75.9,34-75.9,75.9s34,75.9,75.9,75.9s75.9-34,75.9-75.9C331.8,129.8,297.9,95.8,256,95.8z
			 M256,230.7c-32.6,0-59-26.4-59-59s26.4-59,59-59c32.6,0,59,26.4,59,59C315,204.3,288.6,230.7,256,230.7z"/>
		<path class="st3" d="M390.9,492.1H210.2L33.8,390.3c-8.6-5-11.5-16-6.5-24.5c5.1-8.4,15.8-11.3,24.4-6.5
			C52,359.4,253.1,450,256,450h3.1c4,0,7.4-2.8,8.2-6.7c0.8-3.9-1.2-7.8-4.9-9.4L59.7,344.4c-16.7-9.2-37.7-3.3-47.1,13.3
			c-9.4,16.6-3.7,37.7,12.8,47.3l178.3,103c1.3,0.7,2.7,1.1,4.2,1.1h183c4.7,0,8.4-3.8,8.4-8.4C399.4,495.9,395.6,492.1,390.9,492.1
			z"/>
		<path class="st3" d="M433.1,365.6H281.3c-14,0-25.3,11.3-25.3,25.3v16.9c0,14,11.3,25.3,25.3,25.3h101.2c4.7,0,8.4-3.8,8.4-8.4
			c0-4.7-3.8-8.4-8.4-8.4H281.3c-4.7,0-8.4-3.8-8.4-8.4v-16.9c0-4.7,3.8-8.4,8.4-8.4h151.8c23.3,0,59,28.3,59,63.3
			c0,4.7,3.8,8.4,8.4,8.4s8.4-3.8,8.4-8.4C509,402.6,467.3,365.6,433.1,365.6z"/>
		<path class="st3" d="M29.8,78.1c2,0.9,4.4,1,6.5,0.2c2.1-0.8,3.8-2.4,4.7-4.4c2.5-5.5,5.3-11,8.2-16.3c2.2-4.1,0.7-9.1-3.4-11.3
			c-4-2.2-9.1-0.8-11.4,3.2c-3.2,5.7-6.1,11.6-8.8,17.5C23.7,71.2,25.5,76.2,29.8,78.1z"/>
		<path class="st3" d="M41.7,298c3,0,5.8-1.6,7.3-4.2c1.5-2.6,1.6-5.8,0.1-8.4C17.7,228.3,11.3,160.7,31.4,98.6
			c1.2-4.3-1.2-8.9-5.5-10.3c-4.3-1.4-8.9,0.8-10.5,5.1c-21.5,66.5-14.7,139,19,200.3C35.8,296.4,38.6,298,41.7,298z"/>
		<path class="st3" d="M60.6,251.1c1.8,4.3,6.7,6.4,11,4.6c4.3-1.8,6.4-6.7,4.6-11C51.2,183,59.6,112.7,98.4,58.5
			c2.5-3.8,1.6-8.9-2.1-11.6c-3.7-2.7-8.8-1.9-11.6,1.7C42.5,107.6,33.4,184,60.6,251.1z"/>
		<path class="st3" d="M76.6,265.9c-1.9,1.1-3.3,3-3.9,5.1c-0.6,2.2-0.3,4.5,0.9,6.4c3.4,5.8,7.1,11.6,11.1,17.1
			c2.7,3.8,8,4.6,11.8,1.9c3.8-2.7,4.6-8,1.9-11.8c-3.6-5.1-7.1-10.4-10.2-15.7C85.8,264.9,80.6,263.6,76.6,265.9z"/>
		<path class="st3" d="M471,74c1.2,2.8,3.8,4.8,6.9,5.1c3,0.3,6-1,7.8-3.5c1.8-2.5,2-5.8,0.7-8.5c-2.7-5.9-5.6-11.7-8.8-17.4
			c-2.3-4-7.4-5.4-11.4-3.2c-4,2.2-5.5,7.3-3.4,11.3C465.8,63,468.5,68.5,471,74z"/>
		<path class="st3" d="M480.6,98.6c20.1,62.1,13.7,129.7-17.7,186.9c-1.5,2.6-1.5,5.9,0.1,8.5c1.6,2.6,4.4,4.2,7.4,4.1
			c3-0.1,5.8-1.8,7.2-4.5c33.6-61.3,40.5-133.7,19-200.2c-1.6-4.2-6.2-6.4-10.5-5.1C481.9,89.8,479.5,94.3,480.6,98.6L480.6,98.6z"
			/>
		<path class="st3" d="M450,171.7c0,25.1-4.8,49.9-14.2,73.1c-1.8,4.3,0.3,9.2,4.6,11c4.3,1.8,9.2-0.3,11-4.6
			c27.2-67.1,18.1-143.6-24.1-202.5c-2.8-3.6-7.9-4.4-11.6-1.7c-3.7,2.7-4.6,7.8-2.1,11.6C437.3,91.4,450.1,131.1,450,171.7z"/>
		<path class="st3" d="M423.8,269c-3.1,5.4-6.5,10.7-10.2,15.7c-2.7,3.8-1.9,9.1,1.9,11.8c3.8,2.7,9.1,1.9,11.8-1.9
			c4-5.5,7.7-11.3,11.1-17.1c1.6-2.6,1.6-5.8,0.1-8.5c-1.5-2.6-4.3-4.3-7.3-4.3C428.1,264.7,425.3,266.3,423.8,269z"/>
	</g>
</g>
<g class="st0">
	<path class="st4" d="M454.3,401.7c-16.9-15.4-29.4-31.8-38.5-47.6c-3.2-5.6-1.6-12.6,3.6-16.4c45.1-32.9,74.4-86.2,74.3-146.3
		C493.5,91.5,413,11.2,313.1,11.2c-68.1,0-127.4,37.7-158.1,93.4L350.5,376c34.5,23.5,72.9,33.8,97.6,38.2
		C455.3,415.6,459.7,406.6,454.3,401.7L454.3,401.7z"/>
	<path class="st1" d="M162.7,115.2L350.5,376c9.1,6.2,18.5,11.5,27.8,16c24.4-30.8,38.9-69.7,38.9-112
		c0-99.7-80.8-180.5-180.5-180.5C210.3,99.5,185.2,105.1,162.7,115.2z"/>
	<path class="st4" d="M197.6,99.5C97.7,99.5,17.2,179.9,17,279.8C16.9,339.9,46.2,393.2,91.3,426c5.2,3.8,6.8,10.9,3.6,16.4
		c-9.2,15.7-21.6,32.2-38.5,47.6c-5.4,4.9-1,13.9,6.2,12.6c25.4-4.6,65.4-15.3,100.6-40.3c3.6-2.6,8.1-3.6,12.5-3
		c7.2,0.9,14.5,1.3,21.9,1.3c99.7,0,180.5-80.8,180.5-180.5C378.1,180.4,297.3,99.5,197.6,99.5L197.6,99.5z"/>
	<path class="st5" d="M95.4,490c16.9-15.4,29.4-31.8,38.5-47.6c3.2-5.6,1.6-12.6-3.6-16.4C85.3,393.2,56,339.9,56.1,279.8
		c0.2-93.3,70.3-169.5,161-179.2c-6.4-0.7-12.9-1.1-19.5-1.1C97.7,99.5,17.2,179.9,17,279.8C16.9,339.9,46.2,393.2,91.3,426
		c5.2,3.8,6.8,10.9,3.6,16.4c-9.2,15.7-21.6,32.2-38.5,47.6c-5.4,4.9-1,13.9,6.2,12.6c8.7-1.6,19.1-3.9,30.5-7.2
		C93,493.5,93.7,491.6,95.4,490L95.4,490z"/>
	<path class="st6" d="M205.8,460.4c3.8-0.2,7.6-0.5,11.4-0.9c-0.8-0.1-1.6-0.2-2.5-0.3C211.7,458.9,208.6,459.3,205.8,460.4
		L205.8,460.4z"/>
	<path class="st4" d="M296.8,311.1H98.3c-7.6,0-12.9,7.8-9.9,14.8c17.9,42.6,60,72.6,109.2,72.6s91.3-30,109.2-72.6
		C309.7,318.9,304.5,311.1,296.8,311.1L296.8,311.1z"/>
	<path class="st5" d="M130.8,325.9c-3-7,2.3-14.8,9.9-14.8H98.3c-7.6,0-12.9,7.8-9.9,14.8c17.9,42.6,60,72.6,109.2,72.6
		c7.3,0,14.3-0.7,21.2-1.9C179,389.4,146.1,362.3,130.8,325.9L130.8,325.9z"/>
	<path class="st7" d="M81.4,328.6c43.1,102.6,188.9,102.7,232.1,0c5-11.9-3.8-25.1-16.8-25.1H98.2C85.2,303.5,76.4,316.7,81.4,328.6
		z M98.2,318.3h198.6c2.3,0,4,2.4,3.1,4.5c-38,90.5-166.6,90.6-204.7,0C94.2,320.7,95.9,318.3,98.2,318.3L98.2,318.3z"/>
	<path class="st7" d="M105.8,237.3c0-14.7,12-26.7,26.7-26.7s26.7,12,26.7,26.7c0,4.1,3.3,7.4,7.4,7.4s7.4-3.3,7.4-7.4
		c0-22.9-18.6-41.5-41.5-41.5c-22.9,0-41.5,18.6-41.5,41.5c0,4.1,3.3,7.4,7.4,7.4S105.8,241.4,105.8,237.3z"/>
	<path class="st7" d="M235.7,237.3c0-14.7,12-26.7,26.7-26.7c14.7,0,26.7,12,26.7,26.7c0,4.1,3.3,7.4,7.4,7.4s7.4-3.3,7.4-7.4
		c0-22.9-18.6-41.5-41.5-41.5c-22.9,0-41.5,18.6-41.5,41.5c0,4.1,3.3,7.4,7.4,7.4C232.4,244.7,235.7,241.4,235.7,237.3z"/>
	<path class="st7" d="M222,44.3c3.5-2.2,4.6-6.7,2.4-10.2c-2.2-3.5-6.7-4.6-10.2-2.4c-26.5,16.4-48.6,39.3-64.2,66.3
		C70.7,118.3,9.6,190.4,9.5,279.6c-0.1,60.5,28.8,116.9,77.3,152.3c2.2,1.6,2.8,4.5,1.5,6.7c-9.9,17-22.4,32.4-37.1,45.8
		c-10.9,9.9-2,28,12.5,25.4c27.5-4.9,67.8-16.2,103.6-41.5c2-1.4,4.6-2.1,7.3-1.7c34,4.1,68.8-0.9,100.7-15.5
		c3.7-1.7,5.4-6.1,3.7-9.8c-1.7-3.7-6.1-5.4-9.8-3.7c-29.6,13.5-61.6,18-92.7,14.2c-6.3-0.8-12.6,0.8-17.7,4.4
		c-33.3,23.7-71.1,34.2-97.2,39c15.7-14.4,29.1-30.9,39.6-49.1c5.1-8.8,2.7-20.1-5.6-26.1c-44.7-32.6-71.3-85-71.2-140.3
		c0.2-95.3,77.8-172.8,173.1-172.8c95.5,0,173.1,77.7,173.1,173.1c0,55.8-27.2,108.5-72.7,141c-3.3,2.4-4.1,7-1.7,10.3
		c2.4,3.3,7,4.1,10.3,1.7c18.2-13,33.6-28.9,45.9-46.9c33.4,21.1,69.3,30.8,94.2,35.3c14.5,2.6,23.4-15.4,12.5-25.4
		c-14.8-13.4-27.2-28.9-37.1-45.8c-1.3-2.2-0.6-5.1,1.5-6.7c48.4-35.3,77.4-91.6,77.3-152.3C500.7,59.1,368.8-30.5,246.7,15.7
		c-3.8,1.4-5.8,5.7-4.3,9.6c1.4,3.8,5.7,5.8,9.6,4.3c113.2-42.7,234,41.5,234.2,161.7c0.1,55.2-26.5,107.7-71.2,140.3
		c-8.3,6.1-10.8,17.3-5.6,26.1c10.6,18.2,23.9,34.6,39.6,49.1c-23.6-4.3-57.4-13.5-88.6-33.2c16.2-28.1,25.1-60.4,25.1-93.6
		c0-113.5-100.7-202.5-215.4-186C183.7,74,201.4,57,222,44.3L222,44.3z"/>
</g>
<g>
	<g>
		<circle class="st8" cx="256" cy="256" r="155.9"/>
	</g>
	<g>
		<path class="st3" d="M479.2,289.3c-5.3-1-10.5,2.5-11.5,7.8C448.2,398.2,359.2,471.6,256,471.6c-101,0-188.4-70.4-210.4-168.2
			l2.6,2.6c1.9,1.9,4.4,2.9,6.9,2.9c2.5,0,5-1,6.9-2.9c3.8-3.8,3.8-10,0-13.9l-20.2-20.2c-1.8-1.8-4.3-2.9-6.9-2.9s-5.1,1-6.9,2.9
			L7.9,292.1c-3.8,3.8-3.8,10,0,13.9c3.8,3.8,10,3.8,13.9,0l3.6-3.6C47.2,411.9,144,491.2,256,491.2c112.6,0,209.7-80.1,230.9-190.5
			C488,295.4,484.5,290.3,479.2,289.3z"/>
		<path class="st3" d="M504.1,206c-3.8-3.8-10-3.8-13.9,0l-3.6,3.6C464.8,100.1,368,20.8,256,20.8c-112.6,0-209.7,80.1-230.9,190.5
			c-1,5.3,2.5,10.5,7.8,11.5c5.3,1,10.5-2.5,11.5-7.8C63.8,113.8,152.8,40.4,256,40.4c101,0,188.4,70.4,210.4,168.2l-2.6-2.6
			c-3.8-3.8-10-3.8-13.9,0c-3.8,3.8-3.8,10,0,13.9l20.2,20.2c1.8,1.8,4.3,2.9,6.9,2.9c2.6,0,5.1-1,6.9-2.9l20.2-20.2
			C508,216.1,508,209.9,504.1,206L504.1,206z"/>
		<path class="st9" d="M266.3,299.2c1.2,0.5,2.4,0.7,3.6,0.7c3.9,0,7.6-2.3,9.1-6.2l27.1-68.2c2-5-0.5-10.7-5.5-12.7
			c-5-2-10.7,0.5-12.7,5.5l-27.1,68.2C258.9,291.5,261.3,297.2,266.3,299.2L266.3,299.2z"/>
		<path class="st9" d="M321.8,231.7h22.5l-23.9,54.5c-2.2,5,0.1,10.7,5,12.9c1.3,0.6,2.6,0.8,3.9,0.8c3.8,0,7.4-2.2,9-5.9l30-68.2
			c1.3-3,1-6.5-0.8-9.3c-1.8-2.8-4.9-4.4-8.2-4.4h-37.5c-5.4,0-9.8,4.4-9.8,9.8C311.9,227.3,316.3,231.7,321.8,231.7L321.8,231.7z"
			/>
		<path class="st9" d="M196.2,275c1.8,3,5,4.8,8.4,4.8h24.2c0,3.6-0.1,7.1-0.1,10.2c0,5.4,4.3,9.8,9.7,9.9h0.1
			c5.4,0,9.8-4.3,9.8-9.7c0-2.6,0.1-6.2,0.1-10.5c4.9-0.5,8.8-4.7,8.8-9.8c0-5-3.8-9.2-8.7-9.7c0.1-16,0.1-32-0.1-34.4
			c-0.5-6.3-4.4-11.5-9.8-13.2c-5.4-1.7-11.1,0.3-15.3,5.4c-3.9,4.8-20.5,34.6-27.4,47.2C194.4,268.3,194.5,272,196.2,275z
			 M229.1,246.5c0,4.2,0,8.9-0.1,13.7h-7.7C224.1,255.3,226.7,250.6,229.1,246.5L229.1,246.5z"/>
		<path class="st9" d="M190.3,300.4c5.4-0.1,9.7-4.5,9.7-9.9c-0.1-5.4-4.4-9.7-9.8-9.7c0,0-0.1,0-0.1,0c-5.4,0.1-11,0.1-16.1,0.1
			c3.5-4.8,8.1-11,13.8-19.2c4.5-6.4,7.5-12.6,8.8-18.2c0.3-1.3,0.6-3,0.6-4.9c0-15-12.2-27.3-27.3-27.3c-13,0-24.2,9.2-26.8,22
			c-1,5.3,2.4,10.5,7.7,11.5c5.3,1,10.5-2.4,11.5-7.7c0.7-3.6,3.9-6.2,7.5-6.2c4.1,0,7.4,3.2,7.6,7.2l-0.2,1.3
			c-0.6,2.2-2,5.9-5.6,11c-10.8,15.4-17.2,23.8-20.7,28.4c-4.4,5.8-6.9,9-5.2,14.3c1,3.1,3.4,5.6,6.6,6.7c1.3,0.4,2.4,0.8,15.7,0.8
			C173.3,300.6,180.5,300.5,190.3,300.4L190.3,300.4z"/>
	</g>
</g>
</svg>
