<?xml version="1.0" encoding="utf-8"?>
<!-- Generator: Adobe Illustrator 19.0.0, SVG Export Plug-In . SVG Version: 6.00 Build 0)  -->
<svg version="1.1" id="Capa_1" xmlns="http://www.w3.org/2000/svg" xmlns:xlink="http://www.w3.org/1999/xlink" x="0px" y="0px"
	 viewBox="-343 345 512 512" style="enable-background:new -343 345 512 512;" xml:space="preserve">
<style type="text/css">
	.st0{fill:#2F3A59;stroke:#2F3A59;stroke-width:4;stroke-linejoin:round;stroke-miterlimit:10;}
</style>
<g>
	<g>
		<path class="st0" d="M61.6,713.1c-6-30.2-34.4-35.4-34.5-35.4v0c-0.3-0.1,2.6,0.6-69.2-17.2v-2.4h52.8c10.9,0,19.8-8.9,19.8-19.8
			V537.6c0.9-3.7,0.9-7.6,0-11.4v-36.8c0-3.7-3-6.7-6.7-6.7c-3.7,0-6.7,3-6.7,6.7v19.3c-3.5-2.1-7.6-3.6-11.9-4.4
			c-1.6-7-7.4-12.5-14.7-13.5c-7.7-1-13.5-5.5-17.3-13.3c-1.8-3.7-5.3-6.1-9.3-6.4c-4.1-0.4-7.9,1.4-10.3,4.6
			c-11.5,15.7-43.6,50.9-99,50.9c-4.2,0-7.1-0.2-8.1-0.2c-10.2-0.6-18.8,7.5-18.8,17.7v15.4c0,24.6,10.2,48.5,28,65.5
			c5.9,5.6,12.4,10.3,19.4,14.1v5.6h-52.6c-3.5,0-6.3-2.8-6.3-6.3V487.6c0-48.9,39.9-89.2,88-89.2c0.2,0,0.3,0,0.5,0
			c17.2,0.1,37.2,5,50.7,12.5c8.6,4.7,13.9,1,22.4,1c20.7,0,37.3,21.3,39.3,40.5c0,0.3,0,1.4,0,5.7c0,6.5,7.3,7,6.7,6.7
			c3.7,0,6.7-3,6.7-6.7c0-1.2,0-5.9-0.1-6.9c-2.7-26.7-25.5-52.7-52.7-52.7c-10.6,0-12.3,2.7-15.9,0.7c-15.4-8.5-37.8-14-57.1-14.1
			c-55.7-0.4-102,46-102,102.6v150.8c0,10.9,8.9,19.8,19.8,19.8h52.6v2.4l-68.9,17.1c-0.1,0-0.2,0-0.3,0.1l-5,1.5
			c-0.2,0-0.3,0.1-0.4,0.1c-9,3.4-24.7,12.2-29,33.8c-20.4,102.6-19.6,98.2-19.6,98.6c-2.5,17.4,6.3,31.3,27.2,31.3h72.6
			c3.7,0,6.7-3,6.7-6.7c0-3.7-3-6.7-6.7-6.7h-25.2v-63.3c0-3.7-3-6.7-6.7-6.7c-3.7,0-6.7,3-6.7,6.7v63.3h-33.9
			c-8.9,0-14.1-2.9-14.2-12.2c0-4.6-0.2-0.1,19.7-101.6c3-15,13.9-21.3,20.3-23.8l4.7-1.4l39.6-9.8c44,51.9,41.4,49.1,44,51.6
			c14.7,14.3,35.7,13.3,49.5-2.9l41.4-48.7l39.4,9.8c1.1,0.5,20.8,4,25,25.1c19.8,100.6,19.8,97,19.7,101.6
			c-0.1,9.2-5,12.2-14.2,12.2H20.4v-63.3c0-3.7-3-6.7-6.7-6.7s-6.7,3-6.7,6.7v63.3h-124c-3.7,0-6.7,3-6.7,6.7c0,3.7,3,6.7,6.7,6.7
			H54c16.6,0,27.4-9.1,27.6-25.6C81.7,809.8,81.2,813.4,61.6,713.1z M5.6,518.1c5.6,1.7,9.9,5.4,11.5,9.9v7.7
			c-1.6,4.6-5.9,8.3-11.5,9.9V518.1z M5.6,560.6v-1.2c4.2-0.8,8.1-2.3,11.5-4.3v83.3c0,3.5-2.8,6.3-6.3,6.3h-52.8v-5.2
			C-13.6,624.6,5.6,594.8,5.6,560.6z M-135,615.3c-15.2-14.5-23.9-34.8-23.9-55.8c0.4-14.6-1-16.4,1.4-18.6c0.8-0.8,1.9-1.2,3.2-1.2
			c48.1,2.9,89.5-18.3,116.8-53.7c7.4,12.9,18.2,17,26.2,18c2,0.3,3.5,2,3.5,4c0,18.6,0,34.2,0,52.6
			C-7.8,627.4-87.7,660.4-135,615.3z M-67.6,720.8c-9.3,11-22.4,11-31.8-0.1l-14-16.5h59.9L-67.6,720.8z M-42.1,690.8h-82.7
			l-11.5-13.6l19.7-4.9c3-0.7,5.1-3.5,5.1-6.6l0-20.8c18.5,6.2,38,6.1,56,0.2c0.1,21.4-0.3,21,0.4,22.8c0.7,2.1,2.5,3.7,4.7,4.3
			l19.9,4.9L-42.1,690.8z"/>
	</g>
</g>
</svg>
