<?xml version="1.0" encoding="utf-8"?>
<!-- Generator: Adobe Illustrator 23.0.5, SVG Export Plug-In . SVG Version: 6.00 Build 0)  -->
<svg version="1.1" id="Layer_1" xmlns="http://www.w3.org/2000/svg" xmlns:xlink="http://www.w3.org/1999/xlink" x="0px" y="0px"
	 viewBox="0 0 56.7 51.1" style="enable-background:new 0 0 56.7 51.1;" xml:space="preserve">
<style type="text/css">
	.st0{clip-path:url(#SVGID_2_);fill:#09518C;}
	.st1{clip-path:url(#SVGID_2_);fill:#E74444;}
</style>
<g>
	<defs>
		<rect id="SVGID_1_" y="0" width="56.7" height="51.1"/>
	</defs>
	<clipPath id="SVGID_2_">
		<use xlink:href="#SVGID_1_"  style="overflow:visible;"/>
	</clipPath>
	<path class="st0" d="M56.7,8.5v38.6c-0.2,0-0.1,0.2-0.2,0.3c-0.7,2.3-2.5,3.7-5,3.7c-15.5,0-30.9,0-46.4,0C2.2,51.1,0,49,0,46
		C0,33.8,0,21.7,0,9.5c0-2.9,2.2-5.1,5.1-5.1c1.1,0,2.3,0,3.4,0C8.9,4.5,9,4.3,9,3.9c0-0.7,0-1.4,0-2.2C9,0.7,9.7,0,10.6,0
		c0.9,0,1.6,0.7,1.7,1.8c0,0.8,0,1.5,0,2.3c0,0.3,0.1,0.3,0.3,0.3c4.6,0,9.1,0,13.7,0c0.3,0,0.3-0.1,0.3-0.3c0-0.8,0-1.5,0-2.3
		c0-1,0.7-1.8,1.6-1.8C29.3,0,30,0.7,30,1.8c0,0.7,0,1.4,0,2c0,0.5,0.1,0.6,0.6,0.6c4.4,0,8.8,0,13.2,0c0.4,0,0.6-0.1,0.6-0.6
		c0-0.7,0-1.4,0-2.2c0-1,0.7-1.7,1.6-1.7c0.9,0,1.7,0.7,1.7,1.7c0,0.8,0,1.5,0,2.3c0,0.4,0.1,0.4,0.4,0.4c1.2,0,2.4,0,3.7,0
		c2.2,0,4.1,1.5,4.7,3.6C56.5,8.2,56.5,8.4,56.7,8.5 M28.3,19.3c-8.1,0-16.3,0-24.4,0c-0.5,0-0.6,0.1-0.6,0.6c0,8.7,0,17.4,0,26.1
		c0,1.3,0.6,1.9,2,1.9h46.1c1.3,0,2-0.6,2-2c0-8.7,0-17.4,0-26.1c0-0.5-0.1-0.6-0.6-0.6C44.6,19.3,36.5,19.3,28.3,19.3 M28.3,15.9
		c8.2,0,16.3,0,24.5,0c0.4,0,0.5-0.1,0.5-0.5c0-2,0-4,0-6c0-1-0.7-1.7-1.7-1.7c-1.2,0-2.4,0-3.5,0c-0.4,0-0.4,0.1-0.4,0.4
		c0,0.8,0,1.5,0,2.3c0,1-0.7,1.7-1.6,1.7c-0.9,0-1.7-0.7-1.7-1.7c0-0.8,0-1.5,0-2.3c0-0.3,0-0.4-0.4-0.4c-4.6,0-9.1,0-13.7,0
		C30,7.7,30,7.8,30,8.1c0,0.8,0,1.5,0,2.3c0,1-0.7,1.8-1.7,1.7c-0.9,0-1.6-0.7-1.6-1.7c0-0.8,0-1.5,0-2.3c0-0.3-0.1-0.4-0.4-0.4
		c-4.6,0-9.1,0-13.7,0c-0.3,0-0.4,0.1-0.4,0.4c0,0.8,0,1.5,0,2.3c0,1.1-0.7,1.8-1.7,1.8c-0.9,0-1.6-0.8-1.6-1.8c0-0.7,0-1.5,0-2.2
		c0-0.4-0.1-0.4-0.5-0.4c-1.1,0-2.3,0-3.4,0C4,7.8,3.3,8.4,3.3,9.6c0,1.9,0,3.9,0,5.8c0,0.5,0.1,0.6,0.6,0.6
		C12,15.9,20.2,15.9,28.3,15.9"/>
	<path class="st1" d="M14.1,28.1c-0.6,0-1.1,0-1.7,0c-0.9,0-1.7-0.7-1.7-1.6c0-0.9,0.7-1.7,1.7-1.7c1.2,0,2.3,0,3.5,0
		c1,0,1.7,0.7,1.7,1.7c0,0.9-0.7,1.6-1.7,1.7C15.3,28.1,14.7,28.1,14.1,28.1"/>
	<path class="st1" d="M28.3,28.1c-0.6,0-1.2,0-1.8,0c-0.9,0-1.7-0.7-1.7-1.6c0-0.9,0.7-1.7,1.7-1.7c1.2,0,2.3,0,3.5,0
		c1,0,1.7,0.7,1.7,1.7c0,0.9-0.7,1.6-1.7,1.6C29.5,28.1,28.9,28.1,28.3,28.1"/>
	<path class="st1" d="M42.5,28.1c-0.6,0-1.1,0-1.7,0c-1,0-1.7-0.8-1.7-1.7c0-0.9,0.7-1.6,1.7-1.6c1.2,0,2.4,0,3.5,0
		c0.9,0,1.7,0.7,1.7,1.7c0,0.9-0.7,1.6-1.6,1.7C43.7,28.1,43.1,28.1,42.5,28.1"/>
	<path class="st1" d="M14.1,35.2c-0.6,0-1.1,0-1.7,0c-1,0-1.7-0.8-1.7-1.7c0-0.9,0.7-1.6,1.7-1.6c1.2,0,2.4,0,3.5,0
		c0.9,0,1.6,0.8,1.6,1.7c0,0.9-0.7,1.6-1.6,1.7C15.3,35.2,14.7,35.2,14.1,35.2"/>
	<path class="st0" d="M28.3,31.9c0.6,0,1.2,0,1.8,0c0.9,0,1.7,0.7,1.7,1.6c0,0.9-0.7,1.7-1.7,1.7c-1.2,0-2.3,0-3.5,0
		c-1,0-1.7-0.7-1.7-1.7c0-0.9,0.7-1.6,1.7-1.7C27.2,31.9,27.8,31.9,28.3,31.9"/>
	<path class="st0" d="M42.5,35.2c-0.6,0-1.1,0-1.7,0c-1,0-1.7-0.7-1.7-1.6c0-0.9,0.7-1.7,1.7-1.7c1.2,0,2.3,0,3.5,0
		c1,0,1.7,0.7,1.7,1.7c0,0.9-0.7,1.6-1.7,1.6C43.7,35.2,43.1,35.2,42.5,35.2"/>
	<path class="st0" d="M14.2,42.3c-0.6,0-1.2,0-1.8,0c-0.9,0-1.7-0.7-1.7-1.6c0-0.9,0.7-1.7,1.6-1.7c1.2,0,2.4,0,3.6,0
		c0.9,0,1.6,0.8,1.6,1.7c0,0.9-0.7,1.6-1.6,1.6C15.4,42.3,14.8,42.3,14.2,42.3"/>
	<path class="st0" d="M28.3,39c0.6,0,1.2,0,1.8,0c0.9,0,1.7,0.7,1.7,1.6c0,0.9-0.7,1.7-1.6,1.7c-1.2,0-2.4,0-3.6,0
		c-0.9,0-1.6-0.8-1.6-1.7c0-0.9,0.7-1.6,1.7-1.6C27.2,38.9,27.7,39,28.3,39"/>
	<path class="st0" d="M42.5,42.3c-0.6,0-1.2,0-1.8,0c-0.9,0-1.7-0.7-1.7-1.6c0-0.9,0.7-1.6,1.6-1.7c1.2,0,2.4,0,3.6,0
		c0.9,0,1.6,0.8,1.6,1.7c0,0.9-0.7,1.6-1.6,1.6C43.7,42.3,43.1,42.3,42.5,42.3"/>
</g>
</svg>
