<?xml version="1.0" encoding="utf-8"?>
<!-- Generator: Adobe Illustrator 23.0.5, SVG Export Plug-In . SVG Version: 6.00 Build 0)  -->
<svg version="1.1" id="Capa_1" xmlns="http://www.w3.org/2000/svg" xmlns:xlink="http://www.w3.org/1999/xlink" x="0px" y="0px"
	 viewBox="0 0 512 512" style="enable-background:new 0 0 512 512;" xml:space="preserve">
<style type="text/css">
	.st0{fill:#09518C;}
</style>
<g>
	<g>
		<path class="st0" d="M497.2,54.2H14.8C6.6,54.2,0,60.8,0,68.9v83.7h512V68.9C512,60.8,505.4,54.2,497.2,54.2z M374.2,132.9h-19.7
			c-8.2,0-14.8-6.6-14.8-14.8s6.6-14.8,14.8-14.8h19.7c8.2,0,14.8,6.6,14.8,14.8S382.3,132.9,374.2,132.9z M433.2,132.9h-19.7
			c-8.2,0-14.8-6.6-14.8-14.8s6.6-14.8,14.8-14.8h19.7c8.2,0,14.8,6.6,14.8,14.8S441.4,132.9,433.2,132.9z"/>
	</g>
</g>
<g>
	<g>
		<path class="st0" d="M256,241.2c-35.3,0-64,28.7-64,64s28.7,64,64,64s64-28.7,64-64S291.3,241.2,256,241.2z M256,335.8
			c-16.8,0-30.5-13.7-30.5-30.5s13.7-30.5,30.5-30.5s30.5,13.7,30.5,30.5S272.8,335.8,256,335.8z"/>
	</g>
</g>
<g>
	<g>
		<path class="st0" d="M44.3,182.2v64c0,56.5,22,109.7,62,149.7s93.1,62,149.7,62s109.7-22,149.7-62s62-93.1,62-149.7v-64H44.3
			L44.3,182.2z M256,398.8c-51.6,0-93.5-42-93.5-93.5c0-51.6,42-93.5,93.5-93.5s93.5,42,93.5,93.5S307.6,398.8,256,398.8z"/>
	</g>
</g>
</svg>
