<?xml version="1.0" encoding="utf-8"?>
<!-- Generator: Adobe Illustrator 23.0.5, SVG Export Plug-In . SVG Version: 6.00 Build 0)  -->
<svg version="1.1" id="Layer_1" xmlns="http://www.w3.org/2000/svg" xmlns:xlink="http://www.w3.org/1999/xlink" x="0px" y="0px"
	 viewBox="0 0 126.8 111.4" style="enable-background:new 0 0 126.8 111.4;" xml:space="preserve">
<style type="text/css">
	.st0{clip-path:url(#SVGID_2_);fill:#09518C;}
	.st1{display:none;}
	.st2{display:inline;}
	.st3{display:inline;clip-path:url(#SVGID_4_);fill:#EB494B;}
	.st4{display:inline;clip-path:url(#SVGID_6_);fill:#FFFFFF;}
</style>
<g>
	<g>
		<defs>
			<rect id="SVGID_1_" width="126.8" height="111.4"/>
		</defs>
		<clipPath id="SVGID_2_">
			<use xlink:href="#SVGID_1_"  style="overflow:visible;"/>
		</clipPath>
		<path class="st0" d="M117.7,77.9c3.6,4.7,2.2,12.1-4,14.9c3.3,4.6,1.9,10.3-1.3,13.1c-1.8,1.6-3.8,2.4-6.2,2.4
			c-9.4,0-18.8,0.3-28.1-0.2c-5.5-0.2-10.8-1.6-16.2-3c-4.1-1.1-8.3-2.1-12.4-3.2c-0.7-0.2-1-0.2-1.1,0.7c-0.3,2.2-2,3.8-4.3,3.8
			c-5,0.1-10,0.2-15.1-0.1c-6-0.3-10.2-4.9-10.5-10.9c-0.1-1.3,0-2.6,0-4c0-14.7,0-29.5,0-44.2c0-5.4,2.9-9.6,7.7-11.2
			c1.3-0.4,2.7-0.6,4.1-0.6c4.3,0,8.5,0,12.8,0c3.5,0,5,1.3,5.5,4.7c0.1,0,0.1,0.1,0.2,0.1c4.1-2.2,8.4-4.1,12.3-6.7
			c6.3-4.1,10.4-9.9,13.3-16.8c1.3-3.2,2.4-6.5,3.9-9.6c0.5-1,1-1.9,1.6-2.7c2.6-3.8,6.2-5.2,10.7-4.3c4.2,0.8,8,4.3,8.3,8.6
			c0.7,9.5,1,19-3.2,28c-1.1,2.3-2.3,4.5-3.8,6.6c0.4,0.3,0.9,0.2,1.2,0.2c7.8,0,15.5,0.1,23.3,0c5.5-0.1,8.9,3.5,10,7.2
			c1.4,4.5-0.2,8.7-4.3,11.4c-0.7,0.4-0.3,0.7-0.1,1.1c2.7,4.3,2.2,9.4-1.3,12.7C119.7,76.9,118.8,77.5,117.7,77.9 M48.2,71.1
			c0,8.2,0,16.4,0,24.6c0,0.9,0.3,1.2,1.1,1.4c4.9,1.2,9.8,2.5,14.6,3.8c5.4,1.4,10.8,2.5,16.4,2.6c8.4,0,16.9,0,25.3,0
			c2.8,0,5.1-2.4,5.1-5.4c0.1-3-2-5.3-4.9-5.4c-2.2-0.1-4.4-0.1-6.6,0.1c-1.3,0.1-2.6,0.2-3.9-0.1c-1.6-0.3-2.3-1.7-1.7-3.1
			c0.4-1,1.3-1.3,2.3-1.3c4.5,0,9,0,13.5,0c2.4,0,4.2-1.2,5-3.2c1.4-3.5-1-7.1-4.7-7.2c-3.2-0.1-6.5,0-9.7,0c-1.5,0-2.3-0.6-2.5-1.7
			c-0.3-1.7,0.6-2.8,2.4-2.8c4.5,0,9,0,13.5,0c0.5,0,1,0,1.5-0.1c2.5-0.6,4.2-3,3.9-5.6c-0.3-2.7-2.4-4.6-5-4.6c-3.3,0-6.7,0-10,0
			c-0.9,0-1.7-0.3-2.1-1.2c-0.4-0.8-0.3-1.6,0.2-2.4c0.6-0.8,1.4-0.9,2.3-0.9c4.1,0,8.3,0,12.4,0c1.7,0,3.1-0.5,4.2-1.8
			c1.4-1.8,1.6-3.7,0.6-5.7c-0.9-1.9-2.6-2.8-4.7-2.8c-9.5,0-18.9,0-28.4,0c-0.4,0-0.9,0-1.3,0c-1.9-0.1-2.8-2-1.8-3.6
			c0.6-0.9,1.3-1.8,1.9-2.7c4.7-6.1,7-13.1,7.3-20.8c0.1-3.2-0.2-6.4,0-9.6c0.1-2-0.7-3.6-2-5c-2.2-2.3-6.6-2.8-8.9,0.8
			c-0.6,1-1.2,2-1.7,3.1c-1.2,2.9-2.4,5.9-3.7,8.8c-4,10.1-11,17.5-21.1,22c-2.7,1.2-5.3,2.5-7.9,3.8c-0.7,0.3-0.9,0.6-0.9,1.4
			C48.2,54.7,48.2,62.9,48.2,71.1 M43.9,70.7c0-9.9,0-19.9,0-29.8c0-0.7-0.1-1.1-1-1.1c-4.3,0.1-8.5,0-12.8,0c-0.8,0-1.5,0-2.3,0.2
			c-3,1-4.8,3.5-4.8,7c0,13.3,0,26.5,0,39.8c0,2.9,0,5.8,0,8.7c0.1,2.9,2.1,5.3,5,6.1c1,0.3,1.9,0,2.8,0c4,0,8,0,12,0
			c0.9,0,1.2-0.2,1.1-1.1C43.9,90.6,43.9,80.6,43.9,70.7"/>
	</g>
	<g class="st1">
		<defs>
			<rect id="SVGID_3_" width="126.8" height="111.4"/>
		</defs>
		<clipPath id="SVGID_4_" class="st2">
			<use xlink:href="#SVGID_3_"  style="overflow:visible;"/>
		</clipPath>
		<path class="st3" d="M24.6,62.1c13.6,0,24.6,11,24.6,24.6s-11,24.6-24.6,24.6C11,111.4,0,100.4,0,86.8S11,62.1,24.6,62.1"/>
	</g>
	<g class="st1">
		<defs>
			<rect id="SVGID_5_" width="126.8" height="111.4"/>
		</defs>
		<clipPath id="SVGID_6_" class="st2">
			<use xlink:href="#SVGID_5_"  style="overflow:visible;"/>
		</clipPath>
		<path class="st4" d="M34.5,76.4L18,92.9l-7-4.7c-1.4-0.9-3.3-0.6-4.2,0.8s-0.6,3.3,0.8,4.2l0,0l9.1,6.1c1.2,0.8,2.8,0.6,3.8-0.4
			l18.2-18.2c1.2-1.2,1.2-3.1,0-4.3C37.6,75.3,35.7,75.3,34.5,76.4"/>
	</g>
</g>
</svg>
