<?xml version="1.0" encoding="utf-8"?>
<!-- Generator: Adobe Illustrator 23.0.5, SVG Export Plug-In . SVG Version: 6.00 Build 0)  -->
<svg version="1.1" id="Layer_1" xmlns="http://www.w3.org/2000/svg" xmlns:xlink="http://www.w3.org/1999/xlink" x="0px" y="0px"
	 viewBox="0 0 75.7 75.8" style="enable-background:new 0 0 75.7 75.8;" xml:space="preserve">
<style type="text/css">
	.st0{clip-path:url(#SVGID_2_);fill:#EDF4FC;}
	.st1{clip-path:url(#SVGID_2_);fill:#EB494B;}
	.st2{clip-path:url(#SVGID_2_);fill:#FFFFFF;}
	.st3{clip-path:url(#SVGID_2_);fill:#09518C;}
</style>
<g>
	<defs>
		<rect id="SVGID_1_" width="75.7" height="75.8"/>
	</defs>
	<clipPath id="SVGID_2_">
		<use xlink:href="#SVGID_1_"  style="overflow:visible;"/>
	</clipPath>
	<path class="st0" d="M67.2,0.7H8.6c-0.3,0-0.5,0.2-0.5,0.5v73c0,0.4,0.4,0.8,0.8,0.8h58c0.4,0,0.8-0.4,0.8-0.8v-73
		C67.6,0.9,67.4,0.7,67.2,0.7"/>
	<path class="st1" d="M67.2,0.7H8.6c-0.3,0-0.5,0.2-0.5,0.5v4.8h59.6V1.2C67.6,0.9,67.4,0.7,67.2,0.7"/>
	<path class="st2" d="M12.5,2.5c0.5,0,0.9,0.4,0.9,0.9S13,4.3,12.5,4.3c-0.5,0-0.9-0.4-0.9-0.9S12,2.5,12.5,2.5"/>
	<path class="st2" d="M15.5,2.5c0.5,0,0.9,0.4,0.9,0.9S16,4.3,15.5,4.3c-0.5,0-0.9-0.4-0.9-0.9S15,2.5,15.5,2.5"/>
	<path class="st2" d="M18.5,2.5c0.5,0,0.9,0.4,0.9,0.9S19,4.3,18.5,4.3c-0.5,0-0.9-0.4-0.9-0.9S18,2.5,18.5,2.5"/>
	<path class="st1" d="M75.7,63.1c-1.2-0.2-2.1-1.1-2.3-2.3c0,0,0-0.1-0.1,0c0,0,0,0,0,0c-0.2,1.2-1.2,2.1-2.3,2.3c0,0-0.1,0,0,0.1
		c0,0,0,0,0,0c1.2,0.2,2.1,1.1,2.3,2.3c0,0,0,0.1,0.1,0c0,0,0,0,0,0C73.6,64.3,74.5,63.4,75.7,63.1C75.7,63.2,75.8,63.1,75.7,63.1
		C75.8,63.1,75.7,63.1,75.7,63.1"/>
	<path class="st1" d="M4.4,34.3c0.5,0,0.9,0.4,0.9,0.9c0,0.5-0.4,0.9-0.9,0.9s-0.9-0.4-0.9-0.9C3.6,34.7,3.9,34.3,4.4,34.3"/>
	<path class="st1" d="M4.4,8.6c0.5,0,0.9,0.4,0.9,0.9c0,0.5-0.4,0.9-0.9,0.9S3.6,10,3.6,9.5C3.6,9,3.9,8.6,4.4,8.6"/>
	<path class="st1" d="M71.6,52.7c0.5,0,0.9,0.4,0.9,0.9c0,0.5-0.4,0.9-0.9,0.9c-0.5,0-0.9-0.4-0.9-0.9
		C70.7,53.1,71.1,52.7,71.6,52.7"/>
	<path class="st1" d="M3.7,26.4H3.1v-0.6c0-0.4-0.4-0.8-0.8-0.8c-0.4,0-0.8,0.4-0.8,0.8v0.6H0.8c-0.4,0-0.8,0.4-0.8,0.8
		c0,0.4,0.4,0.8,0.8,0.8h0.6v0.6c0,0.4,0.4,0.8,0.8,0.8c0.4,0,0.8-0.4,0.8-0.8v-0.6h0.6c0.4,0,0.8-0.4,0.8-0.8
		C4.6,26.8,4.2,26.4,3.7,26.4"/>
	<path class="st1" d="M17.6,49.7h4.2c0.7,0,1.2,0.6,1.2,1.2v4.2c0,0.7-0.6,1.2-1.2,1.2h-4.2c-0.7,0-1.2-0.6-1.2-1.2v-4.2
		C16.4,50.2,17,49.7,17.6,49.7"/>
	<path class="st1" d="M31,64.6v-2.9c0-0.6-0.5-1.2-1.2-1.2H17.5c-0.6,0-1.2,0.5-1.2,1.2v2.9c0,0.6,0.5,1.2,1.2,1.2h12.3
		C30.4,65.8,31,65.2,31,64.6"/>
	<path class="st3" d="M67.2,0H8.6C7.9,0,7.4,0.6,7.3,1.2v73c0,0.8,0.7,1.5,1.5,1.5h58c0.8,0,1.5-0.7,1.5-1.5v-73
		C68.4,0.6,67.8,0,67.2,0 M66.9,74.2C66.9,74.3,66.9,74.3,66.9,74.2l-58,0c0,0,0,0,0,0V6.8h58.1L66.9,74.2L66.9,74.2z M66.9,5.3H8.8
		V1.5h58.1L66.9,5.3L66.9,5.3z"/>
	<path class="st3" d="M16.6,23.7h42.5c0.8,0,1.4-0.6,1.4-1.4v-3.7c0-0.8-0.6-1.4-1.4-1.4H16.6c-0.8,0-1.4,0.6-1.4,1.4v3.7
		C15.2,23.1,15.9,23.7,16.6,23.7 M16.7,18.6H59v3.6H16.7V18.6z"/>
	<path class="st3" d="M15.9,15.3h10.6c0.4,0,0.7-0.3,0.7-0.7c0-0.4-0.3-0.7-0.7-0.7H15.9c-0.4,0-0.7,0.3-0.7,0.7
		C15.2,15,15.6,15.3,15.9,15.3"/>
	<path class="st3" d="M16.6,35.1h42.5c0.8,0,1.4-0.6,1.4-1.4V30c0-0.8-0.6-1.4-1.4-1.4H16.6c-0.8,0-1.4,0.6-1.4,1.4v3.7
		C15.2,34.5,15.9,35.1,16.6,35.1 M16.7,30.1H59v3.6H16.7V30.1z"/>
	<path class="st3" d="M15.9,26.7h10.6c0.4,0,0.7-0.3,0.7-0.7s-0.3-0.7-0.7-0.7H15.9c-0.4,0-0.7,0.3-0.7,0.7S15.6,26.7,15.9,26.7"/>
	<path class="st3" d="M16.6,46.5h42.5c0.8,0,1.4-0.6,1.4-1.4v-3.7c0-0.8-0.6-1.4-1.4-1.4H16.6c-0.8,0-1.4,0.6-1.4,1.4v3.7
		C15.2,45.9,15.9,46.5,16.6,46.5 M16.7,41.5H59v3.6H16.7V41.5z"/>
	<path class="st3" d="M15.9,38.2h10.6c0.4,0,0.7-0.3,0.7-0.7c0-0.4-0.3-0.7-0.7-0.7H15.9c-0.4,0-0.7,0.3-0.7,0.7
		C15.2,37.8,15.6,38.2,15.9,38.2"/>
	<path class="st2" d="M18.8,54.2c0.3,0.3,0.8,0.3,1,0l1.6-1.6c0.3-0.3,0.3-0.8,0-1c-0.3-0.3-0.8-0.3-1,0l-1,1L19,52.3
		c-0.3-0.3-0.7-0.3-1,0c-0.3,0.3-0.3,0.7,0,1L18.8,54.2z"/>
	<path class="st3" d="M17.6,57h4.2c1.1,0,2-0.9,2-2v-4.2c0-1.1-0.9-2-2-2h-4.2c-1.1,0-2,0.9-2,2v4.2C15.7,56.2,16.5,57,17.6,57
		 M17.1,50.9c0-0.3,0.2-0.5,0.5-0.5h4.2c0.3,0,0.5,0.2,0.5,0.5V55c0,0.3-0.2,0.5-0.5,0.5h-4.2c-0.3,0-0.5-0.2-0.5-0.5V50.9z"/>
	<path class="st3" d="M59.4,49.2h-33c-0.4,0-0.7,0.3-0.7,0.7c0,0.4,0.3,0.7,0.7,0.7h33c0.4,0,0.7-0.3,0.7-0.7
		C60.1,49.5,59.8,49.2,59.4,49.2"/>
	<path class="st3" d="M59.4,52.2h-33c-0.4,0-0.7,0.3-0.7,0.7s0.3,0.7,0.7,0.7h33c0.4,0,0.7-0.3,0.7-0.7S59.8,52.2,59.4,52.2"/>
	<path class="st3" d="M43.6,55.2H26.3c-0.4,0-0.7,0.3-0.7,0.7c0,0.4,0.3,0.7,0.7,0.7h17.3c0.4,0,0.7-0.3,0.7-0.7
		C44.4,55.6,44.1,55.2,43.6,55.2"/>
	<path class="st3" d="M29.8,59.8H17.5c-1,0-1.9,0.9-1.9,1.9v2.9c0,1,0.9,1.9,1.9,1.9h12.3c1,0,1.9-0.9,1.9-1.9v-2.9
		C31.7,60.6,30.8,59.8,29.8,59.8 M30.2,64.6c0,0.2-0.2,0.4-0.4,0.4H17.5c-0.2,0-0.4-0.2-0.4-0.4v-2.9c0-0.2,0.2-0.4,0.4-0.4h12.3
		c0.2,0,0.4,0.2,0.4,0.4V64.6z"/>
</g>
</svg>
