<?xml version="1.0" encoding="utf-8"?>
<!-- Generator: Adobe Illustrator 16.0.0, SVG Export Plug-In . SVG Version: 6.00 Build 0)  -->
<!DOCTYPE svg PUBLIC "-//W3C//DTD SVG 1.1//EN" "http://www.w3.org/Graphics/SVG/1.1/DTD/svg11.dtd">
<svg version="1.1" id="Layer_1" xmlns="http://www.w3.org/2000/svg" xmlns:xlink="http://www.w3.org/1999/xlink" x="0px" y="0px"
	 width="881.076px" height="450.552px" viewBox="0 0 881.076 450.552" enable-background="new 0 0 881.076 450.552"
	 xml:space="preserve">
<g>
	<defs>
		<rect id="SVGID_1_" x="2.474" width="878.602" height="450.552"/>
	</defs>
	<clipPath id="SVGID_2_">
		<use xlink:href="#SVGID_1_"  overflow="visible"/>
	</clipPath>
	<path clip-path="url(#SVGID_2_)" fill="#CC7206" d="M2.474,46.259L2.474,46.259c0-25.549,20.71-46.26,46.259-46.26h19.399v92.519
		H48.733C23.184,92.518,2.474,71.808,2.474,46.259"/>
	<path clip-path="url(#SVGID_2_)" fill="#FAA635" d="M2.474,46.259v46.259v39.793v271.962v0.04
		c0,25.547,20.692,46.239,46.239,46.239h19.419h101.404h75.675h615.93c16.917,0,26.117-19.772,15.221-32.713L768.479,299.73
		c-13.72-16.293-13.72-40.097,0-56.392L876.361,125.23c10.896-12.94,1.696-32.713-15.221-32.713h-615.93h-75.675H68.132H48.733
		C23.184,92.518,2.474,71.808,2.474,46.259"/>
</g>
</svg>
