<?xml version="1.0" encoding="utf-8"?>
<!-- Generator: Adobe Illustrator 23.0.5, SVG Export Plug-In . SVG Version: 6.00 Build 0)  -->
<svg version="1.1" id="Layer_1" xmlns="http://www.w3.org/2000/svg" xmlns:xlink="http://www.w3.org/1999/xlink" x="0px" y="0px"
	 viewBox="0 0 512 512" style="enable-background:new 0 0 512 512;" xml:space="preserve">
<style type="text/css">
	.st0{fill:#0A528B;}
	.st1{fill:#09518C;}
	.st2{fill:none;}
</style>
<path class="st0" d="M256,224c-19.7,0-32,15.3-32,40s12.3,40,32,40s32-15.3,32-40S275.7,224,256,224"/>
<path class="st1" d="M256,0C114.6,0,0,114.6,0,256s114.6,256,256,256s256-114.6,256-256S397.4,0,256,0 M416,272
	c0,35.3-28.7,64-64,64c-19.3,0-36.5-8.8-48.2-22.4c-11.4,14-27.9,22.4-47.8,22.4c-37.7,0-64-29.6-64-72s26.3-72,64-72
	c12.6,0,23.8,3.6,33.4,9.6c2.5-5.6,8.1-9.6,14.6-9.6c8.8,0,16,7.2,16,16v64c0,17.7,14.3,32,32,32s32-14.3,32-32v-9.3
	c0-68-47.6-125.4-110.9-133.6c-42-5.4-82.4,9.1-111,39.8c-28.5,30.8-40,72.4-31.3,114.4c9.8,47.4,47.9,86.5,94.9,97.2
	c30.1,6.8,60.2,3.5,86.9-9.8c8-3.9,17.5-0.7,21.5,7.2c3.9,7.9,0.7,17.5-7.2,21.5c-22.2,11-46.2,16.6-70.8,16.6
	c-12.4,0-24.9-1.4-37.5-4.3c-60-13.6-106.8-61.5-119.2-122c-10.7-52.2,3.6-104.2,39.2-142.6c35.7-38.4,86.2-56.4,138.5-49.8
	C356.4,107.6,416,178.7,416,262.7V272z"/>
<rect class="st2" width="512" height="512"/>
</svg>
