<?xml version="1.0" encoding="utf-8"?>
<!-- Generator: Adobe Illustrator 23.0.5, SVG Export Plug-In . SVG Version: 6.00 Build 0)  -->
<svg version="1.1" id="Layer_1" xmlns="http://www.w3.org/2000/svg" xmlns:xlink="http://www.w3.org/1999/xlink" x="0px" y="0px"
	 viewBox="0 0 512 512" style="enable-background:new 0 0 512 512;" xml:space="preserve">
<style type="text/css">
	.st0{fill:#09518C;}
	.st1{fill:none;}
</style>
<path class="st0" d="M437,75C337-25,174.9-25,75,75C-25,175-25,337.1,75,437s262.1,100,362,0c48-48,75-113.1,75-181S485,123,437,75
	 M387.7,356.6L387.7,356.6L387.7,356.6l-13,12.8c-16.8,17-41.2,24-64.4,18.4c-23.4-6.3-45.6-16.2-65.9-29.5
	c-18.8-12-36.2-26.1-52-41.9c-14.5-14.4-27.5-30.2-38.8-47.1c-12.4-18.2-22.2-38.1-29.2-59.1c-8-24.6-1.4-51.6,17.1-69.7l15.2-15.2
	c4.2-4.2,11.1-4.3,15.3,0l0,0l48,48c4.2,4.2,4.3,11.1,0,15.3l0,0l-28.2,28.2c-8.1,8-9.1,20.7-2.4,29.9c10.2,14,21.5,27.1,33.7,39.3
	c13.7,13.7,28.5,26.2,44.4,37.3c9.2,6.4,21.6,5.3,29.5-2.6l27.2-27.6c4.2-4.2,11.1-4.3,15.3,0l0,0l48,48.1
	C391.9,345.5,391.9,352.4,387.7,356.6"/>
<rect class="st1" width="512" height="512"/>
</svg>
