<?xml version="1.0" encoding="utf-8"?>
<!-- Generator: Adobe Illustrator 16.0.0, SVG Export Plug-In . SVG Version: 6.00 Build 0)  -->
<!DOCTYPE svg PUBLIC "-//W3C//DTD SVG 1.1//EN" "http://www.w3.org/Graphics/SVG/1.1/DTD/svg11.dtd">
<svg version="1.1" id="Layer_1" xmlns="http://www.w3.org/2000/svg" xmlns:xlink="http://www.w3.org/1999/xlink" x="0px" y="0px"
	 width="315px" height="315px" viewBox="0 0 315 315" enable-background="new 0 0 315 315" xml:space="preserve">
<g>
	<defs>
		<rect id="SVGID_1_" x="4.718" y="0" width="305.564" height="315"/>
	</defs>
	<clipPath id="SVGID_2_">
		<use xlink:href="#SVGID_1_"  overflow="visible"/>
	</clipPath>
	<g clip-path="url(#SVGID_2_)">
		<defs>
			<rect id="SVGID_3_" x="4.718" width="305.564" height="315"/>
		</defs>
		<clipPath id="SVGID_4_">
			<use xlink:href="#SVGID_3_"  overflow="visible"/>
		</clipPath>
		<path clip-path="url(#SVGID_4_)" fill="#E9F7FF" d="M310.282,138.855c0,76.687-62.168,138.855-138.855,138.855
			S32.572,215.542,32.572,138.855C32.572,62.167,94.739,0,171.427,0S310.282,62.167,310.282,138.855"/>
		<g opacity="0.1" clip-path="url(#SVGID_4_)">
			<g>
				<defs>
					<rect id="SVGID_5_" x="44.181" y="20.214" width="43.787" height="43.788"/>
				</defs>
				<clipPath id="SVGID_6_">
					<use xlink:href="#SVGID_5_"  overflow="visible"/>
				</clipPath>
				<path clip-path="url(#SVGID_6_)" fill="#343434" d="M87.968,42.108c0,12.091-9.802,21.894-21.894,21.894
					c-12.091,0-21.893-9.802-21.893-21.894c0-12.092,9.802-21.894,21.893-21.894C78.166,20.215,87.968,30.017,87.968,42.108"/>
			</g>
		</g>
		<path clip-path="url(#SVGID_4_)" fill="#98D2F9" d="M84.779,40.514c0,11.211-9.088,20.299-20.299,20.299
			s-20.299-9.088-20.299-20.299s9.088-20.299,20.299-20.299S84.779,29.303,84.779,40.514"/>
		<g opacity="0.1" clip-path="url(#SVGID_4_)">
			<g>
				<defs>
					<rect id="SVGID_7_" x="124.19" y="44.019" width="143.058" height="270.383"/>
				</defs>
				<clipPath id="SVGID_8_">
					<use xlink:href="#SVGID_7_"  overflow="visible"/>
				</clipPath>
				<path clip-path="url(#SVGID_8_)" fill="#343434" d="M249.333,314.401H142.106c-9.895,0-17.916-8.021-17.916-17.916V61.935
					c0-9.895,8.021-17.916,17.916-17.916h107.227c9.895,0,17.915,8.021,17.915,17.916v234.551
					C267.248,306.38,259.228,314.401,249.333,314.401"/>
			</g>
		</g>
		<path clip-path="url(#SVGID_4_)" fill="#57B7F9" d="M243.27,314.401H141.696c-9.668,0-17.506-7.838-17.506-17.506V61.524
			c0-9.668,7.837-17.506,17.506-17.506H243.27c9.668,0,17.506,7.838,17.506,17.506v235.371
			C260.775,306.563,252.938,314.401,243.27,314.401"/>
		<path clip-path="url(#SVGID_4_)" fill="#E9F7FF" d="M243.38,50.982h-14.273l-2.049,6.354c-0.813,2.518-3.131,4.222-5.747,4.222
			h-57.655c-2.616,0-4.936-1.704-5.747-4.222l-2.049-6.354h-14.273c-6.79,0-12.314,5.594-12.314,12.471v235.149
			c0,6.876,5.524,12.471,12.314,12.471H243.38c6.79,0,12.314-5.595,12.314-12.471V63.453
			C255.694,56.577,250.17,50.982,243.38,50.982"/>
		<path clip-path="url(#SVGID_4_)" fill="#E9F7FF" d="M212.91,53.723h-46.451c-0.724,0-1.312-0.587-1.312-1.312v-0.017
			c0-0.725,0.588-1.313,1.312-1.313h46.451c0.725,0,1.313,0.588,1.313,1.313v0.017C214.223,53.136,213.635,53.723,212.91,53.723"/>
		<path clip-path="url(#SVGID_4_)" fill="#E9F7FF" d="M218.515,54.174L218.515,54.174c-0.966,0-1.75-0.783-1.75-1.75V52.38
			c0-0.966,0.784-1.75,1.75-1.75c0.967,0,1.75,0.783,1.75,1.75v0.044C220.265,53.391,219.481,54.174,218.515,54.174"/>
		<path clip-path="url(#SVGID_4_)" fill="#98D2F9" d="M242.254,129.439c0,27.488-22.283,49.771-49.771,49.771
			c-27.487,0-49.771-22.283-49.771-49.771s22.283-49.771,49.771-49.771C219.971,79.668,242.254,101.951,242.254,129.439"/>
		<path clip-path="url(#SVGID_4_)" fill="#FFFFFF" d="M238.305,129.439c0,25.307-20.515,45.822-45.822,45.822
			c-25.307,0-45.821-20.515-45.821-45.822s20.515-45.822,45.821-45.822C217.79,83.617,238.305,104.132,238.305,129.439"/>
		<path clip-path="url(#SVGID_4_)" fill="#FF4F75" d="M206.26,150.007h-27.554c-1.431,0-2.591-1.16-2.591-2.59v-21.469
			c0-1.431,1.16-2.59,2.591-2.59h27.554c1.431,0,2.591,1.16,2.591,2.59v21.469C208.851,148.847,207.69,150.007,206.26,150.007"/>
		<path clip-path="url(#SVGID_4_)" fill="none" stroke="#FF4F75" stroke-width="22.679" stroke-miterlimit="10" d="M201.782,131.232
			h-18.598v-13.063c0-5.135,4.163-9.299,9.299-9.299c5.135,0,9.299,4.164,9.299,9.299V131.232z"/>
		<path clip-path="url(#SVGID_4_)" fill="#E03C60" d="M196.381,133.969c0,2.153-1.745,3.898-3.898,3.898
			c-2.152,0-3.897-1.746-3.897-3.898s1.745-3.898,3.897-3.898C194.636,130.071,196.381,131.816,196.381,133.969"/>
		<path clip-path="url(#SVGID_4_)" fill="#E03C60" d="M192.483,143.294L192.483,143.294c-0.926,0-1.676-0.75-1.676-1.675v-5.528
			c0-0.925,0.75-1.675,1.676-1.675c0.925,0,1.675,0.75,1.675,1.675v5.528C194.158,142.544,193.408,143.294,192.483,143.294"/>
		<rect x="146.661" y="209.516" clip-path="url(#SVGID_4_)" fill="#98D2F9" width="91.644" height="28.599"/>
		<rect x="149.648" y="213.437" clip-path="url(#SVGID_4_)" fill="#FFFFFF" width="85.669" height="20.757"/>
		<polygon clip-path="url(#SVGID_4_)" fill="#343434" points="160.768,218.768 163.97,218.768 163.786,221.872 166.683,220.735 
			167.673,223.778 164.653,224.561 166.646,226.968 164.043,228.862 162.368,226.223 160.694,228.862 158.103,226.968 
			160.083,224.561 157.063,223.791 158.054,220.735 160.963,221.872 		"/>
		<polygon clip-path="url(#SVGID_4_)" fill="#343434" points="175.824,218.768 179.026,218.768 178.844,221.872 181.74,220.735 
			182.729,223.778 179.711,224.561 181.703,226.968 179.101,228.862 177.426,226.223 175.751,228.862 173.16,226.968 
			175.14,224.561 172.121,223.791 173.111,220.735 176.021,221.872 		"/>
		<polygon clip-path="url(#SVGID_4_)" fill="#343434" points="190.882,218.768 194.084,218.768 193.901,221.872 196.798,220.735 
			197.787,223.778 194.769,224.561 196.761,226.968 194.157,228.862 192.482,226.223 190.809,228.862 188.218,226.968 
			190.197,224.561 187.179,223.791 188.169,220.735 191.077,221.872 		"/>
		<polygon clip-path="url(#SVGID_4_)" fill="#343434" points="205.939,218.768 209.142,218.768 208.958,221.872 211.854,220.735 
			212.845,223.778 209.826,224.561 211.818,226.968 209.215,228.862 207.54,226.223 205.866,228.862 203.274,226.968 
			205.255,224.561 202.235,223.791 203.226,220.735 206.135,221.872 		"/>
		<polygon clip-path="url(#SVGID_4_)" fill="#343434" points="220.997,218.768 224.199,218.768 224.016,221.872 226.912,220.735 
			227.902,223.778 224.883,224.561 226.876,226.968 224.272,228.862 222.598,226.223 220.924,228.862 218.332,226.968 
			220.313,224.561 217.294,223.791 218.283,220.735 221.192,221.872 		"/>
		<path clip-path="url(#SVGID_4_)" fill="#FF4F75" d="M247.602,211.646c0,5.134-4.163,9.296-9.297,9.296
			c-5.135,0-9.297-4.162-9.297-9.296c0-5.135,4.162-9.297,9.297-9.297C243.438,202.349,247.602,206.511,247.602,211.646"/>
		<path clip-path="url(#SVGID_4_)" fill="#FFFFFF" d="M239.608,214.964c0,0.356-0.131,0.659-0.391,0.908
			c-0.264,0.252-0.569,0.379-0.919,0.379c-0.349,0-0.655-0.127-0.919-0.379c-0.252-0.264-0.378-0.572-0.378-0.925
			c0-0.36,0.126-0.666,0.378-0.919c0.257-0.256,0.563-0.384,0.919-0.384c0.368,0,0.678,0.128,0.931,0.384
			C239.481,214.281,239.608,214.593,239.608,214.964 M239.469,213.049h-2.267v-6.01h2.267V213.049z"/>
		<rect x="157.998" y="256.782" clip-path="url(#SVGID_4_)" fill="#FF4F75" width="68.97" height="18.032"/>
		<polygon clip-path="url(#SVGID_4_)" fill="#FFFFFF" points="178.633,268.874 176.577,268.874 176.577,261.263 180.21,261.263 
			180.21,263.053 178.633,263.053 178.633,264.161 180.102,264.161 180.102,265.882 178.633,265.882 		"/>
		<path clip-path="url(#SVGID_4_)" fill="#FFFFFF" d="M186.475,266.291c0,0.822-0.228,1.476-0.681,1.962
			c-0.454,0.487-1.062,0.73-1.824,0.73c-0.749,0-1.346-0.249-1.789-0.745c-0.44-0.499-0.661-1.17-0.661-2.011
			c0-0.842,0.225-1.518,0.676-2.026c0.446-0.513,1.04-0.77,1.779-0.77c0.779,0,1.391,0.255,1.834,0.765
			C186.252,264.705,186.475,265.404,186.475,266.291 M184.557,266.228c0-0.197-0.014-0.376-0.04-0.535s-0.063-0.296-0.113-0.409
			c-0.049-0.113-0.108-0.201-0.177-0.264c-0.069-0.063-0.146-0.094-0.232-0.094c-0.168,0-0.302,0.118-0.404,0.354
			c-0.102,0.207-0.152,0.518-0.152,0.932c0,0.408,0.051,0.719,0.152,0.933c0.103,0.236,0.238,0.354,0.409,0.354
			c0.161,0,0.295-0.116,0.399-0.351C184.504,266.89,184.557,266.582,184.557,266.228"/>
		<path clip-path="url(#SVGID_4_)" fill="#FFFFFF" d="M189.973,268.874h-1.978v-5.329h1.978l-0.104,1.04
			c0.299-0.778,0.793-1.168,1.483-1.168v2.219c-0.217-0.118-0.401-0.178-0.552-0.178c-0.267,0-0.472,0.096-0.614,0.288
			s-0.214,0.473-0.214,0.841V268.874z"/>
		<path clip-path="url(#SVGID_4_)" fill="#FFFFFF" d="M197.483,263.545v5.482c0,0.417-0.058,0.779-0.173,1.084
			c-0.115,0.283-0.303,0.524-0.562,0.726c-0.438,0.338-0.993,0.508-1.667,0.508c-0.726,0-1.283-0.156-1.671-0.469
			s-0.628-0.799-0.72-1.459h2.021c0.013,0.289,0.151,0.434,0.414,0.434c0.168,0,0.286-0.059,0.354-0.175
			c0.069-0.117,0.104-0.31,0.104-0.579v-0.844c-0.352,0.461-0.766,0.69-1.242,0.69c-0.516,0-0.934-0.252-1.252-0.754
			c-0.315-0.503-0.474-1.163-0.474-1.982c0-0.814,0.158-1.481,0.474-2.001c0.318-0.517,0.731-0.774,1.237-0.774
			c0.233,0,0.438,0.06,0.611,0.178c0.181,0.121,0.376,0.333,0.587,0.636l-0.039-0.7H197.483z M195.565,266.192
			c0-0.769-0.141-1.153-0.424-1.153c-0.318,0-0.479,0.375-0.479,1.124c0,0.772,0.155,1.158,0.464,1.158
			C195.419,267.321,195.565,266.945,195.565,266.192"/>
		<path clip-path="url(#SVGID_4_)" fill="#FFFFFF" d="M203.954,266.291c0,0.822-0.227,1.476-0.68,1.962
			c-0.454,0.487-1.062,0.73-1.824,0.73c-0.75,0-1.346-0.249-1.79-0.745c-0.44-0.499-0.66-1.17-0.66-2.011
			c0-0.842,0.225-1.518,0.675-2.026c0.447-0.513,1.04-0.77,1.78-0.77c0.778,0,1.39,0.255,1.834,0.765
			C203.732,264.705,203.954,265.404,203.954,266.291 M202.036,266.228c0-0.197-0.013-0.376-0.039-0.535s-0.064-0.296-0.113-0.409
			s-0.108-0.201-0.178-0.264s-0.146-0.094-0.231-0.094c-0.168,0-0.303,0.118-0.404,0.354c-0.102,0.207-0.153,0.518-0.153,0.932
			c0,0.408,0.052,0.719,0.153,0.933c0.102,0.236,0.238,0.354,0.409,0.354c0.161,0,0.294-0.116,0.399-0.351
			C201.984,266.89,202.036,266.582,202.036,266.228"/>
		<polygon clip-path="url(#SVGID_4_)" fill="#FFFFFF" points="207.733,268.874 205.751,268.874 205.751,265.138 205.189,265.138 
			205.189,263.545 205.751,263.545 205.751,261.978 207.733,261.978 207.733,263.545 208.39,263.545 208.39,265.138 
			207.733,265.138 		"/>
		<path clip-path="url(#SVGID_4_)" fill="#FFFFFF" d="M57.151,34.113c-3.536,0-6.401,2.865-6.401,6.401
			c0,3.535,2.865,6.401,6.401,6.401c3.535,0,6.401-2.866,6.401-6.401C63.552,36.979,60.686,34.113,57.151,34.113 M53.536,42.411
			c-1.048,0-1.897-0.85-1.897-1.897c0-1.048,0.849-1.897,1.897-1.897s1.897,0.849,1.897,1.897
			C55.433,41.562,54.583,42.411,53.536,42.411"/>
		<path clip-path="url(#SVGID_4_)" fill="#FFFFFF" d="M57.019,38.334v4.36h10.604l1.46-1.459l1.459,1.459h0.1l1.494-1.495
			l1.308,1.307c0.104,0.105,0.273,0.109,0.384,0.009l4.383-3.98v-0.202H57.019z"/>
		
			<line clip-path="url(#SVGID_4_)" fill="none" stroke="#98D2F9" stroke-width="6.657" stroke-linecap="round" stroke-miterlimit="10" x1="20.786" y1="314.401" x2="280.369" y2="314.401"/>
		
			<line clip-path="url(#SVGID_4_)" fill="none" stroke="#98D2F9" stroke-width="6.657" stroke-linecap="round" stroke-miterlimit="10" x1="286.48" y1="314.401" x2="301.42" y2="314.401"/>
		<path clip-path="url(#SVGID_4_)" fill="#C9ECFF" d="M46.984,271.994c-1.009,8.932,0.416,15.597,0.416,15.597h10.488
			c7.436-4.04,12.599-9.283,16.167-14.965c-5.626,0.428-9.791,0.209-9.886-0.611c-0.109-0.941,5.171-2.34,12.031-3.228
			c2.453-4.952,3.865-10.096,4.643-14.969c-6.64,0.65-11.837,0.486-11.944-0.432c-0.111-0.96,5.376-2.394,12.427-3.277
			c0.861-8.448,0.025-15.63-0.13-18.834c-14.182,4.817-22.671,12.64-27.686,20.943c3.292,4.66,5.272,8.399,4.611,8.906
			c-0.601,0.46-3.211-1.882-6.416-5.611c-2.031,4.113-3.295,8.263-4.055,12.149c2.84,4.152,4.477,7.369,3.867,7.836
			C51.039,275.865,49.291,274.459,46.984,271.994 M65.751,259.54c0-0.688,1.444-1.247,3.227-1.247s3.227,0.559,3.227,1.247
			s-1.445,1.247-3.227,1.247S65.751,260.229,65.751,259.54"/>
		<path clip-path="url(#SVGID_4_)" fill="#C9ECFF" d="M39.029,287.591c0,0-7.27-45.344,12.227-79.711
			c-6.609,23.793-6.776,79.711-6.776,79.711H39.029z"/>
		<path clip-path="url(#SVGID_4_)" fill="#C9ECFF" d="M38.248,275.499c-0.609-0.467,1.027-3.684,3.867-7.836
			c-0.759-3.887-2.024-8.036-4.055-12.149c-3.204,3.729-5.815,6.071-6.416,5.611c-0.661-0.507,1.319-4.246,4.611-8.906
			c-5.015-8.304-13.504-16.127-27.687-20.943c-0.155,3.204-0.991,10.386-0.13,18.834c7.051,0.885,12.538,2.317,12.427,3.277
			c-0.106,0.918-5.304,1.082-11.944,0.432c0.778,4.873,2.19,10.017,4.643,14.969c6.86,0.888,12.141,2.286,12.031,3.228
			c-0.095,0.82-4.26,1.039-9.886,0.611c3.567,5.681,8.73,10.925,16.167,14.965h10.488c0,0,1.424-6.665,0.415-15.597
			C40.474,274.459,38.726,275.865,38.248,275.499 M20.786,260.787c-1.782,0-3.227-0.559-3.227-1.247s1.444-1.246,3.227-1.246
			s3.227,0.558,3.227,1.246S22.568,260.787,20.786,260.787"/>
		<path clip-path="url(#SVGID_4_)" fill="#C9ECFF" d="M42.365,285.052c0,0,1.045-45.427,26.479-74.357
			c-7.313,16.214-24.885,68.91-24.364,76.896C42.365,287.591,42.365,285.052,42.365,285.052"/>
		<path clip-path="url(#SVGID_4_)" fill="#C9ECFF" d="M43.777,287.591l12.372-41.124c0.184-0.608,0.745-1.026,1.381-1.026h6.605
			c1.032,0,1.729,1.053,1.328,2.003L48.58,287.435L43.777,287.591z"/>
		<path clip-path="url(#SVGID_4_)" fill="#E9F7FF" d="M42.365,287.591l12.372-41.124c0.184-0.608,0.745-1.026,1.381-1.026h6.605
			c1.032,0,1.729,1.053,1.328,2.003l-16.884,39.991L42.365,287.591z"/>
		<path clip-path="url(#SVGID_4_)" fill="#E9F7FF" d="M55.009,246.312c0.924,3,4.302,12.945,9.594,17.028
			c3.358-1.12,0.719-14.512,0.116-17.366c-0.066-0.312-0.341-0.533-0.66-0.533h-8.404C55.201,245.44,54.875,245.878,55.009,246.312"
			/>
		<polygon clip-path="url(#SVGID_4_)" fill="#FFA6BA" points="53.277,292.409 36.488,292.409 30.341,292.409 33.47,314.118 
			39.617,314.118 50.147,314.118 56.294,314.118 59.423,292.409 		"/>
		<path clip-path="url(#SVGID_4_)" fill="#FF85A0" d="M30.796,295.565l27.363,5.614l1.264-8.771h-6.146H41.821
			c-5.37,1.428-9.719,2.592-11.055,2.949L30.796,295.565z"/>
		<rect x="27.394" y="287.591" clip-path="url(#SVGID_4_)" fill="#FFA6BA" width="34.978" height="7.882"/>
		<path clip-path="url(#SVGID_4_)" fill="#FFA6BA" d="M87.684,293.97l-2.019,16.245c4.842,4.05,12.017,2.631,18.286-0.982
			c-6.704-1.25-8.409-4.25-7.554-15.263H87.684z"/>
		<path clip-path="url(#SVGID_4_)" fill="#13435E" d="M85.792,308.714c-1.081,1.878-0.622,3.183-0.909,5.688h26.576
			c0,0-0.182-3.676-4.084-4.891c-3.902-1.214-4.39-0.364-11.798,1.878C89.446,313.183,85.792,308.714,85.792,308.714"/>
		<path clip-path="url(#SVGID_4_)" fill="#FFA6BA" d="M74.087,293.97l1.106,17.277c-5.193,4.05-12.176,1.599-18.9-2.015
			c9.45,1.135,8.743-7.211,8.509-15.263H74.087z"/>
		<path clip-path="url(#SVGID_4_)" fill="#343434" d="M93.009,73.523c0,0,3.538,0.813,2.222,8.704
			c-0.295,4.539,2.981,22.668,2.981,22.668c-11.916,8.099-24.889,10.83-36.804,2.732c2.781-11.854,7.398-21.52,13.748-29.123
			L93.009,73.523z"/>
		<path clip-path="url(#SVGID_4_)" fill="#FF4F75" d="M40.933,123.916l8.415,6.917L74.3,107.199
			c-5.406-4.962-13.656-4.772-18.426,0.425L40.933,123.916z"/>
		<path clip-path="url(#SVGID_4_)" fill="#E03C60" d="M123.311,118.041l-0.24,0.546c-2.317,5.269-8.726,7.318-13.669,4.37
			l-20.976-12.507l0.177-1.83c3.654-5.365,11.468-6.409,17.453-2.333L123.311,118.041z"/>
		<path clip-path="url(#SVGID_4_)" fill="#FFA6BA" d="M76.027,104.189c3.593,2.871,7.187,2.871,10.78,0V84.332h-10.78V104.189z"/>
		<path clip-path="url(#SVGID_4_)" fill="#FF85A0" d="M86.807,99.933c-0.675,0.191-1.375,0.293-2.091,0.293
			c-3.664,0-6.876-2.632-8.689-6.588v-9.307h10.78V99.933z"/>
		<path clip-path="url(#SVGID_4_)" fill="#FFA6BA" d="M74.396,83.338c0,7.366,4.363,13.337,9.745,13.337
			c5.382,0,9.746-5.971,9.746-13.337c0-7.366-4.363-13.337-9.746-13.337C78.759,70.001,74.396,75.973,74.396,83.338"/>
		
			<path clip-path="url(#SVGID_4_)" fill="none" stroke="#FF4F75" stroke-width="2.008" stroke-linecap="round" stroke-miterlimit="10" d="
			M83.233,92.388c0,0,3.449-0.379,4.087,0.451"/>
		<path clip-path="url(#SVGID_4_)" fill="#343434" d="M93.009,73.523c0,0-6.247,7.98-16.585,5.938
			c-1.375,0.701-2.028,5.126-2.028,5.126l-2.617,11.155c0,0-9.096-11.815-4.166-20.091C72.543,65.968,90.367,60.585,93.009,73.523"
			/>
		<path clip-path="url(#SVGID_4_)" fill="#FFA6BA" d="M72.158,83.951c0,1.295,1.05,2.346,2.345,2.346s2.346-1.05,2.346-2.346
			s-1.05-2.346-2.346-2.346S72.158,82.655,72.158,83.951"/>
		<path clip-path="url(#SVGID_4_)" fill="#343434" d="M93.446,82.793c0.53-0.125-2.369-1.982-4.345-1.552
			c-0.346,0.286-0.436,0.741-0.479,1.227C90.656,81.816,92.059,82.281,93.446,82.793"/>
		<path clip-path="url(#SVGID_4_)" fill="#343434" d="M90.287,84.454c0,0.616,0.257,1.115,0.575,1.115s0.575-0.499,0.575-1.115
			s-0.257-1.115-0.575-1.115S90.287,83.838,90.287,84.454"/>
		<path clip-path="url(#SVGID_4_)" fill="#343434" d="M79.345,82.793c-0.549-0.353,3.572-2.049,4.618-1.552
			c0.516,0.403,0.329,0.813,0.205,1.227C82.135,81.816,80.732,82.281,79.345,82.793"/>
		<path clip-path="url(#SVGID_4_)" fill="#343434" d="M82.331,84.454c0,0.616-0.257,1.115-0.574,1.115
			c-0.318,0-0.575-0.499-0.575-1.115s0.257-1.115,0.575-1.115C82.074,83.338,82.331,83.838,82.331,84.454"/>
		
			<path clip-path="url(#SVGID_4_)" fill="none" stroke="#FF4F75" stroke-width="2.008" stroke-linecap="round" stroke-miterlimit="10" d="
			M86.807,85.568c0,0-0.095,3.223,0.596,3.474c0.691,0.251-0.282,1.988-1.728,0.542"/>
		<path clip-path="url(#SVGID_4_)" fill="#FF85A0" d="M73.422,83.906c0,0.45,0.365,0.814,0.814,0.814s0.814-0.365,0.814-0.814
			s-0.365-0.814-0.814-0.814S73.422,83.456,73.422,83.906"/>
		<path clip-path="url(#SVGID_4_)" fill="#FF4F75" d="M66.837,103.8h5.084c2.042,3.423,5.779,5.717,10.055,5.717
			c4.275,0,8.013-2.294,10.055-5.717h2.891c4.513,0,8.17,3.658,8.17,8.17v12.131c0,1.721-0.286,3.43-0.845,5.058l-7.031,20.442
			h-26.25l-7.031-20.442c-0.559-1.627-0.845-3.336-0.845-5.058v-14.555C61.091,106.373,63.664,103.8,66.837,103.8"/>
		<path clip-path="url(#SVGID_4_)" fill="#E8486B" d="M103.092,120.369c-2.391,2.712,0.269,9.747-13.165,6.332
			c-4.494-1.441-11.612,3.426-15.628,1.603c-5.613-1.138-12.034-11.555-13.209-10.682c-0.529,0.393-2.906,0.815-4.808,6.642
			l4.808-4.554v4.392c0,1.721,0.286,3.43,0.846,5.058l2.857,8.309c24.129-6.447,24.899-2.111,35.447-2.478l0.234-0.68l1.771-5.151
			c0.21-0.61,0.381-1.232,0.514-1.862c0.22-1.049,0.332-2.12,0.332-3.196V120.369z"/>
		<rect x="69.162" y="149.601" clip-path="url(#SVGID_4_)" fill="#343434" width="26.055" height="3"/>
		<path clip-path="url(#SVGID_4_)" fill="#9F59C1" d="M63.414,168.308l5.748-15.706h26.055l3.52,9.616
			c3.969,10.845,5.677,22.386,5.021,33.914l-2.333,40.952c-0.029,0.51-0.116,1.006-0.254,1.481
			c-0.393,1.347-0.535,2.764-0.273,4.142c0.083,0.439,0.117,0.898,0.095,1.371l-2.699,53.996c-4.063,2.076-7.998,2.233-11.775,0
			l-1.825-45.917c0.009-0.941,0.065-1.826,0.165-2.657c1.137-9.409,1.291-18.911,0.74-28.373l-2.47-35.538h-1.874l-3.328,51.495
			c-0.032,0.551-0.13,1.085-0.289,1.595l-2.318,59.334c-3.792,2.306-7.765,2.146-11.879,0.062l-2.642-42.632
			c-0.125-2.161-0.288-6.348,0.208-10.348c1.169-9.441,1.383-18.976,0.831-28.472l-1.569-26.966
			C59.844,182.4,60.915,175.134,63.414,168.308"/>
		<path clip-path="url(#SVGID_4_)" fill="#7C3992" d="M64.852,164.379c2.231-0.792,10.86-1.497,6.933-11.777h-2.623L64.852,164.379z
			"/>
		<polygon clip-path="url(#SVGID_4_)" fill="#7C3992" points="83.797,197.009 83.126,185.589 89.496,184.105 		"/>
		<path clip-path="url(#SVGID_4_)" fill="none" stroke="#FFFFFF" stroke-width="1.767" stroke-miterlimit="10" d="M67.355,295.028
			l-2.464-39.586c-0.125-2.161-0.288-6.348,0.208-10.349c1.169-9.44,1.383-18.975,0.831-28.471l-1.568-26.966
			c-0.422-7.257,0.649-14.523,3.148-21.35l5.748-15.706"/>
		<path clip-path="url(#SVGID_4_)" fill="none" stroke="#FFFFFF" stroke-width="1.767" stroke-miterlimit="10" d="M88.886,295.028
			l-1.711-42.871c0.009-0.941,0.065-1.826,0.165-2.657c1.138-9.409,1.291-18.911,0.741-28.373l-2.106-36.202"/>
		<path clip-path="url(#SVGID_4_)" fill="#FFA6BA" d="M92.64,103.8c-2.382,3.823-6.622,6.369-11.458,6.369
			c-4.836,0-9.076-2.546-11.458-6.369H92.64z"/>
		<path clip-path="url(#SVGID_4_)" fill="#13435E" d="M75.104,308.714c1.518,1.612,1.318,3.021,0.909,5.688H49.438
			c-0.753-0.447,1.061-4.374,5.822-5.255c4.377-0.811,5.273,0.479,8.718,1.938C70.107,312.878,75.104,308.714,75.104,308.714"/>
		<path clip-path="url(#SVGID_4_)" fill="#FFFFFF" d="M80.956,153.437h4.691c1.368,0,2.477-1.109,2.477-2.477
			s-1.109-2.477-2.477-2.477h-4.691c-1.368,0-2.477,1.109-2.477,2.477S79.588,153.437,80.956,153.437"/>
		<path clip-path="url(#SVGID_4_)" fill="#FF85A0" d="M66.622,163.224l-4.196-3.592c0,0-0.668-4.005,3.069-4.863
			S66.622,163.224,66.622,163.224"/>
		<path clip-path="url(#SVGID_4_)" fill="#FFA6BA" d="M65.917,150.147l4.339,3.397c0.999,0.782,1.564,2.001,1.49,3.267
			c-0.135,2.289-1.044,5.671-5.124,6.412c-3.892-6.867-5.055-8.921-5.055-8.921L65.917,150.147z"/>
		<path clip-path="url(#SVGID_4_)" fill="#FF4F75" d="M39.87,131.471l22.476,24.945c2.812-0.608,5.06-1.846,6.151-4.375
			l-17.642-28.384c-1.852-2.602-5.811-2.962-8.844-0.805C38.977,125.01,38.019,128.869,39.87,131.471"/>
		<path clip-path="url(#SVGID_4_)" fill="#FFA6BA" d="M105.154,90.167l-4.506-9.06c0,0-7.831-3.831-7.789-3.017
			c0.042,0.814,4.461,3.286,4.461,3.286s-3.778,4.826-2.262,6.888c1.517,2.061,7.19,4.895,7.19,4.895L105.154,90.167z"/>
		<path clip-path="url(#SVGID_4_)" fill="#FF4F75" d="M123.851,118.669L104.588,88.71c-2.784,0.058-5.085,0.873-6.396,3.237
			l14.237,32.502c1.532,3.026,5.331,4.186,8.484,2.59C124.068,125.443,125.383,121.696,123.851,118.669"/>
		
			<line clip-path="url(#SVGID_4_)" fill="none" stroke="#98D2F9" stroke-width="6.657" stroke-linecap="round" stroke-miterlimit="10" x1="5.316" y1="314.401" x2="14.334" y2="314.401"/>
	</g>
</g>
</svg>
