<?xml version="1.0" encoding="utf-8"?>
<!-- Generator: Adobe Illustrator 23.0.5, SVG Export Plug-In . SVG Version: 6.00 Build 0)  -->
<svg version="1.1" id="Layer_1" xmlns="http://www.w3.org/2000/svg" xmlns:xlink="http://www.w3.org/1999/xlink" x="0px" y="0px"
	 viewBox="0 0 100 100" style="enable-background:new 0 0 100 100;" xml:space="preserve">
<style type="text/css">
	.st0{clip-path:url(#SVGID_2_);fill:#09518C;}
	.st1{fill:#ED0000;}
</style>
<g>
	<defs>
		<rect id="SVGID_1_" x="0.9" y="0.9" width="98.1" height="98.1"/>
	</defs>
	<clipPath id="SVGID_2_">
		<use xlink:href="#SVGID_1_"  style="overflow:visible;"/>
	</clipPath>
	<path class="st0" d="M95,42c-0.4-0.3-0.8-0.6-1.1-0.9c-1.8-1.4-2.3-3.2-1.4-5.3c0.2-0.6,0.5-1.2,0.7-1.8c2.1-5.6-1.1-11.8-6.9-13.3
		c-1-0.3-2-0.3-3-0.5c-1.9-0.3-3.3-1.7-3.6-3.6c-0.1-0.5-0.1-1.1-0.2-1.6c-0.6-5.6-5.8-9.7-11.4-8.8c-1.3,0.2-2.5,0.7-3.7,1.2
		c-2,0.8-4.4,0.1-5.7-1.6c-0.3-0.4-0.6-0.7-0.8-1.1c-4.1-5.1-11.7-5.1-15.8,0.1c-0.4,0.5-0.7,1-1.1,1.5c-1.3,1.6-3.2,2.1-5.1,1.3
		C35.2,7.3,34.6,7,34,6.8C28.7,4.8,22.7,7.7,21,13c-0.4,1.1-0.5,2.2-0.6,3.4c-0.3,2.3-1.7,3.6-3.9,3.9c-1.8,0.2-3.5,0.5-5.1,1.4
		C7.2,24,4.6,29.5,7.2,35c1.4,3,0.9,4.6-1.8,6.6c-1.9,1.4-3.3,3.1-4,5.4c-0.2,0.5-0.3,1-0.4,1.6c0,0.1,0,0.1,0,0.2v2.5
		c0,0.1,0,0.1,0,0.2c0.1,0.5,0.3,1.1,0.4,1.6c0.7,2.3,2.1,4,4,5.4c2.6,1.9,3.1,3.5,1.9,6.3c-0.2,0.4,0.1,0.9,0.6,0.9h2.6
		c0.3,0,0.5-0.2,0.6-0.4c0.2-0.7,0.4-1.4,0.5-2.1c0.4-2.8-0.7-5.2-2.9-7c-1.7-1.5-4.1-2.3-3.5-6.4c0.3-2.3,1.6-4.4,3.4-5.9
		c0,0,0,0,0,0c2.8-2.3,3.8-5.9,2.4-9.3c-0.4-1-0.9-2-1.1-3.1c-0.7-3.4,1.8-6.7,5.3-7.2c0.8-0.1,1.6-0.2,2.5-0.4
		c3.4-0.7,5.9-3.5,6.3-7c0.1-0.6,0.1-1.1,0.2-1.7c0.6-3.8,4.5-6.2,8.1-4.9c0.7,0.2,1.4,0.6,2.1,0.9c3.4,1.3,7,0.4,9.3-2.5
		c0.4-0.5,0.8-1,1.2-1.5c2.6-3.2,7.3-3.2,9.9,0c0.3,0.4,0.6,0.8,0.9,1.2c2.5,3.2,6.2,4.2,9.9,2.6c1.5-0.7,3.1-1.3,4.8-0.9
		c2.7,0.5,4.8,2.6,5.1,5.4c0.1,0.8,0.2,1.6,0.4,2.4c0.7,3.4,3.5,5.9,7,6.3c0.7,0.1,1.3,0.1,2,0.3c3.8,0.8,5.9,4.7,4.5,8.4
		c-0.5,1.3-1,2.6-1.2,4c-0.4,2.8,0.7,5.1,2.8,7c0.5,0.5,1.1,0.9,1.7,1.3c3.2,2.6,3.2,7.2,0.1,9.8c-0.4,0.4-0.9,0.7-1.4,1
		c-3,2.3-4,5.8-2.7,9.3c0.1,0.3,0.4,0.4,0.6,0.4h2.7c0.5,0,0.8-0.5,0.6-1c-1.1-2.4-0.7-4.4,1.3-5.9c0.4-0.3,0.8-0.6,1.2-0.9
		C100.4,53.8,100.4,46.1,95,42 M67.2,89.6c-1-0.4-2.1-0.8-3.1-1.1c-0.3-0.1-0.6-0.1-0.9-0.2c-1-0.1-2-0.1-2.8,0.2
		c-1.5,0.4-2.9,1.3-4,2.6c-0.5,0.6-0.9,1.2-1.4,1.8c-2.5,3-7.1,3-9.6,0c-0.5-0.6-0.9-1.2-1.3-1.7c-1.1-1.4-2.6-2.3-4.2-2.7
		c-0.7-0.2-1.3-0.3-2-0.3c0-0.1-0.1-0.2-0.1-0.2c-0.5,0.2-1,0.3-1.5,0.5c-0.9,0.3-1.9,0.6-2.8,0.9c-2.4,0.9-4.8,0.6-6.5-0.8
		c-0.1-0.1-0.3-0.1-0.4-0.1h-3.4c-0.5,0-0.9,0.6-0.6,1.1c2.5,3.6,7.3,5.3,11.7,3.7c0.7-0.3,1.4-0.6,2.1-0.9c1.7-0.7,3.6-0.2,4.8,1.2
		c0.4,0.4,0.7,0.9,1.1,1.4c1.6,2.1,3.7,3.5,6.3,3.9c0.2,0,0.3,0.1,0.4,0.2h2.6c0.1,0,0.1,0,0.2,0c2.5-0.5,4.7-1.6,6.3-3.6
		c0.4-0.5,0.8-1,1.1-1.5c1.3-1.7,3.6-2.3,5.6-1.4c0.5,0.2,1,0.5,1.6,0.6c4.4,1.7,9.2,0,11.8-3.6c0.3-0.4,0-1.1-0.6-1.1h-3.4
		c-0.1,0-0.3,0.1-0.4,0.1C71.7,90,69.4,90.4,67.2,89.6"/>
	<path class="st0" d="M23,29.3c-4.8,6.3-7.2,13.5-7,21.5c0.1,5.3,1.5,10.4,3.8,14.9h-4.2c-1.1-2.5-2-5.1-2.6-7.9
		c-2.4-11.3,0.1-21.6,7-30.8c0.9-1.1,1.9-1.4,2.9-0.6C23.7,27,23.8,28.1,23,29.3"/>
	<path class="st0" d="M84.5,65.7h-4.2c1.2-2.3,2.1-4.7,2.8-7.3c4.9-19.1-7.7-38.7-27.1-42c-6.9-1.2-13.6-0.3-20,2.5
		c-0.2,0.1-0.3,0.2-0.5,0.2c-1.2,0.5-2.3,0.2-2.8-0.8c-0.5-1-0.1-2.1,1.2-2.6c2.2-0.9,4.4-1.8,6.7-2.4c3.1-0.9,6.3-1.2,9-1.2
		C68,12.2,83.3,24.6,87.1,42.3C88.9,50.4,87.7,58.6,84.5,65.7"/>
	<path class="st0" d="M44.9,46.5c0,1.4,0,2.8,0,4.2c-0.1,2.9-2.2,5.1-5.1,5.1c-0.8,0-1.6,0-2.4-0.2c-2.2-0.6-3.6-2.6-3.6-5
		c0-2.7,0-5.4,0-8.1c0-3,2.2-5,5.1-5.2c4-0.2,6.3,2.6,6,5.9c0,0.2,0,0.3,0,0.5L44.9,46.5L44.9,46.5z M41.5,46.5c0-1.3,0-2.6,0-3.9
		c0-1.3-0.6-1.9-2.1-1.9c-1.5,0-2.2,0.5-2.2,1.9c0,2.7,0,5.3,0,8c0,1.3,0.7,1.9,2.2,1.9c1.4,0,2.1-0.6,2.1-1.9
		C41.5,49.2,41.5,47.8,41.5,46.5"/>
	<path class="st0" d="M46.7,46.5c0-1.3,0-2.7,0-4c0.1-3.1,2.2-5.2,5.3-5.2c2.9,0,4.9,1.2,5.6,3.6c0.1,0.5,0.2,1,0.2,1.5
		c0,2.7,0,5.5,0,8.2c-0.1,2.8-2,4.9-4.6,5.2c-3.2,0.3-5.6-1.1-6.3-3.8c-0.1-0.5-0.2-1.1-0.2-1.6C46.7,49.1,46.7,47.8,46.7,46.5
		 M54.4,46.6c0-1.3,0-2.6,0-3.9c0-1.4-0.7-2-2.2-2c-1.5,0-2.1,0.6-2.1,2c0,2.6,0,5.1,0,7.7c0,1.4,0.6,2,2.2,2c1.5,0,2.1-0.6,2.1-2
		C54.4,49.1,54.4,47.8,54.4,46.6"/>
	<path class="st0" d="M27.2,52.4V41.2c-0.3,0.4-0.5,0.6-0.7,0.8c-0.7,0.7-1.6,0.8-2.3,0.2c-0.8-0.6-0.9-1.5-0.3-2.4
		c0.4-0.6,0.9-1.2,1.4-1.8c0.1-0.1,0.2-0.2,0.2-0.2c0.7-0.6,3.9-0.7,4.5,0c0.4,0.4,0.7,1.1,0.7,1.6c0.1,3.9,0,7.9,0,11.8v1.1
		c0.4,0,0.8,0,1.2,0c0.9,0.1,1.5,0.7,1.6,1.6c0,0.9-0.6,1.7-1.5,1.8c-2,0.1-4,0.1-6,0c-0.9,0-1.6-0.8-1.6-1.7c0-0.9,0.7-1.6,1.6-1.7
		C26.3,52.4,26.7,52.4,27.2,52.4"/>
	<path class="st0" d="M63.7,55.1c-1.5,0-2.3-1.3-1.8-2.4c0.1-0.2,0.2-0.4,0.4-0.6c3.5-4.8,7-9.6,10.5-14.5c0.5-0.6,1-1.1,1.9-0.9
		c0.7,0.1,1.3,0.6,1.3,1.3c0,0.6-0.2,1.3-0.5,1.7c-3.1,4.4-6.3,8.7-9.4,13c-0.4,0.5-0.7,1.1-1.2,1.6C64.5,54.7,63.9,55,63.7,55.1"/>
	<path class="st0" d="M77.6,51.1c0,2.2-1.7,4-4,4.1c-2.2,0-4.1-1.8-4.1-4c0-2.2,1.8-4,4-4.1C75.8,47.1,77.6,48.9,77.6,51.1 M73.7,52
		c0.2-0.4,0.5-0.7,0.5-0.9c0-0.2-0.4-0.5-0.5-0.5c-0.2,0.1-0.5,0.3-0.6,0.6C73,51.4,73.3,51.6,73.7,52"/>
	<path class="st0" d="M60.1,40.8c0-2.2,1.8-4,4-4.1c2.2,0,4,1.8,4.1,4c0,2.2-1.8,4-4,4.1C61.9,44.8,60.1,43,60.1,40.8 M65,40.8
		c-0.4-0.3-0.7-0.6-0.9-0.6c-0.2,0-0.5,0.3-0.5,0.5c0,0.2,0.3,0.6,0.5,0.6C64.3,41.3,64.5,41,65,40.8"/>
	<path class="st0" d="M25.6,22c0-1.1,0.8-1.9,1.9-1.9c1.1,0,2,0.9,1.9,1.9c0,1-0.9,1.9-1.9,1.9C26.5,23.9,25.6,23,25.6,22"/>
</g>
<path class="st1" d="M6.8,77.8l0.1-1.1c0-0.2,0-0.4,0.1-0.6c0-0.3,0.1-0.7,0.4-1.2c0,0,0.1-0.2,0.2-0.6c0,0,0.2-0.5,0.5-1.4l0.3-0.7
	c0-0.1,0-0.2,0.1-0.4c0.1-0.2,0.1-0.4,0.2-0.6c0-0.2,0.1-0.4,0.2-0.5c0.2-0.4,0.4-0.8,0.6-1.1c0.3-0.6,1-0.9,1.9-0.9l0.8,0.1
	c0.5,0.1,0.8,0.3,1.1,0.4c0.4,0.1,0.6,0.3,0.7,0.5c0.1,0.2,0.2,0.4,0.2,0.8c0,0.2,0.1,1,0.1,2.5c0.1,1.5,0.1,2.2,0.1,2.2l0.1,1
	c0,0.1,0.2,1.2,0.5,3.5l0.5,1.7c0.3,0.9,0.5,1.4,0.5,1.4c0,0,0.1,0.2,0.2,0.5c0.2,0.5,0,0.9-0.5,1.1c-0.4,0.1-0.8,0-1-0.1
	c-0.1,0-0.3-0.1-0.6-0.2c0-0.1-0.1-0.2-0.3-0.2c-0.2-0.1-0.3-0.1-0.3-0.2c-0.2,0-0.3-0.3-0.5-0.7c0,0-0.1-0.2-0.3-0.4
	c-0.1-0.2-0.1-0.4-0.1-0.6c-0.1-0.1-0.2-0.4-0.2-0.9c-0.1-0.2-0.2-0.6-0.2-1.1c0-0.5-0.1-0.9-0.2-1.2c-0.8,0.4-1.7,0.6-2.6,0.6
	c-0.2,0-0.3,0-0.3,0.1c0,0.1,0,0.4-0.1,0.8l-0.4,2.6c0.2,1.2,0,1.8-0.4,1.9c-0.1,0-0.3,0-0.6,0.1c-0.3,0.1-0.5,0-0.7-0.2
	c-0.4-0.2-0.6-0.4-0.8-0.6C6.1,83.8,6,83.5,6,83.3c0-0.2,0.1-0.7,0.1-1.4c0,0,0-0.2,0-0.5c0-0.3,0-0.6,0.1-0.8l0.4-1.5
	c0,0,0.1-0.3,0.2-0.7c0,0,0-0.1,0-0.2L6.8,77.8z M10,77.1c0,0,0.2-0.1,0.6-0.1c0.3,0,0.7-0.2,1.2-0.4c0,0,0-0.2,0-0.6
	c0-0.7-0.1-1.2-0.1-1.4c0-0.4-0.1-0.7-0.1-0.8c0-0.3-0.1-0.9-0.4-1.9l-1.1,3.6c-0.2,1-0.3,1.6-0.3,1.8L10,77.1z M18.1,76.4
	c-0.1-0.9,0.2-1.6,0.6-2.2l0,0c0.4-0.5,1-0.8,1.8-0.8c1.2,0,2.1,0.3,2.7,0.9c0.6,0.7,0.9,1.3,1,1.9c0,0.6-0.1,1-0.5,1
	c-0.5,0-0.9-0.1-1-0.2c-0.1,0-0.3-0.1-0.6-0.3c-0.1,0-0.2-0.2-0.4-0.6l-0.3-0.6c-0.1-0.3-0.3-0.4-0.5-0.5c-0.2,0.1-0.4,0.3-0.4,0.7
	c0.1,0.8,0.4,1.5,1.1,2.2c0,0.1,0.2,0.2,0.4,0.5c1.3,1.4,1.9,2.5,2,3.4c0,0.5-0.1,0.9-0.3,1.1c-0.7,0.8-1.6,1.2-2.7,1.3
	c-1.1,0-2-0.3-2.7-1C18.1,83,18,82.8,18,82.6c-0.1-0.3-0.1-0.5-0.1-0.6c0-0.4,0-0.8,0-1c0.1-0.5,0.5-0.8,1.1-0.8
	c0.2,0,0.4,0.1,0.5,0.4c0.2,0.8,0.4,1.4,0.6,1.6c0.2,0.3,0.5,0.4,0.9,0.4c0.5,0,0.8-0.3,0.8-0.9c0-0.6-0.3-1.1-0.8-1.6
	c-0.2-0.2-0.3-0.3-0.5-0.4c-0.2-0.1-0.3-0.2-0.3-0.2c0,0-0.1-0.1-0.1-0.1c-0.3-0.3-0.7-0.7-1.2-1.3C18.4,77.5,18.1,77,18.1,76.4
	L18.1,76.4z M26.4,77.3c0-0.1-0.1-0.3-0.3-0.6c0-0.2,0-0.6,0-1.1l0.2-0.8l0.5-1l0.4-0.5c0-0.1,0.4-0.3,1.2-0.5h0c0.2,0,0.5,0,0.8,0
	c0.4,0,0.7,0.2,1.1,0.5c0.4,0.3,0.6,0.5,0.7,0.7c0.3,0.7,0.5,1.3,0.4,1.9c0,0.2-0.1,0.4-0.2,0.6c0,0-0.1,0.1-0.4,0.1
	c-0.2,0.1-0.4,0.1-0.6,0c-0.1-0.1-0.3-0.1-0.5-0.3c-0.2-0.1-0.3-0.3-0.3-0.6c-0.1-0.2-0.2-0.4-0.1-0.6c0-0.2,0-0.3-0.1-0.4l-0.3-0.1
	c-0.1,0-0.2,0.2-0.3,0.4c-0.1,0.3-0.1,0.6-0.1,0.9c0,0.7,0.2,1.3,0.5,1.8c0.1,0.2,0.3,0.4,0.6,0.6l0.4,0.5l0.6,0.6l0.5,0.6
	c0.1,0.1,0.3,0.4,0.5,0.7c0.2,0.4,0.3,0.7,0.3,1c0,0.3-0.1,0.7-0.3,1.1l-0.2,0.3c0,0-0.1,0.1-0.3,0.3c-0.5,0.5-1,0.8-1.6,0.9h-0.2
	c-0.5,0.1-1,0.1-1.5,0l-0.7-0.2c-0.1,0-0.2,0-0.3-0.1C27,84.1,26.9,84,26.8,84c-0.4-0.2-0.6-0.4-0.7-0.6c-0.1,0-0.1-0.3-0.2-0.7
	c-0.1-0.2-0.1-0.6,0.1-1c0-0.2,0-0.4,0.1-0.6c0.3-0.4,0.7-0.4,1.2-0.2c0.2,0.1,0.2,0.2,0.2,0.4c0,0,0,0.2,0.1,0.5
	c0.1,0.3,0.1,0.5,0.3,0.8c0.1,0.2,0.3,0.4,0.5,0.4c0.2,0,0.5-0.1,0.7-0.3c0.3-0.5,0.4-0.8,0.4-0.8l0-0.3c0-0.2,0-0.5-0.2-0.7
	c0-0.2-0.2-0.4-0.3-0.6l-0.4-0.5l-0.4-0.3c-0.1,0-0.3-0.1-0.6-0.4c0,0-0.1-0.2-0.3-0.3c-0.2-0.2-0.3-0.4-0.5-0.7
	C26.8,77.8,26.7,77.5,26.4,77.3L26.4,77.3z M35.2,68.6c1.1,0,1.8,0.2,2.3,0.6c0,0.3-0.2,0.8-0.6,1.7c-0.1,0.3-0.2,0.5-0.3,0.6
	l-0.3,0.3c-0.1,0-0.2,0.1-0.2,0.1c-0.6,0.1-1,0-1.3-0.3c-0.1-0.1-0.1-0.2-0.2-0.2c-0.1,0-0.2-0.2-0.2-0.4c-0.1-0.2-0.2-0.4-0.2-0.5
	C34,69.4,34.4,68.8,35.2,68.6L35.2,68.6z M35,74.2c0.2-0.1,0.5,0,1.1,0.2c0.1,0.1,0.2,0.1,0.3,0.2l0.4,0.3c0.1,0.1,0.1,0.2,0.1,0.3
	v2.1c0,0.3,0,0.6,0,0.9v0.1c0,0.7,0,2.1,0.1,4.4c0,0.4-0.1,0.7-0.3,0.8c-0.3,0-0.4,0-0.5-0.1c-0.1,0-0.1,0-0.2,0h-0.2l-0.1,0
	c0,0-0.1,0-0.3-0.1c-0.1-0.1-0.2-0.1-0.3-0.2c0-0.1-0.1-0.1-0.2-0.1c-0.2-0.1-0.3-0.2-0.3-0.4c-0.2-0.4-0.3-0.7-0.3-0.8
	c0-0.1,0-0.2-0.1-0.3l-0.1-2.1c0-0.2,0-0.4,0-0.6v-0.6c0-0.2,0-0.5,0-1c0-0.5,0-0.9,0.1-1.1c0-0.4,0-0.7,0-0.8s0-0.2,0-0.3
	c-0.2-0.2-0.2-0.4,0-0.7c0.2-0.2,0.4-0.2,0.6-0.2H35z M39.6,75.5l0-0.2c0-0.1,0-0.2,0.1-0.4c0.1-0.1,0.2-0.3,0.4-0.5
	c0.2-0.2,0.3-0.3,0.3-0.3c0.2-0.1,0.4-0.2,0.6-0.3c0.1-0.1,0.4-0.2,0.7-0.2h0.3c0.1,0,0.2,0,0.2,0c0,0,0.2,0,0.5,0.1
	c0.4,0,0.9,0,1.3,0.2c0.1,0.1,0.2,0.1,0.3,0.2c0.1,0,0.2,0.1,0.3,0.2c0.1,0.1,0.3,0.2,0.4,0.3c0.2,0.1,0.4,0.3,0.7,0.6
	c0.6,0.5,0.8,1.1,0.6,1.6L46,77.3c-0.2,0.2-0.5,0.3-0.8,0.2l-0.2,0c-0.2-0.1-0.3-0.3-0.4-0.6c-0.1-0.1-0.2-0.2-0.3-0.3
	c-0.4-0.4-0.9-0.7-1.4-0.9c-0.3,0-0.5,0.2-0.8,0.4c-0.3,0.3-0.2,0.6,0,1.1c0,0.1,0,0.2,0,0.3c0,0,0.1,0.2,0.2,0.4
	c0.2,0.3,0.4,0.5,0.5,0.6c0.1,0.2,0.2,0.4,0.4,0.5l0.1,0.3c0,0,0.3,0.2,0.7,0.4c0.1,0.1,0.2,0.2,0.3,0.4l0.9,1
	c0.1,0.1,0.2,0.2,0.3,0.5c0.2,0.2,0.3,0.4,0.3,0.5c0,0.2,0,0.3-0.1,0.5c0,0.2-0.1,0.3-0.2,0.4c-0.2,0.1-0.3,0.2-0.3,0.3
	c-0.1,0.1-0.3,0.3-0.8,0.5c0,0.1-0.4,0.3-1.1,0.6l-0.7,0.2c0,0-0.1,0-0.2,0c-0.1,0-0.3,0-0.6,0h-0.2c-0.1,0-0.3,0-0.6,0
	c-0.5,0-1-0.1-1.3-0.4c-0.1,0-0.1-0.1-0.1-0.1c-0.3-0.5-0.5-0.7-0.5-0.6c-0.1-0.1-0.1-0.2-0.1-0.5s0-0.4-0.1-0.4
	c0-0.1,0-0.1,0.1-0.3c0.1-0.3,0.4-0.3,0.9,0l0.3,0.2c0.1,0.1,0.3,0.2,0.5,0.3c0.1,0,0.2,0,0.4,0c0.2,0,0.3,0,0.5,0l0.4-0.2h0
	c0,0,0.1,0,0.1,0c0.1,0,0.2,0,0.4-0.1c0.5-0.1,0.6-0.4,0.6-0.7l-0.2-0.3c-0.2-0.4-0.4-0.6-0.6-0.8l-0.2-0.1
	c-0.6-0.6-1.1-1.2-1.5-1.6c0,0-0.2-0.1-0.3-0.3c-0.1-0.1-0.3-0.4-0.3-0.7c-0.1-0.3-0.2-0.5-0.2-0.6V77c0,0,0-0.1,0-0.3
	c0-0.2,0-0.3,0-0.4c0-0.1,0-0.2,0-0.3C39.5,75.9,39.5,75.8,39.6,75.5z M49.5,75.8c0-0.2,0-0.4,0-0.7l0-0.2c-0.3,0-0.6-0.1-0.7-0.1
	c-0.1,0-0.4-0.1-0.7-0.1c-0.3,0-0.5-0.1-0.7-0.1c-0.3-0.1-0.5-0.4-0.6-0.9c0-0.5,0.1-0.8,0.5-0.9c0.3-0.1,0.5-0.1,0.7-0.1
	c0.1,0,0.4,0,0.7,0c0.2-0.1,0.4-0.2,0.7-0.2l0.4-0.1c0,0,0.1,0,0.2,0l0.1-0.5c0-0.3,0.1-0.5,0.2-0.8c0-0.1,0.1-0.4,0.3-0.9
	c0-0.1,0.1-0.5,0.4-1.4c0.1-0.1,0.3-0.3,0.7-0.6c0.3-0.1,0.6,0,1.1,0.3c0.3,0.1,0.4,0.3,0.5,0.5c-0.1,0.1-0.1,0.3-0.1,0.7
	c0,0.1-0.1,0.7-0.3,1.8v0.7c0.1,0,0.3,0.1,0.6,0.1c0.3,0.1,0.7,0.1,1.1,0.2c0.8,0.2,1.3,0.5,1.5,1c0.1,0.4,0.1,0.6,0,0.7
	c-0.1,0.1-0.4,0.2-0.8,0.3c-0.4,0-0.8,0-1.4,0c-0.6,0-1,0-1.3,0.1c0,0.3,0,0.5,0,0.7l0,0.4c0,0.1-0.1,0.7-0.2,1.8
	c-0.1,0.1-0.2,0.9-0.2,2.2v1.8c0,0.3,0,0.6,0.1,0.8c0,0.4,0.1,0.6,0.1,0.7c0,0.1,0,0.4,0.1,0.9c-0.2,0.5-0.5,0.7-0.9,0.7
	c-0.4,0-0.8-0.2-1.2-0.5l-0.3-0.4c0-0.1-0.1-0.2-0.1-0.3c0,0,0-0.1-0.1-0.2c-0.1-0.3-0.2-0.5-0.3-0.6c-0.1-0.1-0.1-0.2-0.1-0.3
	c0-0.1,0-0.1,0-0.2c0-0.3-0.1-0.5-0.1-0.7c-0.1-0.1-0.1-0.4-0.1-0.8c0-0.8,0-1.3,0-1.5c0,0,0.1-0.4,0-0.9l0.1-0.5
	c0-0.1,0-0.3,0.1-0.7c0-0.1,0-0.2,0-0.5C49.4,76.2,49.4,76,49.5,75.8L49.5,75.8z M64.2,75c0,0,0,0.5-0.1,1.3c0,0.8,0.1,1.6,0.3,2.3
	c0.1,0.7,0.2,1.5,0.4,2.3c0,0.3,0.1,0.5,0,0.5c0.4,0.9,0.6,1.4,0.7,1.6c0,0.2,0,0.3,0,0.4v0c0,0.1-0.2,0.3-0.4,0.4
	c-0.2,0.1-0.5,0.2-0.7,0.2c-0.6,0.2-1,0-1.1-0.7c-0.1,0-0.2-0.1-0.3-0.3c-0.1-0.2-0.2-0.3-0.2-0.4c0-0.1-0.1-0.2-0.2-0.3
	c0-0.1-0.1-0.2-0.2-0.3c-0.1-0.1-0.2-0.3-0.2-0.4L62.1,81l0,0c-0.3,0.5-0.4,0.9-0.5,1.1c-0.2,0.5-0.5,1.2-1,1.9
	c-0.5,0.6-1.2,0.8-2,0.5c-0.3,0-0.5-0.1-0.7-0.3c-0.2-0.2-0.3-0.2-0.3-0.3c-0.1,0-0.2-0.2-0.4-0.4c-0.3-0.4-0.5-1-0.5-1.7v-0.6
	c0-0.1,0-0.5,0-1.2v-0.1c-0.1-0.5-0.1-0.8-0.1-0.9s0-0.2,0-0.4c0-0.2,0-0.3,0-0.3c0,0,0-0.1,0-0.2v-0.4l0.1-1.3
	c0.2-0.6,0.4-1.1,0.6-1.5c0.1-0.3,0.2-0.5,0.4-0.6c0.4-0.4,0.6-0.7,0.6-0.7c0.1-0.2,0.5-0.4,1.2-0.6l0.4,0c0.2,0,0.3,0,0.4,0.1
	c0.1,0,0.2,0.1,0.3,0.1c0.2,0.1,0.4,0.2,0.6,0.2c0.1,0,0.4,0.1,0.7,0.3c0.1,0,0.3,0.2,0.7,0.4c0.4,0.3,0.7,0.4,0.7,0.5l0.6,0.2
	C64.1,74.9,64.2,75,64.2,75L64.2,75z M61.3,77.3c0,0,0-0.3,0.1-0.8c0,0-0.1-0.2-0.1-0.5c-0.1-0.3-0.3-0.4-0.5-0.6
	c-0.3-0.1-0.4-0.2-0.5-0.2c-0.1,0-0.2,0.1-0.3,0.2c-0.1,0.1-0.2,0.3-0.4,0.7c-0.2,0.4-0.4,1.1-0.5,2c-0.1,0.9-0.2,1.6-0.2,2
	c0,0.4,0,0.9,0,1.5c0,0.6,0.2,0.9,0.4,0.9c0.2,0,0.5-0.6,0.9-1.7c0-0.1,0.1-0.2,0.2-0.4L61.3,77.3z M67.3,81.9c0-0.3,0-0.5,0-0.7
	c0-0.1,0-0.3,0-0.7c-0.1-0.2-0.2-0.6-0.2-1.3c0-1.7,0-2.6,0-2.6c0,0,0-0.1-0.1-0.2c0-0.1-0.1-0.2-0.1-0.3v-0.3
	c-0.1-0.5,0-0.9,0.1-1.2c0-0.2,0.1-0.3,0.3-0.4c0.1-0.2,0.3-0.2,0.5-0.2c0.2,0,0.4,0,0.5,0.1c0.1,0,0.2,0,0.3,0.2
	c0.2,0.1,0.3,0.1,0.3,0.1l0.1,0.1c0.1,0,0.2,0,0.3,0.1c0,0,0.1,0.1,0.1,0.3l0.2,2.1v0.4c0,0.2,0,0.3,0,0.5l0,1.1l0.1,0
	c0.1-0.4,0.2-0.7,0.3-1c0.1-0.3,0.2-0.5,0.2-0.6c0-0.1,0.1-0.2,0.2-0.4c0.1-0.2,0.1-0.3,0.1-0.4c0-0.1,0.1-0.2,0.2-0.3
	c0.1-0.4,0.3-0.6,0.4-0.8l0.1-0.2c0.1-0.1,0.1-0.2,0.1-0.2c0.2-0.1,0.3-0.3,0.4-0.4l0.2-0.1c0,0,0.1,0,0.1-0.1
	c0-0.1,0.2-0.1,0.6-0.2c0.3,0,0.6,0,0.8,0c0.1,0,0.2,0,0.3,0l0.1,0.1l0.2,0c0.3,0.1,0.4,0.5,0.5,1c0,1.1,0,1.8,0.1,2.2
	c0.1,0.9,0.3,1.7,0.6,2.4c0.3,0.7,0.5,1.2,0.8,1.4c0.3,0.4,0.4,0.9,0.2,1.4c-0.1,0.2-0.3,0.4-0.6,0.4c-0.2,0-0.4,0-0.5,0
	c-0.1,0-0.2,0-0.3-0.1c-0.2,0-0.3,0-0.5-0.1c-0.1,0-0.3-0.1-0.3-0.2c-0.6-0.7-0.9-1.2-1-1.4c-0.1-0.2-0.2-0.3-0.2-0.4
	c0-0.1-0.1-0.1-0.1-0.2c0,0,0-0.1-0.1-0.2c0-0.1-0.1-0.3-0.2-0.4c-0.1-0.1-0.1-0.2-0.1-0.3c0-0.1-0.1-0.2-0.1-0.4
	c-0.1-0.1-0.1-0.1-0.1-0.2c-0.1,0-0.1-0.2-0.2-0.4l-0.1-0.6l0,0c-0.8,1-1.3,2.2-1.4,3.4c0,0.3-0.1,0.5-0.1,0.6
	c-0.1,0.1,0,0.3,0.1,0.6v0.1c0,0.1-0.1,0.2-0.3,0.4c-0.2,0-0.3,0-0.3,0h-0.3c0,0-0.1,0-0.2,0.1c-0.1,0-0.2,0-0.2,0
	c-0.1,0-0.2,0-0.3,0c-0.3,0-0.5,0-0.5-0.1c0,0-0.1,0-0.2-0.1c-0.1,0-0.2-0.1-0.2-0.2c-0.1,0-0.1,0-0.2-0.1c-0.4-0.4-0.6-0.8-0.6-1.1
	v-0.2L67.3,81.9L67.3,81.9z M81.6,84.4l-0.4,0c-0.2,0-0.4,0-0.7-0.2c-0.2,0-0.4,0-0.6-0.1c-0.2,0-0.3-0.1-0.4-0.1
	c-0.1-0.1-0.2-0.1-0.3-0.2c-0.1-0.1-0.2-0.1-0.3-0.2l-0.4-0.5c-0.1-0.2-0.2-0.4-0.3-0.6c-0.1-0.1-0.1-0.2-0.1-0.3
	c0,0-0.1-0.2-0.3-0.4c-0.2-1-0.3-1.7-0.3-2c0-0.7,0-1.3,0.2-1.8c0.2-0.5,0.3-0.8,0.3-0.9c0-0.4,0.1-0.7,0.2-0.8l0.4-0.8l0.3-0.3
	c0,0,0.2-0.2,0.5-0.5c0,0,0.1-0.1,0.3-0.2c0.1-0.1,0.4-0.2,0.8-0.4c0.4-0.1,0.6-0.2,0.7-0.2h0.5c0,0,0.2,0,0.5,0.1
	c0.3,0,0.5,0.1,0.7,0.1c0.2,0,0.6,0.2,1.2,0.4c0.3,0.3,0.6,0.7,0.8,1.2c0.1,0.8,0.2,1.4,0,1.7L84.8,78c0,0.1-0.1,0.2-0.3,0.3
	c-0.4,0.3-0.8,0.4-1.3,0.4c-0.4-0.1-0.7-0.2-0.7-0.4c0-0.1,0-0.3,0.2-0.6c0.1-0.3,0.2-0.7,0.2-1.3c-0.1-0.3-0.3-0.4-0.4-0.5
	c-0.3,0-0.7,0.2-1,0.7c-0.1,0.1-0.2,0.2-0.2,0.3c0,0.1-0.1,0.2-0.1,0.2c0,0.1-0.1,0.1,0,0.1c-0.1,0.1-0.2,0.2-0.2,0.4
	c0,0.1,0,0.2,0,0.3c0,0.1,0,0.2-0.1,0.3c-0.2,0.9-0.4,1.6-0.4,2.1c0,0.5,0.1,0.9,0.2,1.3c0,0.2,0.1,0.4,0.1,0.4
	c0,0.1,0.1,0.2,0.3,0.3c0.5,0.4,1.1,0.4,1.8,0c0.1-0.1,0.2-0.2,0.4-0.4c0.1-0.2,0.2-0.3,0.3-0.3c0.1,0,0.3,0.1,0.5,0.2
	c0.2,0.1,0.3,0.3,0.3,0.6c-0.1,0.2-0.2,0.4-0.2,0.5c-0.4,0.8-1.1,1.2-2.3,1.2H81.6z M93.6,76.1c0,0,0,0.1,0,0.2v0.3
	c0,1-0.3,1.9-0.9,2.6c-0.1,0.1-0.2,0.2-0.3,0.4l-0.5,0.5c-0.1,0.1-0.3,0.2-0.4,0.3l-0.5,0.1c0,0-0.2-0.1-0.4-0.1
	c-0.2,0.1-0.3,0-0.5,0c0,0-0.1,0-0.3-0.1c-0.2-0.1-0.3-0.1-0.6-0.1c0,0.3,0,0.5,0,0.8l0.3,1.1c0.2,0.3,0.3,0.5,0.5,0.6
	c0.2,0.1,0.4,0.1,0.6,0.1c0.2,0,0.4,0,0.5-0.1c0.1,0,0.3-0.1,0.5-0.2l0.5-0.2c0.3-0.2,0.6-0.1,0.9,0.1c0.1,0.1,0.2,0.3,0.2,0.6
	c0,0.2-0.1,0.4-0.3,0.6c-0.1,0.2-0.3,0.4-0.7,0.6c0,0-0.1,0-0.2,0.1c-0.7,0.4-1.5,0.4-2.4,0.1L89,84.4c0,0-0.1,0-0.1-0.1
	c-0.2,0-0.4-0.2-0.6-0.4c-0.2-0.2-0.4-0.4-0.5-0.5c-0.1-0.1-0.1-0.2-0.2-0.3c0,0-0.1-0.2-0.2-0.3c-0.3-0.5-0.5-1-0.6-1.5l-0.1-0.7
	c0-0.1,0-0.2,0-0.6v-0.4c-0.1-0.3-0.1-0.8,0.3-1.8c0.3-1.2,0.5-1.9,0.6-2.1l0.3-0.6c0,0,0.1-0.1,0.3-0.4c0-0.1,0.2-0.2,0.6-0.5
	c0.1-0.1,0.2-0.2,0.3-0.2c0.1-0.1,0.2-0.1,0.3-0.2c0.1-0.1,0.3-0.2,0.6-0.2c0.2-0.1,0.6-0.1,1.1-0.1c1.1,0.1,1.9,0.6,2.3,1.4
	l0.2,0.5C93.5,75.9,93.5,75.9,93.6,76.1L93.6,76.1z M91,77.4c0.3-0.4,0.4-0.9,0.4-1.5v-0.3c0-0.2,0-0.3,0-0.3l-0.1,0
	c-0.1,0-0.2,0-0.3,0c-0.1,0-0.2,0.1-0.3,0.1c-0.2,0.1-0.4,0.3-0.4,0.5l-0.5,1.1c-0.2,0.5-0.4,1.1-0.4,1.9c0.4,0.2,0.7,0.2,0.9,0
	c0.1-0.1,0.2-0.2,0.3-0.3c0-0.1,0.1-0.2,0.2-0.3C90.8,78.1,90.9,77.8,91,77.4L91,77.4z"/>
</svg>
