<?xml version="1.0" encoding="utf-8"?>
<!-- Generator: Adobe Illustrator 23.0.5, SVG Export Plug-In . SVG Version: 6.00 Build 0)  -->
<svg version="1.1" id="Layer_1" xmlns="http://www.w3.org/2000/svg" xmlns:xlink="http://www.w3.org/1999/xlink" x="0px" y="0px"
	 viewBox="0 0 100 100" style="enable-background:new 0 0 100 100;" xml:space="preserve">
<style type="text/css">
	.st0{clip-path:url(#SVGID_2_);fill:#09518C;}
	.st1{clip-path:url(#SVGID_2_);fill:#EB494B;}
</style>
<g>
	<defs>
		<rect id="SVGID_1_" x="0.5" y="0.3" width="99.1" height="99.3"/>
	</defs>
	<clipPath id="SVGID_2_">
		<use xlink:href="#SVGID_1_"  style="overflow:visible;"/>
	</clipPath>
	<path class="st0" d="M9.1,99.7c-1.7-0.5-3.4-1-4.9-2.2c-2.4-2-3.7-4.5-3.8-7.6c-0.1-2.3,1.6-4.1,3.9-4.1c0.9,0,1.7,0,2.7,0v-1.3
		c0-14.6,0-29.3,0-43.9c0-3.1,1.8-5.5,4.7-5.8c1.5-0.2,3-0.1,4.5-0.1c0.8,0,1.3,0.6,1.3,1.4c0,0.8-0.6,1.4-1.4,1.4
		c-1.1,0-2.3,0-3.4,0c-1.8,0-2.8,1-2.8,2.7c0,7,0,13.9,0,20.8c0,0.1,0,0.2,0,0.2c1.5-1,3-1.9,4.5-2.9c0.2-0.1,0.3-0.6,0.3-0.9
		c0-3.5,0-7,0-10.5c0-3.1,1.6-4.7,4.7-4.7c1.7,0,3.5,0,5.3,0c-0.3-1.1-0.5-2.2-0.8-3.3c0-0.2-0.4-0.3-0.6-0.4
		c-1.3-0.6-2.1-1.6-2.1-3c0-4.7-0.2-9.4,0.1-14.1c0.3-4.9,4.6-8.8,9.5-8.9c4.5-0.1,9.1-0.1,13.6,0c2.4,0,4.4,1.7,4.9,4
		c0.1,0.3,0.1,0.6,0.2,0.9c0.7,0.2,1.4,0.3,2,0.6c2.1,1,3.2,2.7,3.2,5c0,4,0,8,0,12c0,1.6-0.7,2.9-2.2,3.5c-0.2,0.1-0.5,0.3-0.5,0.5
		c-0.3,1-0.5,2.1-0.7,3.2h1.2c9.3,0,18.5,0,27.8,0c3.1,0,4.7,1.6,4.7,4.7c0,12.5,0,25,0,37.4v1.2H90v-1.1c0-14.6,0-29.2,0-43.8
		c0-2.4-0.9-3.3-3.3-3.3c-8.5,0-17.1,0-25.6,0c-0.3,0-0.6,0-0.9,0c-0.8-0.1-1.3-0.6-1.3-1.4c0-0.8,0.5-1.3,1.3-1.4
		c0.3,0,0.6,0,0.9,0c8.6,0,17.2,0,25.8,0c3.8,0,6,2.2,6,6c0,14.6,0,29.2,0,43.8v1.4c2.8-0.2,5.5-0.3,6.6,3.1v1.9
		c-0.1,0.1-0.1,0.3-0.2,0.4c-0.5,2.8-1.8,5.1-4.2,6.6c-1.3,0.8-2.9,1.3-4.4,1.9H9.1z M69.3,85.6h13v-1.2V61.6c0-4.9,0-9.8,0-14.7
		c0-1.3-0.4-1.7-1.7-1.7c-10,0-20,0-30,0c-0.4,0-0.8,0.3-1.1,0.5c-0.9,0.8-1.7,1.7-2.5,2.5c-0.2,0.2-0.5,0.5-0.5,0.8
		c0,1.4,0,2.8,0,4.1c0.9,0.3,1.7,0.5,2.5,0.8c1,0.4,1.9,1.1,3,1.4c2.8,0.9,5.6,1.6,8.3,2.5c4.4,1.3,7.5,4.1,8.6,8.5
		c0.6,2.3,0.4,4.9,0.5,7.3c0,0.8-0.7,1.4-1.5,1.4c-0.8,0-1.4-0.6-1.4-1.5c0-1.4,0-2.8,0-4.2c-0.1-4-2.6-7.3-6.3-8.5
		c-1-0.3-2-0.6-3.1-0.9c-1.7-0.5-3.3-1-4.9-1.4c-0.4,0.5-0.7,1-1,1.3c-1.7,1.7-3.5,3.5-5.3,5.1c-0.6,0.5-1.6,0.7-2.4,1
		c-0.2,0.1-0.6,0-0.6,0.1c-0.5,0.9-1.3,1.6-1.1,2.8c0.7,3.6,1.3,7.1,1.9,10.7c0.4,2.1,0.7,4.1,1.1,6.1h11.8c0-1.5,0-3,0-4.4
		c0-1,0.7-1.6,1.6-1.5c0.8,0.1,1.3,0.7,1.3,1.6c0,1.4,0,2.9,0,4.3h7c0-1.6,0-3.2,0-4.7c0-0.3,0-0.7,0.1-1c0.2-0.7,0.7-1.1,1.5-1
		c0.9,0.1,1.3,0.7,1.3,1.5C69.3,82.1,69.3,83.9,69.3,85.6 M34,88.6c-0.2,0-0.3,0-0.4,0c-9.6,0-19.3,0-28.9,0c-1.1,0-1.4,0.4-1.3,1.6
		c0.4,3.8,3.4,6.6,7.3,6.6c26.2,0,52.4,0,78.6,0c3.8,0,6.7-2.5,7.3-6.3c0.2-1.5-0.1-1.9-1.6-1.9c-9.3,0-18.6,0-28,0h-1
		c-1.2,3.8-3.6,5.5-7.4,5.5c-5.7,0-11.4,0-17.1,0C37.6,94.1,35.2,92.4,34,88.6 M24.2,58.5c-2.4,0.7-4.8,1.4-7.3,2.2
		c-4.4,1.3-6.9,4.6-6.9,9.2c0,4.9,0,9.9,0,14.8v0.9h7c0-1.4,0-2.8,0-4.2c0-1.1,0.5-1.8,1.5-1.8c0.9,0,1.4,0.6,1.4,1.8
		c0,1.4,0,2.8,0,4.2h11.7c0-0.1,0.1-0.1,0.1-0.2c1-5.7,2.1-11.3,3-17c0.1-0.7-0.5-1.5-0.9-2.1c-0.1-0.2-0.7-0.1-1-0.3
		c-0.8-0.3-1.6-0.6-2.3-1.2c-1.3-1.2-2.5-2.5-3.8-3.7C25.9,60.3,25.1,59.5,24.2,58.5 M24.3,32.6c0,0.3,0,0.6,0,0.9
		c0,0.5-0.1,1.1,0,1.6c0.1,0.3,0.4,0.6,0.7,0.7c1.4,0.4,1.8,0.9,2,2.4c0.6,5.8,5.5,10.2,11.2,10.2c5.8,0,10.6-4.4,11.2-10.3
		c0.1-1.4,0.6-1.9,1.9-2.3c0.3-0.1,0.7-0.4,0.7-0.7c0.1-0.9,0-1.7,0-2.4c-1.2-0.3-2.3-0.4-3.2-0.8c-1.7-0.9-2.1-2.5-2.1-4.4
		c0.1-1.7-0.6-2.2-2.2-1.7c-2.6,0.8-5.2,1.1-7.8,0.9c-1.7-0.2-3.3-0.5-4.9-0.9c-1.7-0.4-2.3,0-2.3,1.8c0,0.4,0,0.7,0,1.1
		c-0.1,1.8-1.3,3.3-3.1,3.7C25.8,32.5,25.1,32.5,24.3,32.6 M24.4,29.6c1.8,0.2,2.2-0.1,2.2-2c0-3.7,2.5-5.6,6-4.5
		c3.6,1.1,7.3,1.1,11,0c3.7-1.1,6.1,0.7,6.1,4.6c0,1.8,0.5,2.1,2.3,1.8c0-2.3,0.1-4.6,0-6.9c0-1.2-0.9-1.9-2.3-2.1
		c-1.8-0.2-2.7-1-2.9-2.8c-0.2-1.4-1-2.2-2.3-2.2c-4.6,0-9.2-0.1-13.7,0c-3.1,0.1-6,2.7-6.3,5.8C24.2,24,24.4,26.8,24.4,29.6
		 M17.7,57.4c2.2-0.6,4.2-1.1,6.2-1.9c2-0.7,3.9-1.6,6-2.5c0-1.1,0-2.4,0-3.6c0-0.4-0.3-0.8-0.5-1.1c-0.8-0.9-1.6-1.7-2.5-2.6
		c-0.2-0.2-0.6-0.5-0.9-0.5c-2.3,0-4.5,0-6.8,0c-0.9,0-1.4,0.5-1.4,1.3C17.7,50,17.7,53.6,17.7,57.4 M41.8,85.6
		c-1-5.5-1.9-10.9-2.9-16.4h-1.4c-1,5.5-1.9,10.9-2.9,16.4H41.8z M37.1,88.6c0.1,0.2,0.1,0.4,0.2,0.5c0.9,1.6,2.3,2.1,4.1,2.1
		c5.7,0,11.4,0,17.1,0c0.5,0,1,0,1.4-0.1c1.4-0.2,2.5-1.3,2.7-2.5H37.1z M43.6,50.3c-3.6,1.4-7.2,1.4-10.8,0c0,1.3,0,2.5,0,3.6
		c0,0.4,0.3,0.9,0.6,1.1c1.4,1.1,2.9,2.2,4.4,3.3c0.4,0.3,0.7,0.4,1.1,0c1.4-1.1,2.9-2.2,4.3-3.3c0.2-0.2,0.4-0.5,0.5-0.8
		C43.6,53,43.6,51.7,43.6,50.3 M36,60.7c-2-1.5-3.8-2.9-5.7-4.2c-0.2-0.2-0.6-0.3-0.8-0.2c-0.8,0.3-1.6,0.7-2.6,1.1
		c2,1.9,3.8,3.7,5.6,5.5c0.1,0.1,0.6,0.1,0.8,0C34.2,62.2,35,61.5,36,60.7 M49.6,57.8c-0.1-0.2-0.2-0.4-0.4-0.5
		c-0.7-0.3-1.4-0.7-2.1-0.9c-0.3-0.1-0.7-0.1-1,0.1c-1.8,1.4-3.6,2.8-5.5,4.2c0.8,0.7,1.6,1.3,2.3,1.9c0.5,0.5,0.8,0.4,1.3-0.1
		c1.4-1.4,2.9-2.9,4.4-4.2C48.8,58.1,49.2,58,49.6,57.8 M38.3,62.5c-0.8,0.7-1.5,1.3-2.2,1.9c0.5,1.2,1,2.2,2.6,1.9
		c1.2-0.2,1-1.4,1.7-2C39.7,63.7,39,63.2,38.3,62.5"/>
	<path class="st1" d="M94.3,0.3c1,0.5,2,0.9,2.8,1.5c1.2,1,1.8,2.3,1.8,3.9c0,3.8,0.1,7.6,0,11.3c-0.1,3.1-2.5,5.5-5.7,5.5
		c-4.9,0-9.7,0-14.6,0c-0.5,0-1.1,0.2-1.4,0.6c-1.8,1.7-3.5,3.5-5.3,5.3c-0.8,0.8-1.6,1.2-2.7,0.7c-1.1-0.5-1.4-1.3-1.3-2.4
		c0-1.3,0-2.5,0-3.8c0-0.5-0.2-0.7-0.6-0.9c-2.2-1.1-3.3-2.9-3.3-5.4c0-3.4,0-6.8,0-10.2c0-3.1,1.4-5.1,4.4-6c0.1,0,0.2-0.1,0.2-0.2
		H94.3z M70.9,25.5c1.7-1.8,3.3-3.3,4.8-4.9c0.7-0.7,1.4-1,2.3-1c4.9,0,9.9,0,14.8,0c2.2,0,3.3-1.1,3.3-3.3c0-3.3,0-6.7,0-10
		c0-2.1-1.1-3.2-3.2-3.2c-7.6,0-15.2,0-22.7,0c-2.1,0-3.2,1.1-3.2,3.2c0,3.4,0,6.7,0,10.1c0,1.8,0.6,2.6,2.2,3.2
		c1.1,0.4,1.6,1,1.6,2.2C70.9,23,70.9,24.1,70.9,25.5"/>
</g>
</svg>
