<?xml version="1.0" encoding="utf-8"?>
<!-- Generator: Adobe Illustrator 24.2.1, SVG Export Plug-In . SVG Version: 6.00 Build 0)  -->
<svg version="1.1" id="Layer_1" xmlns="http://www.w3.org/2000/svg" xmlns:xlink="http://www.w3.org/1999/xlink" x="0px" y="0px"
	 viewBox="0 0 60 60" style="enable-background:new 0 0 60 60;" xml:space="preserve">
<style type="text/css">
	.st0{fill:#E74444;}
	.st1{fill:#09518C;}
</style>
<g>
	<g>
		<path class="st0" d="M48,28.4c-1.3-1.3-2.6-2.6-3.9-3.9c-0.1-0.1-0.3-0.3-0.4-0.5c1.2-0.4,2.2-0.8,3.3-1.2c0.7-0.3,1-0.6,1-1.2
			c0-0.6-0.3-1-1.1-1.2c-2.7-0.8-5.4-1.6-8.1-2.4c-0.4-0.1-0.4-0.2-0.4-0.6c0-1.7,0-3.4,0-5.1c0-0.2,0-0.3,0.1-0.4V9.4
			c-0.1-0.1-0.1-0.2-0.1-0.4c0-2.4,0-4.8,0-7.3c0-1-0.4-1.4-1.4-1.4c-6.8,0-13.6,0-20.4,0c-2.6,0-4.5,1.9-4.5,4.5c0,1.4,0,2.7,0,4.1
			c0,0.2,0,0.4-0.1,0.5V12c0.1,0.1,0.1,0.2,0.1,0.5c0,4.8,0,9.6,0,14.4c0,3.4,2.2,5.9,5.5,6.5c0.4,0.1,0.8,0.1,1.2,0.1
			c5.6,0,11.1,0,16.7,0c1,0,1.3-0.2,1.6-1.1c0.4-1,0.7-1.9,1.2-3c1.5,1.5,2.9,2.9,4.3,4.3c0.7,0.7,1.3,0.7,2.1,0
			c1.1-1.1,2.2-2.2,3.3-3.3C48.8,29.7,48.8,29.1,48,28.4z M14.5,5c0-1.6,0.8-2.4,2.4-2.4c6.2,0,12.5,0,18.7,0c0.5,0,0.6,0.1,0.6,0.6
			c0,4.5,0,9,0,13.4v0.6c-1.2-0.3-2.3-0.7-3.4-1c-0.4-0.1-0.7-0.2-1.1-0.3c-1-0.2-1.7,0.5-1.4,1.5c0.2,0.9,0.5,1.8,0.8,2.7
			c0.1,0.2,0.1,0.4,0.2,0.6h-0.7c-3.7,0-7.5,0-11.2,0c-1.7,0-3.4,0.3-4.9,1.5V5z M33.9,31.2c-3.2,0-6.3,0-9.5,0c-2,0-3.9,0-5.9,0
			c-2.1,0-3.7-1.5-4-3.6c-0.2-1.9,1.1-3.8,3-4.4c0.5-0.1,0.9-0.1,1.4-0.1c4.2,0,8.4,0,12.6,0c0.4,0,0.6,0.1,0.7,0.5
			c0.2,0.8,0.5,1.6,0.7,2.4h-13c-0.2,0-0.4,0-0.6,0c-0.6,0.1-0.9,0.6-0.9,1.2c0,0.6,0.5,1,1.1,1.1c0.2,0,0.4,0,0.6,0
			c4.3,0,8.7,0,13,0c0.4,0,0.6,0.1,0.7,0.5c0.2,0.6,0.3,1.3,0.6,1.9C34.4,31.1,34.3,31.2,33.9,31.2z M45.4,29.7
			c-0.5,0.4-0.9,0.9-1.4,1.4c-0.3,0.3-0.4,0.3-0.7,0c-1.4-1.5-2.9-2.9-4.4-4.4c-0.9-0.9-1.8-0.8-2.3,0.5c-0.2,0.5-0.4,1-0.6,1.5
			c-1-3.3-2-6.6-3-10c3.4,1,6.7,2,10.1,3c-0.7,0.2-1.2,0.4-1.7,0.6c-1.2,0.5-1.4,1.3-0.5,2.2c1.5,1.5,2.9,3,4.4,4.4
			C45.7,29.3,45.7,29.5,45.4,29.7z"/>
		<path class="st0" d="M31.3,38.8c0,0.6-0.6,1.2-1.2,1.2c-0.6,0-1.1-0.5-1.1-1.2c0-0.6,0.5-1.2,1.2-1.2
			C30.8,37.7,31.3,38.2,31.3,38.8z"/>
	</g>
	<g>
		<path class="st1" d="M54.5,9.6c-5.1,0-10.3,0-15.4,0c-0.3,0-0.4,0-0.5-0.2V12c0.1-0.1,0.2-0.1,0.4-0.1c5.2,0,10.4,0,15.7,0
			c0.8,0,1.2,0.3,1.2,1.2c0,8,0,16,0,24c0,0.4-0.1,0.5-0.5,0.5c-6.5,0-13,0-19.5,0c-0.3,0-0.6,0-0.9,0.1c-0.5,0.2-0.8,0.7-0.7,1.3
			c0.1,0.5,0.5,0.9,1,0.9c0.2,0,0.3,0,0.5,0c6.5,0,13,0,19.5,0c0.4,0,0.6,0.1,0.6,0.6c0,0.9,0,1.9,0,2.8c0,1-0.3,1.3-1.3,1.3H10.1
			c-1.5,0-3.1,0-4.6,0c-0.9,0-1.2-0.3-1.2-1.2c0-0.9,0-1.9,0-2.8c0-0.5,0.1-0.6,0.6-0.6c6.6,0,13.3,0,19.9,0c0.2,0,0.5,0,0.7-0.1
			c0.5-0.2,0.7-0.6,0.7-1.1c0-0.5-0.3-0.9-0.8-1.1c-0.3-0.1-0.5-0.1-0.8-0.1c-6.6,0-13.2,0-19.8,0c-0.5,0-0.6-0.1-0.6-0.6
			c0-7.9,0-15.8,0-23.7c0-1.1,0.3-1.4,1.3-1.4c2,0,4,0,6,0c0.3,0,0.4,0,0.5,0.1V9.4c-0.1,0.1-0.3,0.2-0.6,0.2c-2,0-4,0-6,0
			c-2.2,0-3.6,1.3-3.6,3.6v30.2c0,2.2,1.4,3.5,3.5,3.5c5.7,0,11.4,0,17.2,0c0.5,0,0.6,0.1,0.6,0.6c0,1.1,0,2.2,0,3.3
			c0,0.9,0,0.9-0.9,0.9c-0.9,0-1.7-0.1-2.5,0.1c-2.5,0.4-4.2,2.4-4.3,4.9c0,0.5,0,1,0,1.5c-0.1,0.7,0.2,1.3,0.8,1.6h27.4
			c0.6-0.4,0.8-0.9,0.8-1.6c-0.1-0.9,0.1-1.8-0.2-2.7c-0.6-2.2-2.4-3.7-4.7-3.8c-0.8,0-1.6,0-2.3,0c-0.4,0-0.6-0.1-0.6-0.5
			c0-1.2,0-2.5,0-3.7c0-0.4,0.1-0.5,0.5-0.5c5.8,0,11.6,0,17.3,0c1.8,0,3.1-1.1,3.4-2.7c0-0.3,0-0.5,0-0.8c0-10.1,0-20.1,0-30.2
			C58.1,10.9,56.7,9.6,54.5,9.6z M25.5,47.2c0-0.3,0.1-0.4,0.4-0.4c1.3,0,2.7,0,4,0c1.3,0,2.6,0,3.9,0c0.3,0,0.5,0,0.5,0.5
			c0,1.3,0,2.6,0,3.9c0,0.4-0.1,0.4-0.5,0.4c-2.7,0-5.3,0-8,0c-0.3,0-0.5,0-0.5-0.4C25.6,49.9,25.6,48.5,25.5,47.2z M39.3,53.9
			c1.8,0,3,1.3,2.9,3.2c0,0.4-0.3,0.3-0.5,0.3c-3.5,0-7,0-10.5,0H30c-3.8,0-7.7,0-11.5,0c-0.5,0-0.6-0.1-0.6-0.6
			c0-1.8,1.1-2.9,2.9-2.9C26.9,53.9,33.1,53.9,39.3,53.9z"/>
		<path class="st1" d="M31.3,38.8c0,0.6-0.6,1.2-1.2,1.2c-0.6,0-1.1-0.5-1.1-1.2c0-0.6,0.5-1.2,1.2-1.2
			C30.8,37.7,31.3,38.2,31.3,38.8z"/>
	</g>
</g>
</svg>
