<svg id="Filled" height="512" viewBox="0 0 512 512" width="512" xmlns="http://www.w3.org/2000/svg"><path d="m184 248h304v176h-304z" fill="#35a872"/><circle cx="336" cy="328" fill="#3dc285" r="80"/><circle cx="112" cy="112" fill="#ffd33a" r="80"/><circle cx="144" cy="112" fill="#ffd33a" r="80"/><circle cx="176" cy="112" fill="#ffd33a" r="80"/><path d="m184 248v48a48 48 0 0 0 48-48z" fill="#3dc285"/><path d="m488 248v48a48 48 0 0 1 -48-48z" fill="#3dc285"/><path d="m184 424v-48a48 48 0 0 1 48 48z" fill="#f0dfce"/><path d="m184 280h304v176h-304z" fill="#35a872"/><path d="m184 280v48a48 48 0 0 0 48-48z" fill="#3dc285"/><path d="m488 280v48a48 48 0 0 1 -48-48z" fill="#3dc285"/><path d="m184 456v-48a48 48 0 0 1 48 48z" fill="#f0dfce"/><path d="m488 456v-48a48 48 0 0 0 -48 48z" fill="#3dc285"/><circle cx="336" cy="360" fill="#3dc285" r="80"/><path d="m152 312h304v176h-304z" fill="#35a872"/><g fill="#3dc285"><path d="m152 312v48a48 48 0 0 0 48-48z"/><path d="m456 312v48a48 48 0 0 1 -48-48z"/><path d="m152 488v-48a48 48 0 0 1 48 48z"/><path d="m456 488v-48a48 48 0 0 0 -48 48z"/><circle cx="304" cy="400" r="88"/></g><path d="m424 160h32l-56 56-56-56h40a96 96 0 0 0 -96-96h40a96 96 0 0 1 96 96z" fill="#c3c6c7"/><path d="m112 384c-34.97-.44-64-28.92-64-63.99v-32h-24l40-56 40 56h-24v64c0 17.39 14.72 31.55 32 31.99z" fill="#c3c6c7"/><path d="m112 208a96.867 96.867 0 0 0 15.967-1.346 95.769 95.769 0 0 0 32 0 96 96 0 1 0 0-189.308 95.763 95.763 0 0 0 -32 0 96 96 0 1 0 -15.967 190.654zm64-176a80 80 0 1 1 -80 80 80.091 80.091 0 0 1 80-80zm-59.875 5.019a95.878 95.878 0 0 0 0 149.962 79.992 79.992 0 0 1 0-149.962zm-32 0a95.878 95.878 0 0 0 0 149.962 79.992 79.992 0 0 1 0-149.962z"/><path d="m176 248v56h-24a8 8 0 0 0 -8 8v176a8 8 0 0 0 8 8h304a8 8 0 0 0 8-8v-24h24a8 8 0 0 0 8-8v-208a8 8 0 0 0 -8-8h-304a8 8 0 0 0 -8 8zm-16 232v-31.2a40.126 40.126 0 0 1 31.2 31.2zm288 0h-31.2a40.126 40.126 0 0 1 31.2-31.2zm0-47.419a56.112 56.112 0 0 0 -47.419 47.419h-43.581a95.922 95.922 0 0 0 0-160h43.578a56.112 56.112 0 0 0 47.422 47.419zm-144 47.419a80 80 0 1 1 80-80 80.091 80.091 0 0 1 -80 80zm176-32h-16v-24a40.041 40.041 0 0 1 16-7.181zm0-47.412a56.179 56.179 0 0 0 -16 4.83v-74.832a55.52 55.52 0 0 0 16 4.833zm0-144.588v16h-24a39.875 39.875 0 0 1 -7.188-16zm0 32v31.2a39.821 39.821 0 0 1 -16-7.222 8 8 0 0 0 -7.974-7.978 39.815 39.815 0 0 1 -7.222-16zm-32 63.2a40.126 40.126 0 0 1 -31.2-31.2h31.2zm-15.422-95.2a55.85 55.85 0 0 0 4.831 16h-29.866a96.239 96.239 0 0 0 -18.454-16zm0 32a55.52 55.52 0 0 0 4.833 16h-29.868a96.239 96.239 0 0 0 -18.454-16zm-96.578-32a79.74 79.74 0 0 1 48.008 16h-96.017a79.739 79.739 0 0 1 48.009-16zm0 32a79.74 79.74 0 0 1 48.008 16h-96.017a79.739 79.739 0 0 1 48.009-16zm-96.578-32h43.488a96.275 96.275 0 0 0 -18.455 16h-29.864a55.85 55.85 0 0 0 4.831-16zm0 32h43.488a96.275 96.275 0 0 0 -18.455 16h-29.864a55.85 55.85 0 0 0 4.831-16zm-47.422-32h31.185a39.875 39.875 0 0 1 -7.185 16h-24zm0 32h31.185a39.875 39.875 0 0 1 -7.185 16h-24zm15.419 32h43.581a95.922 95.922 0 0 0 0 160h-43.581a56.112 56.112 0 0 0 -47.419-47.419v-65.162a56.112 56.112 0 0 0 47.419-47.419zm-47.419 31.2v-31.2h31.2a40.119 40.119 0 0 1 -31.2 31.2z"/><path d="m288 72a88.119 88.119 0 0 1 87.64 80h-31.64a8 8 0 0 0 -5.657 13.657l56 56a8 8 0 0 0 11.314 0l56-56a8 8 0 0 0 -5.657-13.657h-24.3a104.139 104.139 0 0 0 -103.7-96h-40a8 8 0 0 0 0 16zm128 88a8 8 0 0 0 8 8h12.687l-36.687 36.686-36.687-36.686h20.687a8 8 0 0 0 8-8 103.98 103.98 0 0 0 -45.706-86.088 88.151 88.151 0 0 1 69.706 86.088z"/><path d="m111.9 392h.1a8 8 0 0 0 .2-16c-13.116-.332-24.2-11.319-24.2-23.99v-56h16a8 8 0 0 0 6.51-12.65l-40-56a8 8 0 0 0 -13.02 0l-40 56a8 8 0 0 0 6.51 12.65h16v24c0 39.196 32.254 71.49 71.9 71.99zm-72.354-111.99 24.454-34.237 24.454 34.237h-8.454a8 8 0 0 0 -8 8v64a38.523 38.523 0 0 0 .752 7.579 55.433 55.433 0 0 1 -16.752-39.579v-32a8 8 0 0 0 -8-8z"/><path d="m304 376h16a8 8 0 0 0 0-16h-8v-8a8 8 0 0 0 -16 0v9.376a24 24 0 0 0 8 46.624 8 8 0 0 1 0 16h-16a8 8 0 0 0 0 16h8v8a8 8 0 0 0 16 0v-9.376a24 24 0 0 0 -8-46.624 8 8 0 0 1 0-16z"/><path d="m144 160h8v8a8 8 0 0 0 16 0v-8h16v8a8 8 0 0 0 16 0v-10.707a27.97 27.97 0 0 0 7.569-45.293 27.97 27.97 0 0 0 -7.569-45.293v-10.707a8 8 0 0 0 -16 0v8h-16v-8a8 8 0 0 0 -16 0v8h-8a8 8 0 0 0 -8 8v80a8 8 0 0 0 8 8zm8-80h36a12 12 0 0 1 0 24h-36zm0 40h36a12 12 0 0 1 0 24h-36z"/></svg>