<?xml version="1.0" encoding="utf-8"?>
<!-- Generator: Adobe Illustrator 23.0.5, SVG Export Plug-In . SVG Version: 6.00 Build 0)  -->
<svg version="1.1" id="Layer_1" xmlns="http://www.w3.org/2000/svg" xmlns:xlink="http://www.w3.org/1999/xlink" x="0px" y="0px"
	 viewBox="0 0 100 100" style="enable-background:new 0 0 100 100;" xml:space="preserve">
<style type="text/css">
	.st0{clip-path:url(#SVGID_2_);fill:#09518C;}
	.st1{clip-path:url(#SVGID_2_);fill:#EB494B;}
	.st2{clip-path:url(#SVGID_2_);fill:#EDF5FF;}
	.st3{clip-path:url(#SVGID_2_);fill:#D5E8FE;}
</style>
<g>
	<defs>
		<rect id="SVGID_1_" x="0.6" y="0.5" width="98.8" height="98.9"/>
	</defs>
	<clipPath id="SVGID_2_">
		<use xlink:href="#SVGID_1_"  style="overflow:visible;"/>
	</clipPath>
	<path class="st0" d="M73.2,99.5H26.9c-0.1-0.1-0.2-0.1-0.3-0.2c-6.5-1-11-4.6-13.4-10.8c-0.2-0.5-0.4-0.6-0.9-0.6
		c-1.1,0-2.2,0.1-3.3-0.1c-5-0.8-8.3-4.9-8.3-10.1c0-17.3,0-34.6,0-51.9c0-5.1,0-10.2,0-15.4c0-3.8,1.7-6.7,5-8.6
		C6.7,1.2,8,1,9.1,0.5h81.8c0.2,0.1,0.3,0.1,0.5,0.2c4.2,1,6.8,3.6,7.8,7.8c0,0.2,0.1,0.3,0.2,0.5v70.3c-0.1,0.2-0.1,0.4-0.2,0.6
		c-0.9,3.7-3,6.2-6.6,7.4c-1.4,0.5-3,0.4-4.5,0.5c-0.7,0-1,0.2-1.2,0.8c-1.8,4.7-5.1,8-9.9,9.7C75.7,98.9,74.4,99.1,73.2,99.5
		 M87.8,84.7c1.1-0.1,2.1,0,3-0.2c3.3-0.6,5.3-3.3,5.3-6.8c0-17.6,0-35.3,0-52.9v-1H4c0,0.3-0.1,0.5-0.1,0.7c0,17.9,0,35.7,0,53.6
		c0,4.4,3.9,7.4,8.2,6.5c0-0.4,0-0.9,0-1.3c-0.1-8.7,6.4-15.8,15-16.6c0.5,0,1.1-0.1,1.6-0.1c14.1,0,28.3,0,42.4,0
		c7.3,0,13.4,4.4,15.7,11.1C87.7,79.8,88,82.1,87.8,84.7 M50,96.2L50,96.2c7,0,13.9,0,20.9,0c1.1,0,2.1-0.1,3.2-0.3
		c6.7-1.4,11.1-7.5,10.4-14.3c-0.7-6.6-6.2-11.7-13.1-11.8c-14.3-0.1-28.6-0.1-42.9,0c-8.4,0.1-14.3,7.3-12.9,15.6
		c1,6.1,6.5,10.7,12.8,10.8C35.6,96.2,42.8,96.2,50,96.2 M3.9,20.2h92.2v-8.9c0-4.9-2.6-7.5-7.5-7.5H11.4c-0.4,0-0.7,0-1.1,0
		C7,3.9,4.1,6.5,4,9.9C3.8,13.3,3.9,16.7,3.9,20.2"/>
	<path class="st0" d="M70.5,40.1c-6.1,0-12.1,0-18.2,0c-0.4,0-0.8,0-1.2-0.1c-0.8-0.3-1.1-0.9-1.1-1.6c0.1-0.8,0.6-1.3,1.4-1.5
		c0.3,0,0.6,0,0.9,0c12.2,0,24.4,0,36.5,0c0.3,0,0.6,0,0.9,0c0.8,0.1,1.3,0.6,1.4,1.4c0.1,0.8-0.2,1.5-1,1.8
		c-0.4,0.1-0.8,0.2-1.2,0.2C82.7,40.1,76.6,40.1,70.5,40.1"/>
	<path class="st0" d="M76.3,53.3c-4.2,0-8.5,0-12.7,0c-0.6,0-1.3-0.3-1.7-0.7c-0.8-0.9-0.2-2.3,1-2.5c0.2-0.1,0.5,0,0.8,0
		c8.5,0,17,0,25.4,0c0.6,0,1.3,0.3,1.7,0.7c0.3,0.3,0.3,1.1,0.1,1.6c-0.2,0.7-0.9,0.9-1.6,0.9c-3.4,0-6.7,0-10.1,0H76.3z"/>
	<path class="st0" d="M63.2,46.7c-3.8,0-7.5,0-11.3,0c-1.4,0-2.3-1.1-1.8-2.3c0.3-0.7,0.8-1,1.6-1c7.6,0,15.2,0,22.8,0
		c1.1,0,1.8,0.7,1.8,1.6c0,1-0.7,1.6-1.9,1.6C70.7,46.7,66.9,46.7,63.2,46.7"/>
	<path class="st0" d="M62.3,59.9c-3.4,0-6.8,0-10.2,0c-1.3,0-2.1-0.6-2.1-1.6c0-1,0.8-1.7,2-1.7c6.9,0,13.7,0,20.6,0
		c1.3,0,2,0.7,2,1.7c0,1-0.8,1.6-2,1.6C69.2,59.9,65.8,59.9,62.3,59.9"/>
	<path class="st0" d="M55.8,30.2c1.3,0,2.6,0,3.8,0c1.1,0,1.9,0.7,1.8,1.7c0,0.9-0.7,1.6-1.8,1.6c-2.7,0-5.3,0-8,0
		c-1.1,0-1.8-0.7-1.7-1.7c0-0.9,0.7-1.6,1.8-1.6C53.1,30.2,54.5,30.2,55.8,30.2"/>
	<path class="st0" d="M85.4,43.4c1.3,0,2.6,0,3.9,0c1.1,0,1.7,0.7,1.7,1.6c0,1-0.7,1.6-1.7,1.6c-2.7,0-5.3,0-8,0
		c-1.1,0-1.7-0.7-1.7-1.6c0-1,0.7-1.6,1.7-1.6C82.8,43.4,84.1,43.4,85.4,43.4"/>
	<path class="st0" d="M54.1,53.3c-0.8,0-1.6,0-2.4,0c-1,0-1.7-0.7-1.7-1.6c0-0.9,0.7-1.6,1.7-1.6c1.6,0,3.3,0,4.9,0
		c1,0,1.7,0.8,1.6,1.7c0,0.9-0.7,1.5-1.6,1.6c-0.1,0-0.1,0-0.2,0C55.6,53.3,54.9,53.3,54.1,53.3"/>
	<path class="st1" d="M28.6,86.3h-3.3c0,1,0,2,0,2.9c0,1.2-0.6,1.9-1.7,1.9c-1,0-1.6-0.7-1.6-2c0-3.2,0-6.3,0-9.5c0-2.9,2.2-5.1,5-5
		c2.7,0,4.9,2.2,4.9,5c0,3.2,0,6.3,0,9.5c0,1.3-0.6,2-1.6,2c-1.1,0-1.7-0.7-1.7-2C28.6,88.3,28.6,87.3,28.6,86.3 M28.6,82.9
		c0-1.2,0-2.3,0-3.4c0-0.9-0.8-1.5-1.6-1.5c-0.8,0-1.6,0.6-1.6,1.5c-0.1,1.1,0,2.2,0,3.4H28.6z"/>
	<path class="st1" d="M51.7,84.6c0,1.4,0,2.7,0,4c0,0.4,0,0.8,0,1.2c-0.1,0.9-0.8,1.5-1.6,1.4c-0.9,0-1.5-0.6-1.6-1.5
		c-0.1-0.4,0-0.9,0-1.4c0-3.7,0-7.5,0-11.2c0-1.9,0.5-2.4,2.4-2.4c0.9,0,1.9,0,2.8,0c2.6,0.1,4.7,2.3,4.7,4.9c0,2.7-2.1,4.9-4.8,4.9
		C52.9,84.6,52.4,84.6,51.7,84.6 M51.7,81.3c1.1,0,2.3,0.4,2.9-0.7c0.3-0.5,0.2-1.3,0-1.8c-0.7-1.1-1.8-0.7-2.9-0.7V81.3z"/>
	<path class="st1" d="M38.5,84.6c0,1.7,0,3.3,0,4.9c0,1.1-0.8,1.8-1.8,1.7c-0.8-0.1-1.5-0.7-1.5-1.6c0-4.4,0-8.8,0-13.2
		c0-1,0.7-1.6,1.7-1.6c1.2,0,2.4-0.1,3.6,0c2.6,0.1,4.6,2.4,4.6,5c0,2.7-2.1,4.8-4.8,4.8C39.7,84.6,39.2,84.6,38.5,84.6 M38.5,81.3
		c1.1-0.1,2.3,0.4,2.9-0.8c0.3-0.5,0.3-1.3,0-1.8c-0.7-1.1-1.8-0.7-2.9-0.7V81.3z"/>
	<path class="st1" d="M73,78.3c0.6-0.9,1.2-1.8,1.8-2.6c0.7-1,1.6-1.2,2.4-0.7c0.9,0.5,1,1.5,0.4,2.5c0,0.1-0.1,0.1-0.1,0.2
		c-0.9,1.4-2.2,2.7-2.6,4.2c-0.5,1.6-0.1,3.4-0.1,5.1c0,0.8,0,1.7,0,2.5c0,1.1-0.7,1.7-1.7,1.7c-0.9,0-1.6-0.7-1.6-1.7
		c0-2.3,0-4.5,0-6.8c0-0.6-0.2-1.2-0.5-1.7c-0.7-1.2-1.6-2.4-2.3-3.5c-0.6-1-0.5-1.9,0.3-2.5c0.8-0.6,1.8-0.4,2.5,0.7
		C71.9,76.5,72.4,77.4,73,78.3"/>
	<path class="st1" d="M64.8,87.9c0.7,0,1.2,0,1.7,0c1,0.1,1.6,0.8,1.6,1.7c0,0.9-0.7,1.5-1.7,1.5c-0.5,0-1.1,0-1.6,0
		c-1.9-0.1-3.3-1.4-3.3-3.3c0-3.8,0-7.5,0-11.3c0-1.1,0.7-1.9,1.6-1.9c1,0,1.6,0.7,1.6,1.9c0,3.4,0,6.8,0,10.1V87.9z"/>
	<path class="st0" d="M79.6,17c-2.6,0-5.3,0-7.9,0c-3,0-5.2-2.1-5.2-4.9c0-2.8,2.2-5,5.2-5c5.4,0,10.7,0,16.1,0c2.6,0,4.7,1.9,5,4.5
		c0.3,2.3-1.3,4.6-3.7,5.2C88.6,17,88,17,87.4,17C84.8,17,82.2,17,79.6,17 M79.6,13.7c2.6,0,5.3,0,7.9,0c1.3,0,2.1-0.6,2-1.7
		c0-1-0.8-1.6-2-1.6c-5.3,0-10.5,0-15.8,0c-1.2,0-2,0.7-1.9,1.7c0,1,0.7,1.6,2,1.6C74.3,13.7,77,13.7,79.6,13.7"/>
	<path class="st0" d="M25.4,17c-2.8,0-5-2.2-5-4.9c0-2.7,2.2-4.9,4.9-4.9c2.7,0,5,2.2,5,5C30.3,14.8,28.1,17,25.4,17 M23.7,12
		c0,0.9,0.7,1.7,1.6,1.7c0.9,0,1.6-0.7,1.6-1.5c0-0.9-0.7-1.7-1.6-1.7C24.5,10.4,23.7,11.1,23.7,12"/>
	<path class="st0" d="M12.2,17c-2.8,0-5-2.2-5-5c0-2.7,2.2-4.9,4.9-4.9c2.7,0,4.9,2.2,4.9,5C17.1,14.8,14.9,17,12.2,17 M13.8,12.1
		c0-0.9-0.7-1.7-1.6-1.7c-0.9,0-1.7,0.8-1.6,1.7c0,0.9,0.7,1.6,1.6,1.6C13,13.7,13.8,13,13.8,12.1"/>
	<path class="st0" d="M38.5,17c-2.7,0-4.9-2.2-4.9-4.9c0-2.8,2.2-5,4.9-5c2.7,0,5,2.3,4.9,5C43.4,14.8,41.2,17,38.5,17 M38.5,13.7
		c0.9,0,1.7-0.8,1.6-1.7c0-0.8-0.8-1.6-1.6-1.6c-0.9,0-1.6,0.7-1.6,1.6C36.9,13,37.6,13.7,38.5,13.7"/>
	<path class="st0" d="M26.6,45.4c-0.5,0-0.9,0.4-0.9,0.9v11.6c0,1-0.8,1.8-1.8,1.8c-1,0-1.8-0.8-1.8-1.8V57c0-0.5-0.4-0.9-0.9-0.9
		c-0.5,0-0.9,0.4-0.9,0.9v0.9c0,2,1.6,3.5,3.5,3.5c1.1,0,2-0.5,2.7-1.2c0.5-0.6,0.9-1.4,0.9-2.3V46.3C27.5,45.8,27.1,45.4,26.6,45.4
		"/>
	<path class="st0" d="M26.6,31.2c-0.5,0-0.9,0.4-0.9,0.9v1.8c0,0.5,0.4,0.9,0.9,0.9c0.5,0,0.9-0.4,0.9-0.9v-1.8
		C27.5,31.6,27.1,31.2,26.6,31.2"/>
	<path class="st0" d="M26.6,32.9l7.1,14.3c0.2,0,0.5-0.1,0.6-0.3c0.4-0.4,1.8-1.5,2.9-1.5c1.1,0,2.6,1.1,3,1.5
		c0.3,0.3,0.6,0.3,1,0.2c0.3-0.1,0.5-0.5,0.5-0.8C41.7,39,34.9,32.9,26.6,32.9"/>
	<path class="st0" d="M11.5,46.3c0,0.4,0.2,0.7,0.5,0.8c0.3,0.1,0.7,0.1,1-0.2c0.4-0.4,1.8-1.5,3-1.5c1.1,0,2.5,1.1,2.9,1.5
		c0.2,0.2,0.4,0.3,0.6,0.3l7.1-14.3C18.3,32.9,11.5,39,11.5,46.3"/>
	<path class="st1" d="M26.6,32.9c-3.9,0-7.1,6.4-7.1,14.3c0.2,0,0.5-0.1,0.6-0.3c0.4-0.4,1.8-1.5,2.9-1.5c1.1,0,2.5,1.1,2.9,1.5
		c0.2,0.2,0.4,0.3,0.6,0.3c0.2,0,0.5-0.1,0.6-0.3c0.4-0.4,1.8-1.5,2.9-1.5c1.1,0,2.5,1.1,2.9,1.5c0.2,0.2,0.4,0.3,0.6,0.3
		C33.7,39.4,30.5,32.9,26.6,32.9"/>
	<path class="st1" d="M30.2,45.4c1.1,0,2.5,1.1,2.9,1.5c0.2,0.2,0.4,0.3,0.6,0.3c0-7.8-3.2-14.3-7.1-14.3v14.3
		c0.2,0,0.5-0.1,0.6-0.3C27.7,46.5,29,45.4,30.2,45.4"/>
	<path class="st2" d="M28.4,38.3h-0.9v-0.9c0-0.5-0.4-0.9-0.9-0.9c-0.5,0-0.9,0.4-0.9,0.9v0.9h-0.9c-0.5,0-0.9,0.4-0.9,0.9
		c0,0.5,0.4,0.9,0.9,0.9h0.9V41c0,0.5,0.4,0.9,0.9,0.9c0.5,0,0.9-0.4,0.9-0.9v-0.9h0.9c0.5,0,0.9-0.4,0.9-0.9
		C29.3,38.7,28.9,38.3,28.4,38.3"/>
	<path class="st3" d="M27.5,41v-0.9h0.9c0.5,0,0.9-0.4,0.9-0.9s-0.4-0.9-0.9-0.9h-0.9v-0.9c0-0.5-0.4-0.9-0.9-0.9v5.3
		C27.1,41.9,27.5,41.5,27.5,41"/>
</g>
</svg>
