<?xml version="1.0" encoding="utf-8"?>
<!-- Generator: Adobe Illustrator 16.0.0, SVG Export Plug-In . SVG Version: 6.00 Build 0)  -->
<!DOCTYPE svg PUBLIC "-//W3C//DTD SVG 1.1//EN" "http://www.w3.org/Graphics/SVG/1.1/DTD/svg11.dtd">
<svg version="1.1" id="Layer_1" xmlns="http://www.w3.org/2000/svg" xmlns:xlink="http://www.w3.org/1999/xlink" x="0px" y="0px"
	 width="512px" height="512px" viewBox="0 0 512 512" enable-background="new 0 0 512 512" xml:space="preserve">
<g>
	<g>
		<g>
			<defs>
				<rect id="SVGID_1_" x="36.753" y="1.728" width="438.494" height="348.667"/>
			</defs>
			<clipPath id="SVGID_2_">
				<use xlink:href="#SVGID_1_"  overflow="visible"/>
			</clipPath>
			<path clip-path="url(#SVGID_2_)" fill="#991E21" d="M426.221,145.705c0.057,2.671,0.025,5.219-0.791,7.673
				c-1.006,3-3.039,4.044-6.062,3.144c-1.752-0.524-3.299-1.468-4.775-2.525c-4.683-3.361-9.381-6.718-14.044-10.114
				c-4.254-3.087-7.205-7.267-9.749-11.776c-2.982-5.286-5.184-10.937-7.751-16.413c-11.302-24.089-28.313-43.235-50.523-57.769
				c-17.685-11.583-37.105-18.697-58.055-21.449c-57.661-7.563-113.626,20.751-141.796,71.669
				c-3.458,6.249-5.97,12.943-9.085,19.353c-1.568,3.212-3.264,6.34-5.326,9.264c-2.104,2.982-4.597,5.574-7.579,7.701
				c-4.428,3.146-8.814,6.337-13.232,9.494c-1.634,1.167-3.345,2.206-5.331,2.691c-2.518,0.607-4.326-0.253-5.312-2.664
				c-1.149-2.786-1.154-5.727-0.996-8.671c0.342-6.424,1.553-12.713,3.238-18.897c4.708-17.279,12.425-33.189,22.506-47.917
				c22.357-32.691,52.335-55.44,89.906-68.054c14.723-4.943,29.88-7.658,45.395-8.475C324.866-2.13,396.321,46.3,421.109,120.166
				C423.897,128.485,425.675,137.042,426.221,145.705"/>
		</g>
		<g>
			<defs>
				<rect id="SVGID_3_" x="36.753" y="1.728" width="438.494" height="348.667"/>
			</defs>
			<clipPath id="SVGID_4_">
				<use xlink:href="#SVGID_3_"  overflow="visible"/>
			</clipPath>
			<path clip-path="url(#SVGID_4_)" fill="#991E21" d="M255.959,350.395c-66.772-0.035-125.291-37.662-154.559-93.764
				c-2.313-4.433-4.326-8.99-5.01-14c-0.756-5.523,0.93-9.481,5.679-11.866c3.58-1.79,6.997-3.894,10.51-5.824
				c5.97-3.266,9.576-2.196,12.675,3.883c1.859,3.651,3.396,7.479,5.316,11.093c20.954,39.422,53.178,64.195,96.759,73.955
				c14.085,3.146,28.384,3.636,42.765,2.231c50.48-4.928,94.293-37.143,114.648-83.104c1.011-2.278,1.986-4.586,3.463-6.619
				c2.278-3.128,4.948-3.942,8.604-2.63c2.365,0.842,4.434,2.26,6.625,3.442c2.19,1.187,4.31,2.525,6.536,3.618
				c4.78,2.354,6.362,6.348,5.638,11.741c-0.74,5.515-3.023,10.495-5.674,15.297c-24.855,45.124-62.156,74.377-111.998,87.439
				C284.195,348.883,270.156,350.375,255.959,350.395"/>
		</g>
		<g>
			<defs>
				<rect id="SVGID_5_" x="36.753" y="1.728" width="438.494" height="348.667"/>
			</defs>
			<clipPath id="SVGID_6_">
				<use xlink:href="#SVGID_5_"  overflow="visible"/>
			</clipPath>
			<path clip-path="url(#SVGID_6_)" fill="#0A528B" d="M472.592,230.713c-4.192-0.312-8.141-1.759-12.063-3.269
				c-9.05-3.493-17.563-8.066-25.917-12.956c-10.331-6.046-20.974-11.534-31.474-17.269c-32.582-17.792-65.169-35.567-98.348-52.241
				c-12.788-6.424-25.642-12.7-38.955-17.976c-3.096-1.224-6.215-2.339-9.637-2.265c-3.085,0.069-5.959,0.991-8.81,2.032
				c-12.634,4.617-24.722,10.469-36.759,16.421c-32.148,15.882-63.626,33.031-95.115,50.159
				c-11.669,6.354-23.42,12.566-34.982,19.097c-7.656,4.323-15.162,8.922-23.149,12.629c-5.408,2.505-10.827,4.982-16.715,6.185
				c-0.76,0.156-1.557,0.207-2.328,0.173c-1.456-0.051-1.94-0.83-1.333-2.14c0.623-1.351,1.634-2.426,2.666-3.478
				c4.065-4.129,8.626-7.683,13.319-11.046c24.763-17.741,49.567-35.439,74.366-53.134c34.992-24.97,69.984-49.945,104.997-74.879
				c7.217-5.137,15.167-8.284,24.191-8.043c7.911,0.207,15.065,2.87,21.515,7.269c8.916,6.09,17.67,12.445,26.464,18.722
				c50.333,35.894,100.646,71.813,150.988,107.675c5.128,3.662,10.47,7.04,15.234,11.209c1.322,1.154,2.62,2.365,3.636,3.818
				c0.521,0.743,1.205,1.567,0.653,2.535C474.531,230.846,473.511,230.617,472.592,230.713"/>
		</g>
		<g>
			<defs>
				<rect id="SVGID_7_" x="36.753" y="1.728" width="438.494" height="348.667"/>
			</defs>
			<clipPath id="SVGID_8_">
				<use xlink:href="#SVGID_7_"  overflow="visible"/>
			</clipPath>
			<path clip-path="url(#SVGID_8_)" fill="#0A528B" d="M234.224,183.271c4.454,0,8.912-0.012,13.36,0
				c1.802,0.003,2.247,0.442,2.247,2.248c0.01,8.957,0.005,17.913,0,26.864c0,1.875-0.445,2.306-2.359,2.306
				c-8.907,0.005-17.808,0.005-26.714,0c-1.869-0.005-2.339-0.473-2.339-2.347c-0.005-8.901-0.005-17.815,0-26.717
				c0-1.913,0.435-2.354,2.304-2.354C225.221,183.258,229.72,183.271,234.224,183.271"/>
		</g>
		<g>
			<defs>
				<rect id="SVGID_9_" x="36.753" y="1.728" width="438.494" height="348.667"/>
			</defs>
			<clipPath id="SVGID_10_">
				<use xlink:href="#SVGID_9_"  overflow="visible"/>
			</clipPath>
			<path clip-path="url(#SVGID_10_)" fill="#0B528C" d="M292.688,199.13c0,4.407,0.005,8.809-0.006,13.211
				c0,1.874-0.475,2.341-2.338,2.347c-8.906,0.005-17.813,0.005-26.714,0c-1.921,0-2.359-0.432-2.359-2.306
				c-0.011-8.952-0.011-17.907,0-26.864c0-1.806,0.444-2.248,2.247-2.248c8.957-0.007,17.91-0.007,26.866,0
				c1.864,0,2.298,0.442,2.304,2.354C292.692,190.129,292.688,194.631,292.688,199.13"/>
		</g>
		<g>
			<defs>
				<rect id="SVGID_11_" x="36.753" y="1.728" width="438.494" height="348.667"/>
			</defs>
			<clipPath id="SVGID_12_">
				<use xlink:href="#SVGID_11_"  overflow="visible"/>
			</clipPath>
			<path clip-path="url(#SVGID_12_)" fill="#0A528B" d="M261.271,242.605c0-4.501-0.011-9.006,0-13.508
				c0.01-1.754,0.419-2.186,2.165-2.186c9.004-0.011,18.002-0.011,27.005,0c1.817,0,2.241,0.452,2.247,2.272
				c0.005,8.955,0.005,17.904,0,26.862c-0.006,1.792-0.475,2.272-2.262,2.272c-8.948,0.013-17.904,0.013-26.853,0
				c-1.899,0-2.298-0.426-2.303-2.359C261.26,251.506,261.271,247.056,261.271,242.605"/>
		</g>
		<g>
			<defs>
				<rect id="SVGID_13_" x="36.753" y="1.728" width="438.494" height="348.667"/>
			</defs>
			<clipPath id="SVGID_14_">
				<use xlink:href="#SVGID_13_"  overflow="visible"/>
			</clipPath>
			<path clip-path="url(#SVGID_14_)" fill="#0A528B" d="M218.414,242.633c0-4.494-0.005-9.001,0.005-13.5
				c0-1.736,0.444-2.214,2.145-2.221c9.049-0.016,18.104-0.016,27.153,0c1.665,0.007,2.109,0.457,2.109,2.089
				c0.016,9.057,0.016,18.104,0.005,27.161c-0.005,1.69-0.46,2.157-2.207,2.157c-8.998,0.016-18.001,0.023-27.005,0
				c-1.757,0-2.201-0.5-2.201-2.321C218.409,251.537,218.414,247.088,218.414,242.633"/>
		</g>
	</g>
	<g>
		<g>
			<defs>
				<rect id="SVGID_15_" x="31.263" y="423.75" width="449.474" height="88.521"/>
			</defs>
			<clipPath id="SVGID_16_">
				<use xlink:href="#SVGID_15_"  overflow="visible"/>
			</clipPath>
			<path clip-path="url(#SVGID_16_)" fill="#0A528B" d="M214.344,483.919c-6.517,17.475-25.044,30.783-46.692,27.924
				c-22.128-2.931-38.409-21.377-38.587-43.235c-0.189-22.01,15.734-41.017,37.085-44.285c22.731-3.463,41.473,10.172,48.132,27.679
				c-3.355,0-6.685,0.122-9.994-0.062c-1.9-0.092-3.263-1.409-4.346-2.973c-4.928-7.139-11.741-11.47-20.167-13.268
				c-17.961-3.841-36.06,8.601-38.976,26.771c-2.844,17.711,8.166,34.175,25.749,37.719c13.385,2.707,24.528-1.654,32.995-12.389
				c2.063-2.625,4.387-4.075,7.752-3.911C209.599,484.011,211.918,483.919,214.344,483.919"/>
		</g>
		<g>
			<defs>
				<rect id="SVGID_17_" x="31.263" y="423.75" width="449.474" height="88.521"/>
			</defs>
			<clipPath id="SVGID_18_">
				<use xlink:href="#SVGID_17_"  overflow="visible"/>
			</clipPath>
			<path clip-path="url(#SVGID_18_)" fill="#0A528B" d="M289.532,508.37c-3.224,0-6.374,0.041-9.515-0.02
				c-2.585-0.042-4.581-1.195-6.103-3.301c-6.476-8.906-12.977-17.781-19.467-26.688c-1.108-1.522-1.108-1.522-2.171-0.051
				c-6.373,8.783-12.777,17.567-19.099,26.401c-1.823,2.544-4.152,3.77-7.262,3.688c-2.63-0.092-5.275-0.03-7.952-0.03
				c-0.01-0.726,0.47-1.063,0.771-1.471c9.151-12.492,18.308-24.962,27.521-37.413c0.685-0.939,0.608-1.491-0.035-2.369
				c-9.126-12.451-18.206-24.932-27.302-37.402c-0.337-0.48-0.669-0.95-0.996-1.431c0.225-0.469,0.623-0.306,0.919-0.306
				c2.798-0.011,5.607,0,8.411,0c2.589,0,4.591,1.031,6.149,3.155c18.487,25.341,36.999,50.63,55.501,75.959
				C289.144,507.431,289.547,507.717,289.532,508.37"/>
		</g>
		<g>
			<defs>
				<rect id="SVGID_19_" x="31.263" y="423.75" width="449.474" height="88.521"/>
			</defs>
			<clipPath id="SVGID_20_">
				<use xlink:href="#SVGID_19_"  overflow="visible"/>
			</clipPath>
			<path clip-path="url(#SVGID_20_)" fill="#991E21" d="M289.73,428.091c-4.355,5.934-8.569,11.663-12.787,17.394
				c-4.285,5.832-8.569,11.634-12.809,17.485c-0.674,0.92-0.98,0.879-1.593-0.02c-1.521-2.176-3.105-4.29-4.708-6.415
				c-0.471-0.612-0.593-1.062-0.077-1.777c5.694-7.885,11.332-15.811,17.011-23.705c1.16-1.625,2.723-2.84,4.734-2.932
				C282.82,427.979,286.156,428.091,289.73,428.091"/>
		</g>
		<g>
			<defs>
				<rect id="SVGID_21_" x="31.263" y="423.75" width="449.474" height="88.521"/>
			</defs>
			<clipPath id="SVGID_22_">
				<use xlink:href="#SVGID_21_"  overflow="visible"/>
			</clipPath>
			<path clip-path="url(#SVGID_22_)" fill="#0A528B" d="M382.859,463.706c-0.22-1.462-0.348-2.941-0.639-4.382
				c-4.704-23.277-27.245-38.853-50.608-34.982c-24.896,4.116-41.718,28.68-35.911,53.142c4.3,18.089,15.841,29.854,34.026,33.665
				c18.451,3.86,33.649-2.503,45.068-17.578c2.19-2.901,3.891-6.107,5.188-9.651c-2.498,0-4.856,0.082-7.201-0.03
				c-3.304-0.145-5.663,1.205-7.619,3.87c-8.022,10.97-22.384,15.729-35.437,11.93c-14.039-4.106-24.364-17.139-23.88-33.215
				c0.042-1.491,0.449-1.869,1.941-1.869c24.339,0.051,48.693,0.051,73.048,0.051c0.393,0,0.797-0.041,1.174,0
				C382.762,464.727,382.956,464.38,382.859,463.706 M367.86,455.596h-57.866c-1.699,0-1.699,0-1.016-1.491
				c5.623-12.226,17.874-19.733,31.314-18.997c13.288,0.726,22.695,7.363,28.527,19.212c0.184,0.347,0.307,0.705,0.557,1.276H367.86
				z"/>
		</g>
		<g>
			<defs>
				<rect id="SVGID_23_" x="31.263" y="423.75" width="449.474" height="88.521"/>
			</defs>
			<clipPath id="SVGID_24_">
				<use xlink:href="#SVGID_23_"  overflow="visible"/>
			</clipPath>
			<path clip-path="url(#SVGID_24_)" fill="#0A528B" d="M480.712,463.654c-0.185-1.215-0.24-2.461-0.465-3.656
				c-4.341-23.267-26.138-38.925-49.614-35.789c-23.781,3.188-43.336,26.454-36.871,53.766c4.397,18.506,16.634,30.161,35.381,33.46
				c18.436,3.237,33.353-3.626,44.256-18.896c1.854-2.594,3.346-5.412,4.479-8.619c-2.609,0-4.969,0.082-7.328-0.03
				c-3.182-0.124-5.516,1.163-7.385,3.728c-8.038,11.071-22.383,15.882-35.518,12.072c-14.151-4.106-24.478-17.374-23.849-33.205
				c0.055-1.389,0.29-1.879,1.854-1.879c24.354,0.051,48.709,0.04,73.048,0.04c0.348,0,0.7-0.03,1.032,0.011
				C480.487,464.717,480.834,464.462,480.712,463.654 M406.504,455.545c1.072-8.835,15.545-19.712,27.086-20.346
				c15.342-0.858,30.652,8.417,33.497,20.346C446.878,455.545,426.697,455.545,406.504,455.545"/>
		</g>
		<g>
			<defs>
				<rect id="SVGID_25_" x="31.263" y="423.75" width="449.474" height="88.521"/>
			</defs>
			<clipPath id="SVGID_26_">
				<use xlink:href="#SVGID_25_"  overflow="visible"/>
			</clipPath>
			<path clip-path="url(#SVGID_26_)" fill="#0A528B" d="M118.528,457.955c-5.433-22.439-26.468-36.84-49.316-33.726
				c-20.591,2.799-36.805,20.224-37.949,40.763c0,2.084,0,4.157,0,6.251c0.087,1.981,0.363,3.922,0.781,5.853
				c5.082,23.42,26.938,38.353,50.67,34.624C107.682,507.777,124.479,482.581,118.528,457.955 M74.957,501.037
				c-17.965-0.062-32.612-14.994-32.52-33.174c0.082-18.211,14.82-32.838,33.046-32.797c18.277,0.062,32.939,14.8,32.888,33.112
				C108.331,486.544,93.531,501.108,74.957,501.037"/>
		</g>
	</g>
</g>
</svg>
