<?xml version="1.0" encoding="utf-8"?>
<!-- Generator: Adobe Illustrator 23.0.5, SVG Export Plug-In . SVG Version: 6.00 Build 0)  -->
<svg version="1.1" id="Layer_1" xmlns="http://www.w3.org/2000/svg" xmlns:xlink="http://www.w3.org/1999/xlink" x="0px" y="0px"
	 viewBox="0 0 100 100" style="enable-background:new 0 0 100 100;" xml:space="preserve">
<style type="text/css">
	.st0{clip-path:url(#SVGID_2_);fill:#EB494B;}
	.st1{clip-path:url(#SVGID_2_);fill:#09518C;}
</style>
<g>
	<defs>
		<rect id="SVGID_1_" x="0.7" y="4.5" width="98.5" height="91"/>
	</defs>
	<clipPath id="SVGID_2_">
		<use xlink:href="#SVGID_1_"  style="overflow:visible;"/>
	</clipPath>
	<path class="st0" d="M99.3,80.3c-0.5,1.1-1,2.1-1.5,3.2c-1.6,3.5-3.1,7-4.6,10.5c-0.4,0.9-0.9,1.6-2,1.6c-1,0-1.6-0.7-2-1.6
		c-1.9-4.4-3.8-8.7-5.7-13c-0.2-0.5-0.4-1.2-0.4-1.8c0-21.2,0-42.5,0-63.7c0-3.3,1.4-5.9,4.4-7.4c2.8-1.5,5.7-1.3,8.4,0.5
		c1.7,1.1,2.7,2.8,3.2,4.8c0.1,0.2,0.1,0.4,0.2,0.6V80.3z M95.4,21.3H87v56.4h8.4V21.3z M95.4,17.4c0-1,0.1-1.9,0-2.8
		c-0.3-2.3-2.5-3.9-4.8-3.5c-2.8,0.4-4.2,2.9-3.5,6.4H95.4z M91.2,88.8c1.1-2.5,2.1-4.8,3.2-7.2H88C89.1,84,90.1,86.3,91.2,88.8"/>
	<path class="st1" d="M64.2,14.9c2.8,0,5.4,0,8,0c1.6,0,2.3,0.7,2.3,2.3c0,25.3,0,50.6,0,75.9c0,1.7-0.7,2.4-2.4,2.4
		c-19.6,0-39.1,0-58.7,0c-1.8,0-2.4-0.7-2.4-2.5c0-2.6,0-5.2,0-7.9c-0.3,0-0.6-0.1-0.9-0.1c-2.3,0-4.6,0-6.9,0c-2,0-2.6-0.6-2.6-2.6
		c0-13.4,0-26.9,0-40.3c0-11.7,0-23.4,0-35.1c0-2,0.6-2.6,2.6-2.6c6.6,0,13.1,0,19.7,0c0.3,0,0.6,0,0.9,0c1,0.1,1.8,0.9,1.8,1.9
		c0,1-0.8,1.8-1.8,1.9c-0.8,0.1-1.6,0-2.4,0c-5.3,0-10.5,0-15.8,0H4.6v72.8h55.7V8.3h-1c-5.8,0-11.6,0-17.4,0c-0.3,0-0.6,0-0.9,0
		c-1-0.1-1.8-0.9-1.8-1.9c0-1,0.7-1.8,1.8-1.9c0.2,0,0.4,0,0.6,0c6.8,0,13.5,0,20.3,0c1.7,0,2.4,0.7,2.4,2.3
		C64.2,9.5,64.2,12.1,64.2,14.9 M70.7,18.8h-6.5V20c0,20.8,0,41.7,0,62.5c0,2-0.6,2.6-2.6,2.6c-15.1,0-30.3,0-45.4,0H15v6.5h55.7
		V18.8z"/>
	<path class="st1" d="M32.5,25.1c-6.2,0-12.4,0-18.7,0c-0.3,0-0.6,0-1,0c-1-0.1-1.8-0.9-1.8-1.9c0-1,0.7-1.8,1.7-1.9
		c0.3,0,0.6,0,0.9,0c12.5,0,25,0,37.5,0c0.3,0,0.6,0,0.9,0c1,0.1,1.8,1,1.8,1.9c0,1-0.7,1.8-1.7,1.9c-0.3,0-0.6,0-1,0
		C44.9,25.1,38.7,25.1,32.5,25.1"/>
	<path class="st1" d="M32.5,35.9c-6.2,0-12.4,0-18.7,0c-0.3,0-0.6,0-1,0c-1-0.1-1.8-1-1.7-2c0-1,0.8-1.8,1.7-1.9c0.3,0,0.6,0,0.9,0
		c12.5,0,25,0,37.5,0c0.3,0,0.6,0,0.9,0c1,0.1,1.7,0.9,1.8,1.9c0,1-0.7,1.8-1.7,2c-0.3,0-0.6,0-1,0C44.9,35.9,38.7,35.9,32.5,35.9"
		/>
	<path class="st1" d="M32.5,46.7c-6.2,0-12.4,0-18.7,0c-0.3,0-0.6,0-1,0c-1-0.1-1.8-0.9-1.8-1.9c0-1,0.7-1.8,1.7-1.9
		c0.3,0,0.6,0,0.9,0c12.5,0,25,0,37.5,0c0.3,0,0.6,0,0.9,0c1,0.1,1.8,1,1.8,1.9c0,1-0.7,1.8-1.7,1.9c-0.3,0-0.6,0-1,0
		C44.9,46.7,38.7,46.7,32.5,46.7"/>
	<path class="st1" d="M32.4,57.5c-6.3,0-12.6,0-18.9,0c-0.6,0-1.5-0.3-1.9-0.7c-0.4-0.4-0.5-1.3-0.3-1.8c0.2-0.5,1-0.9,1.5-1.3
		c0.2-0.1,0.6,0,0.9,0c12.5,0,24.9,0,37.4,0c0.2,0,0.4,0,0.6,0c1.2,0,2.1,0.8,2.1,1.9c0,1.1-0.8,1.9-2.1,1.9c-4,0-7.9,0-11.9,0H32.4
		z"/>
	<path class="st1" d="M32.5,68.3c-6.2,0-12.4,0-18.7,0c-0.3,0-0.6,0-1,0c-1-0.1-1.8-1-1.7-2c0-1,0.8-1.8,1.7-1.9c0.3,0,0.6,0,0.9,0
		c12.5,0,25,0,37.5,0c0.3,0,0.6,0,1,0c0.9,0.1,1.6,0.9,1.7,1.8c0,1-0.7,1.8-1.6,2c-0.3,0-0.6,0-1,0C45,68.3,38.7,68.3,32.5,68.3"/>
	<path class="st1" d="M34.4,6.4c0,1.1-0.9,1.9-2,1.9c-1,0-1.9-0.9-1.9-1.9c0-1.1,0.9-1.9,2-1.9C33.6,4.5,34.4,5.4,34.4,6.4"/>
</g>
</svg>
