<?xml version="1.0" encoding="utf-8"?>
<!-- Generator: Adobe Illustrator 23.0.5, SVG Export Plug-In . SVG Version: 6.00 Build 0)  -->
<svg version="1.1" id="Layer_1" xmlns="http://www.w3.org/2000/svg" xmlns:xlink="http://www.w3.org/1999/xlink" x="0px" y="0px"
	 viewBox="0 0 100 100" style="enable-background:new 0 0 100 100;" xml:space="preserve">
<style type="text/css">
	.st0{clip-path:url(#SVGID_2_);fill:#09518C;}
	.st1{clip-path:url(#SVGID_2_);fill:#EB494B;}
</style>
<g>
	<defs>
		<rect id="SVGID_1_" x="9" y="0.6" width="82" height="98.8"/>
	</defs>
	<clipPath id="SVGID_2_">
		<use xlink:href="#SVGID_1_"  style="overflow:visible;"/>
	</clipPath>
	<path class="st0" d="M86.2,0.6c1.1,0.6,2.3,1.1,3.2,1.8C90.7,3.6,91,5.3,91,7c0,23,0,46,0,69c0,5.7,0,11.3,0,17
		c0,4-2.4,6.4-6.4,6.4c-23,0-46.1,0-69.1,0C11.4,99.4,9,97,9,93c0-16.8,0-33.5,0-50.3c0-0.4,0-0.8,0.1-1.2c0.2-0.9,1-1.4,1.8-1.4
		c0.9,0,1.6,0.6,1.8,1.5c0.1,0.4,0.1,0.9,0.1,1.3c0,16.6,0,33.2,0,49.9c0,2.2,0.6,2.8,2.8,2.8h68.6c2.2,0,2.8-0.6,2.8-2.8V7.3
		c0-2.2-0.6-2.8-2.8-2.8c-12.4,0-24.8,0-37.2,0c-0.3,0-0.6,0-0.9,0c-1.1,0-1.8-0.6-2-1.5c-0.2-0.9,0.1-1.6,1.1-2.2
		c0.1,0,0.1-0.1,0.2-0.2H86.2z"/>
	<path class="st1" d="M26.6,0.6c1.7,0.5,3.5,0.9,5.1,1.6c6.4,2.9,9.9,9.8,8.8,16.9c-1,6.7-6.7,12.1-13.5,13
		c-8.6,1.1-16.7-4.9-17.8-13.2C8,9.9,13.8,2.1,22.6,0.8c0.2,0,0.4-0.1,0.5-0.2H26.6z M36.8,16.4c0-6.6-5.4-11.9-12-11.9
		c-6.6,0-12,5.4-11.9,12c0,6.6,5.4,11.9,12,11.9C31.5,28.4,36.9,23,36.8,16.4"/>
	<path class="st0" d="M33.3,48c2.4-4,5.7-6.7,9.8-8.3c-0.8-1.6-1.8-3-2.2-4.6c-1.1-4.4-0.3-8.7,3.3-11.6c5-4,12.8-1.6,14.7,4.4
		c1,3.4,1,6.7-0.9,9.9c-0.4,0.6-0.8,1.1-1.2,1.6c1.9,1.2,3.9,2.2,5.5,3.6c1.7,1.4,3,3.1,4.5,4.8c1.5-1.8,2.8-3.9,3.6-6.3
		c4.5-12.6-3-26.2-16.1-28.8c-2.2-0.4-4.5-0.2-6.7-0.3c-0.4,0-0.8,0.1-1.2,0.1c-1.1,0-1.9-0.7-2-1.7c-0.1-1,0.5-1.9,1.6-2.1
		c1.3-0.2,2.6-0.3,3.8-0.3c12.2-0.1,22.8,8.5,25.3,20.5c2.9,13.9-6.3,27.7-20.3,30.4c-14,2.7-27.5-6.5-30.2-20.5
		c-0.3-1.3,0.3-2.3,1.4-2.6c1.2-0.3,2.2,0.4,2.4,1.9c0.7,3.5,2.1,6.7,4.4,9.5C33,47.7,33.1,47.8,33.3,48 M36.2,50.8
		c7.7,6.6,19.9,6.6,27.6,0c-2.9-5.3-7.4-8.3-13.5-8.4C44,42.2,39.3,45.2,36.2,50.8 M44.4,31.8c0,0.4,0,0.7,0,1.1
		c0.1,3.1,2.6,5.5,5.6,5.5c3,0,5.5-2.4,5.6-5.5c0-0.8,0-1.6,0-2.4c-0.3-3.7-4-6.1-7.5-4.8C45.7,26.5,44.4,28.7,44.4,31.8"/>
	<path class="st0" d="M54.1,70.5c-4.3,0-8.7,0-13,0c-0.4,0-0.9,0-1.3-0.2c-0.8-0.3-1.2-0.9-1.2-1.8c0-0.8,0.4-1.5,1.2-1.8
		c0.4-0.1,0.9-0.2,1.3-0.2c8.7,0,17.4,0,26.1,0c0.4,0,0.7,0,1.1,0.1c0.9,0.2,1.5,0.9,1.5,1.9c0,0.9-0.6,1.6-1.5,1.8
		c-0.3,0.1-0.7,0.1-1.1,0.1C62.8,70.5,58.5,70.5,54.1,70.5"/>
	<path class="st0" d="M54.1,81.3c-4.3,0-8.7,0-13,0c-0.4,0-0.9,0-1.3-0.2c-0.8-0.3-1.2-0.9-1.2-1.8c0-0.8,0.4-1.5,1.2-1.8
		c0.4-0.1,0.9-0.2,1.3-0.2c8.7,0,17.4,0,26.1,0c0.4,0,0.7,0,1.1,0.1c0.9,0.2,1.5,0.9,1.5,1.9c0,0.9-0.6,1.6-1.5,1.8
		c-0.3,0.1-0.7,0.1-1.1,0.1C62.8,81.3,58.5,81.3,54.1,81.3"/>
	<path class="st0" d="M32.2,66.6c1,0,1.9,0.9,1.9,1.9c0,1-0.9,1.9-1.9,1.9c-1,0-1.9-0.9-1.9-1.9C30.3,67.5,31.1,66.6,32.2,66.6"/>
	<path class="st0" d="M34,79.4c0,1-0.9,1.9-1.9,1.9c-1,0-1.9-0.9-1.8-2c0-1,0.9-1.9,1.9-1.9C33.2,77.4,34.1,78.3,34,79.4"/>
	<path class="st0" d="M12.9,34.7c0,1-0.9,1.9-1.9,1.9c-1,0-1.9-0.9-1.9-1.9c0-1,0.9-1.9,1.9-1.9C11.9,32.8,12.8,33.7,12.9,34.7"/>
	<path class="st1" d="M22.7,18.1c2-2,3.9-3.9,5.8-5.7c0.3-0.3,0.6-0.6,0.9-0.8c0.8-0.5,1.8-0.4,2.4,0.3c0.6,0.6,0.7,1.6,0.2,2.3
		c-0.2,0.3-0.4,0.6-0.7,0.8c-2.3,2.3-4.5,4.5-6.8,6.8c-1.4,1.4-2.3,1.4-3.6,0c-1-1-1.9-1.9-2.9-2.9c-0.9-1-1-2.1-0.2-2.9
		c0.8-0.8,1.9-0.8,2.9,0.2C21.4,16.7,22,17.4,22.7,18.1"/>
</g>
</svg>
