<?xml version="1.0" encoding="utf-8"?>
<!-- Generator: Adobe Illustrator 25.2.0, SVG Export Plug-In . SVG Version: 6.00 Build 0)  -->
<svg version="1.1" id="Layer_1" xmlns="http://www.w3.org/2000/svg" xmlns:xlink="http://www.w3.org/1999/xlink" x="0px" y="0px"
	 viewBox="0 0 660 660" style="enable-background:new 0 0 660 660;" xml:space="preserve">
<style type="text/css">
	.st0{fill:#349934;}
	.st1{fill:#FFFFFF;}
</style>
<g>
	<path class="st0" d="M378.2,630.8c-12.7,0-23.5-8.5-33-16c-4.3-3.4-12.3-9.7-15.3-9.9c-2.9,0.2-10.9,6.5-15.2,9.9
		c-9.5,7.5-20.3,16-33,16c-1.6,0-3.2-0.1-4.7-0.4c-15-2.6-23.4-16.1-30.8-28c-2.7-4.4-7.8-12.6-10.4-14c-0.1,0-0.4-0.1-0.9-0.1
		c-3.9,0-10.6,2.2-16.5,4.1c-8.4,2.7-17,5.5-25.6,5.5c-5.8,0-11-1.3-15.5-3.9c-13.1-7.6-16.3-23-19.2-36.6
		c-1.1-5.1-3.1-14.7-5.1-16.9c-2.5-1.6-12.3-1.9-17.6-2.1c-13.9-0.5-29.6-1-39.3-12.5s-7.5-27.1-5.5-40.8c0.7-5.3,2.1-15,1-17.7
		c-1.8-2.3-10.8-5.9-15.7-7.9c-12.9-5.2-27.6-11.1-32.8-25.3c-5.1-14,2.3-27.8,8.8-40c2.5-4.7,7.2-13.5,7-16.5
		c-0.9-2.8-8-9.1-11.9-12.6c-10.4-9.4-22.3-20-22.3-35.3s11.8-25.9,22.3-35.3c3.8-3.4,11-9.8,11.9-12.6c0.2-2.9-4.5-11.7-7-16.5
		c-6.5-12.2-13.9-26-8.8-40c5.2-14.3,19.9-20.1,32.8-25.3c4.9-1.9,13.9-5.6,15.7-7.9c1.2-2.7-0.2-12.5-1-17.7
		c-1.9-13.7-4.1-29.3,5.5-40.8c9.7-11.5,25.4-12.1,39.3-12.5c5.3-0.2,15.1-0.5,17.6-2.1c2-2.2,4-11.7,5.1-16.9
		c2.9-13.6,6.1-29.1,19.2-36.6c4.5-2.6,9.7-3.9,15.5-3.9c8.6,0,17.2,2.8,25.6,5.5c5.9,1.9,12.6,4.1,16.5,4.1c0.5,0,0.8,0,0.9-0.1
		c2.6-1.4,7.6-9.6,10.4-14c7.4-11.9,15.8-25.3,30.8-28c1.5-0.3,3.1-0.4,4.7-0.4c12.7,0,23.5,8.5,33,16c4.3,3.4,12.3,9.7,15.3,9.9
		c2.9-0.2,10.9-6.5,15.2-9.9c9.5-7.5,20.3-16,33-16c1.6,0,3.2,0.1,4.7,0.4c15,2.6,23.4,16.1,30.8,28c2.7,4.4,7.8,12.6,10.4,14
		c0.1,0,0.4,0.1,0.9,0.1c3.9,0,10.6-2.2,16.5-4.1c8.4-2.7,17-5.5,25.6-5.5c5.8,0,11,1.3,15.5,3.9c13.1,7.6,16.3,23,19.2,36.6
		c1.1,5.1,3.1,14.7,5.1,16.9c2.5,1.6,12.3,1.9,17.6,2.1c13.9,0.5,29.6,1,39.3,12.5c9.7,11.5,7.5,27.1,5.5,40.8
		c-0.7,5.3-2.1,15-1,17.7c1.8,2.3,10.8,5.9,15.7,7.9c12.9,5.2,27.6,11.1,32.8,25.3c5.1,14-2.3,27.8-8.8,40c-2.5,4.7-7.2,13.5-7,16.5
		c0.9,2.8,8,9.1,11.9,12.6c10.4,9.4,22.3,20,22.3,35.3s-11.8,25.9-22.3,35.3c-3.8,3.4-11,9.8-11.9,12.6c-0.2,2.9,4.5,11.7,7,16.5
		c6.5,12.2,13.9,26,8.8,40c-5.2,14.3-19.9,20.1-32.8,25.3c-4.9,1.9-13.9,5.6-15.7,7.9c-1.2,2.7,0.2,12.5,1,17.7
		c1.9,13.7,4.1,29.3-5.5,40.8c-9.7,11.5-25.4,12.1-39.3,12.5c-5.3,0.2-15.1,0.5-17.6,2.1c-2,2.2-4,11.7-5.1,16.9
		c-2.9,13.6-6.1,29.1-19.2,36.6c-4.5,2.6-9.7,3.9-15.5,3.9l0,0c-8.6,0-17.2-2.8-25.6-5.5c-5.9-1.9-12.6-4.1-16.5-4.1
		c-0.5,0-0.8,0-0.9,0.1c-2.6,1.4-7.7,9.6-10.4,14c-7.4,11.9-15.8,25.3-30.8,28C381.4,630.7,379.8,630.8,378.2,630.8z M216.1,317.5
		c-0.4,0-0.7,0-1.1,0c-5.7,0.5-9.2,3.1-11,8.2c-1.9,5.3-0.9,9.6,3.5,13.7c15.3,14.6,30.5,29.2,45.8,43.8l22.4,21.5
		c2.3,2.2,4.6,4.4,7,6.7c2.8,2.7,6.1,4.1,9.3,4.1c3.3,0,6.5-1.4,9.3-4.1c15.9-15.2,31.8-30.4,47.7-45.6l45.5-43.5
		c19.5-18.7,39.1-37.3,58.6-56c3.2-3.1,4.4-6.5,3.8-10.7c-0.8-5.2-3.4-8.5-8.3-10.1c-1.5-0.5-3-0.8-4.4-0.8c-3.1,0-5.9,1.3-8.7,3.9
		c-30.2,28.8-60.3,57.6-90.5,86.5l-33.3,31.8L292,385.7l-29.4-28.1c-12.7-12.1-25.3-24.2-38-36.3C222,318.7,219.2,317.5,216.1,317.5
		z"/>
	<path class="st1" d="M281.8,44.2c15.1,0,32.7,25.8,48.2,25.8s33.1-25.8,48.2-25.8c0.7,0,1.4,0.1,2.1,0.2
		c16,2.8,23.7,35.8,38.6,41.3c1.9,0.7,3.9,1,6.1,1c12.6,0,29.6-9.6,42.1-9.6c2.9,0,5.6,0.5,8,1.9c13.9,8,9.9,41.7,22.1,52
		c12.3,10.3,44.7,0.5,55,12.8c10.3,12.2-5,42.5,3.1,56.4c8,13.8,41.9,15.6,47.4,30.8c5.4,14.9-19.3,38.1-16.5,54
		c2.7,15.5,33.9,28.9,33.9,45.2s-31.2,29.7-33.9,45.2c-2.8,16,21.9,39.2,16.5,54c-5.5,15.1-39.4,17-47.4,30.8
		c-8,13.9,7.2,44.2-3.1,56.4c-10.3,12.3-42.8,2.5-55,12.8s-8.2,44-22.1,52c-2.3,1.3-5,1.9-8,1.9c-12.5,0-29.5-9.6-42.1-9.6
		c-2.2,0-4.2,0.3-6.1,1c-14.9,5.4-22.6,38.5-38.6,41.3c-0.7,0.1-1.4,0.2-2.1,0.2c-15.1,0-32.7-25.8-48.2-25.8s-33.1,25.8-48.2,25.8
		c-0.7,0-1.4-0.1-2.1-0.2c-16-2.8-23.7-35.8-38.6-41.3c-1.9-0.7-3.9-1-6.1-1c-12.6,0-29.6,9.6-42.1,9.6c-2.9,0-5.6-0.5-8-1.9
		c-13.9-8-9.9-41.7-22.1-52c-12.3-10.3-44.7-0.5-55-12.8c-10.3-12.2,5-42.5-3.1-56.4c-8-13.8-41.9-15.6-47.4-30.8
		c-5.4-14.9,19.3-38.1,16.5-54c-2.7-15.5-33.9-28.9-33.9-45.2s31.2-29.7,33.9-45.2c2.8-16-21.9-39.2-16.5-54
		c5.5-15.1,39.4-17,47.4-30.8c8-13.9-7.2-44.2,3.1-56.4c10.3-12.3,42.8-2.5,55-12.8s8.2-44,22.1-52c2.3-1.3,5-1.9,8-1.9
		c12.5,0,29.5,9.6,42.1,9.6c2.2,0,4.2-0.3,6.1-1c14.9-5.4,22.6-38.5,38.6-41.3C280.4,44.2,281.1,44.2,281.8,44.2 M291.9,364.8
		l-18.2-17.4c-12.9-12.4-25.9-24.7-38.8-37.1c-5.4-5.1-11.9-7.8-18.9-7.8c-0.8,0-1.6,0-2.4,0.1c-11.5,1-20,7.4-23.8,18
		c-4,10.9-1.4,21.4,7.2,29.7c15.3,14.6,30.5,29.2,45.8,43.8l22.4,21.5c2.3,2.2,4.7,4.5,7,6.7c5.8,5.5,12.7,8.3,19.7,8.3l0,0
		c7,0,13.9-2.8,19.7-8.3c15.9-15.2,31.8-30.4,47.7-45.6l45.2-43.2c19.6-18.8,39.3-37.5,58.9-56.3c6.7-6.4,9.6-14.6,8.2-23.7
		c-1.6-10.8-8.1-18.7-18.3-22.2c-3.1-1.1-6.2-1.6-9.3-1.6c-6.9,0-13.5,2.7-19,8c-30.2,28.8-60.3,57.6-90.5,86.5L301.2,356
		L291.9,364.8 M281.8,14.2L281.8,14.2c-2.5,0-4.9,0.2-7.3,0.6c-21.6,3.8-32.8,21.7-40.9,34.8c-1.1,1.7-2.4,3.8-3.6,5.7
		c-2.3-0.7-4.8-1.5-6.8-2.1c-9-2.9-19.3-6.3-30.2-6.3c-8.5,0-16.2,2-23,5.9c-18.9,10.9-23.2,31.5-26.3,46.5c-0.4,2-0.9,4.5-1.5,6.8
		c-2.3,0.1-4.9,0.2-7,0.3c-15.3,0.5-36.3,1.2-50.3,17.9c-14,16.6-11,37.4-8.9,52.6c0.3,2.1,0.7,4.6,0.9,7c-2.1,0.9-4.5,1.9-6.3,2.6
		c-14.3,5.7-33.8,13.6-41.3,34.1c-7.4,20.3,2.4,38.8,9.6,52.2c1,1.9,2.2,4.2,3.3,6.3c-1.6,1.5-3.5,3.2-4.9,4.5
		C25.7,293.9,10,308,10,330s15.7,36.1,27.2,46.4c1.5,1.3,3.3,3,4.9,4.5c-1.1,2.1-2.3,4.5-3.3,6.3c-7.2,13.5-17,31.9-9.6,52.2
		c7.5,20.6,27,28.4,41.3,34.1c1.9,0.8,4.2,1.7,6.3,2.6c-0.3,2.3-0.6,4.9-0.9,7c-2.1,15.2-5.1,35.9,8.9,52.6s35,17.4,50.3,17.9
		c2.1,0.1,4.6,0.2,7,0.3c0.5,2.2,1.1,4.8,1.5,6.8c3.1,15,7.5,35.6,26.3,46.5c6.8,3.9,14.5,5.9,23,5.9c11,0,21.2-3.3,30.2-6.3
		c2-0.6,4.5-1.5,6.8-2.1c1.3,1.9,2.6,4,3.6,5.7c8.1,13.1,19.3,31,40.9,34.8c2.4,0.4,4.9,0.6,7.3,0.6c17.8,0,31.4-10.6,42.2-19.2
		c1.7-1.4,4-3.1,6-4.6c2,1.5,4.2,3.2,6,4.6c10.9,8.5,24.4,19.2,42.2,19.2c2.5,0,4.9-0.2,7.3-0.6c21.6-3.8,32.8-21.7,40.9-34.8
		c1.1-1.7,2.4-3.8,3.6-5.7c2.3,0.7,4.8,1.5,6.8,2.1c9,2.9,19.3,6.3,30.2,6.3c8.5,0,16.2-2,23-5.9c18.9-10.9,23.2-31.5,26.3-46.5
		c0.4-2,0.9-4.5,1.5-6.8c2.3-0.1,4.9-0.2,7-0.3c15.3-0.5,36.3-1.2,50.3-17.9c14-16.6,11-37.4,8.9-52.6c-0.3-2.1-0.7-4.6-0.9-7
		c2.1-0.9,4.5-1.9,6.3-2.6c14.3-5.7,33.8-13.6,41.3-34.1c7.4-20.3-2.4-38.8-9.6-52.2c-1-1.9-2.2-4.2-3.3-6.3
		c1.6-1.5,3.5-3.2,4.9-4.5C634.3,366.1,650,352,650,330s-15.7-36.1-27.2-46.4c-1.5-1.3-3.3-3-4.9-4.5c1.1-2.1,2.3-4.5,3.3-6.3
		c7.2-13.5,17-31.9,9.6-52.2c-7.5-20.6-27-28.4-41.3-34.1c-1.9-0.8-4.2-1.7-6.3-2.6c0.3-2.3,0.6-4.9,0.9-7
		c2.1-15.2,5.1-35.9-8.9-52.6s-35-17.4-50.3-17.9c-2.1-0.1-4.6-0.2-7-0.3c-0.5-2.2-1.1-4.8-1.5-6.8c-3.1-15-7.5-35.6-26.3-46.5
		c-6.8-3.9-14.5-5.9-23-5.9c-11,0-21.2,3.3-30.2,6.3c-2,0.6-4.5,1.5-6.8,2.1c-1.3-1.9-2.6-4-3.6-5.7c-8.1-13.1-19.3-31-40.9-34.8
		c-2.4-0.4-4.9-0.6-7.3-0.6l0,0c-17.8,0-31.4,10.6-42.2,19.2c-1.7,1.4-4,3.1-6,4.6c-2-1.5-4.2-3.2-6-4.6
		C313.2,24.8,299.6,14.2,281.8,14.2L281.8,14.2z"/>
</g>
</svg>
