<?xml version="1.0" encoding="utf-8"?>
<!-- Generator: Adobe Illustrator 23.0.5, SVG Export Plug-In . SVG Version: 6.00 Build 0)  -->
<svg version="1.1" id="Layer_1" xmlns="http://www.w3.org/2000/svg" xmlns:xlink="http://www.w3.org/1999/xlink" x="0px" y="0px"
	 viewBox="0 0 100 100" style="enable-background:new 0 0 100 100;" xml:space="preserve">
<style type="text/css">
	.st0{clip-path:url(#SVGID_2_);fill:#09518C;}
	.st1{clip-path:url(#SVGID_2_);fill:#EB494B;}
	.st2{clip-path:url(#SVGID_2_);fill:none;stroke:#FFFFFF;stroke-miterlimit:10;}
</style>
<g>
	<defs>
		<rect id="SVGID_1_" x="1.3" y="0.3" width="97.4" height="99.5"/>
	</defs>
	<clipPath id="SVGID_2_">
		<use xlink:href="#SVGID_1_"  style="overflow:visible;"/>
	</clipPath>
	<path class="st0" d="M81.1,4.6c0-2.8-1.5-4.3-4.3-4.3H31c-0.3,0-0.6,0-0.9,0c-0.8,0.1-1.3,0.6-1.3,1.4c0,0.8,0.4,1.3,1.3,1.4
		c0.3,0.1,0.7,0,1.1,0h45.5c1.4,0,1.6,0.2,1.6,1.6v13.4H4.3c0-0.2-0.1-0.2-0.1-0.3c0-4.5,0-9,0-13.5c0-0.8,0.4-1.1,1.2-1.1
		c1.8,0,3.7,0,5.5,0c4.1,0,8.1,0,12.2,0c1.1,0,1.8-0.7,1.7-1.6c-0.1-0.8-0.7-1.3-1.7-1.3c-5.8,0-11.7,0-17.5,0
		c-2.9,0-4.3,1.4-4.3,4.3c0,27,0,54,0,81.1c0,2.9,1.5,4.3,4.4,4.3c13.6,0,27.3,0,40.9,0c0.3,0,0.6,0,0.9,0c0.8-0.1,1.4-0.7,1.3-1.5
		c0-0.8-0.5-1.3-1.3-1.4c-0.3,0-0.7,0-1.1,0c-7.9,0-15.7,0-23.6,0h-1.3c0.3-0.4,0.5-0.5,0.6-0.6c11.6-12.1,23.1-24.2,34.7-36.3
		c1.4-1.5,3.1-2.2,5.2-2.2c5.1,0,10.3,0,15.4,0c0.3,0,0.6,0,0.8,0.1v6.5l3-0.2v-1C81.1,37,81.1,20.8,81.1,4.6 M61.9,44.9
		c-3-0.1-5.4,1-7.4,3.2c-4.7,4.9-9.4,9.8-14,14.7c-0.2,0.3-0.5,0.5-0.8,0.9c-1.6-1.3-3.2-2.6-4.7-3.8c-0.1-0.1-0.1-0.3-0.1-0.5
		c-0.2,0.8-0.7,2-1.4,3.1c1.3,1.1,2.7,2.2,4.1,3.3c-0.2,0.3-0.4,0.5-0.6,0.7c-6.3,6.6-12.6,13.2-18.9,19.9c-0.5,0.5-1,0.7-1.7,0.7
		c-3.6,0-7.2,0-10.8,0c-1.1,0-1.3-0.2-1.3-1.4c0-15.4,0-30.9,0-46.3v-0.9c2.9,2.4,5.7,4.7,8.5,6.9c0,0,0,0,0,0c0,0-0.1,0.1-0.1,0.1
		c0.9-0.6,2.1-1.3,3.1-1.9c-0.3,0-0.5,0-0.8-0.3c-3.4-2.8-6.7-5.5-10.1-8.3c-0.3-0.2-0.5-0.6-0.5-0.9c0-4.3,0-8.6,0-13h1.1
		c16.8,0,33.6,0,50.4,0c0.8,0,1.2,0.3,1.5,1c3.2,7.3,6.3,14.6,9.5,21.8c0.1,0.3,0.2,0.6,0.4,1C65.3,44.9,63.6,45,61.9,44.9
		 M78.1,44.9c-0.2,0-0.4,0.1-0.6,0.1c-2.2,0-4.3,0-6.5,0c-0.3,0-0.8-0.3-0.9-0.5c-3.3-7.6-6.6-15.2-10-22.8c0-0.1-0.1-0.2-0.1-0.4
		h18.1V44.9z"/>
	<path class="st0" d="M13.6,15c-1.2,0-2.3,0-3.5,0c-1,0-1.6-0.6-1.6-1.5c0-0.9,0.6-1.4,1.6-1.4c2.4,0,4.8,0,7.1,0
		c1,0,1.6,0.6,1.6,1.4c0,0.9-0.6,1.5-1.6,1.5C15.9,15,14.8,15,13.6,15"/>
	<path class="st0" d="M13.5,9.1c-1.2,0-2.3,0-3.5,0c-1,0-1.6-0.6-1.6-1.4C8.5,6.8,9,6.3,10,6.2c2.4,0,4.8,0,7.2,0
		c1,0,1.5,0.6,1.5,1.5c0,0.9-0.6,1.4-1.6,1.4C16,9.2,14.7,9.1,13.5,9.1"/>
	<path class="st0" d="M55,37.5c-0.2-2-1.2-3.3-3.4-3.7c0-0.8,0-1.6,0-2.4c0-3.1-1.7-5.3-4.7-6c-2.6-0.6-5.1-1.2-7.7-1.8
		c-3.6-0.9-6.5,1.4-6.5,5.1c0,1.7,0,3.4,0,5.1c-1.8,0.3-2.8,1.3-3.2,3c-0.6,2.3,0.6,4.9,2.6,6.1c0.4,0.2,0.7,0.6,0.8,1
		c0.8,2.7,3.1,4.8,5.9,4.9c2.2,0.1,4.5,0.1,6.8,0c2.8-0.2,5.1-2.1,5.8-4.8c0.2-0.6,0.5-0.9,1-1.3C54.3,41.6,55.2,39.8,55,37.5
		 M35.6,28.3c0.1-1.5,1.2-2.3,2.6-1.9c2.8,0.6,5.5,1.3,8.2,2c1.1,0.3,1.8,0.9,2.1,2.1H35.6C35.6,29.8,35.6,29.1,35.6,28.3
		 M50.1,40.4c-0.9,0.2-1.3,0.7-1.4,1.6c-0.2,2.5-1.7,3.9-4.2,3.9c-0.8,0-1.5,0-2.3,0c-0.8,0-1.7,0-2.5,0c-2.3,0-3.8-1.3-4.1-3.6
		c-0.2-1.5-0.3-1.6-1.7-1.9c-1.1-0.3-2-1.9-1.6-3c0.2-0.5,0.5-0.7,1-0.5c1.5,0.5,2.2-0.1,2.2-1.7c0-1.6,0.1-1.8,1.7-1.8
		c3.2-0.1,6.5-0.1,9.8,0c1.6,0,1.7,0.2,1.7,1.8c0,1.6,0.7,2.2,2.2,1.7c0.7-0.2,1,0.1,1.1,0.7C52.3,38.9,51.4,40.2,50.1,40.4"/>
	<path class="st1" d="M72.9,89.5c-2.4,0-4.3-0.9-5.8-2.7c-0.7-0.8-0.7-1.6,0-2.2c0.7-0.6,1.5-0.4,2.2,0.3c2.2,2.3,5,2.3,7.2,0
		c0.7-0.7,1.6-0.9,2.2-0.3c0.7,0.6,0.7,1.4,0,2.2C77.4,88.5,75.2,89.5,72.9,89.5"/>
	<path class="st1" d="M83,77.9c0,1.5-1.2,2.6-2.7,2.6c-1.5,0-2.6-1.2-2.6-2.7c0-1.4,1.2-2.6,2.6-2.6C81.8,75.2,83,76.4,83,77.9"/>
	<path class="st1" d="M63.2,77.9c0-1.5,1.2-2.6,2.7-2.6c1.5,0,2.7,1.2,2.6,2.7c0,1.5-1.2,2.6-2.7,2.6C64.3,80.6,63.2,79.4,63.2,77.9
		"/>
	<path class="st1" d="M24,62.3c-0.2,1.2-1.1,2-2.4,2.1c-1.2,0.1-2.3-0.7-2.8-2.1H24z"/>
	<path class="st1" d="M25.2,56.9c0.7,0,1.4,0.6,1.4,1.3c0,0.7-0.6,1.4-1.4,1.4c-0.7,0-1.4-0.7-1.4-1.4
		C23.9,57.5,24.5,56.9,25.2,56.9"/>
	<path class="st1" d="M19.1,58.3c0,0.7-0.6,1.3-1.3,1.3c-0.8,0-1.4-0.7-1.4-1.4c0-0.8,0.7-1.4,1.4-1.3
		C18.6,56.9,19.2,57.5,19.1,58.3"/>
	<path class="st0" d="M39.5,41.2h5.1c-0.1,1.2-1,2-2.3,2.2C41.4,43.5,39.6,42.7,39.5,41.2"/>
	<path class="st0" d="M39.9,37.2c0,0.8-0.6,1.4-1.4,1.4c-0.7,0-1.3-0.6-1.3-1.3c0-0.8,0.6-1.4,1.4-1.4
		C39.3,35.8,39.9,36.4,39.9,37.2"/>
	<path class="st0" d="M47.4,37.2c0,0.7-0.7,1.4-1.4,1.4c-0.7,0-1.3-0.6-1.3-1.3c0-0.7,0.6-1.3,1.3-1.4
		C46.7,35.8,47.3,36.4,47.4,37.2"/>
	<path class="st2" d="M17.7,42.6c-0.4,0.1-1.1,0.5-2,1c-1,0.6-2.2,1.3-3.1,1.9c-1.9,0.9-1.4,0.9-1.4,0.9"/>
	<path class="st1" d="M24.4,41.5c-2.9-0.7-5.8-0.4-8.6,0.8c-0.2,0.1-0.5,0.2-0.6,0.2c-1.1,0.6-2.1,1.3-2.9,1.8c0,0,0,0,0,0
		c-0.8,0.9-1.7,1.7-2.4,2.7c-2.6,3.6-3.5,7.6-2.3,12c0.6,2.2,1.9,3.8,3.7,5.2c0.3,0.2,0.6,0.6,0.8,1c1.3,2.8,3.4,4.4,6.6,4.5
		c1.8,0.1,3.6,0,5.4,0c2.8-0.1,4.8-1.6,6.2-4c0.4-0.7,0.9-1.2,1.5-1.8c0.6-0.6,1.3-1.2,2-2c0,0,0,0,0,0l1.4-3.2c0-0.1,0-0.2,0-0.3
		C36.8,50.5,32.2,43.3,24.4,41.5 M28.1,62.2c-0.1,2.5-2,4.3-4.4,4.3c-1.6,0-3.1,0-4.7,0c-2.5,0-4.3-1.7-4.4-4.2
		c-0.1-2.1-0.1-4.1,0-6.2c0.1-2.1,1.5-3.4,3.6-3.5c1.1,0,2.1,0,3.2,0c1.1,0,2.1,0,3.2,0c2.1,0.1,3.5,1.4,3.6,3.5
		C28.1,58.2,28.1,60.2,28.1,62.2 M31.1,60c0-1.4,0-2.5,0-3.7c0-3.5-2.2-6.3-5.7-6.6c-2.8-0.3-5.7-0.2-8.5,0.1
		c-3,0.3-5.2,3.1-5.3,6.1c0,1.3,0,2.6,0,4c-2.1-2.1-2.2-8.4,1.8-12.4c4.2-4.2,10.9-4.4,15.4-0.4C32.6,50.4,33.8,56.6,31.1,60
		 M98.7,78.1c-0.3-2.9-2.3-5.1-5.1-5.6c-0.5-0.1-1-0.1-1.6-0.1v-7.7c0-3.8-1.4-6.9-4.5-9.1c-1.4-1-3-1.5-4.7-2.4l-2.7,0.2h-1.5
		c-3.6,0-7.2,0-10.9,0c-4.5,0-8.6,2.8-10.1,7.1c-0.5,1.3-0.7,2.8-0.7,4.3c-0.1,2.5,0,5,0,7.6c-3-0.1-5,1.1-6.1,3.8
		c-1.9,4.6,0.8,10.5,5.5,12.1c0.3,0.1,0.8,0.6,0.8,0.9c0.6,4.1,2.7,7.1,6.3,9c1.3,0.7,2.7,1,4.1,1.5h14.2c0,0,0.1-0.1,0.1-0.1
		c5.8-1.2,9.2-4.7,10.2-10.6c0-0.2,0.3-0.5,0.5-0.6C96.8,86.7,99.1,82.8,98.7,78.1 M92.7,85c-0.5,0.4-1.2,0.6-1.8,0.6
		c-1.4,0.1-1.9,0.6-1.9,2.1c-0.1,4.3-2.8,7.8-7,8.8c-0.7,0.2-1.5,0.3-2.3,0.3c-3.5,0-7,0-10.5,0c-4.6-0.1-8.1-2.9-9.1-7.3
		c-0.1-0.7-0.1-1.4-0.2-2.1c-0.1-1.2-0.6-1.7-1.8-1.8c-0.5,0-1.1-0.2-1.6-0.4c-2.5-1.3-4-4.9-3.1-7.5c0.6-1.9,2.1-2.5,3.9-1.8
		c1.7,0.7,2.6,0.1,2.6-1.8c0-1.1,0-2.3,0-3.4c0-0.6,0.2-1,0.8-1.1c1.7-0.4,3.4-0.8,5.1-1.1c1.2-0.2,1.9-0.6,1.9-1.6
		c0-1-0.8-1.6-2.1-1.4c-1.9,0.2-3.8,0.6-5.7,0.9c-1-4.7,2.1-9.3,7-9.7c5.1-0.3,10.2-0.2,15.3,0.1c3.6,0.2,6.5,3.7,6.6,7.4
		c0,0.8,0,1.5,0,2.4c-1.2-0.3-2.4-0.7-3.5-0.8c-2.7-0.2-5.4-0.2-8-0.3c-1.4,0-2.7,0-4.1,0c-1,0-1.6,0.7-1.6,1.5
		c0,0.8,0.7,1.5,1.7,1.5c3,0,6.1-0.1,9.1,0.1c2,0.1,3.9,0.7,5.8,1.1c0.6,0.1,0.7,0.4,0.7,1c0,1.3,0,2.6,0,3.9c0,1.4,1.1,2.1,2.3,1.5
		c2.2-1,4.1-0.1,4.4,2.7C95.9,81.3,94.9,83.5,92.7,85"/>
</g>
</svg>
