<?xml version="1.0" encoding="utf-8"?>
<!-- Generator: Adobe Illustrator 24.2.1, SVG Export Plug-In . SVG Version: 6.00 Build 0)  -->
<svg version="1.1" id="Layer_1" xmlns="http://www.w3.org/2000/svg" xmlns:xlink="http://www.w3.org/1999/xlink" x="0px" y="0px"
	 viewBox="0 0 60 60" style="enable-background:new 0 0 60 60;" xml:space="preserve">
<style type="text/css">
	.st0{fill:#09518C;}
	.st1{fill:#EB494B;}
</style>
<g>
	<path class="st0" d="M32,0.5c0.6,0.3,1.2,0.2,1.8,0.3C42.2,2.3,49.3,9,51.2,17.4c1.6,7.4-0.1,13.9-5.1,19.6
		c-0.3,0.3-0.2,0.5-0.1,0.8c2.7,4.6,5.3,9.2,8,13.8c0.1,0.2,0.3,0.4,0.3,0.7c0.1,0.6-0.4,1.1-1.1,0.9c-1.9-0.4-3.7-0.8-5.6-1.2
		c-0.5-0.1-1.1-0.4-1.5-0.2c-0.4,0.2-0.4,0.9-0.6,1.4c-0.6,1.8-1.1,3.6-1.7,5.4c-0.1,0.4-0.3,0.7-0.8,0.8c-0.5,0.1-0.8-0.2-1-0.6
		c-0.4-0.7-0.8-1.4-1.2-2.1c-0.3-0.6-0.2-1.1,0.3-1.3c0.5-0.3,0.9-0.1,1.2,0.5c0.1,0.2,0.2,0.4,0.4,0.5c0.5-1.5,1-3,1.4-4.5
		c0.1-0.4,0.3-0.8,0.4-1.3c0.2-0.7,0.6-0.9,1.3-0.7c1.8,0.4,3.5,0.8,5.3,1.2c0.2,0,0.3,0.1,0.5,0.1c0-0.2-0.1-0.4-0.2-0.5
		c-2.2-3.8-4.4-7.7-6.6-11.5c-0.2-0.4-0.3-0.5-0.7-0.1c-2.5,2.2-5.4,3.7-8.6,4.5c-0.1,0-0.1,0-0.3,0.1c0.8,1.5,1.7,2.9,2.5,4.3
		c0.8,1.3,1.5,2.7,2.3,4c0.1,0.2,0.3,0.5,0.3,0.8c-0.1,0.4-0.3,0.6-0.7,0.7c-0.5,0.1-0.8-0.1-1-0.5c-1-1.8-2.1-3.6-3.1-5.4
		c-0.6-1.1-1.2-2.1-1.8-3.2c-0.1-0.3-0.3-0.3-0.6-0.3c-2.1,0.3-4.1,0.3-6.2,0c-0.4-0.1-0.5,0.2-0.6,0.4c-2.7,4.8-5.5,9.5-8.2,14.3
		c0,0.1-0.1,0.1-0.1,0.2c-0.2,0.4-0.5,0.6-0.9,0.6c-0.5,0-0.7-0.3-0.8-0.8c-0.7-2.2-1.4-4.3-2.1-6.5c-0.1-0.3-0.2-0.5-0.6-0.4
		c-2.2,0.5-4.4,1-6.7,1.5c-0.4,0.1-0.8,0.1-1.1-0.3c-0.3-0.4-0.2-0.7,0-1.1c1.3-2.2,2.6-4.5,3.9-6.7c0.3-0.6,0.8-0.8,1.3-0.5
		c0.5,0.3,0.5,0.8,0.2,1.3c-0.9,1.5-1.7,3-2.6,4.5c-0.1,0.2-0.2,0.4-0.4,0.7c1.4-0.3,2.8-0.6,4.1-0.9c0.6-0.1,1.2-0.3,1.8-0.4
		c0.7-0.1,1.1,0,1.3,0.8c0.6,1.9,1.2,3.7,1.8,5.6c0.2,0,0.2-0.2,0.3-0.3c2.3-4,4.6-8,6.9-12c0.2-0.4,0.2-0.5-0.2-0.6
		c-3.2-0.9-6-2.4-8.4-4.5c-0.3-0.3-0.4-0.2-0.6,0.1c-0.6,1.1-1.2,2.2-1.9,3.2c-0.3,0.6-0.7,0.7-1.2,0.5c-0.5-0.3-0.6-0.7-0.3-1.3
		c0.7-1.2,1.4-2.4,2.1-3.6c0.2-0.3,0.2-0.5-0.1-0.8c-4-4.5-5.9-9.7-5.6-15.7c0.3-6.2,2.9-11.4,7.6-15.6c0.5-0.4,1-0.4,1.3,0
		c0.4,0.4,0.3,0.9-0.2,1.3c-2.7,2.3-4.7,5.2-5.9,8.6C7.1,26.9,14,39.4,25.7,42c11,2.4,21.8-4.7,24-15.7c2.2-10.8-4.9-21.5-15.8-23.6
		c-4.6-0.9-9-0.2-13.2,1.9c-0.1,0.1-0.2,0.1-0.3,0.2c-0.6,0.3-1,0.2-1.3-0.3c-0.2-0.5-0.1-0.9,0.5-1.2c1.9-1,3.9-1.7,5.9-2.2
		c0.8-0.2,1.6-0.2,2.4-0.5C29.3,0.5,30.6,0.5,32,0.5z"/>
	<path class="st0" d="M45.8,22.5c0,0.8-0.1,1.8-0.3,2.8c-0.1,0.7-0.5,1-1.1,0.9c-0.5-0.1-0.7-0.6-0.6-1.2c0.5-2.6,0.3-5.1-0.6-7.5
		c-2.2-6-8.2-9.8-14.5-9.2C21.3,9,15.6,15.4,15.9,22.9c0.3,6.7,5,12.2,11.7,13.4c5.7,1,11.7-1.8,14.6-6.8c0.1-0.2,0.2-0.4,0.4-0.6
		c0.3-0.4,0.7-0.6,1.1-0.3c0.4,0.2,0.6,0.7,0.4,1.2c-0.6,1.2-1.3,2.3-2.3,3.3c-4.3,4.6-9.7,6.3-15.8,4.7c-6.1-1.6-10-5.7-11.4-11.8
		c-2.1-8.7,3.5-17.3,12.3-19.1c8.3-1.7,16.7,3.7,18.5,12C45.7,19.9,45.8,21.1,45.8,22.5z"/>
	<path class="st1" d="M30,12.2c0.4,0,0.7,0.3,0.9,0.6c0.7,1.5,1.5,3,2.2,4.5c0.2,0.4,0.4,0.5,0.8,0.5c1.6,0.2,3.3,0.5,4.9,0.7
		c0.4,0.1,0.7,0.2,0.9,0.6c0.1,0.4-0.1,0.7-0.3,1c-1.2,1.2-2.4,2.4-3.6,3.5c-0.2,0.2-0.3,0.4-0.2,0.7c0.3,1.7,0.6,3.4,0.9,5
		c0.1,0.4,0,0.7-0.3,1c-0.3,0.3-0.7,0.2-1.1,0c-1.5-0.8-2.9-1.6-4.4-2.3c-0.3-0.2-0.6-0.2-0.9,0c-1.4,0.8-2.9,1.5-4.4,2.3
		c-0.4,0.2-0.7,0.3-1.1,0.1c-0.4-0.3-0.4-0.6-0.3-1.1c0.3-1.7,0.6-3.3,0.9-5c0.1-0.3,0-0.5-0.3-0.7c-1.2-1.2-2.4-2.3-3.6-3.5
		c-0.3-0.3-0.5-0.6-0.4-1.1c0.2-0.5,0.5-0.6,0.9-0.6c1.7-0.2,3.3-0.5,5-0.7c0.3,0,0.4-0.2,0.5-0.4c0.7-1.5,1.5-3.1,2.2-4.6
		C29.3,12.4,29.6,12.2,30,12.2z M34.3,28.2c-0.2-1.3-0.4-2.6-0.7-3.8c-0.1-0.6,0-1.1,0.5-1.5c0.9-0.9,1.8-1.9,2.6-2.8
		c-1.2-0.2-2.5-0.4-3.9-0.6c-0.5-0.1-0.8-0.3-1-0.7c-0.4-0.8-0.8-1.6-1.2-2.5c-0.2-0.4-0.4-0.8-0.6-1.3c-0.6,1.3-1.2,2.5-1.8,3.7
		c-0.2,0.5-0.5,0.7-1,0.8c-1.3,0.2-2.6,0.4-3.8,0.5c0.8,0.9,1.6,1.8,2.6,2.7c0.5,0.5,0.7,1,0.5,1.7c-0.3,1.2-0.4,2.5-0.7,3.8
		c1.2-0.6,2.4-1.2,3.5-1.9c0.5-0.3,0.9-0.3,1.4,0C31.9,26.9,33,27.5,34.3,28.2z"/>
</g>
</svg>
