<?xml version="1.0" encoding="utf-8"?>
<!-- Generator: Adobe Illustrator 23.0.5, SVG Export Plug-In . SVG Version: 6.00 Build 0)  -->
<svg version="1.1" id="Layer_1" xmlns="http://www.w3.org/2000/svg" xmlns:xlink="http://www.w3.org/1999/xlink" x="0px" y="0px"
	 viewBox="0 0 512 512" style="enable-background:new 0 0 512 512;" xml:space="preserve">
<style type="text/css">
	.st0{fill:#FFFFFF;}
</style>
<path class="st0" d="M341.9,238.37l-130-74c-6.19-3.52-13.79-3.49-19.95,0.09S182,174.63,182,181.75v148.01
	c0,7.12,3.79,13.71,9.95,17.29c6.16,3.58,13.76,3.62,19.95,0.09l130-74C355.29,265.65,355.29,245.84,341.9,238.37L341.9,238.37z
	 M222,295.35v-79.21l69.57,39.6L222,295.35z M504.31,149.49c-6.5-45.92-43.31-81.15-89.5-85.67c-36.49-3.57-93.66-7.83-158.81-7.83
	s-122.32,4.26-158.81,7.83c-46.2,4.52-83,39.75-89.5,85.67c-10.25,72.73-10.25,140.28,0,213.01c6.5,45.92,43.31,81.15,89.5,85.67
	C133.68,451.74,190.85,456,256,456s122.32-4.26,158.81-7.83c46.2-4.52,83-39.75,89.5-85.67
	C514.56,289.77,514.56,222.23,504.31,149.49L504.31,149.49z M464.71,356.9c-3.91,27.58-26.03,48.75-53.79,51.47
	c-35.61,3.49-91.38,7.64-154.91,7.64s-119.31-4.15-154.91-7.64c-27.77-2.72-49.89-23.88-53.79-51.47c-4.84-34.2-7.3-68.15-7.3-100.9
	s2.46-66.69,7.3-100.9c3.91-27.58,26.03-48.75,53.79-51.47c35.61-3.49,91.38-7.64,154.91-7.64s119.31,4.15,154.91,7.64
	c27.77,2.72,49.89,23.88,53.79,51.47C474.43,224.12,474.43,287.88,464.71,356.9L464.71,356.9z"/>
</svg>
