<?xml version="1.0" encoding="utf-8"?>
<!-- Generator: Adobe Illustrator 23.0.5, SVG Export Plug-In . SVG Version: 6.00 Build 0)  -->
<svg version="1.1" id="Layer_1" xmlns="http://www.w3.org/2000/svg" xmlns:xlink="http://www.w3.org/1999/xlink" x="0px" y="0px"
	 viewBox="0 0 512 512" style="enable-background:new 0 0 512 512;" xml:space="preserve">
<style type="text/css">
	.st0{fill:#FFFFFF;}
</style>
<g>
	<path class="st0" d="M79.59,73.06c3.37-17.62,11.98-37.32,29.37-37.33c13.76,0,27.52,0,41.28,0c19.01-0.01,26.74,18.7,30.98,37.65
		c2.37,0,4.89,0,7.4,0c80.4,0,160.8-0.04,241.21,0.02c36.99,0.02,66.96,22.64,75.57,57.29c1.59,6.4,2.17,13.21,2.18,19.83
		c0.14,82.76,0.18,165.52,0.06,248.28c-0.07,44.66-32.84,77.37-77.53,77.4c-115.98,0.09-231.97,0.08-347.95,0
		c-39.14-0.02-69.9-25.46-76.62-63.27c-0.92-5.18-0.93-10.57-0.93-15.86C4.55,315.7,5.24,234.3,4.29,152.93
		c-0.51-43.34,31.79-77.35,71.58-79.38C77.04,73.49,78.19,73.25,79.59,73.06z M256.3,123.82c0,0.01,0,0.02,0,0.03
		c-57.58,0-115.16,0-172.74,0c-18.92,0-28.8,9.78-28.81,28.58c-0.03,81.56-0.05,163.11-0.04,244.67c0,18.77,9.98,28.7,28.77,28.7
		c115.16,0,230.32-0.01,345.48-0.03c18.49,0,28.52-9.9,28.53-28.3c0.04-81.75,0.06-163.5,0.04-245.26
		c0-18.36-10.12-28.39-28.49-28.39C371.46,123.81,313.88,123.82,256.3,123.82z"/>
	<path class="st0" d="M256.38,174.22c55.84,0.17,100.62,45.33,100.31,101.15c-0.31,55.55-45.37,100.25-100.84,100.03
		c-55.85-0.22-100.62-45.36-100.31-101.16C155.85,218.68,200.85,174.05,256.38,174.22z M255.97,224.43
		c-27.61,0.14-50.22,22.82-50.23,50.37c-0.01,27.5,22.65,50.24,50.23,50.39c27.67,0.15,50.8-23.04,50.52-50.67
		C306.22,246.87,283.43,224.28,255.97,224.43z"/>
</g>
</svg>
