<?xml version="1.0" encoding="utf-8"?>
<!-- Generator: Adobe Illustrator 16.0.0, SVG Export Plug-In . SVG Version: 6.00 Build 0)  -->
<!DOCTYPE svg PUBLIC "-//W3C//DTD SVG 1.1//EN" "http://www.w3.org/Graphics/SVG/1.1/DTD/svg11.dtd">
<svg version="1.1" id="Layer_1" xmlns="http://www.w3.org/2000/svg" xmlns:xlink="http://www.w3.org/1999/xlink" x="0px" y="0px"
	 width="512px" height="512px" viewBox="0 0 512 512" enable-background="new 0 0 512 512" xml:space="preserve">
<path fill="#90070B" d="M399.285,95.703c-4.358,0-8.718,1.659-12.035,4.977c-3.215,3.214-4.985,7.489-4.985,12.035
	c0,4.547,1.771,8.821,4.985,12.036c6.637,6.636,17.433,6.637,24.07,0c3.215-3.214,4.985-7.488,4.985-12.036
	c0-4.546-1.771-8.82-4.985-12.035C408.003,97.362,403.644,95.703,399.285,95.703"/>
<path fill="#90070B" d="M446.567,0H278.376L0,278.376L233.624,512L512,233.625V65.433L446.567,0z M113.272,292.535l147.254-147.254
	l21.237,21.238L134.511,313.773L113.272,292.535z M155.75,335.012l90.618-90.618l21.238,21.238l-90.618,90.618L155.75,335.012z
	 M219.465,398.728l-21.239-21.238l118.936-118.936l21.239,21.238L219.465,398.728z M432.559,145.989
	c-9.174,9.173-21.224,13.76-33.273,13.76s-24.102-4.587-33.273-13.76c-8.888-8.887-13.783-20.705-13.783-33.274
	s4.895-24.386,13.783-33.273c18.346-18.347,48.199-18.348,66.547,0c8.889,8.887,13.784,20.704,13.784,33.273
	S441.446,137.102,432.559,145.989"/>
<rect fill="none" width="512" height="512"/>
</svg>
