<?xml version="1.0" encoding="iso-8859-1"?>
<!-- Generator: Adobe Illustrator 23.0.5, SVG Export Plug-In . SVG Version: 6.00 Build 0)  -->
<svg version="1.1" id="Layer_1" xmlns="http://www.w3.org/2000/svg" xmlns:xlink="http://www.w3.org/1999/xlink" x="0px" y="0px"
	 viewBox="0 0 450 450" style="enable-background:new 0 0 450 450;" xml:space="preserve">
<path style="fill:#991B1F;stroke:#09518C;stroke-width:25;stroke-linecap:round;stroke-linejoin:round;stroke-miterlimit:10;" d="
	M425,159.808c0,9.192-1.128,18.115-3.256,26.654c0,0.013,0,0.013,0,0.026c-6.244,62.038-198.026,213.961-198.026,213.961
	s-8.897-8.59-104.833-88.679C68.346,269.564,45,231.013,34.218,203.987c-3.923-9.846-6.179-18.167-7.474-24.577
	c-0.038-0.192-0.077-0.372-0.103-0.551c-0.808-4.628-1.321-9.359-1.526-14.167c-0.077-1.615-0.115-3.244-0.115-4.885
	C25,98.91,74.359,49.551,135.256,49.551c37,0,69.744,18.231,89.744,46.192c20-27.962,52.744-46.192,89.744-46.192
	C375.628,49.551,425,98.91,425,159.808z"/>
<path style="fill:none;stroke:#09518C;stroke-width:25;stroke-linecap:round;stroke-linejoin:round;stroke-miterlimit:10;" d="
	M301.294,98.412c0,0,55.765-4.235,75.529,46.588"/>
<g>
</g>
<g>
</g>
<g>
</g>
<g>
</g>
<g>
</g>
<g>
</g>
<g>
</g>
<g>
</g>
<g>
</g>
<g>
</g>
<g>
</g>
</svg>
