<?xml version="1.0" encoding="utf-8"?>
<!-- Generator: Adobe Illustrator 23.0.5, SVG Export Plug-In . SVG Version: 6.00 Build 0)  -->
<svg version="1.1" id="Layer_1" xmlns="http://www.w3.org/2000/svg" xmlns:xlink="http://www.w3.org/1999/xlink" x="0px" y="0px"
	 viewBox="0 0 512 512" style="enable-background:new 0 0 512 512;" xml:space="preserve">
<style type="text/css">
	.st0{fill:none;stroke:#09518C;stroke-width:25;stroke-linecap:round;stroke-linejoin:round;stroke-miterlimit:10;}
	.st1{fill:none;stroke:#991B1F;stroke-width:25;stroke-linecap:round;stroke-linejoin:round;stroke-miterlimit:10;}
</style>
<g>
	<path class="st0" d="M497,177.4c0,11.1-1.4,21.8-3.9,32.1c0,0,0,0,0,0c-7.5,74.8-238.6,257.8-238.6,257.8s-10.7-10.4-126.3-106.9
		c-60.9-50.9-89-97.3-102-129.9c-4.7-11.9-7.4-21.9-9-29.6c0-0.2-0.1-0.4-0.1-0.7c-1-5.6-1.6-11.3-1.8-17.1
		c-0.1-1.9-0.1-3.9-0.1-5.9c0-73.4,59.5-132.9,132.9-132.9c44.6,0,84,22,108.1,55.7c24.1-33.7,63.6-55.7,108.1-55.7
		C437.5,44.6,497,104.1,497,177.4z"/>
	<path class="st1" d="M347.9,103.5c0,0,67.2-5.1,91,56.1"/>
</g>
</svg>
