<?xml version="1.0" encoding="utf-8"?>
<!-- Generator: Adobe Illustrator 16.0.0, SVG Export Plug-In . SVG Version: 6.00 Build 0)  -->
<!DOCTYPE svg PUBLIC "-//W3C//DTD SVG 1.1//EN" "http://www.w3.org/Graphics/SVG/1.1/DTD/svg11.dtd">
<svg version="1.1" id="Layer_1" xmlns="http://www.w3.org/2000/svg" xmlns:xlink="http://www.w3.org/1999/xlink" x="0px" y="0px"
	 width="512px" height="512px" viewBox="0 0 512 512" enable-background="new 0 0 512 512" xml:space="preserve">
<path fill="none" stroke="#09518B" stroke-width="20" stroke-miterlimit="10" d="M231.973,222.484c0,4.749-3.849,8.597-8.598,8.597
	H51.492c-4.749,0-8.597-3.849-8.597-8.597V50.6c0-4.749,3.849-8.598,8.597-8.598h171.884c4.749,0,8.598,3.849,8.598,8.598
	L231.973,222.484L231.973,222.484z"/>
<path fill="none" stroke="#09518B" stroke-width="20" stroke-miterlimit="10" d="M470.106,222.484c0,4.749-3.85,8.597-8.6,8.597
	H289.625c-4.748,0-8.598-3.849-8.598-8.597V50.6c0-4.749,3.848-8.598,8.598-8.598h171.883c4.749,0,8.6,3.849,8.6,8.598
	L470.106,222.484L470.106,222.484z"/>
<path fill="none" stroke="#09518B" stroke-width="20" stroke-miterlimit="10" d="M231.973,462.4c0,4.748-3.849,8.598-8.598,8.598
	H51.492c-4.749,0-8.597-3.849-8.597-8.598V290.518c0-4.748,3.849-8.599,8.597-8.599h171.884c4.749,0,8.598,3.849,8.598,8.599
	L231.973,462.4L231.973,462.4z"/>
<rect x="367.954" y="284.585" fill="#A11819" stroke="#A11819" stroke-width="20" stroke-miterlimit="10" width="28.182" height="183.747"/>
<rect x="371.426" y="280.233" transform="matrix(-0.0087 1 -1 -0.0087 759.0409 -8.2172)" fill="#A11819" stroke="#A11819" stroke-width="20" stroke-miterlimit="10" width="24.334" height="183.746"/>
</svg>
