<?xml version="1.0" encoding="utf-8"?>
<!-- Generator: Adobe Illustrator 23.0.5, SVG Export Plug-In . SVG Version: 6.00 Build 0)  -->
<svg version="1.1" id="Layer_1" xmlns="http://www.w3.org/2000/svg" xmlns:xlink="http://www.w3.org/1999/xlink" x="0px" y="0px"
	 viewBox="0 0 100 100" style="enable-background:new 0 0 100 100;" xml:space="preserve">
<style type="text/css">
	.st0{clip-path:url(#SVGID_2_);fill:#09518C;}
	.st1{clip-path:url(#SVGID_2_);fill:#EB494B;}
</style>
<g>
	<defs>
		<rect id="SVGID_1_" x="4.2" y="0.3" width="91.6" height="99.5"/>
	</defs>
	<clipPath id="SVGID_2_">
		<use xlink:href="#SVGID_1_"  style="overflow:visible;"/>
	</clipPath>
	<path class="st0" d="M4.2,60.5c0,5.1,0,10.1,0,15.2c0,1.1,0.6,1.8,1.5,1.7c0.9,0,1.4-0.6,1.4-1.7c0-1.1,0-2.3,0-3.4V46.6
		c0-1.5,0.6-2.2,2-2.2c8,0,16,0,24,0c1,0,1.6,0.5,1.9,1.4c0.3,1.1,0.7,2.1,1,3.1c0.5,1.6,0.8,1.7,2.4,1.7h38.1c0.4,0,0.7,0,1.1,0
		c0.9,0.1,1.5,0.6,1.6,1.5c0.1,1.1,0,2.3,0,3.5c1.4,0,0.7,0.2,1.9,0.6c-0.3-0.2,1.4-0.3,1-0.5c0-0.9,0-2.2,0-3.5
		c-0.1-2.5-2-4.4-4.5-4.5c-0.3,0-0.7,0-1.2,0V23.6c0-0.4,0-0.7-0.1-1.1c-0.2-0.7-0.7-1.2-1.5-1.1c-0.8,0.1-1.2,0.5-1.3,1.3
		c0,0.3,0,0.6,0,1v24.1h-2c-1.1,0-2.4,0.4-3.1-0.2c-0.7-0.5-0.8-1.9-1.2-2.9c-0.7-2.1-2.3-3.3-4.5-3.3c-6.7,0-13.4,0-20.1,0
		c-2.2,0-3.7,1.2-4.5,3.2c-0.1,0.2-0.2,0.4-0.3,0.7c-0.1-0.1-0.1-0.2-0.2-0.3c-1.1-2.8-2.4-3.6-5.4-3.6H14c-0.4,0-0.7,0-1.2-0.1
		V20.3c0-5.3,0-10.6,0-15.9c0-0.9,0.3-1.2,1.2-1.2c1.4,0.1,2.8,0,4.2,0c18.1,0,36.1,0,54.2,0c1,0,1.3,0.3,1.3,1.3
		c-0.1,2.5,0,5,0,7.5c0,1.4,0,2.8,0,4.2c0,0.9,0.6,1.4,1.3,1.5c0.8,0.1,1.4-0.5,1.5-1.4c0-0.3,0-0.5,0-0.8c0-3.6-0.1-7.2,0-10.8
		c0.1-2-0.6-3.5-2.5-4.3H12.5C10.6,1,9.9,2.3,9.9,4.4c0,11.9,0,23.9,0,35.8v1.2c-0.3,0-0.4,0.1-0.4,0.1c-2.9-0.2-5.4,1.8-5.3,5.5
		C4.3,51.5,4.2,56,4.2,60.5 M41.4,45.1c0.2-0.4,1-0.7,1.5-0.7c6.6,0,13.2,0,19.8,0c1,0,1.6,0.4,1.9,1.4c0.2,0.6,0.4,1.3,0.6,2H40.3
		C40.7,46.8,40.9,45.9,41.4,45.1 M79.2,83.8v11c0,1.4-0.6,2-2.1,2H9.3c-1.6,0-2.1-0.6-2.1-2.2v-6.8c0-1.7,0-3.4,0-5.1
		c0-0.8-0.5-1.3-1.3-1.4c-0.8-0.1-1.3,0.4-1.5,1.2c-0.1,0.3,0,0.6,0,1c0,3.5,0.1,6.9,0,10.4c-0.1,2.8,0.9,4.8,3.7,5.8h70.6
		c3-1.3,3.7-2.4,3.7-5.7c0-3.2,0-6.5,0-9.7c0-0.4,0-0.7,0.2-0.9C81.3,83.6,80.3,83.8,79.2,83.8"/>
	<path class="st0" d="M43.1,29.4c-7.8,0-15.6,0-23.4,0c-0.3,0-0.7,0-1,0c-0.7-0.1-1.2-0.6-1.2-1.3c-0.1-0.7,0.3-1.3,1-1.5
		c0.4-0.1,0.8-0.1,1.1-0.1c15.7,0,31.3,0,47,0c0.4,0,0.7,0,1.1,0.1c0.7,0.2,1.1,0.8,1,1.5c-0.1,0.7-0.5,1.2-1.3,1.3
		c-0.3,0-0.6,0-1,0C58.8,29.4,50.9,29.4,43.1,29.4"/>
	<path class="st0" d="M43.2,36.5c-7.8,0-15.5,0-23.3,0c-0.3,0-0.6,0-1,0c-0.9-0.1-1.4-0.7-1.4-1.5c0-0.8,0.5-1.3,1.3-1.4
		c0.3,0,0.6,0,0.9,0c15.6,0,31.2,0,46.8,0c1.6,0,2.3,0.4,2.2,1.5c0,1-0.7,1.4-2.2,1.4C58.8,36.5,51,36.5,43.2,36.5"/>
	<path class="st1" d="M43.3,15.1c0-1.7,0-3.4,0-5.1c0-1.1,0.5-1.7,1.7-1.7c1,0,2,0,3,0c2.8,0.1,4.5,2.8,3.6,5.4
		c-0.2,0.5-0.2,0.8,0.2,1.2c1.2,1.4,1.4,3,0.7,4.6c-0.7,1.6-2.1,2.5-3.9,2.6c-1.2,0-2.4,0-3.6,0c-1.1,0-1.6-0.5-1.6-1.7
		C43.3,18.6,43.3,16.8,43.3,15.1 M46.3,19.1c0.8,0,1.6,0.1,2.3,0c0.8-0.1,1.2-0.6,1.3-1.3c0.1-0.8-0.3-1.4-1.1-1.5
		c-0.8-0.1-1.7,0-2.5,0V19.1z M46.3,11.2v2.1c0.6,0,1.1,0,1.6,0c0.6,0,1.1-0.4,1.1-1c0-0.7-0.4-1-1.1-1.1
		C47.3,11.1,46.8,11.2,46.3,11.2"/>
	<path class="st1" d="M34.3,8.2c3.8,0,6.8,3.1,6.9,6.9c0,3.8-3.1,6.9-6.9,6.9c-3.8,0-6.8-3.1-6.8-6.9C27.4,11.3,30.5,8.2,34.3,8.2
		 M34.3,11.2c-2.2,0-4,1.7-4,3.9c0,2.2,1.7,4,3.8,4c2.2,0,4-1.7,4.1-3.9C38.2,13,36.5,11.2,34.3,11.2"/>
	<path class="st1" d="M24.8,14.2c0,1.4,0,2.7,0,4.1c0,1.7-0.9,3-2.4,3.5c-1.4,0.5-3.1,0-4.2-1.3c-0.5-0.6-0.6-1.3,0-1.9
		c0.6-0.6,1.2-0.6,1.9-0.2c0.4,0.2,0.9,0.4,1.4,0.6c0.1-0.5,0.3-1.1,0.3-1.6c0-2.3,0-4.7,0-7c0-0.3,0-0.6,0-0.9
		c0.1-0.8,0.7-1.3,1.5-1.3c0.8,0,1.3,0.5,1.4,1.4C24.8,11.2,24.8,12.7,24.8,14.2L24.8,14.2z"/>
	<path class="st1" d="M86.8,66c-2.3-0.2-3.6-1-4.4-3.2c-0.7-1.8-3.4-1.8-4.1,0c-0.8,2.1-2.1,3.1-4.4,3.2c-1.3,0-2.2,1.4-1.8,2.7
		c0.2,0.7,0.6,1.4,1.2,1.8c1.2,1,1.8,2.1,1.2,3.6c-0.1,0.3-0.1,0.7-0.2,1.1c-0.1,1.8,1.9,3.2,3.6,2.1c1.7-1.1,3.2-1.3,4.9,0
		c0.8,0.6,1.8,0.5,2.7-0.1c0.8-0.6,1.1-1.5,0.9-2.5c-0.1-0.7-0.3-1.3-0.3-2c0-0.4,0.2-0.9,0.4-1.2c0.5-0.6,1.2-1.1,1.7-1.7
		C89.3,68.4,88.6,66.1,86.8,66 M83.3,74.3c-2-1.5-4-1.6-6,0c0.7-2.4,0.3-4.2-1.8-5.7c2.5,0,4.1-1,4.6-3.6c0.7,1,1.1,2.1,1.9,2.7
		c0.8,0.6,1.9,0.6,3.1,1C83.1,70.1,82.4,71.9,83.3,74.3"/>
	<path class="st1" d="M80.2,85.4c-8.6,0-15.6-7-15.6-15.6c0-8.6,7-15.6,15.6-15.6s15.6,7,15.6,15.6C95.8,78.4,88.8,85.4,80.2,85.4
		 M80.2,56.7c-7.2,0-13.1,5.9-13.1,13.1c0,7.2,5.9,13.1,13.1,13.1S93.3,77,93.3,69.8C93.3,62.6,87.4,56.7,80.2,56.7"/>
</g>
</svg>
