<?xml version="1.0" encoding="utf-8"?>
<!-- Generator: Adobe Illustrator 23.0.5, SVG Export Plug-In . SVG Version: 6.00 Build 0)  -->
<svg version="1.1" id="Capa_1" xmlns="http://www.w3.org/2000/svg" xmlns:xlink="http://www.w3.org/1999/xlink" x="0px" y="0px"
	 viewBox="0 0 512 512" style="enable-background:new 0 0 512 512;" xml:space="preserve">
<style type="text/css">
	.st0{fill:#CFD8DC;}
	.st1{fill:#FAFAFA;}
	.st2{fill:#EEEEEE;}
	.st3{fill:#ECEFF1;}
	.st4{fill:#F44336;}
</style>
<path class="st0" d="M428.1,404.7L261.7,287.2c-3.4-2.4-7.9-2.4-11.3,0L83.9,404.7c-2.6,1.8-4.2,4.8-4.2,8v9.8
	c0,5.4,4.4,9.8,9.8,9.8h332.9c5.4,0,9.8-4.4,9.8-9.8v-9.8C432.3,409.5,430.7,406.5,428.1,404.7z"/>
<path class="st1" d="M261.7,287.2L95.2,169.7c-4.4-3.1-10.5-2.1-13.7,2.3c-1.2,1.7-1.8,3.6-1.8,5.7v235c0,5.4,4.4,9.8,9.8,9.8
	c2,0,4-0.6,5.7-1.8l166.5-117.5c4.4-3.1,5.5-9.2,2.4-13.6C263.4,288.6,262.6,287.8,261.7,287.2L261.7,287.2z"/>
<path class="st2" d="M427,169c-3.3-1.7-7.2-1.4-10.2,0.7L250.3,287.2c-4.4,3.1-5.5,9.2-2.4,13.6c0.6,0.9,1.4,1.7,2.4,2.4
	l166.5,117.5c4.4,3.1,10.5,2.1,13.7-2.3c1.2-1.7,1.8-3.6,1.8-5.7v-235C432.3,174,430.2,170.7,427,169z"/>
<path class="st3" d="M451.3,86.5c-1.3-4-5.1-6.7-9.3-6.7H70c-5.4,0-9.8,4.4-9.8,9.8c0,3.1,1.5,6,3.9,7.8l186,137.1
	c3.5,2.5,8.2,2.5,11.6,0l186-137.1C451.2,94.9,452.6,90.5,451.3,86.5z"/>
<path class="st4" d="M442,79.8c-2.1,0-4.2,0.7-5.9,2L256,214.5L75.8,81.7c-1.7-1.3-3.8-2-5.9-2c-27,0-49,21.9-49,49v254.6
	c0,27,21.9,49,49,49h19.6c5.4,0,9.8-4.4,9.8-9.8V196.6l151,106.6c3.4,2.4,7.9,2.4,11.3,0l151-106.6v225.9c0,5.4,4.4,9.8,9.8,9.8H442
	c27,0,49-21.9,49-49V128.7C491,101.7,469.1,79.8,442,79.8z"/>
</svg>
