<?xml version="1.0" encoding="utf-8"?>
<!-- Generator: Adobe Illustrator 23.0.5, SVG Export Plug-In . SVG Version: 6.00 Build 0)  -->
<svg version="1.1" id="Layer_1" xmlns="http://www.w3.org/2000/svg" xmlns:xlink="http://www.w3.org/1999/xlink" x="0px" y="0px"
	 viewBox="0 0 300 300" style="enable-background:new 0 0 300 300;" xml:space="preserve">
<style type="text/css">
	.st0{fill:#09518C;}
</style>
<path class="st0" d="M206.3,219c-42.4,33.9-99.8,26.4-132.5-10.6c-32.4-36.7-31.7-92.7,1.6-128.1c34.2-36.3,89.3-40.7,128.3-10.8
	c41,31.5,51.9,95,13.7,138.9c10.8,10.7,21.6,21.5,32.4,32.2c1.9,1.9,3.8,3.7,5.5,5.6c3.2,3.5,3.2,8.1,0.1,11.1
	c-3.2,3.1-7.5,3-11-0.5c-11.8-11.7-23.5-23.5-35.3-35.2C208.3,220.8,207.3,220,206.3,219z M145.3,225.4
	c44.7-0.1,80.5-36.1,80.4-80.7c-0.1-43.8-36.2-79.6-80.2-79.6c-44.3,0-80.2,36-80.1,80.4C65.5,189.5,101.6,225.5,145.3,225.4z"/>
</svg>
