<?xml version="1.0" encoding="utf-8"?>
<!-- Generator: Adobe Illustrator 23.0.5, SVG Export Plug-In . SVG Version: 6.00 Build 0)  -->
<svg version="1.1" id="Layer_1" xmlns="http://www.w3.org/2000/svg" xmlns:xlink="http://www.w3.org/1999/xlink" x="0px" y="0px"
	 viewBox="0 0 512 512" style="enable-background:new 0 0 512 512;" xml:space="preserve">
<style type="text/css">
	.st0{fill:#FFFFFF;}
</style>
<g>
	<path class="st0" d="M389.2,93.2c-7.4-6.3-15.4-11.9-23.7-16.8c-1.9-1.1-2.7-2.7-3.4-4.4c-1.1-2.7-2.8-3.8-5.2-2.4
		c-1.5,0.9-2.5,0.4-3.7-0.2c-22.5-11.7-46.4-19.3-71.5-22.3C239.2,42,198.9,49,160.7,68.1c-12.5,6.3-24.2,13.7-35.2,22.4
		c-0.6,0.5-1.2,1.2-2,1.1c-1.7-0.2-1.9,0.8-2.6,2c-1.5,2.6-4.5,3.9-6.5,6.2c-0.5,0.6-1.2,1-1.8,1.5c-0.9-0.5-0.3-1.4-0.7-1.8
		c-0.5-0.5-1-0.9-1.8-0.9c-1,0.1-1,0.9-0.9,1.5c0.9,4.3-2,6.5-4.5,9.2c-3.2,3.2-6.1,6.7-9,10.1c-1.1,1.3-2.1,1.7-3.8,1
		c-2.7-1.2-5.4-2.3-8.2-3.1c-2.1-0.6-1.6-1.4-0.6-2.6c11.2-13.5,23.7-25.7,37.7-36.3c27.8-21,58.8-34.7,93-41.4
		c21.4-4.2,43-5,64.8-2.7c27.5,2.8,53.6,10.5,78.3,23c1.3,0.7,2.8,0.9,3.2,3.2c0.3,1.5,3.1,2,5.1,2.2c3.4,0.4,4,1,3,4.1
		c-0.5,1.6-1.1,2.9,1,3.8c2,0.9,3.8,0.9,4.8-1.2c0.8-1.7,1.5-1.8,3-0.8c4.1,3,8.4,5.9,12.5,8.8c0.5,0.3,0.9,0.7,1.6,1.3
		c-2.7,2-6.2,2.5-9,5.2c3.4-0.1,5.7-1.4,8.2-2.1c0.7-0.2,1.3-0.4,1.9-0.7c2.3-0.8,3.8,0.8,4.6,2.2c0.6,1.2-1.5,1.3-2.4,1.9
		c-0.9,0.7-2.1,1-3.4,2.7c4.6-2.2,8.8-4.8,12.1,0.7c-0.3,1.1-1.1,1.6-2,1.9c-2.4,1-4.8,2.2-7.2,3.3
		C392.3,94.6,390.6,94.8,389.2,93.2z"/>
	<path class="st0" d="M165.8,87.7c-2.2,1.3-4.3,2.7-6.5,3.9c-1.3,0.7-1.5,1.4-0.8,2.8c3.2,6.1,3.1,6.2,9.1,2.7
		c1.3-0.7,2.5-1.5,3.8-2.2c1.5-0.8,3.3-2.8,4.6-2.1c1.9,1.1,2.7,3.7,3.8,5.8c0.6,1.2-0.6,1.5-1.3,1.9c-3.4,2-6.8,4-10.2,5.8
		c-1.7,0.9-1.9,1.7-0.9,3.4c3.9,6.9,3.9,6.9,10.8,2.8c2.4-1.4,4.8-2.7,7.1-4.1c1.5-0.9,2.1-0.6,3,0.8c3.3,5.4,3.3,5.3-2.2,8.6
		c-5.7,3.3-11.4,6.5-17,9.9c-1.8,1.1-2.7,0.8-3.6-1c-3.2-6.2-6.9-12-10.2-18.2c-2.9-5.4-6.3-10.6-9.5-15.8c-1-1.7-1.1-2.6,0.8-3.6
		c4.2-2.2,8.3-4.7,12.5-7c0.4-0.2,0.9,0,1.4,0C162.8,83.4,165.4,84.5,165.8,87.7z"/>
	<path class="st0" d="M385.6,363.3c-5.2-4.1-6.8-9.2-4.7-15.4c2-6.2,6.1-10.9,11.2-14.8c1.4-1,2.3-1,3.4,0.5
		c1.2,1.6,2.7,3.1,4.2,4.8c-3.5,2.5-7,4.9-9.1,8.7c-1.3,2.2-2.3,4.5-0.2,6.7c2.1,2.3,4.5,1.3,6.7,0c2.8-1.6,5.3-3.8,8.3-5.1
		c5-2.2,9.8-2.4,14,1.4c4.3,3.8,5,8.8,3.4,14c-1.6,5.6-5.2,9.8-9.6,13.4c-1.4,1.1-2.3,1-3.4-0.4c-1.1-1.5-3-2.8-3.3-4.4
		c-0.4-2,2.4-2.4,3.6-3.7c1.6-1.8,3.2-3.5,4-5.8c0.6-1.7,0.7-3.3-0.7-4.7c-1.4-1.4-3.1-1.3-4.7-0.5c-3.2,1.8-6.4,3.7-9.6,5.6
		c-1.9,0-2.1-1.7-2.8-2.9c-0.7-1.2-0.9-2.8-2.9-3.3c-0.1,2.7,2.7,4.7,1.5,7.4c-1.8,0.8-3.5,0.2-5.3,0c-2.8-3.5-3-8-4.4-11.5
		c0.5,2.2,1.6,4.7,1.9,7.4C387.3,362.2,387.7,363.7,385.6,363.3z"/>
	<path class="st0" d="M316.4,438.2c0,0.5-0.1,0.8,0,1c1.4,5,1.5,5-3.2,7.4c-4.2,2.1-8.6,3.2-13.3,3.4c-1.8,0.1-2.6-0.4-2.6-2.5
		c-0.1-5.6-0.2-5.5,5.2-6.4c5.8-0.9,10.8-3.2,12.5-9.2c1.8-6.3,0.1-12.1-4.6-16.7c-3.6-3.5-8.1-3.8-12.7-2.5c-2.4,0.6-4.7,1.5-6.7,3
		c-1.4,1-1.9,0.5-2.6-0.7c-3.3-5.7-3.2-6.4,3-9c6.4-2.7,13.1-4.4,20-2.1c14.2,4.8,19.6,25.1,9.8,36.5c-1.3,1.5-2,1.6-2.8-0.3
		C318,439.3,317.9,438.3,316.4,438.2z"/>
	<path class="st0" d="M209.7,449.5c-2.4-0.7-5.1-1.5-7.7-2.4c-1.3-0.5-0.5-1.5-0.2-2.2c2.9-9.7,5.7-19.4,8.8-29
		c0.9-2.9,0.2-3.7-2.5-4.4c-3.9-0.9-7.7-2.3-11.6-3.4c-1.4-0.4-1.9-0.8-1.5-2.4c1.8-6.6,1.7-6.6,8.3-4.6c5.9,1.8,11.8,3.6,17.8,5.2
		c2.1,0.6,2.6,1.3,1.9,3.5c-3.9,12.5-7.6,25.1-11.4,37.7C211.4,448.5,211.3,449.6,209.7,449.5z"/>
	<path class="st0" d="M313.9,112c-0.9-0.3-1.9-0.6-2.8-0.9c-6.9-2-13.7-4.1-20.6-6.1c-1.7-0.5-2.4-1-1.8-3
		c3.9-12.6,7.7-25.3,11.4-38c0.5-1.6,1.1-2.2,2.9-1.7c7.7,2.1,7.7,2,5.4,9.8c-2.4,8.1-4.8,16.2-7.3,24.2c-0.7,2.2-0.1,2.9,1.9,3.5
		c4.1,1.1,8.1,2.4,12.1,3.5c1.8,0.5,2.2,1.3,1.5,2.9c-0.6,1.4-0.9,3-1.4,4.5C315.1,111.5,314.8,112.2,313.9,112z"/>
	<path class="st0" d="M200.5,73.3c-0.1,0.8-0.5,1.5-1,2c-6.1,6.1-2.6,18.3,3.6,22.3c4.3,2.7,8.8,2.3,13.3,0.6c0.7-0.3,1.4-0.6,2.1-1
		c4.2-2,4.1-2,6.6,2.1c1.3,2.2,1.2,3.4-1.1,4.6c-8.5,4.4-17.1,7.1-26.3,2.4c-7.5-3.8-12.8-14.4-11.7-22.8c0.2-1.6,0.3-1.6,3.5,0.5
		c-1.8-2.2-3.7-3.6-2.3-6.2c1-2,1.8-4.1,3.3-5.9c1.1-1.3,2-2.7,3.5-3.4C197.1,68.7,198.5,71.4,200.5,73.3z"/>
	<path class="st0" d="M56.1,236c-1.3,2-2.5,3.3-5.5,2.9c-2.7-0.4-0.7,2.2-0.8,3.7c-2.2-0.7-3.7-1.1-4.8,1.6
		c-0.7,1.7-2.9,0.7-4.7-0.1c0.5,3.7-3.2,6.1-2.5,9.7c-4,0.6-6-0.7-7.4-5c-1.1,0.2-0.9,1.3-1.4,1.9c-0.6,0.8-1.1,1.5-2,0.4
		c0.3-2.6-2.4-2.2-3.5-3.3c2.2-0.9,4.5-1.9,6.8-2.6c1.7-0.5,2.5-1.4,2.5-3.3c0-2,0.5-4,0.7-6c0.9,0.6,0.6,1.5,0.5,2.3
		c0.3-0.9,0.5-1.7,1.3-2.2c1.2-0.4,1.7,0.5,2.4,1.1c0.8,0.5,1.9,0.4,2.5,1.3c0.1,0.6-0.6,1.5,0.6,1.7c0.6,0.4,0.7,1.4,1.8,1.5
		c-0.1-1-1.1-0.9-1.5-1.3c-0.7-0.5-0.3-1.5-0.8-2c-0.3-1.4-1.4-1-2.3-1.1c-0.7-0.8-1.2-1.8-2.5-1.4c-0.8,0.2-1.2-0.4-1.6-0.9
		c0.2-5.3,1-10.5,2-15.7c1.3-7,2.3-14,4.4-20.8c0.1-0.5,0.4-0.9,0.6-1.3c0.6-1,0.6-2.9,2.7-1.7c-0.5-0.4-0.7-0.8-1-1.2
		c-0.7-0.3-1.2-0.6-0.5-1.5c0.6-0.7,1.2-0.7,2-0.2c1.7,1,3.4,1.9,5.2,2.8c1.7,0.2,2.9,1.2,4.1,2.3c0,0.2,0,0.4,0,0.6
		c-1,2.1-1.3,4.4-1.7,6.6c-1.4,7.5-3.2,15-4.4,22.6c-0.3,2-1.4,3.7-0.8,5.9c0.4,1.3-0.1,1.5-1.5,1c0.6-0.9,0.2-1.2-0.7-1.1
		c-0.7,0.1-1.1-0.1-0.8-1c0.2-1.5,0.7-3-0.5-5c-1,2.2-0.9,3.6,0.5,5c-1,1.8-2.4,2.2-4.1,1.4c0.9,1.1,2,0.9,3.3,0.2
		c1.5-0.9,1.6-0.7,2.4,0.5c-0.9-0.2-1.5,0.2-1.7,1.2c-0.2,0.9,0.5,1.4,1.1,1.4c1.8-0.1,1.5,1.1,1.7,2.2c0.2,1.3,1.4,2.1,2.2,0.8
		C50,236.8,53.4,237.2,56.1,236z"/>
	<path class="st0" d="M389.1,393.4c0.2-1.1-0.9-1.5-1.3-2.3c-0.6-2-1.8-3.8-2.5-5.8c-1-0.1-0.8,2.1-2.2,1c-2.6-3.2-3-3.2-5.8,0
		c-0.9,1.1-1.6,2.4-2.4,3.6c-2.1,1.6-2-0.6-2.6-1.1c0.7,5.3,3.1,10.5,4.7,15.9c0.7,2.6,0.6,2.7-2.2,2.4c-1.3-0.2-2.5-0.7-3-2.1
		c-0.5-1.4-2-0.7-2.9-1.8c-3.6-4.2-4.7-10-2.4-15.1c1.5-3.5,3.8-6.4,6.7-8.8c1.6-1.3,1.8-2.1,0.3-3.6c-2.6-2.5-4.9-5.3-7.5-7.9
		c-1.2-1.2-1.5-2.1,0-3.3c2-1.6,3.7-4.6,5.7-4.7c2.1-0.2,3.6,3.2,5.4,4.9c2.5,2.5,4.8,5.2,7.2,7.7c0.7,0.7,1.3,1.5,1.2,2.6
		c1.6,2.5,2.3,5.4,3.2,8.1c1.5,4.8,2.8,9.7,4.4,14.5c0.3,0.9,0.5,1.9,0.1,2.9c-0.2,0.2-0.4,0.4-0.5,0.6c-0.5,0.4-1.1,0.3-1.6-0.1
		C389.6,399.8,388.5,395.4,389.1,393.4z"/>
	<path class="st0" d="M343.8,405.2c1.4-0.9,1.5-1.9,0.6-3.3c-1.3-2-2.4-4.2-3.6-6.2c-2.7-1.1-4.1-4.2-3.7-8.3
		c2.2-1.3,4.4-2.5,6.5-3.8c1.1-0.7,1.7-0.6,2.3,0.5c6.5,11.5,13.1,22.9,19.7,34.4c0.7,1.3,2.6,3.3-1.2,2.9c0,0.3,0,0.6-0.1,0.9
		c-1.4,1-1.9,1-2.6-0.9c-1-2.8-2.2-5.4-3.2-8.2c-0.4-1.2-0.7-2.4-1.4-3.5c-0.3-0.4-0.5-0.8-0.9-1.7c0.5,2.4,0.6,4.4,0.9,6.4
		c-0.7,1.6-2.3,2.9-1.2,4.9c0.1,0.6,0,1.2,0.2,1.7c0.5,1.8,2.1,3.7,1.2,5.3c-1,2-3.5,2.6-5.5,3.6c-0.3,0.2-0.6,0.4-0.9,0.6
		c-0.6,0.2-1.3,0.3-1.5-0.3c-0.9-2.3-2.6-4.3-2.2-7c1.7-1.1,3.4-2.3,5.2-3.2c1.6-0.8,1.8-1.8,0.8-3.2c-0.6-0.8-1.1-1.6-1.5-2.5
		c-1.1-2.6-2.6-3.5-5-1.5C344.3,411.6,342.9,408.2,343.8,405.2z"/>
	<path class="st0" d="M225.8,61.4c-0.4-1.5,0.2-2.1,1.9-2.4c8-1.5,7.9-1.6,8.9,6.4c1.5,11.3,2.9,22.6,4.5,33.8
		c0.3,2.1,0.1,3-2.5,3.3c-7.4,0.8-7.4,1-8.4-6.2C228.7,84.6,227.3,73.1,225.8,61.4z"/>
	<path class="st0" d="M277.7,451.8c-5-11.6-4.3-24.3-6.4-36.5c-1-5.9-0.7-6.1,5.5-6.5c4.5-0.4,3.7-1.1,4.3,3.5
		c1.6,11.9,3.2,23.9,4.7,35.8c0.1,0.4,0.1,0.8,0.1,1.2c-0.1,1.1,0.9,2.5-0.6,3.1c-1.4,0.6-1.9-1-2.8-1.8
		C282.2,453.6,280.7,453.9,277.7,451.8L277.7,451.8z"/>
	<path class="st0" d="M115.7,146.5c5.3-1.2,9.9,0,13.4,4.4c3.5,4.4,3.3,9.3,1.5,14.2c-2.1,5.6-5.9,9.9-10.6,13.4
		c-1.4,1.1-2.5,1.1-3.6-0.4c-1.1-1.6-3.3-2.9-3.5-4.5c-0.2-1.6,2.6-2.2,3.9-3.5c1.9-1.9,3.7-3.7,5-6.1c1.7-3.3,1.2-5-2-7
		c-0.5-0.3-0.8-1.1-1.2-1.6c-0.7-0.4-1.1-0.9-0.1-1.5c0.3-0.1,0.5-0.1,0.8,0c1.3,0.5,2.2-0.8,3.5-0.7c0.7,0.1,1.3,0.4,1.8,0.7
		c-2.7-1.6-5.6-3-8.3-4.8C115.5,148.4,113.9,147.8,115.7,146.5z"/>
	<path class="st0" d="M447.4,182.3c7.6-5.1,15.2-10.3,23.5-15.9c-0.7,2.3-2,2.8-3.1,3.4c-0.5,0.3-1.6,0.4-1,1.4
		c0.5,0.8,1.2,0.2,1.8-0.1c2.8-1.5,5.5-3.3,8-5.3c1.4-1.1,3.6-1.3,3.9-3.6c0.6,1.4,1.2,2.8,1.7,4.2c0.7,1.4-0.1,2.1-1.1,2.9
		c-4.2,2.9-8.6,5.6-12.8,8.6c-5.4,3.7-11,7-16.4,10.7c-1.1,0.7-2,1.5-3.4,0.4c-1.4-1-2.6,1.4-4.1,0.4c-0.3-0.6-0.8-0.6-1.3-0.7
		c0.6-2.3,3-2.7,4.5-4c3.2-2,6.9-3.4,9.3-6.6c0.7-0.4,1.6-0.2,2.2-1c-0.9,0.4-1.8,0.6-2.5,1.3c-1.8,1.5-3.8,2.9-5.9,4.1
		C449.8,183.2,448.4,184.2,447.4,182.3z"/>
	<path class="st0" d="M284.6,367.9c1.7-1.9,3.4-3.9,5.5-6.2c-4-0.7-7.6-1.3-11.2-1.9c0-0.2,0-0.4,0.1-0.5c3.6-0.3,7.2-0.5,11.3-0.8
		c-2-2.7-3.8-5.1-5.5-7.5c-0.3-0.6-0.6-1.1,0.4-1.1c2,1.7,4,3.4,5.9,5.2c1.3,1.2,1.8,0.7,2-0.7c0.4-2.9,0.9-5.9,1.6-8.8
		c1.3,3.4,0.4,7.1,1.3,10.6c2.8-1,4.5-3.5,7-4.7c0.7-0.1,0.9,0.2,0.8,0.8c-1.3,1.5-2.6,2.9-3.8,4.4c-0.5,0.6-1.7,1.1-1.3,2.1
		c0.4,0.9,1.6,0.4,2.4,0.6c0.5,0.1,0.9,0.2,1.4,0.4c0.9,0.8,2.1,0.2,3.1,0.4c0.9,0.1,1.6,0.3,1,1.4c-2.2,0.1-4.3,0.1-6.5,0.3
		c-1.5,0.1-2.2,0.6-1,2.1c1.6,2.1,3.1,4.4,5,7.2c-3.3-1.2-4.5-3.7-6.5-5.2c-0.6-0.4-1-1.5-1.9-1.1c-0.8,0.3-0.6,1.3-0.8,2.1
		c-0.4,2.8-0.8,5.5-1.9,8.3c-0.2-2.8-0.3-5.5-0.5-8.3c0-0.7,0.3-1.7-0.4-2.2c-1-0.5-1.5,0.5-2.2,1c-1.4,0.9-2.7,1.9-4.1,2.8
		C285,369.2,284.6,368.8,284.6,367.9z"/>
	<path class="st0" d="M53.1,197.7c-1.6-0.4-2.8-1.4-4.1-2.3c0.2-0.2,1,0,0.7-0.6c-0.3-0.4-0.9-0.7-1.4-1c-1.9-1-5.3-1.7-5.4-3.3
		c-0.2-2.6,1.4-5.4,2.2-8.1c0.3-1.1,1-1,1.8-0.6c1.1,0.6,2.2,1.1,3.5,1.5c-0.6-1.1-1.7-1.5-2.8-1.9c-1.7-0.7-2.1-1.7-0.8-3.1
		c1.7-0.6,2.4,1.4,3.5,1.4c-0.8-1-3.2-0.9-3-3.2l0,0c0.6-1,1.5-1.2,2.5-0.7c2.7,1.5,5.4,3,8.1,4.6c0.7,0.4,1.2,1.1,0.7,2
		c-1.4,4.1-2.9,8.2-4.2,12.4C54.1,195.9,52.6,196.4,53.1,197.7z"/>
	<path class="st0" d="M142.1,140.1c5.7,5.1,5.7,5.1,0.1,10.5c-1.7,1.7-2.6,1.9-4.3-0.1c-4.1-4.7-8.6-9.2-12.9-13.7
		c-0.3-0.4-1.2-0.6-0.7-1.3c0.1-0.2,0.9-0.1,1.4-0.1c1.5,0.5,3,1.1,4.3-0.4C134.2,136.2,137.7,139.1,142.1,140.1z"/>
	<path class="st0" d="M200.5,73.3c-2.7-0.9-4-3.8-6.6-4.8c1.8-0.9,2.9-2.8,4.9-3.4c3.3-1.2,4.8,1.7,7,3.1c-0.5-1.6-1.2-3-2.3-4.3
		c1.7-2.2,4.3-1.7,6.5-2.1c4.4-0.8,4.7-0.4,4.7,4c0,1,0.1,2,0.1,2.9c0,0.8-0.3,1.4-1.1,1.3C208.9,69.8,204.8,72,200.5,73.3z"/>
	<path class="st0" d="M100.9,158.7c0.8,0.5,1.5,1.6,3.2,0.7c-4.7-3.5-9.6-6.1-14.3-9c-0.7-0.2-1.4-0.8-0.9-1.5
		c0.9-1.1,1.7,0,2.4,0.5c4.5,3.1,9.5,5.4,14.4,7.8c-0.5-1.8-2.6-1.9-3.5-3.3c3.2-3.3,5.4,0.6,8.8,1.1c-1.5-1.1-2.5-1.8-3.4-2.5
		c-0.4-0.3-1.2-0.6-0.7-1.3c0.4-0.5,1-0.4,1.6-0.1c3,1.6,6,3.2,9.5,5c-4.4,1.6-7.4,4.8-11.4,6.5c-3.6,1.6-5.9,0.5-6.5-3.3
		C100.1,158.9,100.3,158.6,100.9,158.7z"/>
	<path class="st0" d="M135.5,366.4c1.9,2,1.4,4.7,1.6,7.1c0.5,5.4,1.9,10.8,1.3,16.5c1.5-0.2,2.9-0.4,4.4-0.7c-2.8,1.5-6,2.2-9,3
		c-1.3-5.3-2.9-10.7-1.4-16.2c0.5-2-1.3-4.1,0.1-6.2c1.9-3-0.1-6-0.2-8.9c-0.1-3-0.9-5.9-1.4-8.8c1.5-1.3,2.6-3.7,5.3-2.5
		c-0.4,0.8-1.2,1-1.9,1.3c-1.5,0.6-1.6,1.5-1.4,3c0.6,3.9,1,7.9,1.4,11.8c-0.1,3.2,1.4,6.1,0.9,8.7c0.2,1,0.7,0.5,0.4,0.7
		c-0.1,0.1-0.3,0-0.2-0.1C135.6,372.2,134.8,369.3,135.5,366.4z"/>
	<path class="st0" d="M374.8,407c1.3,0,2.4,0.3,1.6-2c-1.7-5.3-3.9-10.4-4.8-16c-0.2-1-0.4-2,0.3-3.3c0.8,1.1,1.1,2,1.3,3.1
		c0.1,1.2,0.7,1.6,1.8,1c-0.4,5.8,1.5,8,7,8.4c1.2,0.1,1.5,0.6,1.8,1.5c0.5,1.6,1,3.2,1.4,4.8c0.2,0.6,0.7,1.4-0.2,1.8
		c-0.9,0.4-1.1-0.6-1.4-1.1c-0.3-0.6-0.5-1.2-0.8-2.1c0.2,4.8,0.2,4.7-5,4.6C376.7,407.6,375.8,407.5,374.8,407z"/>
	<path class="st0" d="M144.4,434.1c3.2,1,4.5,3.1,4.5,6.5c0,2.7,0.6,5.4,1,8c0.6,1.1,1.1,2.2-0.8,2.6c-2.8-1.4-5.9-2.3-7.6-5.3
		c-0.4-1.7-2-3.3-0.7-5.3c0.5-1,2.2,0.5,2.3-1.2c0.1-1.3-0.6-2.4-0.4-3.7C142.8,434.8,142.7,433.5,144.4,434.1z"/>
	<path class="st0" d="M48.4,173.5c0.3-0.6,0.5-1.3,0.8-1.9c1.9-4.9,2.8-5.3,7-2.1c1.4,1.1,2.9,1.9,4.4,2.6c1.5,0.6,1.5,1.3,1,2.7
		c-0.8,2.4-1.9,3.1-4.2,1.6c-1.6-1.1-3.4-1.8-5.2-2.5c1.7,1.9,4,2.8,6.1,4c1.5,0.8,1.5,1.6,0.6,2.7c-4-0.6-7-3.5-10.5-5.2
		C47.9,175,48,174.2,48.4,173.5z"/>
	<path class="st0" d="M180.4,465.4c-2.5-1.1-5.3-1.5-7.7-2.9c0.1-2.8-1-5.6-0.7-8.4c0.1-1.4,0.1-2.7,1.8-3.6c0.8,1.4,0.2,3,0.4,4.1
		c0,0.7,0.6,0.2,0.2,0.3c-0.1-1.8-0.4-3.6,0.1-5.4c3,0.7,1.4,3.4,2.1,5.1c0.1-0.1,0.2-0.2,0.2-0.3c0.4-1.2-0.9-3.5,0.8-3.5
		c1.8,0,0.9,2.3,1.2,3.7c0.1,0.8,0,1.6,0.5,2.4c0-1.3-0.1-2.7,0-4c0.1-1.6,0.8-1.6,1.8-0.7c-1,3.1,0.7,6.2,0.2,9.3
		C181.1,462.9,181.6,464.3,180.4,465.4z"/>
	<path class="st0" d="M332.5,398.7c-1.5,2.8-4.6,3.4-7,5c-0.7,0.4-1.1,0-1.4-0.6c-1-1.7-2-3.4-3-5.1c-0.7-1.1,0-1.6,0.9-2
		c2.3-1.3,4.6-2.6,6.9-3.9c1.3-0.5,1.8,0.4,2.1,1.3C331.6,395.2,332.5,396.8,332.5,398.7z"/>
	<path class="st0" d="M396.2,99.3c-1-1-2-1.9-3.1-2.9c-0.7-0.7-0.7-1.5,0.1-1.9c3.6-1.9,6.9-4.2,11-4.9c0.3,0,0.6,0.1,0.8,0.3
		c1.1,1,2.2,2,3.4,3c0.9,0.6,0.3,1.3-0.1,1.7c-3.1,2.3-6.6,3.7-10.1,5C397.6,99.8,396.8,99.7,396.2,99.3z"/>
	<path class="st0" d="M172.1,461.9c-0.8-0.9-0.3-2.1-0.9-3.4c0.2,3.4-1,3.7-3.2,2c-0.7-0.6-1.8-0.2-2.4-1c-0.1-2.8-0.1-5.6-0.6-8.4
		c-0.3-1.7-0.6-3.5,0.6-5.1c2,0.7,5,0.4,4.3,4.1c0.4-1,0.9-1.6,1.6-1.8c1.1,3.9,0.2,8,1.2,11.9C172.9,460.7,172.8,461.5,172.1,461.9
		z"/>
	<path class="st0" d="M165.8,87.7c-1.3-2.4-3.8-3.5-5.4-5.5c1.7-1.9,4-3.2,6.2-4.5c1.3-0.8,2-0.6,2.8,0.8c3.6,6.7,4.6,5.1-2.3,8.6
		C166.6,87.2,166.2,87.4,165.8,87.7z"/>
	<path class="st0" d="M332.5,398.7c-1.4-1.1-1.3-2.9-1.9-4.3c-0.4-0.8-0.2-2.2-1.7-2.3c2.1-1.4,4.3-2.4,6.7-2.9
		c0.8-0.2,0.6-1.6,1.5-1.8c1.1,2.8,0.9,6.2,3.7,8.3c-2.4,0-4,1.7-6,2.8C334,398.9,333.4,399.2,332.5,398.7z"/>
	<path class="st0" d="M343.8,405.2c0.4,2.8,1.2,5.4,3,7.7c-2.3,2-5.4,2.6-7.8,4.5c-0.9-0.6-1.5-2.1-1-2.4c1.6-0.9,0.4-1.7,0.3-2.6
		c0-0.6-0.2-1.1-0.2-1.7c0.1-0.4-0.5,0.1-0.1,0c0.1,0,0.1,0.1,0.1,0.3c0.1,1.2-0.3,1.8-1.5,0.9c-0.6-0.5-1-1.2-1.1-2
		C338.3,408.4,341,406.8,343.8,405.2z"/>
	<path class="st0" d="M390.4,379.2c1.8,1.6,3.6,3.1,4.6,5.4c0.7,0.8,0.2,1.7,0.1,2.5c-0.5,3.3-1,6.5,0.3,9.7c0.3,0.6,0,1.3-0.4,1.9
		l0,0c-1.6,0.2-1.9-1.1-2.3-2.2c-2.1-5.6-3.3-11.4-5.4-17c-0.3-0.8-0.9-1.9,0-2.4c1.1-0.7,1.6,0.7,2.3,1.3
		C389.9,378.6,390.1,379,390.4,379.2z"/>
	<path class="st0" d="M501.8,255c2.6-2,5.2-4.1,8.3-6.5c-1,5.3-3.6,8.6-7.9,10.5c-2.5,1.1-5.1,2-7.6,3c-0.6,0.3-1.2,0.4-1.6,0
		c-0.5-0.5-0.2-1.2,0.3-1.6C495.8,258.1,497.9,255,501.8,255z"/>
	<path class="st0" d="M410.9,95.1c0.8,0.8,1.5,1.6,2.3,2.4c0.7,0.9,0.1,1.6-0.6,1.9c-3.3,1.5-6.5,3.4-10.1,4.2
		c-0.5,0.1-1.2,0.2-1.6-0.3c-0.6-0.6-1.2-1.1-1.8-1.7c-0.7-0.6-1.4-1.5-0.2-2.1c3.5-1.7,6.9-3.6,10.6-4.7
		C410,94.8,410.5,94.8,410.9,95.1z"/>
	<path class="st0" d="M130.4,433.1c0.9-3.3,0.5-6.3-1.2-9.3c5.4,1.9,5.4,6.7,5.9,11.2c0.1,1-0.1,2.1,0.6,3c0.9,1.3,1.4,2.7,0.6,4
		c-0.4,0.8-1.5,0.6-2.4,0.1c-2.6-2.4-1.4-5.8-2.4-8.6C131.3,432.9,131.4,432.2,130.4,433.1z"/>
	<path class="st0" d="M62.1,145.8c-0.1-0.1-0.1-0.3-0.1-0.5c0.4-1.1,1.4-1.2,2.2-0.9c3.3,1.4,6.9,2.3,9.6,5c0.2,1.4-1,2.3-1.3,3.5
		c-0.7,1.6-2.2,0.9-3.3,1.1c-2.4-0.4-4.4-1.8-6.6-2.8c-0.5-0.2-1-0.7-0.6-1.4c0.4,0,0.8,0.1,1.3,0.1c-0.6-1.3-2.9-0.9-2.4-2.8
		c2.8-0.8,4.6,1.5,6.6,2C66.1,147.7,63.3,148,62.1,145.8z"/>
	<path class="st0" d="M64.8,167.1c-0.2,0.6-0.3,1.1-0.5,1.7c-1.1,3.3-3.2,4-5.3,1.1c-1.5-2-3.5-2.6-5.3-3.8
		c-0.7-0.5-2.1-0.6-1.2-2.1c2.3-0.9,3.5,1.5,5.2,1.8c-1.2-1.1-3.3-1.3-4.4-2.9c0-0.3,0-0.7,0-1c0.2-0.3,0.4-0.5,0.7-0.4
		C58,162.5,61.9,164,64.8,167.1z"/>
	<path class="st0" d="M202.2,471.8c-1.2-3.9-0.1-7.9-0.9-11.8c-0.1-0.8,0.6-1.3,1.4-1c1.3,0.6,3.4,0.1,3.7,2.2
		c0.5,3.6-0.1,7.2-0.8,10.7C205.2,473.9,203.4,472.6,202.2,471.8c1.3-1.9,0-4,0.4-6.1c0.2-0.9-0.1-1.9,0-2.4c0,1.9-0.1,4.2,0.1,6.6
		C202.7,470.7,202.8,471.3,202.2,471.8z"/>
	<path class="st0" d="M76.1,146.4c-0.4,0.6-0.8,1.2-1.1,1.8c-1.2,0.7-2.3,0-3.3-0.5c-2.7-1.3-5.7-2-8-4.2c0.5-1.7,0.5-1.7,3.7-0.9
		c-0.3-1.2-2.5-0.8-2.3-2.5c1-0.9,2-0.4,2.9,0c2.3,1.1,4.6,2.1,6.8,3.3C75.9,144.1,77,144.8,76.1,146.4z"/>
	<path class="st0" d="M144.4,434.1c-1.8,0.4-1.1,1.9-1,2.8c0.2,1.2,0.6,2.4,0.4,3.7c-1.9-0.3-1.7-2.4-3-3.4c0.2,1.2,1.6,2,0.8,3.3
		c-1.6,1.8,0.2,3.7-0.2,5.5c-0.8-0.6-1.5-1.2-2.3-1.9c-1.3-4-1.8-8.1-2.4-12.2c-0.1-0.9,0-2,1.4-2.1
		C140.2,431.2,142.3,432.7,144.4,434.1z"/>
	<path class="st0" d="M215.2,363.3c0.1-0.4,0.3-0.8,0.2-1.1c-0.4-9.5-0.1-19,2.7-28.2c-0.4,7.5-0.8,15.1-1.2,22.6
		c-0.1,1.4,0.1,2.8-0.1,4.1c-0.2,1.9,0.9,1.5,2,1.4C217.8,363.2,216.5,363.3,215.2,363.3z"/>
	<path class="st0" d="M75,137.6c0.8,0.4,1.5,0.9,2.4,1.1c2.9,0.7,2.9,2.2,1.1,4.1c-0.2,0.4-0.6,0.6-0.9,0.5
		c-3.4-1.1-6.6-2.9-9.6-4.8c-0.6-0.4-1.1-1.2-0.5-2c0.2-0.3,0.5-0.7,0.7-1C70.9,134.3,72.8,136.2,75,137.6z"/>
	<path class="st0" d="M133.3,376.3c-1.8,4.5-0.5,9,0.4,13.5c0.2,0.8,0,1.7,0.1,2.6c-0.3,0.2-0.7,0.3-1,0.5
		c-1.1-7.9-2.2-15.8-3.3-23.7c-0.3-1.8-0.6-3.5,0-5.9c1.3,2.6,0.7,5.2,2,7.1C132.7,372.1,132,374.5,133.3,376.3z"/>
	<path class="st0" d="M467.5,125.8c-0.8-1.5-1.5-1.8-3.1-0.8c-5.8,3.7-11.7,7.1-17.6,10.6c-1.5,0.9-3,1.8-4.9,1.9
		c0.5-1.6,1.8-1.9,2.8-2.5c6.4-3.7,12.9-7.4,19.4-11c1.2-0.7,2-1.5,1.7-3C466.7,122.5,467.3,124.1,467.5,125.8z"/>
	<path class="st0" d="M451,105.8c1.8-1.4,3.8-2.6,5.9-3.6c1.1,0.7,2.3,1.2,2.9,2.5c-3.9,0.9-7.1,3.5-10.7,5.2
		c-3.5,1.6-6.9,3.7-10.4,5.4c-0.5,0.3-2,1.6-1.8-0.7c0.6-1,1.6-1.4,2.5-1.9c5.7-3.2,11.6-6.1,17.3-8.8
		C454.9,104.1,453.5,106.8,451,105.8z"/>
	<path class="st0" d="M347.2,423.4c0.9,2,2,3.9,2.4,6c0.1,0.8,0.7,1.1,1.3,1.3c-1.2,1.4-3.1,1.7-4.6,2.6c-1.5,0.9-1.4-0.6-1.5-1.5
		c-0.1-2.2-1-4.1-2-6C344.4,425,345.5,423.7,347.2,423.4z"/>
	<path class="st0" d="M217.6,393.9c-1.3-0.4-0.5-1.5-0.9-2.1c-0.3,0.6,0,1.9-1.3,1.7c-1-0.2-0.8-1.2-0.8-2c0-1.4,0-2.7-0.6-4.1
		c0,1.3,0,2.5,0,3.8c0,0.7,0.1,1.6-0.8,1.6c-0.9,0-1.5-0.6-1.5-1.5c-0.1-2.1-0.1-4.1-0.1-6.2c0-0.6,0.3-1,0.9-0.8
		c1.3,0.4,3,0.3,3.8,1.8c0.3,0.6-0.1,1.4,0.7,1.8C218.2,389.8,219,391.8,217.6,393.9z"/>
	<path class="st0" d="M157.4,447.1c1.4,1.6,2.1,0.4,2.9-0.7c0.1,0.1,0.2,0.2,0.3,0.3c0.8,3.3,0,6.8,1.2,10.1c0,0.3-0.1,0.6-0.3,0.8
		c-2.4-1.1-4.8-2.3-7.2-3.4c0.6-1.2,0.3-2.7,1.3-3.8c1.1-0.1,0.8,0.8,0.9,1.4c-0.1-0.6-0.2-1.2-0.4-1.8
		C155.8,448.8,154.6,447.1,157.4,447.1z"/>
	<path class="st0" d="M138.1,429.8c-1.9,2.2-0.1,4.5,0.3,6.6c0.5,2.6,1,5.1,0.8,7.8c-1.5-1.4-3.7-0.7-5.3-1.8
		c1.5,0.3,2.5,0.1,1.9-1.9c-0.2-0.7-0.1-1.5-0.1-2.3c1.1-0.5,0.9-1.3,0.7-2.2c-0.4-1.5-0.7-3-0.9-4.5c-0.1-1-1.2-2.3-0.1-2.9
		C136.3,428,137.2,429.3,138.1,429.8z"/>
	<path class="st0" d="M390.4,379.2c-1.1-0.2-1.6-1.4-2.9-2.1c1.1,5.4,2.8,10.3,4.5,15.2c0.8,2.2,0.8,4.8,3,6.4
		c-0.6,0.6-1.2,1.1-1.8,1.7c-1.6-5.3-3.6-10.4-4.7-15.8c-0.7-3.3-3-6.1-2.9-9.6C388.2,375.3,389.1,377.4,390.4,379.2z"/>
	<path class="st0" d="M429.8,108.7c4.3-2.4,8.8-4.2,13.4-6c3.5-1.4,6.4-3.7,9-6.4c1.5,0.5-0.7,1.9,0.7,2.4
		c-4.8,3.5-10.4,5.5-15.8,8.1c-1.7,0.8-3.3,1.6-5,2.3C431.3,109,430.4,109.6,429.8,108.7z"/>
	<path class="st0" d="M67.3,136.4c0,0.6-0.1,1.2,0.6,1.5c3.5,1.6,6.8,3.8,10.5,4.8c-0.8,1.2-1.5,2.5-2.3,3.7
		c0.1-0.7,0.2-1.4-0.6-1.7c-3.5-1.4-6.7-3.8-10.5-4.6C65.8,138.9,66.5,137.6,67.3,136.4z"/>
	<path class="st0" d="M98.6,138.8c0.6-1,1.7-0.1,2.1-0.9c-0.2-0.8-1-0.9-1.5-1.3c-0.5-0.6-2.3-0.8-1-2c0.9-0.9,2-2.5,3.5-0.5
		c0.9,1.2,2,2.4,3,3.6c0.5,0.6,1.6,1.3,0.6,2.2c-0.8,0.7-1.6,1.8-3,1.1C101.1,140.3,99.8,139.5,98.6,138.8z"/>
	<path class="st0" d="M142.1,140.1c-0.6,0.3-1.2,0.7-1.9,0.3c-3.5-1.7-6.9-3.4-10.4-5.2c-2.8-0.5-5-2.4-7.5-3.5
		c-1-0.5-1.8-1.6-3.1-1.2c-1-0.5-1.1-1.3-0.6-2.3c6.6,2.6,12.6,6.5,19.1,9.5c0.8,0.4,1.7,2,2.9,0.5
		C141.3,138.5,142,139.1,142.1,140.1z"/>
	<path class="st0" d="M27.1,250.8c2.3,0.7,1.2-1.3,1.6-2.1c0.3-0.6,0-1.7,1.2-1.6c1,0.1,1.6,0.6,1.8,1.6c1,4.3,1,4.3,6.1,5.1
		c0.3,0.2,0.9,0.5,0.8,0.7c-0.1,0.7-0.8,0.4-1.1,0.3c-4.2-1.1-8.4-2.3-12.7-3.4c-2.5-0.6-4.9-1.9-7.6-1.7c0.9-1.2,2.5-0.5,3.6-1.2
		C22.8,249.6,25.4,248.9,27.1,250.8z"/>
	<path class="st0" d="M161.6,457.7c0-0.2,0-0.4,0-0.6c0.2-3.5,0.1-7.1-1-10.5c-0.1-0.1-0.2-0.1-0.3-0.1c1.3-0.7,2.1-3.4,4.2-1.1
		c0.7,3.6,0.7,7.3,1.2,11c0.1,0.9,0.3,2-0.6,2.7C163.8,458.8,162.6,458.4,161.6,457.7z"/>
	<path class="st0" d="M356,419.4c-1.3-1.9-1.6-3.6,0.8-4.9c0.2-1.7-0.7-3.7,1-5.1c1,0.9,1.3,2.2,1.2,3.5c-0.1,0.1-0.2,0.2-0.2,0.2
		c-0.8,1.1,0.2,1.7,0.7,2.5c0.5,2.6,1.9,5.1,1.8,7.8c0.1,0.7,0.2,1.4-0.6,1.7c-0.8,0.3-0.8-0.4-1.2-0.9c-1.4-1.9-2.5-4-3.1-6.8
		C356.2,418.4,356.1,418.9,356,419.4z"/>
	<path class="st0" d="M149.1,451.2c1-0.6,0.6-1.7,0.8-2.6c1.2-3.1-0.3-6-0.6-9c-0.1-0.8-0.7-1.9,0.3-2.3c0.9-0.3,1.5,0.6,1.9,1.4
		c1.4,4.6,2.9,9.2,1.3,14.1C151.2,453.1,150.5,451.5,149.1,451.2z"/>
	<path class="st0" d="M199.3,471.2c-1.2-0.4-2.4-0.7-3.6-1.1c-1.5-4.1-0.5-8.2,0-12.3c0.1-0.5,0.7-0.5,1.2-0.1c0,3.5,0,7,0,10.5
		c0.7-2.7,0-5.6,1.2-8.3C200.4,463.4,200,467.3,199.3,471.2z"/>
	<path class="st0" d="M4.2,264.4c8.3,2.1,16.6,4.3,24.4,8c-1.6,0.6-2.8-0.4-4.2-0.5C18,271,12.2,268.2,6,266.6
		c-0.7-0.2-1.8-0.5-1.8-1.6C4.2,264.8,4.2,264.6,4.2,264.4z"/>
	<path class="st0" d="M335.5,409.9c1.3-0.1,0.9,1.6,1.9,1.9c1-0.6-0.4-1.4,0.5-2.4c0.8,2.3,1.5,4.3,2.2,6.4
		c-1.3,0.4-0.7-1.2-1.5-1.2c-0.5,1,0.4,1.9,0.4,2.8c-2.5,2.3-2.9,0.2-3.6-1.6c-1.2-1.4-2-2.9-1.7-4.8
		C334.1,410.3,334.9,410.2,335.5,409.9z"/>
	<path class="st0" d="M69.6,157.6c-0.4,1.2-1,1.6-2,1.1c-3-1.4-6-2.8-8.9-4.2c-0.7-0.3-1.1-0.9-0.7-1.6c0.2-0.5,0.6-1.2,1.3-0.9
		c3.3,1.6,6.5,3.2,9.8,4.9C69.3,156.9,69.5,157.4,69.6,157.6z"/>
	<path class="st0" d="M112.1,117.6c0.1,1.8,1.7,2,2.8,2.6c4.3,2.4,8.7,4.8,12.8,7.6c-6.2-1.8-11.6-5.3-17.4-7.8
		C110.9,119.1,111.2,118.1,112.1,117.6z"/>
	<path class="st0" d="M214.6,461.8c1.3-0.1,2.5,0.1,2.4,1.7c0,3.5,0.1,7-0.3,10.4c-0.2,1.4-1.7,1-2.6,0.1c1-2.9-0.6-5.8-0.3-8.7
		C214,464.2,213.6,462.9,214.6,461.8z"/>
	<path class="st0" d="M86.1,126.4c-2.1-1.6-4.5-2.6-7.1-3c-0.6-0.1-1.8-0.2-1.5-1.3c0.3-1.1,1.2-0.6,1.9-0.4c2.7,0.8,5.3,2.3,8.4,2
		c0.9-0.1,2.3,0.3,2.8,1.3c0.4,1-0.8,1.6-1.4,2.3c-0.4,0.6-0.9,1.4-1.8,1.3C86.1,128.4,87.2,126.8,86.1,126.4z"/>
	<path class="st0" d="M395,365.1c-0.8-2.2-1.6-4.3-2.4-6.5c-0.2-0.6-0.8-1.2-0.1-1.9c0.9-0.9,1.3,0.3,2,0.5c1.2,0.3,1.6,1.5,2.1,2.6
		c0.7,1.4,1,3.2,2.5,4.1C397.7,364.1,396.5,365.2,395,365.1z"/>
	<path class="st0" d="M242.4,394.6c0,0.8,0,1.6,0,2.3c0,1.1-0.3,1.9-1.6,1.8c-1.3-0.1-2-0.6-1.9-2c0.1-1.3-0.1-2.5,0-3.8
		c0.1-1.1-0.4-2.6,1.6-2.4c1.6,0.1,2.2,1,2,2.6C242.4,393.6,242.4,394.1,242.4,394.6z"/>
	<path class="st0" d="M395,398.7c-1.9-4.7-0.9-9.4,0-14.2c1.2,3.4,2.4,6.8,3.5,10.2c-2-1.2-1.7-3.5-3.4-5.1
		c-0.3,2.1,0.5,3.8,1.1,5.5C396.9,396.8,396.4,397.9,395,398.7z"/>
	<path class="st0" d="M472.1,155.2c-0.4-0.2-0.8-0.4-1.2-0.6c-1.4-0.1-3.4,1.9-4-1.1c1.3-1.1,2.3-2.6,4.1-3c0.5,2.6,1.6,1.1,2.7,0.5
		c0.8-0.4,1.6-1.8,2.5-0.3c0.9,1.4,0,2.2-1.2,2.7C474.4,154.6,473.7,155.6,472.1,155.2z"/>
	<path class="st0" d="M4.2,265c5.6,2.6,11.7,3.7,17.5,5.8c0.9,0.3,1.9,0.4,2.7,1.1c-0.9,0-1.3,1-2.1,1.2c-5.1-1.8-10.3-3.2-15.3-4.9
		c-1-0.4-2.1-0.5-2.8-1.5C4.2,266.1,1.9,265.5,4.2,265z"/>
	<path class="st0" d="M17.2,273.1c1.1,1,2.8,0.4,3.8,1.6c-0.8,1.3-1.8,0.4-2.6,0.2c-4.6-1.3-9.2-2.7-13.8-4.1
		c-0.8-0.2-1.9-1.3-2.1,0.6c-1.8-1.8,0.8-1.5,1.1-2.3c1.4-1,2.6,0,3.9,0.3C10.8,270.4,14.3,270.9,17.2,273.1z"/>
	<path class="st0" d="M485.2,174.2c-2.4,0.1-3.9,1.9-5.8,3.1c-4.2,2.6-7.9,5.9-12.5,7.9c3.5-3.6,7.8-6.1,11.8-8.9
		c1.5-1,3.2-1.9,4.3-3.4C484.4,172.2,484.5,173.6,485.2,174.2z"/>
	<path class="st0" d="M115.7,429.2c2-0.6,0.9-2.1,0.7-3c-0.5-3.4-1.3-6.7-1-10.2c2.4,4.9,2.5,10.4,3.8,15.7
		C117.9,431.1,116.6,430.4,115.7,429.2z"/>
	<path class="st0" d="M180.4,465.4c0-3.3,0.2-6.5-0.3-9.8c-0.2-1.1-1.1-2.8,1.1-3.3c0.2,0.2,0.4,0.4,0.6,0.6c1.5,4.2,1.9,8.5,1,12.9
		C181.9,465.7,181,466.3,180.4,465.4z"/>
	<path class="st0" d="M172.1,461.9c0.2-3.5-0.6-6.9-0.9-10.4c-0.1-1.1-0.6-2.3,0.3-3.3c1,0.4,1.9,0.9,2.9,1.3c0,2.1,0,4.2,0,6.3
		c-0.1,0-0.3,0-0.4,0c-0.1-1.5-0.2-3.1-0.3-4.6c-1.5,2.2-1.2,4.5-0.8,6.9c0.3,1.5,1,3-0.4,4.4C172.5,462.3,172.3,462.1,172.1,461.9z
		"/>
	<path class="st0" d="M506,237.9c-4.2,4.2-9,7.7-13.8,11.1c-0.2-0.2-0.4-0.5-0.6-0.7c4.5-3.7,9.1-7.5,13.6-11.2
		C505.4,237.4,505.7,237.6,506,237.9z"/>
	<path class="st0" d="M209.4,468.3c0,1.4,0,2.7,0,4.1c0,0.5-0.3,1-0.8,1c-0.6,0-0.8-0.4-1-0.9c-0.9-3.7-0.6-7.6-0.6-11.4
		c0-0.5,0.3-1,0.8-1c0.7,0,0.9,0.6,1,1.2C208.9,463.7,209.6,465.9,209.4,468.3z"/>
	<path class="st0" d="M389.7,403.4c-2.2,1.9-3.5,1.9-3.8-1.5c-0.2-2.2-0.6-4.3,0.9-6.2c0.6-0.5,1.2-0.3,1.4,0.3
		C389.1,398.4,390.5,400.7,389.7,403.4z"/>
	<path class="st0" d="M70.1,401.1c-2.2-6-3.1-12.4-4-18.7c2,5.7,3.7,11.5,4.7,17.5C70.6,400.3,70.4,400.7,70.1,401.1z"/>
	<path class="st0" d="M56.1,157.6c-0.2-1.7,0-1.9,1-1.5c3.2,1.4,6.4,2.9,9.6,4.3c1,0.4,0.9,1.1,0.6,1.9c-0.6,0.6-1.4,0.8-2.1,0.4
		C62.1,161,58.7,160.1,56.1,157.6z"/>
	<path class="st0" d="M501.8,255c-3.7,1.3-6.1,4.1-9.1,6.8c0.8,0.1,1.4,0.2,1.9,0.3c-1.1,0.7-2.1,1.8-3.5,0.6
		c-0.9-0.8-1.4,0.8-2.3,0.6c3.2-3.3,6.7-6.2,10.4-9C499.8,255.2,501,254.6,501.8,255z"/>
	<path class="st0" d="M4.2,266.7c5.4,1.6,10.8,3.3,16.1,4.9c0.8,0.3,1.7,0.5,2,1.5c-1.4,0.4-2.6-0.4-3.9-0.5
		c-4.6-0.8-9-2.5-13.5-3.9c-0.6-0.2-1.4-0.4-1.4-1.3C3.8,267.1,4,266.9,4.2,266.7z"/>
	<path class="st0" d="M232.6,464.7c-1.5,4.1,3,7.5,0.8,11.8c-0.8-0.2-0.4-0.9-0.6-1.4c-0.1,0.4-0.2,0.8-0.3,1.3
		c-0.1,0.4-0.3,0.8-0.7,0.7c-0.2,0-0.7-0.3-0.7-0.4c0-4,0-8,0-12C231.6,464.7,232.1,464.7,232.6,464.7z"/>
	<path class="st0" d="M130.3,393.9c0.8-2.8-0.8-5.3-0.9-7.9c-0.2-3.5-1.2-7-0.9-10.7c1.2,1.6,1.1,3.5,1.4,5.3
		c0.6,3.6,1.1,7.3,1.6,11c0.1,0.8,0.4,1.2,1.3,1.2C132.2,393.7,131.3,393.9,130.3,393.9z"/>
	<path class="st0" d="M79.7,412.3c-0.4-4.6-1.9-8.9-2.6-13.5c-0.2-1.1-0.6-2.2,0.3-3.9c1.5,5.9,2.8,11.2,4.2,16.6
		C80.9,411.8,80.3,412,79.7,412.3z"/>
	<path class="st0" d="M410.9,95.1c-4.2,1-7.7,3.5-11.8,4.9c-1.1,0.4-0.2,1.1-0.1,1.7c-1-0.8-1.9-1.6-2.9-2.4
		c4.6-0.8,8.3-3.6,12.3-5.6c0.1,0-0.1-0.5-0.1-0.8C409.2,93.6,410.1,94.4,410.9,95.1z"/>
	<path class="st0" d="M385.6,363.3c1.6-0.1,1.1-1.2,1-2.1c-0.5-3.6-1.8-7-2.6-10.5c0.3-0.1,0.6-0.2,0.8-0.3
		c1.6,4.9,3.3,9.8,4.9,14.6C388.4,364.2,386.5,364.9,385.6,363.3z"/>
	<path class="st0" d="M86.1,126.4c2.8-0.5,0.3,1.8,1.2,2.3c0.2,1.6-1.1,2.5-1.8,3.6c-2.3-1.6-5-2.5-7.6-3.6c-1.2-0.5-2.7-0.6-3-2.3
		c0.2-0.2,0.4-0.4,0.6-0.5c2.5-0.3,4.5,1.5,6.8,1.9c0.7,0.1,1.3,0.9,2.1,0.3C86.4,128.8,86.2,127.6,86.1,126.4z"/>
	<path class="st0" d="M188.6,468.2c-0.6-0.1-1.3,0.3-1.6-0.5c-0.8-4.1-1.6-8.2-1.1-12.4c0.4-1.9,1.1-0.9,1.6-0.2
		c0.4,0.6-0.2,1.5,0.6,2C189.2,460.8,190,464.4,188.6,468.2z"/>
	<path class="st0" d="M184.6,453.4c1.1,1.2,0.4,2.7,0.6,4.1c0.8,2.2,0.7,4.4,0.6,6.6c-0.1,2.8-0.1,2.8-1.9,2.4
		c-1.2-3.5-1-7.2-1.3-10.8C182.5,454.7,182.5,453,184.6,453.4z"/>
	<path class="st0" d="M217.5,385.8c4,1,4.1,1.3,3.4,5c-0.3,1.2-0.3,2.5-0.4,3.8c-1.1,0.8-1.2-1.7-2.3-0.7
		C217.7,391.3,217.6,388.5,217.5,385.8z"/>
	<path class="st0" d="M97.3,148.2c-0.1,0.9,0.5,2.2-0.4,2.6c-0.8,0.4-1.7-0.5-2.5-1.1c-1.1-0.7-2.1-1.5-3.5-1.7c0,0,0,0,0,0
		c-0.1-0.3-0.2-0.8-0.4-1c-0.6-0.6-1.3-1-0.5-1.9c0.7-0.8,1.2,0.1,1.8,0.2c0.5,0.1,0.9,0.3,1.4,0.4
		C94.7,146.4,96.5,146.4,97.3,148.2z"/>
	<path class="st0" d="M405,89.8c-4.5,0.8-8,3.6-12,5.5c-0.1,0,0.1,0.7,0.1,1.1c-0.7-1.8-3.4-1.1-3.9-3.2c1.3,0.9,2.6,0.9,4,0.1
		c3.3-1.7,6.6-3.2,9.9-4.8C403.8,89,404.4,89.4,405,89.8z"/>
	<path class="st0" d="M3.5,267.3c3.8,1.8,8,2.6,11.9,4c1,0.4,2,0.8,3,1.2c-0.4,0.2-0.8,0.4-1.2,0.5c-4.5-1.3-9.1-2.7-13.6-4
		c-0.6-0.4-1.7-0.3-1.7-1.3C2,266.7,3,267.5,3.5,267.3z"/>
	<path class="st0" d="M468,177.5c3.7-2.5,7.4-4.9,11-7.5c1.3-0.9,3.3-1.4,3.3-3.6c0.8,0.8,0.5,2.1,1.1,3c-3.2,0.3-5.3,2.8-7.9,4.2
		c-2.4,1.3-4.5,3-6.8,4.6C468.3,178.2,468.1,178,468,177.5z"/>
	<path class="st0" d="M165,458.9c-0.3-3.6-0.5-7.1-0.8-10.7c-0.1-1-0.6-2.1,0.3-3c0.4,0.2,0.8,0.4,1.2,0.6c0.3,3.9,0.5,7.9,0.8,11.8
		c0.1,0.9,0.2,1.5-0.9,1.7C165.4,459.3,165.2,459.1,165,458.9z"/>
	<path class="st0" d="M184.6,453.4c-2.6,2-1.2,4.8-1,7.1c0.2,2,0.4,4,0.3,6c-0.4-0.3-0.8-0.5-1.2-0.8c-0.3-4.3-0.7-8.6-1-12.9
		C182.7,453.1,183.8,452.5,184.6,453.4z"/>
	<path class="st0" d="M192.2,455.9c0.4,0.2,0.8,0.4,1.2,0.6c1.7,3.3-0.8,6.6-0.1,9.9c-0.1,0.4,0.5,0,0.1,0.1c-0.1,0-0.2-0.1-0.1-0.2
		c0.5-1.9-0.9-4.2,1.3-5.7l0,0c1.2,2.6,0.7,5.3,0.4,7.9c-0.2,2-1.6,0.9-2.7,0.6c-0.4-0.3-0.7-0.7-0.8-1.2c-0.2-3.9-0.3-7.9-0.3-11.8
		C191.6,455.7,191.9,455.7,192.2,455.9z"/>
	<path class="st0" d="M361.3,423.5c-1.2-2.7-2.3-5.4-2.4-8.4c-0.6-0.8-0.5-1.5,0.1-2.3c0,0,0,0,0,0c1.8,2.6,2.4,5.7,3.6,8.5
		c0.4,0.9,0.5,2.1,1.8,0.9C364.2,423.7,363.3,424.1,361.3,423.5z"/>
	<path class="st0" d="M56.1,157.6c2.9,0.8,5.5,2.6,8.1,3.9c1,0.5,1.8,1.2,3,0.8c-0.3,0.8-0.6,1.7-1,2.5c-0.1,0-0.3,0-0.4,0
		c-3.6-1.8-7.2-3.6-10.7-5.5c-0.2-0.2-0.4-0.4-0.5-0.6C55.2,158.3,55.7,158,56.1,157.6z"/>
	<path class="st0" d="M249,478.1c-1.7-1.1-2-2.8-1.3-4c1.3-2.3,1-4.7,1.2-7.1c0.1-0.6,0.1-1.3,0.8-1.3c0.8,0,0.7,0.8,0.6,1.4
		C249.9,470.7,250.3,474.4,249,478.1z"/>
	<path class="st0" d="M389.7,403.4c-1.2-2.5-0.7-5.5-2.9-7.6c0.8-0.8,1.5-1.6,2.3-2.4c0.6,2.8,0.6,5.9,3.6,7.7
		C392.1,402.3,390.4,402.3,389.7,403.4z"/>
	<path class="st0" d="M486.9,178.9c-0.7-0.3-1.1-1.9-2.1-0.3c-1.9,3-5.3,4-8.6,6.2c1.2-3.3,3.8-3.8,5.5-5.4c1.4-1.2,3.4-1.6,4.1-3.5
		C486.6,176.7,487.1,177.7,486.9,178.9z"/>
	<path class="st0" d="M62,149.8c2.3,1.7,4.9,2.6,7.5,3.7c0.8,0.1,1.7,0.2,1.5,1.3c-0.1,0.8-0.7,0.8-1.4,0.5
		c-3.6-1.7-7.3-3.1-10.6-5.7C60.3,149,61.2,149.1,62,149.8z"/>
	<path class="st0" d="M115.7,146.5c-1.2,1.4,0.3,1.6,1,2c2.5,1.5,5,2.9,7.6,4.3c1,0.6,1.9,1.1,2.8,2.8c-1.9-0.9-3.1-1.5-4.4-2.1
		c-3.3-1.2-6.6-2.3-8.9-5.3C114.6,147.8,114.2,146.1,115.7,146.5z"/>
	<path class="st0" d="M72.6,128.7c3.6,1.3,7.2,2.7,10.9,4.1c0.5,0.2,0.9,0.5,0.8,1c-0.1,0.6-0.6,0.8-1.1,0.6
		c-3.7-1.5-7.4-3.1-11.1-4.7C72.3,129.4,72.5,129.1,72.6,128.7z"/>
	<path class="st0" d="M74.9,126.4c2.7,1.8,5.9,2.4,8.7,3.8c0.9,0.4,2.2,0.4,2,2c-4.2-0.5-7.6-2.9-11.3-4.4
		C73.2,127.4,73.8,126.5,74.9,126.4z"/>
	<path class="st0" d="M203.3,367.4c1.2-2.7,0-5.6,0.9-8.8c1.9,2.5,0.4,5.1,1.5,7.3c0-2.6,0-5.3,0-7.9c1.2,2,0.6,4,0.9,6
		c0.2,1.3,0.6,2,2,1.7C207.1,366.7,205.2,367,203.3,367.4z"/>
	<path class="st0" d="M203.4,63.9c3.2,0.6,2.2,4.3,4.3,5.7c-1.8-0.1-2.9-1.4-4.2-2.4c-1.4-1.1-2.7-2.6-4.8-2.2
		C200.1,63.8,201.9,64.4,203.4,63.9z"/>
	<path class="st0" d="M64.8,167.1c-2.9-1.5-5.9-3.1-8.8-4.6c-0.9-0.5-1.7-1-2.7-0.7c0.8-0.9,0.4-2.4,1.5-3.2
		c0.1,0.1,0.2,0.2,0.3,0.2c3.2,2.9,6.5,5.4,11,5.7c0.1,0.1,0.2,0.2,0.3,0.2C66.3,165.9,65.4,166.4,64.8,167.1z"/>
	<path class="st0" d="M75,137.6c-2.5-0.1-4.4-2.3-7-2.2c0.6-1.3,1.8-1.8,2.9-2.5c0.6-0.3,1.2-0.4,1.2,0.6c-0.3,1.5,1.1,1.2,1.8,1.6
		c0.8,0.5,1.9,0.8,2.8,1.2C76.3,137.3,75.2,136.9,75,137.6z"/>
	<path class="st0" d="M119.2,130.5c0-0.6,0.2-1,0.9-0.6c3.2,1.8,6.5,3.6,9.7,5.3c0.2,1.6-0.3,2.4-1.9,1.4c-0.7-0.4-1.5-0.9-2.2-1.3
		c0.9-0.2,1.2-0.5,0.2-1C123.6,133,121.4,131.7,119.2,130.5z"/>
	<path class="st0" d="M152.8,452.9c0.3-4.8-1.3-9.3-1.3-14.1c0.8,0.1,1.8-0.4,2.4,0.6c0,1.2-1.4,2.4,0.1,3.6c0.1,0.9-0.7,1.9,0,2.8
		c0.4,1.8-0.1,3.7,0.5,5.5c0.2,1,0.2,2-0.5,2.8C153.2,454,152.8,453.7,152.8,452.9z"/>
	<path class="st0" d="M254.9,466c1.6,0.2,1,1.4,1.1,2.2c0.2,3.3-0.5,6.6-0.7,9.9c-0.8,0.8-1.3,0.2-1.3-0.5c-0.1-1.3-0.3-2.7,0.2-4
		c0-1,0.1-1.9,0.1-2.9C255.1,469.2,253.5,467.4,254.9,466z"/>
	<path class="st0" d="M192.3,468.9c1.6,0.6,2.4,0.3,2.4-1.7c-0.1-2.2,0-4.4,0-6.6c0.8-0.7,0.4-1.7,0.6-2.5c0.3-1.1,0.8-1.6,1.7-0.4
		c-1.8,0.1-1.2,1.5-1.1,2.4c0.3,3.4-0.1,6.7-0.1,10c-1.4,0.1-2.8-0.3-4.1-0.7C191.6,468.8,191.7,468.6,192.3,468.9z"/>
	<path class="st0" d="M224.7,392.4c-0.1-1.1,0.1-2.4,0.6-3.6c0.5-1.2,1.5-0.9,2.2-0.4c0.9,0.6,0.4,1-0.3,1.5
		c-1.5,1.1-0.5,2.7-0.7,4.1c-0.2,0.7,0.4,1.9-0.6,2c-1.2,0.1-1-1.1-1.1-1.9C224.7,393.6,224.7,393.1,224.7,392.4z"/>
	<path class="st0" d="M188.6,468.2c-0.2-3.7-0.4-7.4-0.5-11.1c1.2-0.1-0.1-3.5,2.4-1.8c-0.4,2.2-0.4,4.4,0,6.7
		c0.3,1.7,0.7,3.5-0.6,5C189.5,467.4,189,467.8,188.6,468.2z"/>
	<path class="st0" d="M218.8,475.1c-0.8-3.8-0.7-7.7-0.7-11.5c0-0.5,0.2-1,0.8-1c0.5,0,1,0.5,0.8,1
		C218.6,467.4,220,471.4,218.8,475.1z"/>
	<path class="st0" d="M452.4,113.9c2.2-2.3,5.3-3.2,7.8-4.9c0.5-0.3,1-0.3,1.2,0.2c0.3,0.6,0.1,1.3-0.4,1.5
		C458.2,112,455.5,113.6,452.4,113.9z"/>
	<path class="st0" d="M212.9,474.1c-1,0.1-1.1-0.4-1.2-1.2c0-3.5-0.1-6.9-0.1-10.4c0-0.8,0-1.8,1.2-0.7c1.1,1.1,0.8,2.6,0.8,3.9
		C213.8,468.5,213.2,471.3,212.9,474.1z"/>
	<path class="st0" d="M72,133.4c-0.4-0.2-0.8-0.4-1.2-0.6c-1.1-1.1-0.4-1.4,0.6-1.1c3.7,1.1,7.1,2.9,10.4,4.9
		C78.3,136.4,75.3,134.5,72,133.4z"/>
	<path class="st0" d="M415,99.3c-3.4,2.9-7.7,4.2-11.8,5.9c-0.1,0-0.3-0.4-0.5-0.6c2.5-2.7,6-3.3,9.1-5
		C412.8,99,413.8,98.5,415,99.3z"/>
	<path class="st0" d="M27.1,250.8c-2.1-0.7-4.7-0.3-6.3-2.3c0.9-0.2,1.8-0.5,2.7-0.7c1.1,0.1,2.3-0.2,3.3,0.5
		C28,249,28.1,249.8,27.1,250.8z"/>
	<path class="st0" d="M221.3,475.5c0-4,0-8.1,0-12.1c0.2,0,0.4,0,0.6,0c0,4,0,8.1,0,12.1C221.7,475.5,221.5,475.5,221.3,475.5z"/>
	<path class="st0" d="M470.4,142.2c-2.2,1.8-5.1,2.7-7.2,4.7c-0.6-0.4-1-0.9-1-1.7c2.4-1.3,4.3-3.4,7-4.2
		C469.3,141.8,469.7,142.1,470.4,142.2z"/>
	<path class="st0" d="M118.6,154c-0.7,0.4-0.1,0.8-0.1,1.2c-3.3-1.4-6.2-3.3-9.3-5.2c0.8-1,1.5-0.6,2.1-0.6
		C114,150.6,117.3,150.8,118.6,154z"/>
	<path class="st0" d="M113.8,148.3c3,1.8,5.9,3.5,8.9,5.3c-1.2,0-2,2.2-3.5,0.7c0-1.4-1.2-1.5-2.1-2.1c-1.7-1-3.7-1.7-5.1-3.2
		C112,147.3,113.2,148.6,113.8,148.3z"/>
	<path class="st0" d="M415,99.3c-2.6-0.4-4.3,1.5-6.4,2.3c-2,0.9-4,2-6,2.9c-0.3-0.8-1.6-0.3-1.8-1.2c4.4-1.2,8.8-2.7,12.3-5.8
		C413.8,98.1,414.4,98.7,415,99.3z"/>
	<path class="st0" d="M383.2,386.3c0.1,0,0.2,0,0.3-0.1c1.3-0.5-0.4-2.7,1.3-2.6c1.6,0.1,1.5,2.1,2.1,3.3c0.6,1.3,1.3,2.6,1,4.2
		C386.3,389.5,384.8,387.9,383.2,386.3z"/>
	<path class="st0" d="M199.3,471.2c0-3.8,0.4-7.6-1.2-11.3c0.1-0.6-0.2-1.5,0.7-1.7c0.7-0.2,1,0.4,1.1,1c0.2,3.7,0.3,7.3,0.5,11
		C200.4,471,200.1,471.4,199.3,471.2z"/>
	<path class="st0" d="M94.4,145.3c-1.2-0.7-2.6-1.2-3.5-2.4c2.2-0.6,5.7,1,8.1,3.5C96.9,148.5,95.8,146.4,94.4,145.3z"/>
	<path class="st0" d="M225,466.2c0.3,2.8,0.6,5.6,0.8,8.5c0.1,0.7-0.1,1.5-1,1.5c-0.8,0-0.7-0.8-0.7-1.3c0-2.9,0-5.7,0-8.6
		C224.4,466.2,224.7,466.2,225,466.2z"/>
	<path class="st0" d="M464.5,117.6c-0.6-1.2-1.3-1.3-2.5-0.6c-2.3,1.2-4.4,2.7-7.9,3c2.9-2.3,5.5-3.7,8.1-4.8
		C462.8,116.1,465.1,115.4,464.5,117.6z"/>
	<path class="st0" d="M192.3,468.9c-0.2,0.2-0.4,0.3-0.7,0.5c-0.2-0.2-0.4-0.4-0.5-0.5c-0.7-1-0.6-2.1-0.6-3.2
		c0.2-2.4-0.4-4.9-0.2-7.3c0.1-0.9-0.4-2.3,1.3-2.4C192.5,460.3,192.2,464.6,192.3,468.9z"/>
	<path class="st0" d="M100.9,158.7c-0.2,0.2-0.5,0.5-0.7,0.7c-3.6-1.9-7.1-4.1-10.3-6.8C93.7,154.5,97.6,156.2,100.9,158.7z"/>
	<path class="st0" d="M63.7,143.5c3.8,1.4,7.2,4,11.3,4.7c-0.4,0.4-0.8,0.7-1.2,1.1c-3-1.4-6-2.7-8.9-4.1c-1-0.5-1.9-1-2.8,0.1
		C61.8,143.9,63.2,144.2,63.7,143.5z"/>
	<path class="st0" d="M48.4,173.5c-0.2,1.5,0.8,1.9,1.9,2.5c2.9,1.5,5.8,3,8.7,4.6c0,0.7,0.1,1.3-0.5,1.9c-2.8-3.1-6.8-4.4-10.2-6.4
		c-0.2-0.1-0.7,0.3-1,0.4C47.4,175.4,47.7,174.4,48.4,173.5z"/>
	<path class="st0" d="M191.1,465.9c0,1,0,1.9,0,2.9c-0.8-0.3-1.2-0.9-1.2-1.8c0.4-3.2-0.8-6.3-0.5-9.5c0.1-0.8-0.5-2.1,1.1-2.2
		c0,0,0,0,0,0c0.7,2.5,0.2,5,0.3,7.5C190.8,463.8,190.5,464.9,191.1,465.9z"/>
	<path class="st0" d="M333.7,411.1c0.8,1.5,1.6,3,1.7,4.8c-0.6,0.4-1.1,1.8-2,0.4c-0.6-1-1.2-2-1.7-3.1
		C330.8,411,333.1,411.8,333.7,411.1z"/>
	<path class="st0" d="M154,454.1c0-1,0-1.9-0.1-2.9c-0.2-1.7-0.8-3.4,0.4-5c2.3,0.8,1.7,2.6,1.6,4.3c-0.6,1.2,0.9,3.2-1.5,3.7
		C154.2,454.2,154.1,454.2,154,454.1z"/>
	<path class="st0" d="M500.4,253.1c-1.2-0.9-0.4-1.5,0.2-2.2c0.9-1.2,2.6-1.8,2.7-3.5c2,1.1,2.1,2.3,0.2,3.6
		C502.5,251.7,501.5,252.4,500.4,253.1z"/>
	<path class="st0" d="M185.8,464.1c-1.1-2.1-0.5-4.4-0.6-6.6c0.7-0.6,0.1-1.6,0.6-2.3c0.8,4.1,1.1,8.2,1.1,12.4
		C185.7,466.8,186.8,465.1,185.8,464.1z"/>
	<path class="st0" d="M397.8,387.1c1.8,1.2,2.1,2.6,3.2,3.3c0.6,0.4,0.7,1.5,0.2,2.2c-0.3,0.4-0.9,0.9-1.4,0.9
		c-1.2,0-0.7-1.2-0.9-1.8C398.4,390.4,398.2,389.1,397.8,387.1z"/>
	<path class="st0" d="M19,250.7c3,0.2,5.6,1.7,8.3,3c-3.4-0.5-6.9-1-10.1-2.4C17.8,251.1,18.6,251.5,19,250.7z"/>
	<path class="st0" d="M212.9,474.1c0-4.1,0-8.2,0-12.3c0.4,0,0.8,0,1.3,0c0.3,2.7,0.5,5.5-0.1,8.2
		C212.8,471.2,214.4,473.1,212.9,474.1z"/>
	<path class="st0" d="M93,140.2c2.7,0.4,4.7,1.9,6.9,3.1c0.4,0.2,0.9,0.5,0.4,1.1c-0.3,0.4-0.7,0.3-1,0.1
		C97,143.3,94.6,142.2,93,140.2z"/>
	<path class="st0" d="M62.1,145.8c2.5,1.2,5.1,2.3,7.9,4.6c-3.7-0.6-6.1-2.9-9.1-3.3C61.3,146.7,61.7,146.2,62.1,145.8z"/>
	<path class="st0" d="M452.2,117.6c-1.6,1.7-3.8,2-5.6,2.9c-1.8-0.8,1.9-1.8-0.4-2.5c1.4-0.4,2.7-2.5,4.2-0.1
		C450.5,118.1,451.6,117.7,452.2,117.6z"/>
	<path class="st0" d="M112,149c2.5,1.3,5,2.6,7.5,4c1.2,0.7,0.8,1.1-0.4,1.2c-0.1-0.1-0.3-0.2-0.5-0.2c-2.4-1.5-4.9-3-7.3-4.5
		C111.6,149.3,111.8,149.1,112,149z"/>
	<path class="st0" d="M194.6,460.5c-1.4,1.9,0.1,4.5-1.6,6.4c-0.7-3.5,0.7-6.9,0.3-10.4C195.4,457.4,194.5,459.1,194.6,460.5z"/>
	<path class="st0" d="M84.5,128.1c-0.9,1.4-1.9,0.3-2.8,0c-2.1-0.6-4.1-1.5-6.2-2.2c-0.3-1.7,0.8-1,1.4-0.8
		C79.4,126.1,81.9,127.1,84.5,128.1z"/>
	<path class="st0" d="M207.6,391c-0.4-0.2-0.8-0.4-1.2-0.6c-0.4-2.7-0.5-5.5,0-8.2c0.6,0.1,1.4-0.2,1.8,0.5
		C207.8,385.5,208.8,388.3,207.6,391z"/>
	<path class="st0" d="M207.6,391c0.4-2.8-0.9-5.7,0.6-8.3c1.2,2.6,0.4,5.4,0.5,8.1C208.7,391.5,208,391.2,207.6,391z"/>
	<path class="st0" d="M209.9,383.6c1.2,2.4,0.7,5,0.7,7.5c0,0.2-0.3,0.5-0.6,0.5c-0.5,0.1-0.7-0.3-0.7-0.7
		C209.4,388.4,209.1,386,209.9,383.6z"/>
	<path class="st0" d="M500.6,223.1c-1.8,2.2-4.3,3.4-6.7,4.9c1.5-2.4,3.7-4.1,5.9-5.6C500.1,222.6,500.4,222.9,500.6,223.1z"/>
	<path class="st0" d="M70.9,400.4c1.7,1.8,2.8,3.9,2.9,6.5c-0.3,0.4-0.7,0.8-1.1,1.3C72.3,405.5,70.7,403.2,70.9,400.4z"/>
	<path class="st0" d="M232,397.2c-1.3-2.5-0.8-5-0.8-7.6c0.3,0,0.5,0,0.8,0C232,392.1,232,394.6,232,397.2z"/>
	<path class="st0" d="M91.4,160.2c2.4,0.7,4.5,1.8,6.7,3.9C94.9,163.8,93,162.2,91.4,160.2z"/>
	<path class="st0" d="M252.9,474.6c0.2,1.1-0.2,2-1.2,2.7c0.7-3.6-0.6-7.3,0.7-10.9c1.3,1.5,0,3.1,0.3,4.7
		C252.8,472.3,252.4,473.5,252.9,474.6z"/>
	<path class="st0" d="M471.5,150.5c0.1-0.2,0.2-0.4,0.4-0.4c2.7-1.3,3.6-3.2,2.2-6c1.3,1.3,2.1,3.1,1.4,4.7
		C474.9,150.1,473.2,150.8,471.5,150.5z"/>
	<path class="st0" d="M471.6,137c-1.4-1.3-2.3,0.7-3.5,0.5c-0.1-0.6-2.1-0.9-0.3-1.8c1-0.5,1.9-2,3.2-0.6
		C471.3,135.6,471.4,136.4,471.6,137z"/>
	<path class="st0" d="M53.3,162.9c2.2,1.2,4.4,2.3,6.7,3.5c-2.9,0.4-4.8-2.2-7.4-2.4C52.5,163.5,52.8,163.1,53.3,162.9z"/>
	<path class="st0" d="M209.8,365c0.1-1.9-0.2-3.8,0.5-5.8c1.9,1.2-1,5.2,3.1,4.7C212.5,365.1,210.9,364.2,209.8,365z"/>
	<path class="st0" d="M58.4,414.7c1.4-1.7-1-3.4,0.2-5.5c1.2,2,1.7,3.9,1.7,5.9C59.7,415.1,58.9,415.5,58.4,414.7z"/>
	<path class="st0" d="M342.5,432.4c-0.3-0.1-0.4-0.1-0.5-0.1c-1.1-1.5-2.3-2.8-2.2-4.8c0-0.1,0.6-0.4,0.7-0.4
		C341.9,428.6,342,430.5,342.5,432.4z"/>
	<path class="st0" d="M214,470.1c0-2.7,0.1-5.5,0.1-8.2c0.2-0.1,0.3-0.1,0.5,0c-0.2,4.1,0.7,8.2-0.5,12.3
		C214.1,472.8,214,471.4,214,470.1z"/>
	<path class="st0" d="M252.9,474.6c-1.2-2.6-0.2-5.4-0.5-8.1c0.3-0.4,0.6-0.6,1.1-0.5c0.6,0.5,0.6,1.1,0.2,1.8
		C252.9,470,253.1,472.3,252.9,474.6z"/>
	<path class="st0" d="M260,470.6c-0.1-1-0.1-1.9,1.1-3.2c0.5,3.6,0.2,6.7-0.4,9.8C260.1,475,261.4,472.6,260,470.6z"/>
	<path class="st0" d="M306.6,361.5c-0.6-2.3-3.1-0.2-4.1-1.8c2.8-0.1,5.5,0.4,8.2,1.8C309.3,361.5,307.9,361.5,306.6,361.5z"/>
	<path class="st0" d="M47.2,176.5c1,2.3,3.7,2.4,5.5,4.5c-2.6-0.2-4.1-1.9-6-2.6C46.9,177.7,46.6,177,47.2,176.5z"/>
	<path class="st0" d="M217.5,385.8c1.4,2.6,0.3,5.4,0.6,8.1l-0.3,0.1l-0.3-0.1c0.2-2-0.5-4-0.7-6C217,387.2,216.5,386.3,217.5,385.8
		z"/>
	<path class="st0" d="M155.8,450.5c-0.2-1.4,0-3-1.3-4.1c-0.2-0.1-0.3-0.1-0.3-0.3c0.1-0.1,0.1-0.2,0.2-0.2c1.1,0.2,2.2,0.2,3,1.2
		c-1.7,0-1.3,1.2-1,2c0.4,1.2,0.4,2.5,0.3,4C156,452.2,156.7,451.1,155.8,450.5z"/>
	<path class="st0" d="M191.1,465.9c-1.3-2-0.3-4.1-0.6-6.2c-0.2-1.4-0.1-2.9-0.1-4.4c0.7,0,1.4-0.2,1.8,0.6c-0.2,0-0.4,0-0.6,0.1
		c-1.5,2.1-0.2,4.5-0.6,6.7C190.8,463.7,191,464.8,191.1,465.9z"/>
	<path class="st0" d="M342.9,425.7c1.9,1.6,2.5,3.6,2,6C344,429.8,342.7,428,342.9,425.7z"/>
	<path class="st0" d="M94.4,145.3c1.7-0.2,2.7,2.5,4.7,1.1c0.3,1.4-1.4,1.1-1.7,1.9c-1.4-0.8-2.8-1.6-4.2-2.4
		C93.6,145.8,94.1,145.8,94.4,145.3z"/>
	<path class="st0" d="M234.2,393.5c-0.6-0.2-0.7-0.7-0.7-1.2c0-0.9-0.4-2,0.5-2.7c0.2-0.2,0.8-0.2,1,0c1.4,1-0.5,1.6-0.4,2.4
		C234.8,392.5,234.9,393.2,234.2,393.5z"/>
	<path class="st0" d="M154,443c-0.2,0.2-0.5,0.3-0.7,0.5c-0.4-1.4-1.6-3,0.6-4.1C155.2,440.6,154.5,441.8,154,443z"/>
	<path class="st0" d="M35.5,235.9c-0.2,1.4-1.4,2.3-0.8,3.9c-0.3-0.1-0.6-0.1-0.9-0.2c-0.1-1.3-0.1-2.6-0.2-3.9c0-0.3,0.1-0.7,0.1-1
		c0.6,0.2,1.3,0.4,1.9,0.6c0.1,0.1,0.1,0.2,0.1,0.3C35.6,235.9,35.5,235.9,35.5,235.9z"/>
	<path class="st0" d="M42.4,194.2c1.2,0.3,2.2,0.8,2.9,2.1c-1.7,0.4-3.7-1.8-4.7,0.8C40.3,195.6,41.3,194.9,42.4,194.2z"/>
	<path class="st0" d="M17.2,251.3c-2.5-0.7-4.7,0.7-7.1,1.1C12.3,251,14.5,249.4,17.2,251.3z"/>
	<path class="st0" d="M277.7,451.7c0,0.6,0.7,1.3,0,1.9c-0.4,0.4-1,0.4-1.3,0c-0.9-1-0.7-2.1-0.4-3.4
		C276.7,450.7,277.2,451.2,277.7,451.7C277.7,451.8,277.7,451.7,277.7,451.7z"/>
	<path class="st0" d="M472.1,155.2c1-0.6,2-1.1,3-1.7c0.4,0.2,0.8,0.4,1.3,0.7c-1.2,0.6-2.3,1.4-3.5,1.9
		C472,156.4,471.5,156.2,472.1,155.2z"/>
	<path class="st0" d="M159.8,148.8c0,1.6,2.2,2.3,1.6,4.3c-2.1-0.1-1.2-2.8-2.9-3.1C158.8,149.3,159.2,148.9,159.8,148.8z"/>
	<path class="st0" d="M69.6,155.3c0.5-0.1,1.2,0.2,1.2-0.7c0-0.9-1.1-0.6-1.4-1.1c0.8-1.4,2.3,0.7,3.1-0.6
		C72,154.2,72.3,156.5,69.6,155.3z"/>
	<path class="st0" d="M284.6,367.9c0.2,0.5,0.7,0.6,1.2,0.6c-1,1.6-2.6,2.1-4.1,2.8C282.5,370,283.3,368.8,284.6,367.9z"/>
	<path class="st0" d="M206.4,382.2c0,2.7,0,5.5,0,8.2C205.4,387.7,205,384.9,206.4,382.2z"/>
	<path class="st0" d="M258.9,477.7c-0.1-2.4,0.3-4.8,1.1-7.1C260.1,473,260.2,475.4,258.9,477.7z"/>
	<path class="st0" d="M6,277.3c1.2-0.1,2.1,0.4,3.1,1.3c-1.5,1-2.6,0-3.7-0.1C5.6,278.1,5.8,277.7,6,277.3z"/>
	<path class="st0" d="M506.7,246.8c0.6-1.3,1.5-2.1,2.9-2.5C509.2,246.2,509.2,246.2,506.7,246.8z"/>
	<path class="st0" d="M51.4,204.9c-0.1-2.4,0.2-4.6,1.7-6.6C52.8,200.5,52.2,202.7,51.4,204.9z"/>
	<path class="st0" d="M303.8,352.3c-0.3-0.3-0.6-0.6-0.8-0.8c0.8-1.1,1.9-1.7,3.7-2.5C305.7,350.6,304.9,351.6,303.8,352.3z"/>
	<path class="st0" d="M91.4,149.5c-0.8,0-1.5-1.4-2.3-0.4c-0.4,0.5,0.5,0.9,0.7,1.4c-1.5,0.1-1.6-1-1.3-1.9c0.5-1.6,1.6,0,2.4-0.4
		c0,0,0,0,0,0C91.1,148.6,91.3,149,91.4,149.5z"/>
	<path class="st0" d="M470.2,132.8c-0.2,1-0.7,1.2-1.4,1.2c-0.5,0-1.1-0.1-0.9-0.7c0.2-0.4,0.8-0.8,1.3-1
		C469.6,132.2,470.1,132.4,470.2,132.8z"/>
	<path class="st0" d="M285.2,349.9c-0.1,0.4-0.3,0.7-0.4,1.1c-1-0.8-1.6-1.8-2-3.1C283.8,348.3,284.7,348.8,285.2,349.9z"/>
	<path class="st0" d="M253.6,467.8c-0.1-0.6-0.1-1.2-0.2-1.8c0.5,0,0.9,0,1.4,0c-0.7,1.5,0.2,3.2-0.7,4.7
		C253.8,469.7,254.4,468.6,253.6,467.8z"/>
	<path class="st0" d="M416.8,100.6c-0.7,1.5-1.6,1.8-3.2,1.9C414.5,101.2,415.2,100.5,416.8,100.6z"/>
	<path class="st0" d="M74.5,414.1c-1.1-1.2-0.8-2.1-0.6-3.2C75,412.1,75,412.1,74.5,414.1z"/>
	<path class="st0" d="M254.1,473.5c0,1.2,0,2.3-0.1,3.5c0,0.8,0.2,1.3,1.2,1.1c-0.7,1.3-1.5,0.9-1.6-0.2
		C253.5,476.5,253,474.9,254.1,473.5z"/>
	<path class="st0" d="M154.5,445.9c0,0.2,0.1,0.3,0.1,0.5c-1.5,1.4-0.2,3.3-0.7,4.8c-0.7-1.8-1-3.6,0.1-5.4
		C154.1,445.8,154.3,445.9,154.5,445.9z"/>
	<path class="st0" d="M260.7,477.1c0.2,0.5,0.2,1.2,1,1.2c1.2,0,0.5-1.5,1.3-1.9c0.2,1.4,0.2,2.7-1.8,2.4
		C260,478.7,259.6,478,260.7,477.1z"/>
	<path class="st0" d="M508.3,237.9c-0.7-1.2-1.6-0.8-2.3,0c-1.3,0.7-2.5,1.5-3.6,2.4c1.1-0.9,2-1.9,2.8-3.2c2.6-2.8,2.6-2.8-0.5-5.2
		c-0.7-0.5,0-0.8,0.1-1.1c0.4-1.1-1.2-7.4-2.1-8c-0.8-0.6-1.4-0.1-2,0.4c-2,0.8-3.5,2.2-5.1,3.6c1.2-1.7,3.6-2.2,4.3-4.3
		c2-1.1,2.1-2.6,1.2-4.5c-0.6-1.4-1.1-2.9-1.6-4.4c-4.2-11.5-8.4-23-12.5-34.5c-0.3-1-0.8-2-1.7-1.4c0.3-0.4,0.6-0.9,0.6-1.6
		c-0.2-0.6-0.4-1.1-0.6-1.7c-1.1-0.8-2-0.2-2.9,0.4c-1.7,1.2-3.4,2.3-5.1,3.4c-3.2,2.1-6.3,4.6-9.5,6.4c5-3.2,9.8-6.7,14.8-10.1
		c0.5-0.3,0.8-0.8,0.6-1.5c-1.2-0.1-1.9,0.8-2.8,1.4c-1.5,1-3,2.2-5,2c2.3-2.7,6.3-3.5,8.2-6.8c-1.3-1.1-2.4-0.2-3.5,0.5
		c-3.9,2.4-7.7,5-11.4,7.7c-8.2,5.4-16.5,10.7-24.9,16.5c0.2-0.2,0.2-0.4,0.1-0.6c-0.9-2.1,1.1-2.9,1-4.4c-0.2-0.6-0.8-0.8-1.4-0.9
		c-1.6,0.1-2.7,1.1-3.9,2c-1.9,2.1-4.7,3-6.7,4.9c-0.6,0.5-1.4,0.9-1.3,1.7c0,0.1,0.1,0.1,0.1,0.2c5.2,1.7,9,5.2,12.1,9.4
		c5.6,7.4,10.4,15.4,16.2,22.8c0.9,1.2,0.5,1.6-0.7,2c-5.6,2-11.3,4-16.9,6.1c-1.9,0.7-2.5-0.5-3.3-1.6c-4.5-5.4-8.2-11.2-12.1-17
		c-0.1-0.2-0.2-0.3-0.3-0.5c-7.4-11.2-13-10.1-23.7-5.9c-1.7,0.6-0.9,1.6-0.6,2.6c3.6,10,7.2,19.9,10.9,29.8
		c0.8,2.2,0.5,3.1-1.7,3.8c-4.9,1.6-9.8,3.4-14.7,5.3c-1.9,0.8-2.5,0.1-3.1-1.6c-8.6-23.6-17.2-47.2-25.8-70.8
		c-1.4-3.9-2.8-7.8-4.3-11.6c-0.6-1.6-0.3-2.4,1.3-3.2c11.9-5.9,24-11.2,37-14.2c4.1-0.9,8.4-1.3,12.6-0.8
		c10.5,1.3,17.1,7.3,20.4,17.1c3.2,9.5,0.7,17.7-6,25c-0.6,0.6-1.7,1-1.3,2c0.3,0.8,1.4,0.5,2.1,0.6c0.4-0.3,0.8-0.3,1.1-0.2
		c1.9-1.1,3.5-2.6,5.5-3.7c1.6-0.8,2.5-2,2.8-3.7c1.2-0.8,2.3-1.6,3.4-2.6c1.9-1,3.5-2.4,5.3-3.6c6-4.4,12.5-8,18.6-12.5
		c-0.1,0.3-0.1,0.7,0.2,1.2c0.9,1.6,2.4,0.3,3.6-0.3c3.3-1.7,6.1-4.2,9.3-6.2c0.9-0.6,1.6-1.5,1.1-2.7c-0.7-2.1-1.4-4.3-2.2-6.4
		c-0.3-0.9-0.7-1.9-2-1.7c-1.4,0-2.5,1.4-4,0.6c-0.4-0.4-0.9-0.6-1.4-0.5c-2.5,0.5-4.3,2.6-7.3,2.9c1.4-1.2,2.5-2.1,3.6-3.1
		c1.4-1,2.7-2.1,3.9-3.5c0.2-0.1,0.3-0.1,0.5-0.1c4.2-1.9,4.4-2.3,2.6-6.4c-0.9-1.4-0.7-4.9-3.7-1.8c-2.8,0.7-5.3,2.1-7.4,4.1
		c-1.7,0.9-3.2,2.2-5.4,2.7c1.8-1.1,3.5-2,4.9-3.3c2.3-1.4,4.8-2.6,6.7-4.6c1.6-0.9,3.6-1.5,2.3-4.1c-1.5-2.1-2.4-0.5-3.5,0.5
		c-2.4,1.2-4.5,2.9-7.4,2.7c1.1-1,2.3-1.8,3.4-2.6c0.5-0.4,1.3-0.8,0.9-1.6c-0.4-0.8-1.1-0.5-1.8-0.4c-1.4,0.3-2.7,1.2-4.8,1
		c2.7-1.6,4.8-3.2,7.2-4.3c2.8-1.3,4-2.9,2.2-5.8c-0.1-0.2-0.2-0.6-0.3-0.8c-0.6-2.5-2-2-3.7-1c-6.5,4-13,8.1-19.9,11.5
		c7.1-3.8,14-7.9,20.8-12.1c1.4-0.9,1.6-1.8,1-3.2c-1.7-0.7-1.4-2.1-1.2-3.5c-0.3-1.6-1.3-1.7-2.6-1.2c-1.8,0.7-3.4,1.8-5.2,2.3
		c1.8-1.1,4-1.7,5.4-3.6c0.7-0.7,1.1-1.5,0.3-2.3c-0.7-0.7-1.4,0-2.1,0.4c-2.8,1.4-5.5,2.9-8.2,4.3c-1.9,1.2-3.9,1.8-6,0.4
		c-0.6,0.3-1.1,1.1-1.7,0.2c-0.8-1,0.6-1.2,0.8-1.4c4.2-2.8,8.3-5.7,12.7-8.1c2.1-1.1,2.9-2,1.8-4.2c-1.4-1.1-2.5-0.1-3.7,0.5
		c-5.3,2.9-10.6,5.8-16,8.7c-0.8,0.4-1.6,1.3-2.7,0.5c-0.5-0.5-0.6-0.9,0.1-1.3c4.2-2.6,8.8-4.6,13.2-6.8c0.2-0.1,0.5-0.2,0.7-0.4
		c1.9-1.2,4.1-1.9,5.4-3.8c1.3-1.3,0-2-0.6-2.8c-1-1.3-2.1-1.4-3.4-0.6c-0.6,0.2-1.2,0.1-1.7,0.4c-6.1,3.8-12.8,6.2-19.2,9.4
		c-2.6,1.3-5.1,2.7-7.8,3.8c2-1,4-2,5.9-3.1c5.7-3,11.9-4.9,17.4-8.2c1.9-1.1,4.1-2.1,4.7-4.7c-3.2-1.8-5.7,1-8.9,1.4
		c0.9-1.4,2.5-1.2,3.1-2.5c-1.9-0.4-3.5,0.3-5.1,0.8c-6.6,2.3-13.1,4.7-19.7,7.1c-0.7,0.3-1.6,1-2.2,0.3c-1.9-2.3-3.5-0.4-5.2,0.2
		c-1.4,0.5-2.7,1.2-4,1.8c-0.5,0.2-0.5,0.1-1.1-0.4c-1.2-1-2.1,0.3-3.1,0.6c-0.6,0.2-1.7,0.5-1,1.3c2.1,2.2-0.1,2.2-1.3,2.6
		c-22.3,8.1-44.6,16.2-66.9,24.3c-2,0.7-3.5,0.6-5.4-0.5c-24.9-15.1-51.9-22.4-81-21.3c-27.6,1-52.9,9.4-75.7,25
		c-1.4,0.9-2.9,1.6-2.7,3.8c0.1,0.8-0.5,1.3-1.7,1.3c-4-0.2-7.4,2.9-7.2,6.5c-1.2-1.3-2.4-1.4-3.3,0c-0.3,0.6-0.2,1.1,0.1,1.6
		c-0.3-0.3-0.6-0.5-1.3-0.4c-18.4,16.8-31.5,37.1-39.5,60.8c-0.6,1.7-1.4,2.8-3.1,3.4c-8.5,3-17,6-25.5,9.1
		c-11.5,4.2-23,8.5-34.5,12.7c-1.8,1.3-3.5,2.6-6,2.4c-0.5,0-1.4,0.3-1.3,1c0.2,2-0.9,2.1-2.4,2.1c-0.6,0-1,0.5-1.4,1
		c-0.9,1.3-2.1,1.7-3.6,1.2c-0.7-0.2-1.6-0.4-1.7,0.5c-0.5,3.2-3.4,5.8-2.5,9.4c0.1,0.2,0.1,0.5,0.1,0.6c0.4,0.1,0.1,0.2-0.2,0
		c-4.5-1.9-9.4-2.6-14.1-4.1c-1.9-0.6-3.9-1.2-5.9-0.4c0.3,0.8,1,1,1.7,1.1c0.8,0.6,1.7,1,2.6,1.3c-1.5-0.4-2.9-0.6-4.4-0.7
		c-2.6-1.1-4.8,0.1-7.1,1.1c-3.7,1.5-6.2,4.3-7.7,8c-0.9,2.2-0.6,3.5,1.9,4c0.9,0.8,2,1.1,3.1,1.4c6.2,1.7,12.2,3.7,18.2,5.6
		c-0.4-0.1-0.8-0.1-1.2-0.1c-0.9,0.1-1.6,0.6-2.3,0.9c-1.3,0.3-2.5-0.4-3.8-0.2c-0.6,0.1-1.1,0.3-1.2,1.1c0.2,0.6,0.7,0.9,1.2,1.1
		c0.2,0.1,0.2,0.1,0.3,0c0.1-0.4,0.3,0.3-0.1,0.1c-0.4,0-0.7-0.2-1.1-0.3c-4-1.6-8.2-2.4-12.3-3.9c-1.9-0.7-2.3-0.3-2.6,1.3
		c3.5,1.7,7.5,2.2,10.7,4.8c-3.1-0.9-6.2-1.8-9.9-2.9c1,1.9,0.4,3.8,2.7,4.1c2,1.5-1,0.5-0.6,1.2c-0.9,1.9,2,1.8,1.7,3.3
		c-0.6,2.9,1.2,3.9,3.5,4.7c3.3,1.2,6.7,2.1,10.4,4.3c-4.3,0.7-7.6-2.9-11.4-0.8c0.1,0.5,0.2,0.9,0.4,1.4
		c14.1,38.5,28.1,77,42.2,115.4c1.2,3.4,3.2,6,6.3,7.9c2.1-0.5,0.7-1.9,0.7-2.7c0.9,0.7,0.1,2.3,1.2,3.1c1,0.9,2.6,1.4,3.5,0.9
		c1.1-0.6,0-2.1-0.3-3.2c-1-4.9-2.1-9.8-3.2-14.6c-0.3-1.2-0.5-2.3,0.6-3.3c0.8,1,0.9,2.2,1.2,3.3c1.5,5.3,3,10.5,4.3,15.9
		c0.5,2,1.5,2.3,3.1,1.9c1.6-0.4,3-0.8,2.3-3.1c-0.6-2-1-4-1.4-6c-0.3-1.9-1.3-3.7-0.3-5.7c-0.5-0.9,0-1.9-0.2-2.9
		c-0.2-0.7-0.4-1.4-0.5-2c0.4,1.3,0.8,2.5,1.4,3.7c0.1,0.2,0.1,0.3,0.1,0.5c1.1,2.1,1.4,4.6,2.9,6.5c1,0.7,1.1-0.9,2-0.7
		c0.4,1.7,0.9,3.4,1.3,5.1c0.4,1.7,1.3,1.7,2.5,1c0.7-1,0.5-2,0.3-3.1c-0.7-3.7-1.8-7.4-2.4-11.1c0.6,3.6,1.7,7,2.3,10.6
		c0.2,1.2,0.5,2.3,1.6,3c3.1-1.1,6.2-2.1,9.3-3.4c1-0.4,1.6-0.5,2.3,0.3c6.9,7.6,14.8,14.2,22.6,20.8c2.2,0.5,1.8-1.1,1.6-2.2
		c-0.3-3-1-6-1.4-8.8c0.3,1.4,0.5,3,0.9,4.5c0.4,1.7,0.5,3.5,0.8,5.2c0.2,1.4,0.7,2.6,1.6,3.7c2.7,2,5.3,4.1,8,6
		c1.5,1.1,3.3,0.2,3.4-1.6c0.1-1-0.1-1.9-0.1-2.9c2-3.8,1.7-6.3-1.2-9.3c-8.1-6.6-16.4-13-23.8-20.9c8.5-3.1,16.7-6.1,24.9-9.1
		c1.4-0.5,0.8-1.6,0.6-2.5c-0.7-4.3-1.5-8.7-2-13.1c0.6,4.3,1.2,8.6,2.1,12.9c0.2,0.9,0.1,2.2,1.7,1.5l0,0c0.6-0.9,0.6-1.8,0.5-2.8
		c-0.9-7.7-2.4-15.2-3.3-22.1c0.2,0.4,0,1.8,1.2,2.7c0.6-0.6,1.4-0.4,2.2-0.7c0.4-0.4,0.7-1,0.6-1.6c-0.2-1.8-0.4-3.7-0.6-5.5
		c0.1,0.8,0.3,1.6,0.4,2.4c0,1.2,0.3,2.3,1.6,2.8c1.4,5.9,1.6,12,2.3,18c0.6,4.8,0.3,4.8,5.2,3.3c10.9-3.9,21.8-7.8,32.7-11.8
		c1.8-0.7,3-0.5,4.6,0.4c3.7,2.2,7.5,4.2,11.3,6.3c1.3,0.7,2,0.5,1.9-1.2c-0.1-1.5,0-2.9,0-5.1c1.9,3.1-0.4,6.5,2.5,8.2
		c2.3,1.4,4.9,2.4,7.6,3c0.8-7.5,0.5-7.9-5.7-10.8c-1.6-0.7-3.2-1.5-4.7-2.4c-1.6-0.9-3.4-1.3-4.6-3c5.1-1.9,10.1-3.8,15-5.6
		c1.1-0.7,1.4-1.5,1.4-2.4c0,0.1,0,0.1,0,0.2c0,0.5,0.2,1.1,0.7,1.1c0.7,0,0.9-0.7,0.9-1.3c-0.2-1.8-0.2-3.5-0.2-5
		c0.1,1.3-0.2,2.8,0.2,4.3c0.3,1.4,0.9,2.2,2.4,1.3c0.4-0.2,0.8-0.4,1.1-0.6c0.9-0.8,0.6-1.9,0.7-3.3c0,2.5,1.2,2.8,2.9,2.1
		c0.6-0.2,1.1-0.4,1.7-0.6c1.1-1.3,0.9-2.9,0.9-4.5c0,0,0,0,0-0.1c0,0.4,0,0.8,0,1.2c0,1.9,0.3,3.2,2.6,2c1.5-0.8,3-1.7,4.8-1.9
		c1.6-0.2,2.3-1.1,2.3-2.8c0-1.8-0.2-3.7,1-5.7c0.1,0.9,0.2,1.3,0.2,1.8c0.4,5.4,0.4,5.3,5.6,3.4c49.4-17.9,98.8-35.9,148.3-53.8
		c0.8-0.3,1.5-0.9,2.5-0.4c0.2,1.3-0.5,2.3-1,3.4c-7.4,18.2-17.9,34.2-32.2,47.7c-28.1,26.4-61.5,38.8-100,37.7
		c-5.7-0.2-5.7-0.2-6.1,5.2c0,0.1,0,0.2,0,0.3c-0.1,1.3,0.2,2,1.7,2.1c1.3,0.1,2.3,0.1,2.5-1.6c0.1-0.7-0.3-1.8,1.5-2.2
		c-1.7,5,1.8,3.9,4.4,4c8.3,0.2,16.5-0.3,24.6-1.6c31-4.9,57.5-18.6,79.6-40.7c15.9-15.9,27.2-34.7,34.3-56c0.6-1.9,1.6-2.9,3.4-3.5
		c7.3-2.6,14.6-5.2,21.9-7.9c15.2-5.5,30.4-11,45.6-16.6c1.9-0.7,2.7-0.6,2.3,1.7c-0.4,2.2-0.5,4.5-0.7,6.7
		c-4.3,34.8-16.5,66.5-36.6,95.2c-21.1,30-48.2,53-81.3,68.9c-20,9.6-40.9,15.8-62.9,18.7c-8,1.1-16,1.5-24,1.9
		c-0.9,0-2.1-0.3-2.2,1.2c-0.2,3.3-0.4,6.7-0.6,10c0,1.1,0.5,1.5,1.3,0.4c0.5-2.4,0.7-4.7,1.1-7.1l0,0c0.9-0.9,0.9,0.1,0.9,0.5
		c0,2,0.3,4.1-0.2,6.1l0,0c0.2,1.3,0.9,1.8,1.6,1.2c0.6-0.5,0.2-1.3,0.6-1.9c0.3-1.5-0.1-3.3,1.6-4.4c0.8,2.1-0.3,4.2,0.8,6.8
		c1.5-3.8,1-7.3,2.8-10.9c0.6,2.8,0.4,5-0.1,7.2c-0.6,2.6,0.2,3.2,2.7,3c30.5-2.2,59.5-10,86.8-23.9c29-14.8,53.7-35,73.9-60.6
		c7.2-9.2,13.7-18.8,19.6-29.5c-2.5,1.6-2.8,0.1-3-1.4c-0.4-3.9,0.2-7.8,0.6-11.7c0.2-1.5,1.2-1.3,2.1-1.4c2.6-0.2,3.9,2,5.9,3.3
		c2.1-3.4,3.4-7.2,5-10.7c1.2-2.6,2.5-5.1-2.2-7.1c6.1,0.8,6.2,0.5,5.1-7.5c1-0.4,1.5,2.3,2.5,0.6c0.8-1.4,1.1-3.1,1.5-4.8
		c0.1-0.5-0.2-1.1-0.8-0.9c-0.7,0.2-1.6,1-1.7-0.3c-0.1-1.2,0.7-2.8,1.8-2.7c2.5,0.3,2.4-1.4,2.8-2.8c4.4-15.5,7.2-31.3,8.3-47.5
		c0.1-1.8,0.9-2.3,2.3-2.8c2.5-1,5.3-1.5,7.4-3.4c0.7-0.5,1.3-1.1,2.1-1.5c3.2-2,6.1-4.4,8.3-7.5c0.4-0.4,0.8-0.7,1.2-1.1
		c0.2-1.4,1.3-2.1,2.1-3.1c0.6-0.7,1.8-1.4,0.8-2.7c-0.7,0-1.3-0.1-2.4-0.2c2.6-2.3,4.8-4.4,7.2-6.4
		C509.2,239.8,508.9,238.8,508.3,237.9z M439.8,196.9c0.6-0.6,1.4-1,2.1-1.4C441.1,195.9,440.5,196.4,439.8,196.9z M468.8,168.4
		c-0.3,0.3-0.6,0.6-1,0.8C468.2,168.9,468.5,168.7,468.8,168.4z M23.3,252.6c1.1,0.3,2.2,0.5,3.3,1
		C25.5,253.2,24.4,252.9,23.3,252.6z M160.8,152.2c-0.3-0.4-0.4-1-0.6-1.4C160.5,151.2,160.8,151.7,160.8,152.2z M129.1,206.5
		c4.6-11.7,10.6-22.5,18.4-32.4c2.3-3,4.1-5.8,3.7-9.7c-0.1-0.8-0.3-1.9,0.7-2.4c1-0.4,2,0.1,2.6,0.9c1.2,1.5,1.9,0.7,2.6-0.3
		c1.2-1.8,3.7-2.7,3.9-5.3c4.3-1,6.2-5.3,9.8-7.3c0.3-0.2,0.6-0.5,0.9-0.8c-0.3-1.1-2.1-0.9-1.6-2.4c0.5-1.6,1.3-2.7,2.8-1
		c1.2,1.3,2,1.2,3.4,0.2c21.6-15.7,45.8-24.3,72.4-25.7c26.1-1.4,50.6,4.5,73.5,17.1c0.4,0.2,0.8,0.5,1.7,1.1
		c-3.9,1.4-7.3,2.8-10.7,4c-43.7,15.8-87.4,31.7-131.1,47.6c-2.4,0.9-4.9,1.3-7,3.3c-1,1-3.6,0.5-5.5,1.2
		c-12.9,4.8-25.8,9.3-38.7,13.9c-0.8,0.3-1.7,1.1-2.4,0.4C128,208.2,128.8,207.2,129.1,206.5z M67,386.1c0.1,0.3,0.2,0.7,0.3,1.1
		c0.6,2.1,1,4.3,1.4,6.5C68.1,391.1,67.6,388.6,67,386.1z M159.4,320.9c-2.3,11.4-8.9,19.9-18.6,26.1c-1.5,1-3,1.8-4.5,2.8
		c-0.7,0.3-1.5,0.4-2.2,0.6c-1.2,0.7-2.2,1.5-1.8,3.4c0.3,1.6,0.5,3.2,0.7,4.7c-0.3-2.1-0.8-4.2-1.6-6.2c-0.1,0-0.2-0.1-0.4-0.1
		c-7.8,2.7-15.8,4.1-24,2.5c-11.8-2.2-21-8.7-27.6-18.5c-8.6-12.7-12.6-26.7-9.9-42.1c3.4-19.6,19-32.4,38-35.6
		c18.5-3,32.7,4.2,42.8,19.5C158.7,291,162.6,305.3,159.4,320.9z M204.6,361.9c0,0.6,0,1.5,0,2.4
		C204.5,363.4,204.4,362.6,204.6,361.9z M216.1,353.5c0-3.6,0.2-7.2,0.8-10.8c0-0.2,0.1-0.5,0.1-0.7
		C216.5,345.8,216.2,349.7,216.1,353.5z M217.8,336.5c0.1-0.6,0.1-1.2,0.2-1.8c0,0.1,0.1,0.2,0.1,0.2
		C217.9,335.5,217.8,336,217.8,336.5z M222.1,277.2c-8.9,3.1-17.7,6.4-26.6,9.6c-1.9,0.7-2.3,1.4-1.6,3.3c3.7,9.9,7.2,19.9,11,29.8
		c1.1,2.7,0.4,3.7-2.2,4.5c-4.8,1.5-9.5,3.3-14.1,5.1c-1.8,0.7-2.5,0.3-3.2-1.5c-10.1-27.7-20.2-55.5-30.4-83.2
		c-0.6-1.5-0.9-2.6,1.2-3.3c16.5-5.9,33-11.9,49.5-17.9c0.5-0.2,0.9-0.3,1.4-0.5c0.9,0,1.1,0.7,1.4,1.3c1.6,4.2,3,8.5,4.6,12.7
		c0.8,2.1-0.6,2.3-1.8,2.8c-9.5,3.4-19,6.9-28.5,10.2c-2.3,0.8-3.1,1.5-2,4.1c2.1,5,3.8,10.1,5.6,15.2c0.6,1.8,1.4,2.2,3.2,1.5
		c8.9-3.3,17.9-6.5,26.8-9.8c2-0.7,2.9-0.7,3.6,1.6c1.1,3.7,2.5,7.2,3.9,10.8C224.9,275.7,224.3,276.5,222.1,277.2z M291.5,252.1
		c-8.9,3.1-17.7,6.4-26.6,9.5c-2.3,0.8-2.5,1.6-1.7,3.8c3.8,10.1,7.4,20.3,11.2,30.4c0.8,2.1,0.3,2.7-1.6,3.3
		c-5,1.7-10,3.5-14.9,5.4c-1.8,0.7-2.6,0.4-3.2-1.4c-2.2-6.3-4.6-12.5-6.8-18.8c-0.6-1.7-2.1-3.1-2-5.1c0.2-1.4-1.7-1.1-1.7-2.4
		c0.3-1.7-0.2-3.3-0.8-4.9c-6.3-17.2-12.6-34.4-19-51.6c-0.8-2.1-0.8-3,1.7-3.9c16.3-5.7,32.5-11.6,48.7-17.6
		c1.9-0.7,2.6-0.4,3.2,1.4c1.3,3.8,2.7,7.6,4.2,11.3c0.8,2,0.5,2.8-1.7,3.6c-9.7,3.4-19.4,7-29.1,10.4c-2,0.7-2.3,1.5-1.5,3.4
		c2,5.1,3.9,10.3,5.7,15.5c0.7,2,1.4,2.4,3.3,1.6c8.8-3.3,17.7-6.4,26.5-9.8c2.4-0.9,3.2-0.4,3.9,1.9c1.1,3.6,2.4,7,3.9,10.5
		C294,250.4,293.7,251.3,291.5,252.1z M378.6,260.6c-17.3,6.2-34.5,12.4-51.7,18.7c-2,0.7-2.6,0-3.2-1.6
		c-10.1-27.7-20.2-55.5-30.4-83.2c-0.8-2-0.3-2.7,1.6-3.3c16.3-5.8,32.7-11.7,49-17.7c2.4-0.9,3.3-0.4,4,1.9c1.2,3.7,2.6,7.4,4,11.1
		c0.2,0.5,0.4,0.9,0.5,1.3c0,1.5-1.3,1.4-2.1,1.7c-9.7,3.5-19.3,7.2-29,10.5c-2.6,0.9-3.1,1.8-2,4.3c1.8,4.3,3.4,8.8,4.9,13.2
		c0.6,1.7,1.3,2,3,1.4c9.3-3.5,18.6-6.7,27.9-10.2c2-0.7,2.8-0.4,3.4,1.6c1.1,3.5,2.3,7.1,3.8,10.5c1,2.3,0.7,3.4-1.8,4.2
		c-9,3.1-17.9,6.5-26.9,9.6c-2.5,0.8-2.7,1.8-1.8,4c2.1,5.3,4,10.6,5.9,16c0.6,1.9,1.4,2.1,3.2,1.4c10.3-3.8,20.7-7.5,30.9-11.4
		c2.6-1,3.5-0.4,4.3,2.1c1.1,3.7,2.5,7.2,3.9,10.8C380.6,259.2,380.3,260,378.6,260.6z M467.1,184.7
		C467,184.7,467.1,184.7,467.1,184.7C467.1,184.7,467.1,184.7,467.1,184.7z M477.8,183c1.7-1.1,3.4-2.2,5-3.5c0.5-0.4,1-0.7,1.5-1.1
		C482.4,180.4,480,181.6,477.8,183z M493.7,247.3c1.1-0.8,2.2-1.7,3.1-2.6c1.1-1.1,2.4-2,3.7-2.9
		C498.3,243.7,496.1,245.6,493.7,247.3z"/>
	<path class="st0" d="M468,177.5c0.2,0.2,0.5,0.5,0.7,0.7c-7.8,5.2-15.5,10.3-23.3,15.5c-2.3,1.5-4.4,3.4-7.8,4.5
		c1.7-2.7,4.1-3.3,5.8-4.8c-3.3-2.4,0.9-2.6,1.1-4c1.8,0,3.3-3.6,5.3-0.3c0,0,1-0.5,1.4-0.8C456.8,184.8,462.4,181.2,468,177.5z"/>
	<path class="st0" d="M238,279.1c0.8,2.7-0.3,3.6-3,3.4c-1.2-0.1-1.3-0.6-1.3-1.4c0-1.3,0.1-2.5,0.2-3.8c0.1-1.1-0.2-2.7,1.6-2.6
		c1.5,0.1,2.8,0.9,2.6,2.8C238,278.1,238,278.6,238,279.1z"/>
	<path class="st0" d="M43.6,365c0.1-1.5,0.1-2.3,0.2-3.1c0.1-1.1,0.2-2.4,1.7-2.1c1.3,0.2,2.4,0.9,2.4,2.5c0,0.6,0,1.2,0,1.7
		c0,1.4,1.2,3.2-1.6,3.4C43.7,367.7,43.2,366.5,43.6,365z"/>
	<path class="st0" d="M221.2,306.5c0.3,2,0.5,3.7-2.7,3.3c-1.3-0.2-1.5-0.5-1.5-1.4c0-1.5,0.1-2.9,0.3-4.4c0.1-0.8,0-2,1.3-1.9
		c1.2,0.1,2.3,0.6,2.6,1.9C221.3,304.8,221.2,305.6,221.2,306.5z"/>
	<path class="st0" d="M60.6,336.6c0.1-0.7,0.1-1.4,0.2-2.1c0.1-1-0.1-2.4,1.6-2.1c1.3,0.3,2.5,0.8,2.3,2.5c-0.1,0.5-0.2,1-0.1,1.4
		c0.3,1.5,1.3,3.2-1.4,3.6C59.9,340.6,60.6,338.3,60.6,336.6z"/>
	<path class="st0" d="M447.4,182.3c1.9,1.2,3.1-0.4,4.4-1.2c1.7-1,3-2.5,5-2.9l0,0c0.8,1.2-0.2,1.9-1,2.3c-2.8,1.4-5,3.7-7.9,4.7
		c-1.1-0.5-1.9,0.5-2.9,0.7c-1,0.2-2,0.8-2.9,0C443.9,184.7,445.7,183.5,447.4,182.3z"/>
	<path class="st0" d="M464.3,184.1c-4.7,4.3-10.1,7.6-15.5,10.9c-0.2-0.3-0.4-0.6-0.6-0.9c5.2-3.6,10.4-7.1,15.6-10.7
		C464,183.7,464.2,183.9,464.3,184.1z"/>
	<path class="st0" d="M451,105.8c2.2,0,3.8-1.8,6.1-1.9c-6.5,4-13.2,7.7-20.1,10.9c-0.3-0.6-1.9-1.2-0.1-1.8c3.3-0.8,6-2.9,9.1-4.3
		C447.7,107.7,449.6,107.1,451,105.8L451,105.8z"/>
	<path class="st0" d="M442.2,185.9c1.7,0.2,3.1-0.7,4.6-1.3c0.9-0.3,1.2-0.3,1.3,0.7c-1.6,1.2-3.2,2.3-4.8,3.5
		c-1.1,0.6-2.2,1.3-3.3,1.9c-1.4-0.3-1.3-1.3-1.2-2.4C439.8,187.5,441,186.7,442.2,185.9z"/>
	<path class="st0" d="M54.6,388.5c2.2,3.7,2.6,7.4,3.8,10.7c0.1,0.1-0.2,1-0.3,0.5c-0.6-1.7-1.8,1.5-1.9-0.3
		C56,396,53.7,392.8,54.6,388.5z"/>
	<path class="st0" d="M466.9,153.5c0.8,2.3,2.8,0.4,4,1.1c-2.2,1.1-4.5,2.3-6.7,3.4c-0.5,0.3-1.3,0.4-1.6-0.2
		c-0.4-0.6,0.2-1.1,0.7-1.4C464.5,155.4,465.7,154.5,466.9,153.5z"/>
	<path class="st0" d="M451,105.7c-4.1,3.3-8.8,5.4-13.5,7.6c-0.1,0.1-0.4-0.3-0.7-0.4C441.3,109.9,446.1,107.7,451,105.7z"/>
	<path class="st0" d="M161.7,207.2c0.1,1.1,0.4,2.3-1.6,2.3c-1.5,0-1.8-0.7-1.5-1.7c0.3-1.3-1-3.6,1.3-3.9
		C162,203.7,161.6,205.8,161.7,207.2z"/>
	<path class="st0" d="M135.5,366.4c0.8,3.4,0.8,6.7,0,10.1c-0.7-3.5-2.1-7-1.1-10.7c0,0.4-0.2,1,0.3,1.2
		C134.9,367.1,135.2,366.6,135.5,366.4z"/>
	<path class="st0" d="M438.7,188.4c0.4,0.8,0.8,1.6,1.2,2.4c-2.4,2.6-6,3.7-8.3,6.4c-0.6-0.2-1.2-0.4-1.8-0.6
		c2.2-1.6,4.5-3.1,6.7-4.7c0.9-0.6,2.4-1,1.2-2.6C437.5,189,438.1,188.4,438.7,188.4z"/>
	<path class="st0" d="M429.8,108.7c0.8,0.1,1.7-0.4,2.3,0.5c-3,1.8-6.2,3.4-9.6,4.4c-0.2-0.3-0.3-0.6-0.5-0.9
		C424.6,111.4,427.2,110,429.8,108.7z"/>
	<path class="st0" d="M64.2,352.6c-0.3,0.9-1.1,2-2,1.6c-0.9-0.4-2.7-0.1-2.5-1.8c0.1-1.3,0.9-2.1,2.3-2.2
		C63.7,350.1,63.7,351.5,64.2,352.6z"/>
	<path class="st0" d="M462.2,145.3c0.7,0.3,1.3,0.7,1,1.7c-2.3,1.6-4.7,2.9-7.5,3.4C457.4,148,460.1,147,462.2,145.3z"/>
	<path class="st0" d="M237.5,294.9c-0.4,1-1.1,2-2,1.6c-0.9-0.4-2.7,0-2.5-1.8c0.2-1.3,1-2.2,2.3-2.1
		C236.8,292.5,237,293.9,237.5,294.9z"/>
	<path class="st0" d="M67,345.1c-0.2,1-0.7,1.8-1.7,1.6c-1-0.2-2.6-0.2-2.5-1.8c0.1-0.8,0.4-2.2,1.6-2.1
		C65.6,342.9,66.6,343.8,67,345.1z"/>
	<path class="st0" d="M176.6,194.2c1.9,1.9,4.5,2.4,6.2,4.5C178.2,198.8,175.8,197.2,176.6,194.2z"/>
	<path class="st0" d="M240.3,287.6c-0.2,0.9-0.8,1.5-1.8,1.4c-1-0.2-2.6-0.2-2.4-1.8c0.1-0.8,0.3-2,1.6-2.1
		C238.5,285.1,240.3,286.8,240.3,287.6z"/>
	<path class="st0" d="M68.2,347.3c0.8,0.7,2.2,1.2,2.1,2.5c0,0.9-0.8,1.6-1.9,1.4c-1-0.2-2.1-0.6-1.6-1.9
		C67.2,348.6,66.8,347.4,68.2,347.3z"/>
	<path class="st0" d="M243.6,292c-0.2,1.1-0.8,1.7-1.8,1.6c-1-0.1-2-0.5-1.6-1.8c0.2-0.7-0.1-2.1,1.1-2
		C242.4,289.9,243.3,290.8,243.6,292z"/>
	<path class="st0" d="M229.1,300.4c-2.2-1.4-3.3-3.8-4.9-5.7C227.3,295.4,228.1,298,229.1,300.4z"/>
	<path class="st0" d="M133.3,376.3c-2.1-1.5-1.6-3.9-1.9-6c0-1.3,0.5-0.9,1.1-0.4C132.8,372.1,133,374.2,133.3,376.3z"/>
	<path class="st0" d="M173.9,198.2c-0.3,1-0.8,1.5-1.7,1.2c-0.7-0.2-1.7-0.3-1.6-1.4c0.1-0.9,0.7-1.6,1.7-1.6
		C173.5,196.5,173.4,197.7,173.9,198.2z"/>
	<path class="st0" d="M55.5,358.2c-1.5-1.9-3.1-3.8-4.6-5.8C53.9,353.2,54.9,355.5,55.5,358.2z"/>
	<path class="st0" d="M59.9,346.8c-0.5,0.9-1.2,1.3-2.2,1.2c-0.8-0.1-1.3-0.6-0.9-1.4c0.3-0.8,0.7-1.8,1.8-1.4
		C59.3,345.4,59.9,346,59.9,346.8z"/>
	<path class="st0" d="M229.9,289.4c0.2-0.9,0.6-1.7,1.6-1.8c0.8-0.1,1.5,0.7,1.5,1.5c0.1,1-0.8,1.3-1.6,1.4
		C230.7,290.5,230,290.4,229.9,289.4z"/>
	<path class="st0" d="M167,148.8c-0.3,1.3-1.2,1.3-2.1,1.3c-0.7,0-1.2-0.3-1-1c0.2-0.8,0.7-1.8,1.7-1.7
		C166.4,147.4,166.8,148.2,167,148.8z"/>
	<path class="st0" d="M228.9,289.6c-0.5-1.6-2.5-1.1-2-2.9c0.1-0.5,0.6-0.9,1.1-0.7C229.2,286.6,229.8,287.5,228.9,289.6z"/>
	<path class="st0" d="M56.2,345.4c0,0.7-0.4,1.4-0.8,1.1c-0.7-0.6-1.9-0.6-2.1-1.6c-0.1-0.6,0.5-1.2,1.1-1.2
		C55.6,343.6,55.8,344.7,56.2,345.4z"/>
	<path class="st0" d="M68.5,338.2c0,0.9-0.5,1.3-1.1,1.3c-1.1,0-1.2-0.9-1.2-1.7c0-0.7,0.2-1.6,1-1.5
		C68.5,336.4,67.6,338,68.5,338.2z"/>
	<path class="st0" d="M240.5,281.9c-1.1-0.2-1-1-1-1.7c0-0.7,0.2-1.6,0.9-1.5c1.2,0.1,0.9,1.5,1.2,2.3
		C241.9,281.5,241.1,281.8,240.5,281.9z"/>
	<path class="st0" d="M174.8,137.8c0.2,1.6,1.3,2.6,0.2,3.7c-0.4,0.4-0.9,0.1-1.2-0.3C172.9,139.9,173.6,139.1,174.8,137.8z"/>
	<path class="st0" d="M71.5,333.2c0.8,1.8,0.5,2.9-0.9,4C69.9,335.6,70.2,334.5,71.5,333.2z"/>
	<path class="st0" d="M244.1,276.7c1.2,0.3,2.1,0.9,1.7,2.4C245,278.5,242,279.5,244.1,276.7z"/>
	<path class="st0" d="M178.5,139.3c-1.3-1.3-1.1-2.3-0.4-3.2c0.1-0.2,0.7-0.2,0.7-0.1C179.5,137.1,178.6,138,178.5,139.3z"/>
	<path class="st0" d="M53.9,350.7c-0.9,0-0.9-0.7-1.2-1.2c-0.3-0.4-0.3-0.9,0-1.3c0.7,0,0.9,0.6,1.2,1.1
		C54.3,349.7,54.4,350.1,53.9,350.7z"/>
	<path class="st0" d="M351.2,65.3c-1.1-0.2-2.8,0.3-2.6-1.6c0.2-1.9,1.2-3.9,3.2-4.1c1.4-0.1,3,1.6,3,3
		C354.8,64.5,353.1,65.3,351.2,65.3z"/>
	<path class="st0" d="M343.8,60.3c-0.6,0.5-1.2,0.4-1.3-0.4c-0.2-1.1,0.6-1.8,1.2-2.6c0.5-0.7,1.1-0.7,1.8-0.2
		c0.9,0.6,1.6,1.4,2,2.5c0.3,1,1,2.2-0.2,2.9c-1.3,0.7-1.6-0.6-2-1.5C344.9,60.3,344.8,59.5,343.8,60.3z"/>
	<path class="st0" d="M121.6,81.3c0.6-0.9-0.6-3.1,1.5-3c2.3,0.1,1.4,2.4,1.7,3.8c0.3,1.1-0.3,1.7-1.6,1.7
		C121.1,83.9,121.8,82.4,121.6,81.3z"/>
	<path class="st0" d="M119.7,89.9c-1.2-0.5-2.4-1.5-3.2-2.7c-0.2-0.3,0.6-0.8,0.7-0.7c0.9,1.7,3.5,0.1,4.1,2.2
		C121.4,89.4,120.7,89.8,119.7,89.9z"/>
	<path class="st0" d="M124.9,88.7c-0.6-0.3-1.7-0.3-1.6-1.3c0.1-0.7,0.4-1.7,1.4-1.4c0.7,0.2,1.4,0.7,1.5,1.6
		C126.3,88.4,125.8,88.7,124.9,88.7z"/>
	<path class="st0" d="M284.9,100.7c-3.1-12-6-23.9-8.9-35.9c-1.8-7.2-1.8-7.2-10-7.5c0,0-0.8,0.1-1.5-0.1c-2.9-0.8-4.1,0.7-5,3.3
		c-1.6,4.9-3.6,9.7-5.4,14.6c-2.9,7.7-5.8,15.4-8.6,23.1c-0.3,0.8-1.6,2.1,0.5,2.4c2.6,0.3,5.3,0.4,7.9,0.5c1.3,0.1,1.6-0.9,1.9-1.9
		c0.8-2.5,1.8-5,2.6-7.5c0.4-1.2,1-1.8,2.3-1.7c2.9,0.2,5.9,0.4,8.8,0.5c1.4,0,2.2,0.6,2.4,2c0.5,2.3,1.1,4.6,1.6,6.9
		c0.4,1.9,0.9,3.2,3.3,3c2-0.2,4.1,0.2,6.1,0.4C284.9,103.1,285.5,102.7,284.9,100.7z M269,82.9c-0.1,0-0.2,0-0.3,0
		c-7.7,0.3-8,0-5.4-7.2c1.1-3,2-6.1,3-9.2c0.2,0,0.4,0,0.5,0c1.1,4.9,2.2,9.9,3.4,14.8C270.5,82.6,270.1,83,269,82.9z"/>
	<path class="st0" d="M262.1,410.9c-5.4-0.3-5.4-0.3-7.2,4.7c-2.1,5.8-2.1,5.8-8.4,5.6c-7.6-0.3-5.8,1-7.6-6.3
		c-1.3-5.3-1.2-5.3-6.5-5.8c-1.2-0.1-2.4-0.1-3.5-0.3c-1.8-0.2-2.6,0.1-1.9,2.1c0.7,2.2,1.2,4.6,1.7,6.8c2.7,11.1,5.5,22.3,8.3,33.4
		c0.3,1.1,0.1,3,1.9,2.8c3.4-0.3,6.6,0.7,9.9,0.7c1.7,0,2.4-0.5,3-2c1.8-5.1,3.7-10.1,5.6-15.1c0.7-1.8,1.3-3.5-0.2-5.4
		c1.4,1.2,1.9,0.8,2.4-0.6c1.9-5.2,3.8-10.3,5.8-15.4C267.2,411.2,267.2,411.2,262.1,410.9z M248.6,435.7c-1.1,3.2-2.1,6.5-3.4,10.5
		c-1.3-5.7-2.3-10.7-3.5-15.6c-0.3-1.5,0-1.8,1.5-1.8C251,428.5,251,428.5,248.6,435.7z"/>
	<path class="st0" d="M142.2,107.8c-4-4.1-8.9-5.2-14.3-3.2c-3.3,1.2-5.9,3.4-8.5,5.7c-3.4,3.1-3.4,3,0.4,5.5c0.1,0,0,0.3,0,0.4
		c-4.9-1.5-4.9-1.5-7.7,1.3c-0.9,2,0.9,2.3,1.9,2.9c3,1.7,6,3.3,8.3,4.5c-2.7-1.3-6.3-2.8-9.6-4.8c-0.7-0.4-1.5-1-2.4-0.2
		c2.2,3.3,4.4,6.6,8.2,8.2c6.3,4.3,13.2,7.3,20,10.7c0.7,0.4,1.8,0.7,2-0.7c-0.6-0.6-1.1-1.2-1.7-1.6c-1.9-1.5-2.2-2.7,0.1-4.5
		c3-2.4,5.3-5.5,6.7-9.1C147.9,117.1,146.3,112.1,142.2,107.8z M137.2,120c-0.4,3.3-2.6,5.6-5.2,7.6c-0.6,0.5-1.1,0.1-1.5-0.3
		c-2.4-2.6-4.8-5.2-7.2-7.7c-0.3-0.4-0.6-0.7-0.4-1.3c0.6-2.2,6.1-5.4,8.7-5c2.7,0.3,5.5,3.5,5.6,6.3
		C137.2,119.6,137.2,119.7,137.2,120z"/>
	<path class="st0" d="M36.2,231.2c0.9-3.5-1.5-6.7-0.2-10c0.3-0.8,0.1-1.8,1.2-2.1c1-0.4,1.6,0.2,2.2,1c0.9,1.3,2.2,1.5,3.6,1
		c1.2-0.4,2.3,0.1,3.2,0.8c0.6,0.5,0.1,1-0.2,1.5c-0.7,1.5-1.8,1-2.9,0.8c-4.2-0.4-4.2-0.4-4.1,3.9C39,230.1,37.9,230.6,36.2,231.2z
		"/>
	<path class="st0" d="M43.2,232.4c-0.5-0.8-2.1,0.4-2.1-1.3c0-1.4-0.2-3,0.6-4.2c0.6-0.9,2-0.3,2.1,0.4
		C44.2,229,45.5,231,43.2,232.4L43.2,232.4z"/>
	<path class="st0" d="M32.5,249.8c0.1-1.1,0.5-2.1,1.7-1.8c1,0.2,2.5,0.2,2.4,2c-0.1,2.1-2,1.6-3.1,1.8
		C32.2,251.9,32.6,250.5,32.5,249.8z"/>
	<path class="st0" d="M43.2,232.4c-0.1,1.1,4.3-1.2,1.6,2c0,0,0,0,0,0c-0.4-0.9-1-0.7-1.6-0.3c-3,1.9-3.3,1.8-5.7-1.8
		C39.6,233.6,41.5,233.9,43.2,232.4C43.2,232.4,43.2,232.4,43.2,232.4z"/>
	<path class="st0" d="M40.8,240.2c0.9-0.3,1.9-0.8,2.6,0.2c0.4,0.5,0.5,1.2,0,1.9c-0.4,0.5-0.8,0.7-1.5,0.4
		C40.7,242.2,40.4,241.4,40.8,240.2L40.8,240.2z"/>
	<path class="st0" d="M37.3,245.8c-1.1-1.3-2.2-2.7-3.4-4.1C36.3,242.3,36.4,242.4,37.3,245.8z"/>
	<path class="st0" d="M37.8,237.2c0.7-0.4,1.1-1.8,2.3-1c1,0.6,0.6,1.4,0.1,2.2l0,0C39.1,238.5,38.2,238.3,37.8,237.2L37.8,237.2z"
		/>
	<path class="st0" d="M34.2,244.5c-0.3,1.2-0.4,2.1-1.6,2c-0.3,0-0.8-0.5-0.8-0.6C32,244.7,32.9,244.6,34.2,244.5z"/>
	<path class="st0" d="M40.9,240.2c-0.8-0.4-1.6,0.5-2.3-0.1c-0.2-1.3,1.4-0.9,1.6-1.7c0,0,0,0,0,0C41.7,238.5,41,239.5,40.9,240.2
		C40.8,240.2,40.9,240.2,40.9,240.2z"/>
	<path class="st0" d="M35.5,235.9c0.1-0.2,0.1-0.3,0.1-0.5c2.3-1.4,2.4,0.1,2.2,1.8c0,0,0,0,0,0C36.8,237.2,36.3,236.3,35.5,235.9z"
		/>
	<path class="st0" d="M357.8,409.4c-0.3,1.7-0.7,3.4-1,5.1c-0.7-2.8-1.4-5.5-1.3-8.7C357.4,406.6,356.8,408.5,357.8,409.4z"/>
	<path class="st0" d="M456.9,178.2c0.1-0.2,0.2-0.4,0.3-0.5c1-0.6,1.7-1.9,3.1-1.5c0.1,0,0.3,0.6,0.2,0.7
		C459.6,178,458.5,178.7,456.9,178.2C456.9,178.3,456.9,178.2,456.9,178.2z"/>
	<path class="st0" d="M141.7,440.5c-0.2-1.8-2.5-2.8-1.8-5c2.4,1,2.6,3.6,4,5.2C143,442.5,142.3,441.3,141.7,440.5z"/>
	<path class="st0" d="M331.3,392.3c1.3,1.5,2,3.3,1.8,5.4C332.5,396,331.9,394.2,331.3,392.3z"/>
	<path class="st0" d="M202.2,471.8c0.2-4-0.4-7.9,0.5-11.9c1.2,2.3-0.2,4.7,0.4,7.1c0.2,1-0.5,1.9,0.6,3.1
		C204.8,471.1,203.5,471.8,202.2,471.8C202.2,471.8,202.2,471.8,202.2,471.8z"/>
	<path class="st0" d="M160.6,446.5c1.1,0,1.3,0.9,1.4,1.6c0.3,2.7,0.5,5.4,0.7,8.1c0.1,1-0.3,1.3-1.2,0.8
		C159.7,453.7,160.3,450.1,160.6,446.5z"/>
	<path class="st0" d="M359.1,412.8c0,0.8-0.1,1.5-0.1,2.3c-1.9,0.6-0.9-1-1-1.5C357.6,412.5,358.4,412.7,359.1,412.8z"/>
	<path class="st0" d="M207.6,466.8c0-1.9,0-3.8,0-5.8C208.6,463,207.9,465,207.6,466.8z"/>
	<path class="st0" d="M66,164.6c-0.4,0.6-0.6,1.5-1.7,0.9c-2.9-1.6-5.8-3.1-8.7-4.6c-0.8-0.5-0.8-1.2-0.6-2
		C59,160.2,62.7,162,66,164.6z"/>
	<path class="st0" d="M226.3,161.3c-2.7-1.4-4.2-4.3-7.2-6c-0.6,3.6-1.2,7.1-1.7,10.6c-1.5-3.3-0.6-7-1.6-10.8
		c-3.3,1.9-6,4.6-9.7,5.8c2.5-2.6,4.9-5.3,7.8-8.3c-4.2-0.7-7.9-1.3-11.5-1.9c0-0.2,0-0.4,0.1-0.5c3.6-0.3,7.3-0.5,11.1-0.8
		c-1-2.9-3.5-4.6-4.8-7c-0.4-0.6-0.4-1.1,0.5-1.1c1.8,1.6,3.7,3.1,5.5,4.8c1.3,1.2,1.7,0.7,2-0.7c0.4-3,0.9-5.9,2-8.9
		c0.2,2.8,0.3,5.6,0.5,8.5c0,0.7-0.3,1.5,0.4,1.9c0.9,0.5,1.4-0.4,2-0.8c2.3-1.6,4.5-3.2,6.8-4.9c0.2,0.2,0.3,0.4,0.5,0.6
		c-1.9,2.1-3.8,4.3-5.7,6.4c-1.3,1.4-1.4,1.9,0.8,2.2c3.2,0.5,6.4,0.6,10,2c-4.3,0.4-8.2,0.1-12.3,1c1.9,2.7,3.6,5.1,5.3,7.6
		C227,161.2,226.9,161.5,226.3,161.3z"/>
	<path class="st0" d="M209.3,141.2c-0.2,0.4-0.4,0.8-0.5,1.1c-0.9-1-1.9-1.9-2.4-3.6C208,139.2,208.8,140,209.3,141.2z"/>
	<path class="st0" d="M226.3,161.3c0.2-0.2,0.4-0.4,0.6-0.6c1.3,0.5,1.7,1.8,2.2,3C227.9,163.2,227,162.5,226.3,161.3z"/>
	<path class="st0" d="M89.9,298.8c-0.1-7.6,1.8-14.3,8-19.1c7.6-6.1,18.2-6,25.7,0.7c11.7,10.5,16.4,24,14.8,39.4
		c-0.9,8.4-5.7,14.3-14,16.8c-7.9,2.4-15,0.4-20.9-5.3C94.5,322.5,90.6,311.3,89.9,298.8z"/>
	<path class="st0" d="M416.5,183.8c-0.1,3.5-2.9,7-7.1,9.7c-3.6,2.3-7.7,3.2-11.6,4.8c-1.2,0.5-1.6,0-1.9-1
		c-2.6-7.2-5.2-14.3-7.9-21.5c-0.5-1.4,0.2-2,1.3-2.5c4-1.7,7.8-3.5,12.2-4.2C410,167.9,416.5,173.4,416.5,183.8z"/>
</g>
</svg>
