<?xml version="1.0" encoding="utf-8"?>
<!-- Generator: Adobe Illustrator 23.0.5, SVG Export Plug-In . SVG Version: 6.00 Build 0)  -->
<svg version="1.1" id="Layer_1" xmlns="http://www.w3.org/2000/svg" xmlns:xlink="http://www.w3.org/1999/xlink" x="0px" y="0px"
	 viewBox="0 0 720.2 720" style="enable-background:new 0 0 720.2 720;" xml:space="preserve">
<style type="text/css">
	.st0{clip-path:url(#SVGID_2_);fill:#389E4D;}
</style>
<g>
	<defs>
		<rect id="SVGID_1_" width="720.2" height="720"/>
	</defs>
	<clipPath id="SVGID_2_">
		<use xlink:href="#SVGID_1_"  style="overflow:visible;"/>
	</clipPath>
	<path class="st0" d="M720,357.7c0,14.5,0.6,26.4-0.2,38.1c-0.5,8.8-2.8,17.4-4.3,26.1c-1.1,6.3-2.1,12.6-3.5,18.8
		c-1.7,7.8-3.3,15.6-5.7,23.1c-4.1,12.4-8.4,24.9-13.4,36.9c-11.9,28.4-27.4,54.7-46.1,79.2c-13.1,17.3-27.7,33.1-43.6,47.6
		c-17.8,16.3-37.3,30.6-58.3,42.9c-7.8,4.6-15.5,9.5-23.7,13.3c-11.4,5.3-23.2,9.9-34.9,14.5c-7.3,2.9-14.6,5.7-22.2,8
		c-8.7,2.6-17.6,4.8-26.5,6.6c-12.8,2.6-25.7,4.6-38.6,6.8c-1.5,0.3-3,0.1-4.5,0.1c-20.2,0-40.3,0.3-60.5-0.1
		c-10.4-0.2-20.9-0.7-31.1-2.4c-10.7-1.7-21.1-5-31.7-7.5c-8.2-2-16.6-3.7-24.7-6.2c-6.1-1.9-11.8-4.9-17.7-7.4
		c-9.7-4-19.7-7.4-29.1-12c-10.2-5-20-10.8-29.6-17c-12.1-7.8-24.4-15.4-35.5-24.6c-17.5-14.5-34.7-29.5-48.7-47.6
		c-9.8-12.7-20.1-25.1-28.7-38.5c-9.1-14.2-17-29.3-24.6-44.5c-6.1-12.3-11-25.2-16.1-38c-1.8-4.4-2.6-9.2-3.8-13.8
		c-2.5-9.4-5.1-18.8-7.6-28.2c-0.1-0.3-0.2-0.6-0.2-1c-0.9-7.8-1.4-15.6-2.7-23.3C-2,381.3,1,354.5,0.7,327.8
		c-0.1-9.8,2.6-19.7,4.2-29.6c1-6.3,2.1-12.6,3.5-18.8c1.7-7.8,3.3-15.6,5.7-23.1c4.1-12.4,8.4-24.9,13.4-36.9
		c11.9-28.4,27.4-54.7,46-79.2c13.1-17.3,27.7-33.1,43.6-47.6c17.8-16.3,37.4-30.6,58.3-42.9c7.8-4.6,15.5-9.5,23.7-13.3
		c11.4-5.3,23.2-9.9,34.9-14.5c7.3-2.9,14.7-5.6,22.2-8c4.5-1.5,9.2-2.2,13.7-3.4c5.7-1.5,11.3-3,16.9-4.6c0.5-0.1,0.9-0.6,1.3-0.6
		c6.5-0.9,12.9-1.7,19.4-2.7c29-4.2,58.1-1.9,87.1-2c9-0.1,18,2.7,27,4.2c0.3,0.1,0.6,0.2,1,0.2C429.8,6,437,6.8,444,8.3
		c7.3,1.6,14.5,3.8,21.6,6.1c9.5,3.1,18.9,6.3,28.2,9.8c7.4,2.8,14.7,5.8,21.6,9.6c16.4,9.1,32.9,18.1,48.7,28.3
		c11.8,7.6,22.7,16.6,33.3,25.7c10.6,9.1,20.9,18.7,30.2,29c16.3,18,31.2,37.4,43,58.7c8.8,15.8,17,31.9,24.2,48.4
		c5.2,11.9,8.6,24.7,12.6,37.2c2.8,8.8,5,17.8,7.5,26.7c0.1,0.3,0.2,0.6,0.2,1c0.9,7.8,1,15.7,2.8,23.3
		C721.7,328.2,718.9,344.3,720,357.7 M326.8,446.2c-12.2-9-23.8-17.7-35.5-26.2c-20.8-15.1-41.5-30.2-62.4-45
		c-7.9-5.6-15.8-11.4-24.4-15.4c-20.9-9.8-45.6,0.6-53.7,21.8c-6.8,17.7-1.4,36.8,14.5,48.5c25,18.3,50.2,36.3,75.4,54.3
		c22.9,16.4,45.9,32.5,68.7,48.9c16.5,11.9,37.9,11.6,52.1-2.9c12-12.4,22.4-26.4,32.9-40c17.6-22.8,34.8-45.9,52.2-68.8
		c15.8-20.8,31.5-41.7,47.3-62.5c12.8-16.9,25.6-33.7,38.2-50.6c8.5-11.5,17.2-22.9,25-34.9c9.9-15.2,8-34.8-3.8-47.7
		c-17.6-19.3-46.7-18-62.6,3c-22.4,29.6-44.7,59.3-67,88.9c-25.8,34.3-51.7,68.6-77.5,102.9C339.9,428.8,333.6,437.2,326.8,446.2"/>
</g>
</svg>
