<?xml version="1.0" encoding="utf-8"?>
<!-- Generator: Adobe Illustrator 23.0.5, SVG Export Plug-In . SVG Version: 6.00 Build 0)  -->
<svg version="1.1" id="Layer_1" xmlns="http://www.w3.org/2000/svg" xmlns:xlink="http://www.w3.org/1999/xlink" x="0px" y="0px"
	 viewBox="0 0 512 512" style="enable-background:new 0 0 512 512;" xml:space="preserve">
<style type="text/css">
	.st0{fill:#09518C;}
</style>
<path class="st0" d="M84.9,479.5c28.9,0,53.3-23.5,53.3-52.4s-24.4-53.3-53.3-53.3s-52.4,24.4-52.4,53.3S56,479.5,84.9,479.5z"/>
<path class="st0" d="M45.6,294.4h26.2c79.6,0,145.8,66.2,145.8,145.8v26.2c0,7.2,5.9,13.1,13.1,13.1h26.2c7.2,0,13.1-5.9,13.1-13.1
	v-26.2C270,331.7,180.3,242,71.8,242H45.6c-7.2,0-13.1,5.9-13.1,13.1v26.2C32.5,288.6,38.4,294.4,45.6,294.4z"/>
<path class="st0" d="M45.6,189.6h26.2c137.4,0,250.6,113.1,250.6,250.6v26.2c0,7.2,5.9,13.1,13.1,13.1h26.2
	c7.2,0,13.1-5.9,13.1-13.1v-26.2c0-166.4-136.6-302.9-302.9-302.9H45.6c-7.2,0-13.1,5.9-13.1,13.1v26.2
	C32.5,183.8,38.4,189.6,45.6,189.6z"/>
<path class="st0" d="M71.8,32.5H45.6c-7.2,0-13.1,5.9-13.1,13.1v26.2c0,7.2,5.9,13.1,13.1,13.1h26.2
	c195.3,0,355.3,160.1,355.3,355.3v26.2c0,7.2,5.9,13.1,13.1,13.1h26.2c7.2,0,13.1-5.9,13.1-13.1v-26.2C479.5,216,296,32.5,71.8,32.5
	z"/>
</svg>
