<?xml version="1.0" encoding="utf-8"?>
<!-- Generator: Adobe Illustrator 23.0.5, SVG Export Plug-In . SVG Version: 6.00 Build 0)  -->
<svg version="1.1" id="Layer_1" xmlns="http://www.w3.org/2000/svg" xmlns:xlink="http://www.w3.org/1999/xlink" x="0px" y="0px"
	 viewBox="0 0 100 100" style="enable-background:new 0 0 100 100;" xml:space="preserve">
<style type="text/css">
	.st0{fill:#09518C;}
	.st1{fill:#ED0000;}
	.st2{fill:none;}
</style>
<path class="st0" d="M98.9,69c-0.7,1.7-1.9,2.2-3.7,2.2c-2.6-0.1-5.3,0-7.9,0c-0.7,0-0.9,0.2-1,0.8c-1.7,10.8-10.1,19-20.8,20.4
	c-2,0.3-4.1,0.2-6.2,0.2c-0.5,0-0.8,0.1-1.1,0.7c-1.8,4.1-6,6.2-10.2,5.2c-4.2-0.9-7.1-4.7-7-9c0.1-4.1,3.1-7.6,7.1-8.5
	c4.1-0.9,8.3,1.1,10,5c0.4,0.8,0.8,1,1.6,1c3.1,0,6.2-0.1,9.1-1.2c7.1-2.7,12-9.4,12.1-17.1c0.1-10.5,0.2-21,0-31.5
	c-0.3-15-11-27.4-25.6-29.9C39.2,4.4,23.4,15,20,31c-0.5,2.3-0.7,4.8-0.7,7.2c-0.1,9.8,0,19.6,0,29.5c0,2.4-1,3.5-3.5,3.5
	c-3.7,0-7.4,0-11.2,0c-2.2,0-3.3-1.1-3.3-3.3c0-9.9,0-19.8,0-29.7c0-2.3,1.1-3.4,3.4-3.4c3,0,5.9,0,8.8,0c0.5-2.3,0.7-4.5,1.4-6.7
	C19.3,13.5,29,4.7,44,1.6c1.2-0.2,2.4-0.4,3.7-0.6h5c1.3,0.2,2.5,0.3,3.8,0.6c15.2,3.2,25,12.3,29.2,27.2c0.5,1.9,0.7,3.9,1.1,6
	c2.8,0,5.7,0.1,8.5,0c1.8-0.1,3,0.5,3.7,2.2V69z M13.5,40.6H7.1v24.8h6.4V40.6z M93.1,40.6h-6.4v24.8h6.4V40.6z M53.4,89.8
	c0-1.8-1.4-3.3-3.2-3.3c-1.8,0-3.3,1.4-3.3,3.2c0,1.8,1.4,3.3,3.2,3.3C51.9,93,53.3,91.6,53.4,89.8"/>
<path class="st1" d="M32,62.9h1.1c3.5,0,6.9,0,10.4,0c2.3,0,3.8,2,3,4c-0.4,1.2-1.4,1.9-2.8,1.9c-5.4,0-10.7,0-16.1,0
	c-1.8,0-3-1.3-3-3.2c0.1-3,1.2-5.5,3.4-7.6c4-4,7.9-8,11.9-11.9c0.7-0.7,0.8-1.3,0.6-2.1c-0.6-2.5-2.7-4.1-5.3-4
	c-2.4,0.1-4.3,2.1-4.6,4.5c0,0.3,0,0.5-0.1,0.8c-0.2,1.7-1.6,2.8-3.2,2.7c-1.6-0.1-2.8-1.4-2.8-3.1c0-5.4,4.1-10.1,9.6-10.8
	c5.4-0.7,10.7,2.8,12,8c0.4,1.5,0.5,3.1,0.4,4.6c-0.1,0.9-0.7,1.8-1.3,2.5c-4.2,4.3-8.4,8.4-12.6,12.6c-0.3,0.3-0.6,0.5-0.9,0.7
	L32,62.9z"/>
<path class="st1" d="M73.9,53.2c2.2,0.4,3.2,1.5,3.2,3.1c0,1.6-1.1,2.7-3.2,3.1c0,1.7,0,3.5,0,5.2c0,0.5,0,1.1,0,1.6
	c-0.1,1.5-1.3,2.6-2.9,2.7c-1.6,0-2.9-1-3-2.6c-0.1-1.6-0.1-3.1-0.1-4.7c0-0.7,0-1.5,0-2.3h-1.1c-3.8,0-7.7,0-11.5,0
	c-2.4,0-3.6-1.4-3.4-3.7c0.2-2.7,1.3-5.1,3.3-7c4.5-4.5,8.9-8.9,13.4-13.4c1-1,2.1-1.4,3.4-0.8c1.3,0.5,1.9,1.6,1.9,3
	c0,4.9,0,9.8,0,14.7V53.2z M67.9,44.7c-2.9,2.9-5.7,5.7-8.6,8.5h8.6V44.7z"/>
<rect x="-1.2" y="-1.2" class="st2" width="102.4" height="102.4"/>
</svg>
