<?xml version="1.0" encoding="utf-8"?>
<!-- Generator: Adobe Illustrator 23.0.5, SVG Export Plug-In . SVG Version: 6.00 Build 0)  -->
<svg version="1.1" id="Layer_1" xmlns="http://www.w3.org/2000/svg" xmlns:xlink="http://www.w3.org/1999/xlink" x="0px" y="0px"
	 viewBox="0 0 100 100" style="enable-background:new 0 0 100 100;" xml:space="preserve">
<style type="text/css">
	.st0{clip-path:url(#SVGID_2_);fill:#09518C;}
	.st1{clip-path:url(#SVGID_2_);fill:#EB494B;}
	.st2{clip-path:url(#SVGID_2_);fill:none;stroke:#09518C;stroke-width:3;stroke-miterlimit:10;}
</style>
<g>
	<defs>
		<rect id="SVGID_1_" x="4.6" y="0.7" width="90.7" height="98.6"/>
	</defs>
	<clipPath id="SVGID_2_">
		<use xlink:href="#SVGID_1_"  style="overflow:visible;"/>
	</clipPath>
	<path class="st0" d="M35.6,90.9c-1.3-0.5-1.7-1.4-1.7-2.7c0-1.9,0.1-3.8,1-5.5c1.1-2.1,2.8-3.6,5-4.4c0.2-0.1,0.3-0.1,0.5-0.2
		c-4.1-2.4-6.7-5.8-8-10.3c-0.3,0-0.5,0-0.8,0c-1.9,0-3.2-1.3-3.2-3.2c0-5.9-0.1-11.8,0-17.6c0.1-4.9,3.8-8.4,8.7-8.4
		c4.6,0,9.2,0,13.8,0c1.6,0,3,0.5,4.2,1.4c4.7-3.6,12.8,0,12.8,7.4c0,1.7,0,3.4,0,5.1c0,0.6-0.3,1.2-0.9,1.2c-0.4,0-0.9-0.3-1.2-0.6
		c-0.2-0.1-0.2-0.6-0.2-0.9c0-1.7,0-3.3,0-5c-0.1-3.5-2.6-6.2-6-6.4c-1.2-0.1-2.3,0.3-3.2,1.1c-0.9,0.7-1.4,0.8-2.3,0.1
		c-1.1-0.9-2.4-1.2-3.8-1.2c-4.3,0-8.5,0-12.8,0c-4.2,0-6.8,2.6-6.8,6.8c0,5.5,0,11,0,16.6c0,1,0.3,1.3,1.2,1.2v-1.8
		c0-2.9,0-5.7,0-8.6c0-1.5,0.5-2,2-2c4.6-0.1,9.2-0.5,13.5-2.3c1.4-0.6,2.7-1.3,4-2c0.9-0.5,1.6-0.5,2.2,0.3
		c2.1,2.7,4.9,3.6,8.1,3.9c0.3,0,0.7,0.1,1,0.1c1.3,0.1,1.8,0.6,1.8,2c0,3.5,0,6.9,0,10.4c0.9,0.1,1.2-0.1,1.2-1.1
		c0-2.3,0-4.6,0-6.9c0-0.4,0.2-1,0.6-1.2c0.7-0.6,1.7,0.1,1.7,1.1c0,1.3,0,2.5,0,3.8c0,1,0,2,0,3.1c0,2.4-1.2,3.6-3.5,3.6
		c-0.2,0-0.3,0-0.5,0c-1.2,4.5-3.9,7.9-8,10.3c0.3,0.1,0.6,0.2,0.9,0.4c3.5,1.6,5.4,4.3,5.6,8.2c0,0.5,0,1.1,0,1.6
		c0.1,1.3-0.4,2.3-1.7,2.7h-13c-0.5-0.4-0.9-0.9-0.6-1.6c0.3-0.7,0.9-0.7,1.5-0.7c3.5,0,7.1,0,10.6,0h0.8c0.4-5.5-3.1-9.3-7.7-8.5
		c0,1.2-0.1,2.5-0.9,3.5c-0.8,1-1.9,1.6-3.2,1.6c-1,0-1.9-0.3-2.8-0.9c-1.4-1.1-1.7-2.6-1.6-4.2c-4.4-0.6-8.6,3-7.6,8.5h0.8
		c2.2,0,4.3,0,6.5,0c1,0,1.6,0.9,1.2,1.7c-0.1,0.2-0.3,0.4-0.5,0.6H35.6z M34.3,55.3c0,3.2,0,6.2,0,9.3c0,0.4,0,0.8,0.1,1.2
		c1.2,6.8,6.5,11.6,13.4,11.9C55,78,61.7,72.2,62.1,65c0.2-3.1,0.1-6.2,0.1-9.2c0-0.5-0.2-0.6-0.6-0.6c-3.6-0.3-6.9-1.4-9.3-4.3
		C46.7,54.3,40.6,55.2,34.3,55.3 M46.3,79.9c-0.1,1.1-0.1,2.1,1,2.7c0.7,0.4,1.5,0.3,2.1-0.2c0.9-0.7,0.9-1.6,0.7-2.5H46.3z"/>
	<path class="st0" d="M33.5,9.4c0.6,0.5,1.1,1,0.8,1.9c-0.3,0.9-1.1,0.9-1.8,0.9c-3.7,0-7.4,0-11,0c-1.4,0-1.7,0.3-1.7,1.7
		c0,4.8,0,9.7,0,14.5c0,1.4,0.3,1.7,1.7,1.7c2.1,0,4.1,0.1,6.2,0c1.2,0,2.1,0.3,2.6,1.5c0.1,0.3,0.3,0.5,0.5,0.9
		c0.1-0.1,0.2-0.2,0.2-0.3c0.6-1.7,1.9-2.1,3.6-2c3.9,0.1,7.9,0.1,11.8,0c1.4,0,2.3,0.4,2.9,1.7c0.1,0.2,0.3,0.4,0.4,0.6
		c0.1,0,0.2-0.1,0.2-0.1c0.7-1.9,2.1-2.2,4-2.2c3.8,0.1,7.6,0.1,11.4,0c1.4,0,2.4,0.4,3,1.7c0.1,0.2,0.2,0.4,0.4,0.7
		c0.3-0.4,0.5-0.8,0.7-1.2c0.4-0.8,1.1-1.2,2-1.2c2.3,0,4.5,0,6.8,0c1.2,0,1.5-0.4,1.5-1.6c0-4.9,0-9.7,0-14.6
		c0-1.4-0.3-1.7-1.7-1.7c-12.7,0-25.4,0-38.2,0c-0.2,0-0.5,0-0.7,0c-0.8,0-1.5-0.1-1.8-1c-0.3-0.9,0.2-1.4,0.9-1.8h41.2
		c2.3,0.8,3.1,2.5,3.1,4.9c-0.1,4.6-0.1,9.1,0,13.7c0.1,3.5-2.1,5.1-4.9,4.9c-1.6-0.1-3.2,0-4.8,0c-0.9,0-1.5,0.2-1.8,1
		c-0.2,0.5-0.6,1-0.9,1.5c-0.8,1.2-2.3,1.2-3.1,0c-0.1-0.1-0.1-0.2-0.1-0.2c-0.6-2-2-2.5-4-2.3c-3,0.2-6.1,0.1-9.1,0
		c-0.9,0-1.4,0.3-1.7,1c-0.2,0.5-0.6,1-0.9,1.5c-0.8,1.2-2.3,1.2-3.1,0C48,35.3,48,35.2,48,35.1c-0.6-2-2-2.5-4-2.3
		c-3.1,0.2-6.2,0.1-9.3,0c-0.7,0-1.1,0.2-1.4,0.9c-0.3,0.6-0.6,1.1-1,1.7c-0.8,1.2-2.3,1.2-3.1,0c-0.1-0.1-0.1-0.2-0.1-0.2
		c-0.7-2.1-2.1-2.6-4.1-2.3c-1.3,0.2-2.7,0-4,0c-2.4,0-4-1.6-4.1-4c0-5.1,0-10.2,0-15.3c0-2.1,1.2-3.3,3.1-4.1H33.5z"/>
	<path class="st1" d="M61.5,19.6c0-3.3,3.2-5.2,6.3-3.8c0.5,0.2,0.9,0.3,1.4,0c1.9-0.9,3.9-0.5,5.2,0.8c1.3,1.4,1.6,3.4,0.6,5.3
		c-1.4,2.5-3.7,3.8-6.2,4.9c-0.2,0.1-0.6,0.1-0.8-0.1c-2.1-0.9-4-2.1-5.4-3.9C61.8,21.9,61.5,20.8,61.5,19.6 M65.9,18
		c-0.5,0.3-1,0.4-1.2,0.7c-0.6,0.7-0.4,1.6,0.1,2.3c0.9,1.3,2.2,2.1,3.6,2.8c0.1,0.1,0.3,0.1,0.4,0c1.5-0.8,3.1-1.7,3.9-3.3
		c0.4-0.7,0.4-1.4-0.2-2c-0.6-0.6-1.3-0.5-2-0.2c-0.3,0.1-0.6,0.4-0.8,0.6c-0.8,0.7-1.3,0.7-2.2,0C67,18.6,66.4,18.3,65.9,18"/>
	<path class="st1" d="M25.3,27.9c-1.2,0-1.8-0.6-1.7-1.6c0.2-1.3,0.4-2.7,0.7-4c0.1-0.4,0.3-0.7,0.6-1c2.1-2.1,4.1-4.2,6.2-6.2
		c0.9-0.9,1.6-0.9,2.5,0c1,1,1.9,1.9,2.9,2.9c0.9,0.9,0.9,1.6,0.1,2.4c-2.1,2.1-4.2,4.3-6.4,6.4c-0.2,0.2-0.5,0.5-0.8,0.5
		C27.9,27.5,26.5,27.7,25.3,27.9 M32.3,17.7c-1.6,1.6-3.1,3.2-4.7,4.8c-0.7,0.6-0.8,1.4-0.8,2.2c1,0.1,1.8-0.2,2.4-1
		c0.5-0.6,1.1-1.1,1.6-1.6c1-1,2-1.9,3-2.9C33.3,18.6,32.8,18.2,32.3,17.7"/>
	<path class="st1" d="M50.8,17.2c0,2.1,0,4.2,0,6.3c0,0.6,0,1.2-0.2,1.7c-0.6,1.9-2.6,3.1-4.5,2.6c-1.9-0.5-3.2-2.4-2.8-4.4
		c0.3-1.9,2.1-3.3,4.1-3.1c0.2,0,0.3,0,0.6,0.1V17c0-2,0.3-2.4,2.3-2.6c2.2-0.2,3.8,0.7,5,2.4c0.5,0.7,0.5,1.5-0.1,2
		c-0.6,0.5-1.4,0.4-2-0.3C52.6,17.8,52,17.1,50.8,17.2 M48.2,24.3c0-0.1,0-0.3,0-0.4c-0.4-0.3-0.7-0.7-1.1-0.7c-0.6-0.1-1,0.4-1,1
		c0,0.6,0.4,1,1,0.9C47.5,25,47.8,24.5,48.2,24.3"/>
	<path class="st0" d="M48.4,72.3c-1.9,0-3.5-0.5-5-1.3c-0.7-0.4-0.9-1-0.6-1.6c0.3-0.6,0.9-0.8,1.6-0.5c2.6,1.4,5.2,1.4,7.8,0
		c0.6-0.3,1.3-0.1,1.6,0.5c0.3,0.6,0.1,1.2-0.5,1.6C51.6,71.8,50,72.3,48.4,72.3"/>
	<path class="st0" d="M42.6,63.3c0,0.6,0,1.2-0.8,1.4c-0.4,0.1-0.9-0.1-1.3-0.4c-0.4-0.4-0.4-1.8,0-2.2c0.3-0.3,0.9-0.4,1.3-0.4
		C42.5,61.8,42.6,62.3,42.6,63.3"/>
	<path class="st0" d="M53.7,63.3c0.2-0.5,0.3-1,0.6-1.3c0.4-0.4,1.1-0.3,1.5,0c0.5,0.5,0.5,2,0,2.5c-0.4,0.4-1.1,0.5-1.5,0.1
		C54,64.2,53.9,63.7,53.7,63.3"/>
	<path class="st2" d="M83.4,97.8H16.6c-5.8,0-10.4-4.7-10.4-10.4V12.7c0-5.8,4.7-10.4,10.4-10.4h66.7c5.8,0,10.4,4.7,10.4,10.4v74.6
		C93.8,93.1,89.1,97.8,83.4,97.8z"/>
</g>
</svg>
