<?xml version="1.0" encoding="utf-8"?>
<!-- Generator: Adobe Illustrator 23.0.5, SVG Export Plug-In . SVG Version: 6.00 Build 0)  -->
<svg version="1.1" id="Layer_1" xmlns="http://www.w3.org/2000/svg" xmlns:xlink="http://www.w3.org/1999/xlink" x="0px" y="0px"
	 viewBox="0 0 100 100" style="enable-background:new 0 0 100 100;" xml:space="preserve">
<style type="text/css">
	.st0{fill:#ED0000;}
	.st1{clip-path:url(#SVGID_2_);fill:none;stroke:#09518C;stroke-width:3;stroke-linecap:round;stroke-miterlimit:10;}
</style>
<g>
	<path class="st0" d="M12.1,53.3c0-0.2,0-0.4-0.1-0.8c0,0,0-0.1,0-0.3c-0.1-0.5-0.1-0.8,0-0.9c-0.1-0.7-0.1-1.1,0-1.2
		s0.1-0.2,0.1-0.2c-0.1-0.1-0.1-0.4-0.1-0.8c0-0.5-0.1-0.8,0-1c0-0.1,0-0.2,0-0.4c0-0.1,0-0.2,0.1-0.3c0,0,0-0.1-0.1-0.3v-0.9l0-0.5
		v-0.4l0.1-0.6c0-0.1,0-0.2,0.1-0.3c-0.1-0.3,0-0.6,0.4-1c0,0,0.2-0.1,0.4-0.2c0.2,0,0.4,0,0.5,0c0.1,0,0.2,0,0.4,0
		c0.2,0,0.3,0,0.4,0.1c0.2,0.1,0.3,0.3,0.3,0.6v0.3c0,0.5,0,0.8,0,1v0.4c0,0.2,0,0.3,0,0.3c0,0.1,0,0.2,0,0.4v0.3
		c0,0.4-0.1,0.6,0,0.7l-0.1,1c0.1,0,0.5,0.1,1.1,0.1h0.9c0.6,0,0.9,0,1.1,0c0.1,0,0.2,0,0.3-0.1c0-0.1,0.1-0.2,0.1-0.3
		c0-0.1,0-0.3,0.1-0.4c0-0.2,0-0.3,0-0.3c0.1-0.1,0.1-0.3,0.1-0.8c0,0,0-0.1,0.1-0.3c0-0.2,0-0.4,0.1-0.6c0-0.2,0-0.5,0.1-0.6
		c0.1-0.2,0.1-0.3,0.2-0.5c0.1-0.2,0.2-0.4,0.5-0.5c0.3-0.2,0.6-0.4,0.9-0.4h0.3c0.3,0.1,0.5,0.4,0.3,1c0,0.2-0.1,0.4-0.2,0.7
		c-0.1,0.6-0.2,1-0.2,1.2c0,0.2-0.1,0.5-0.2,1c0,0.2,0,0.4,0,0.5c0,0.1,0,0.2,0,0.3c0,0.3,0,0.5,0,0.6c0,0.4,0,0.7,0,0.9
		s0,0.5-0.1,0.7c0,0.3,0,0.5-0.1,0.8l-0.1,1.2c0,0.1,0,0.7,0.1,2c0.1,0.1,0.1,0.2,0.1,0.4c0,0.2-0.1,0.4-0.1,0.5
		c-0.1,0.1-0.1,0.1-0.2,0.2c-0.1,0-0.2,0-0.3,0c-0.3,0.2-0.5,0.2-0.7,0.2c-0.2,0-0.3-0.1-0.5-0.2c-0.3-0.1-0.4-0.3-0.5-0.5
		c0-0.1,0-0.2,0-0.3c0-0.1,0-0.3,0-0.4c0-0.1,0-0.3,0-0.5c0-0.2,0-0.4,0-0.6l0-0.2c0-0.1,0-0.1,0-0.2c0.1-0.1,0.1-0.2,0-0.3v-0.5
		l0.1-1c-0.1-0.1-0.1-0.3,0-0.6l0-0.2c-0.2,0-0.3,0.1-0.4,0.1c-0.4,0.1-0.7,0.1-1.2,0.1l-1.7-0.1v0.2c0,0.2,0,0.5,0,0.9v0.4
		c0,0.3,0,0.8,0,1.4c0.1,0.7,0.1,1.1,0.1,1.4l0,0.1c0,0.1,0,0.2,0,0.3c0,0.2-0.1,0.4-0.2,0.5c-0.1,0.1-0.3,0.1-0.6,0.2
		c-0.3,0-0.5,0-0.7-0.2c-0.3-0.2-0.5-0.3-0.5-0.4c0-0.1-0.1-0.2-0.1-0.4c-0.1-0.1-0.1-0.2-0.1-0.4c0-0.4,0-0.6,0-0.7
		C12.2,53.5,12.1,53.4,12.1,53.3L12.1,53.3z M26.4,53.5c0,0.1-0.1,0.3-0.1,0.4l-0.3,0.7c0,0-0.2,0.3-0.5,0.8
		c-0.1,0.2-0.3,0.4-0.6,0.4c-0.3,0-0.6,0-0.9-0.1c-0.4-0.1-0.7-0.3-0.9-0.5c-0.2-0.2-0.4-0.5-0.6-1c-0.2-0.4-0.3-0.8-0.3-1.1
		c-0.1-0.4-0.1-0.7-0.1-0.8V52c0-0.5,0-0.7,0.1-0.8c0-0.1,0-0.2,0.1-0.4c0.1-0.5,0.2-1,0.5-1.5c0.5-0.9,0.9-1.4,1.4-1.4h0.1
		c0,0,0.1,0,0.1,0h0.2c0.4,0,0.7,0.1,0.8,0.1c0.2,0.1,0.4,0.1,0.5,0.1l0.5,0.1c0.2,0,0.4,0,0.6,0.1c0.2,0.1,0.4,0.1,0.4,0.2
		c0,0,0.1,0.2,0.1,0.4c0.1,0.2,0.1,0.4,0.1,0.5c0,0.1,0,0.2,0,0.3c0.1,0.9,0.3,1.8,0.5,2.6c0,0,0,0.1,0,0.2c0,0.1,0.1,0.2,0.1,0.4
		c0.1,0.2,0.1,0.4,0.2,0.6c0,0.2,0.1,0.4,0.2,0.6c0.1,0.2,0.2,0.4,0.3,0.7c0.3,0.4,0.1,0.7-0.4,0.9c-0.1,0-0.2,0-0.4,0
		c0,0-0.2-0.1-0.4-0.2c-0.1,0-0.2-0.1-0.4-0.2l-0.2,0c-0.1-0.1-0.2-0.1-0.2-0.1C27.1,55,26.8,54.5,26.4,53.5L26.4,53.5z M24.8,54
		c0.7-1.2,1-2.5,0.9-3.8c0-0.3-0.1-0.5-0.2-0.6c-0.1-0.1-0.3-0.2-0.6-0.3c-0.1,0.1-0.2,0.3-0.4,0.6c-0.1,0.4-0.2,0.7-0.3,1.1
		c-0.1,0.6-0.2,1.2-0.2,1.8c0,0.6,0.1,1.1,0.3,1.4c0,0.1,0.1,0.1,0.1,0.1C24.6,54.4,24.7,54.3,24.8,54L24.8,54z M30.4,50.1
		c-0.1-0.7,0.1-1.3,0.5-1.7l0,0c0.3-0.4,0.8-0.6,1.4-0.7c1,0,1.7,0.2,2.2,0.7c0.5,0.5,0.7,1,0.8,1.5c0,0.5-0.1,0.8-0.4,0.8
		c-0.4,0-0.7,0-0.8-0.2c-0.1,0-0.3-0.1-0.4-0.2c-0.1,0-0.2-0.2-0.3-0.4l-0.2-0.5c-0.1-0.2-0.2-0.4-0.4-0.4c-0.2,0.1-0.3,0.3-0.3,0.6
		c0.1,0.6,0.3,1.2,0.9,1.7c0,0.1,0.1,0.2,0.3,0.4c1,1.1,1.5,2,1.6,2.7c0,0.4-0.1,0.7-0.3,0.9c-0.5,0.6-1.3,1-2.1,1
		c-0.9,0-1.6-0.2-2.2-0.8c-0.2-0.2-0.2-0.3-0.2-0.4c-0.1-0.2-0.1-0.4-0.1-0.5c0-0.4,0-0.6,0-0.8c0.1-0.4,0.4-0.6,0.9-0.6
		c0.2,0,0.3,0.1,0.4,0.3c0.2,0.6,0.3,1.1,0.5,1.3c0.1,0.2,0.4,0.3,0.7,0.3c0.4,0,0.6-0.3,0.6-0.7c0-0.4-0.2-0.9-0.6-1.2
		c-0.1-0.2-0.2-0.3-0.4-0.4c-0.1-0.1-0.2-0.1-0.2-0.2c0,0,0-0.1-0.1-0.1c-0.3-0.2-0.6-0.5-1-1C30.6,50.9,30.4,50.5,30.4,50.1
		L30.4,50.1z M37,50.8c0-0.1-0.1-0.2-0.2-0.4c0-0.2,0-0.4,0-0.9l0.1-0.6l0.4-0.8l0.3-0.4c0-0.1,0.3-0.2,1-0.4h0c0.1,0,0.4,0,0.7,0
		c0.3,0,0.6,0.2,0.9,0.4c0.3,0.2,0.5,0.4,0.6,0.5c0.3,0.5,0.4,1,0.3,1.5c0,0.1-0.1,0.3-0.2,0.5c0,0-0.1,0.1-0.3,0.1
		c-0.2,0.1-0.3,0.1-0.4,0c-0.1,0-0.2-0.1-0.4-0.2c-0.2-0.1-0.2-0.3-0.2-0.5c-0.1-0.1-0.1-0.3-0.1-0.5c0-0.2,0-0.3-0.1-0.3l-0.2-0.1
		c-0.1,0-0.1,0.1-0.2,0.3c-0.1,0.2-0.1,0.4-0.1,0.7c0,0.5,0.1,1,0.4,1.4c0.1,0.1,0.2,0.3,0.5,0.5L40,52l0.5,0.5l0.4,0.5
		c0.1,0.1,0.2,0.3,0.4,0.6c0.2,0.3,0.2,0.6,0.2,0.8c0,0.2-0.1,0.5-0.2,0.9l-0.2,0.2c0,0-0.1,0.1-0.2,0.2c-0.4,0.4-0.8,0.6-1.2,0.7
		h-0.1c-0.4,0.1-0.8,0-1.2,0l-0.6-0.2c-0.1,0-0.1,0-0.2-0.1c-0.1,0-0.1-0.1-0.2-0.1c-0.3-0.2-0.5-0.3-0.5-0.5
		c-0.1,0-0.1-0.2-0.1-0.5c-0.1-0.2-0.1-0.4,0.1-0.8c0-0.2,0-0.3,0.1-0.4c0.2-0.3,0.5-0.3,0.9-0.2c0.1,0.1,0.2,0.2,0.2,0.3
		c0,0,0,0.2,0.1,0.4c0,0.2,0.1,0.4,0.2,0.6c0.1,0.2,0.2,0.3,0.4,0.3c0.2,0,0.4-0.1,0.5-0.2c0.2-0.4,0.3-0.6,0.3-0.6l0-0.3
		c0-0.2,0-0.4-0.2-0.6c0-0.2-0.1-0.3-0.3-0.5l-0.3-0.4l-0.3-0.3c-0.1,0-0.2-0.1-0.5-0.3c0,0-0.1-0.1-0.2-0.3
		c-0.1-0.1-0.2-0.3-0.4-0.5C37.3,51.1,37.2,50.9,37,50.8L37,50.8z M45,43.4l0.5-0.1c0.3,0,0.5,0.1,0.7,0.2c0.2,0.1,0.2,0.3,0.2,0.4
		c-0.2,0.6-0.3,1.3-0.5,2v0.3c-0.1,0.6-0.1,1.1-0.2,1.5l-0.5,4.3v1.3c0,1,0,1.8,0.2,2.4l0,0.2c0,0.2-0.1,0.3-0.3,0.3
		c-0.2,0.1-0.3,0.1-0.4,0.1c-0.1,0-0.1,0-0.2-0.1L44,56.2c-0.2-0.1-0.4-0.3-0.7-0.5c-0.2-0.1-0.2-0.2-0.2-0.3c0-0.1-0.1-0.6-0.2-1.7
		c0-0.2,0-0.4,0-0.6v-0.3c0-0.3,0-0.4,0-0.5c0,0,0-0.2,0-0.5c0.1-0.7,0.1-1.1,0.1-1.2v-0.3c0-0.7,0.1-1.3,0.2-1.8c0-0.1,0-0.2,0-0.3
		c0.1-0.2,0.2-0.7,0.1-1.5c0.2-0.8,0.3-1.3,0.4-1.5c0-0.3,0.1-0.5,0.2-0.6c0-0.2,0.1-0.5,0.3-0.7C44.5,43.6,44.7,43.4,45,43.4z
		 M49.7,56.3l-0.2,0L49.3,56c-0.1,0-0.1,0-0.2-0.1c-0.1-0.2-0.4-0.5-0.8-1l-0.3-1c0-0.2,0-0.4-0.1-0.5c-0.1-0.6-0.2-0.9-0.2-1
		c0-0.1,0-0.3,0-0.7c0-0.4,0-0.7,0-0.8c0-0.2,0.3-0.8,0.7-1.8c0.1-0.1,0.2-0.3,0.2-0.5l0.3-0.4c0.3-0.3,0.6-0.6,0.9-0.7
		c0,0,0.2-0.1,0.6-0.2c0.1,0,0.3,0,0.6,0.1c0.8,0.2,1.2,0.4,1.4,0.7l0.1,0.1c0.2,0.3,0.4,0.9,0.4,1.6c0,0.3-0.1,0.6-0.1,0.8
		c0,0.2-0.2,0.6-0.4,1.2c-0.2,0.4-0.4,0.6-0.5,0.9c-0.3,0.2-0.5,0.3-0.6,0.3c-0.1,0-0.2,0-0.3,0h-0.4c0,0-0.1,0-0.2,0
		c-0.1,0-0.3,0-0.5-0.1c0,0.3,0.1,0.7,0.2,1.2c0.2,0.5,0.3,0.8,0.4,0.9c0.3,0.2,0.5,0.3,0.6,0.4c0.2,0.1,0.4,0.1,0.6,0
		c0.3,0,0.4-0.1,0.5-0.3l0.5-0.6c0.3-0.4,0.6-0.5,1-0.1c0.2,0.2,0.2,0.3,0.2,0.5c0,0.2-0.2,0.5-0.4,0.9c-0.2,0.3-0.4,0.6-0.6,0.8
		c-0.4,0.2-0.6,0.3-0.7,0.3c-0.1,0-0.3,0-0.5-0.1c-0.1,0.1-0.3,0.1-0.6,0c0,0,0,0-0.1,0c-0.1,0-0.2,0-0.3-0.1l0,0c0,0-0.1,0-0.2,0
		l-0.5-0.3H49.7z M50.9,51c0.4-1.2,0.5-2,0.3-2.2c0-0.1-0.1-0.1-0.3-0.1c-0.1,0-0.3,0.1-0.3,0.2c-0.5,0.8-0.8,1.7-0.8,2.6
		C50.2,51.7,50.6,51.5,50.9,51L50.9,51z M54.6,51.2c0.1-0.1,0.1-0.3,0.1-0.5c0.2-0.1,0.5-0.2,0.8-0.2s0.5,0,0.7,0h0
		c0.4-0.1,0.9-0.1,1.4-0.1l2.3,0.1l0.3,0c0.3,0,0.6,0.1,0.8,0.3c0.2,0.2,0.3,0.3,0.3,0.4c0,0.1,0,0.2,0,0.3c0,0.1,0,0.2,0,0.2
		c0,0.1-0.2,0.2-0.4,0.2l-0.3,0.1c-0.2,0-0.4,0-0.6,0.1c-0.2,0-0.4,0-0.5,0.1c-0.1,0.1-0.4,0.1-0.7,0.1l-0.3,0.1
		c-0.4,0.1-0.8,0.2-1.1,0.2c-0.2,0.1-0.3,0.1-0.5,0.1c-0.2,0-0.3,0-0.3,0c-0.1,0.1-0.4,0.1-0.9,0.1c-0.1,0-0.3-0.1-0.7-0.3l-0.3-0.4
		c0,0,0-0.1,0-0.3C54.6,51.7,54.6,51.5,54.6,51.2L54.6,51.2z M63.3,49.2c-0.2,0-0.3,0-0.4,0l-0.2,0h-0.2c-0.4,0-0.6,0-0.6-0.1
		c-0.1-0.2-0.2-0.5,0-0.7c0.1-0.2,0.2-0.3,0.4-0.3c0.2,0,0.3-0.1,0.5-0.1c0.1,0,0.2,0,0.5-0.1c0.2,0,0.4-0.1,0.4-0.1v-0.2
		c0-0.1,0.1-0.3,0.2-0.6c0-0.1,0-0.2,0.1-0.3c0-0.1,0.1-0.3,0.1-0.5l0.3-0.9c0-0.1,0-0.1,0.1-0.3c0,0,0-0.1,0-0.2
		c0-0.1,0.1-0.2,0.1-0.2l0.1-0.3l0.2-0.2c0-0.1,0-0.2,0.1-0.4c0.1-0.1,0.1-0.1,0.2-0.2c0.6-0.4,1-0.7,1.1-0.7h0.5c0.3,0,0.5,0,0.6,0
		c0.4,0,0.8,0.1,1,0.2l0.2,0.1c0.5,0.4,0.8,0.9,0.7,1.3c0,0.1-0.1,0.2-0.2,0.3c-0.1,0.1-0.3,0.2-0.4,0.2c-0.3,0-0.7-0.1-1-0.2
		c-0.3-0.1-0.6-0.2-0.7-0.2c-0.2,0-0.3,0.1-0.4,0.3c-0.1,0.3-0.3,0.9-0.4,1.8c-0.2,0.8-0.2,1.2-0.2,1.2h0.2c0.1,0,0.3,0,0.4,0
		l0.7,0.1c0.2,0,0.5,0.1,0.9,0.2c0.4,0.1,0.5,0.3,0.5,0.6C68.2,48.8,68,49,67.7,49c-0.8,0-1.5,0-2,0.2c-0.1,0-0.2,0.3-0.2,0.9
		l-0.1,1.7c0,0.2,0,0.3,0,0.3c-0.1,0.1-0.1,0.1,0,0.3c0,0,0,0.1,0,0.3c0,0.2,0,0.3,0,0.4c0,0.1,0,0.3,0,0.7c0,0.4,0,0.7,0,0.8
		c0,0,0,0.1,0,0.3v0.3c0,0.5,0,0.8,0,0.9c-0.1,0.5-0.3,0.7-0.9,0.8c-0.3,0-0.5,0-0.7-0.1c-0.2-0.1-0.3-0.2-0.4-0.3
		c-0.1-0.2-0.2-0.4-0.3-0.8v-0.2l0-0.3c0-0.1,0-0.2,0-0.3c0-0.1,0-0.2,0-0.2V54c0-0.2,0-0.4,0-0.7v-0.4c0-0.1,0-0.3,0-0.7
		c0-0.2,0-0.4,0-0.5c0-0.8,0-1.3,0-1.5c0-0.1,0-0.2,0-0.3v-0.3c0-0.1,0-0.1,0-0.2C63.3,49.3,63.3,49.2,63.3,49.2L63.3,49.2z
		 M68.9,48.8c-0.1-0.5,0-0.8,0.3-0.9c0.1-0.1,0.2-0.1,0.3-0.1c0.1,0,0.4,0.1,0.8,0.2c0.1,0,0.1,0,0.1,0c0,0,0.1,0,0.1,0
		c0.1,0,0.2,0,0.2,0.1c0.1,0.2,0.2,0.4,0.2,0.7c0.1,0.5,0.1,0.9,0.2,1.3c0,0,0,0,0-0.1c0.2-0.3,0.4-0.5,0.4-0.5c0,0,0-0.1,0.1-0.2
		c0.1-0.3,0.2-0.4,0.2-0.5c0-0.1,0.1-0.2,0.2-0.3c0.1-0.2,0.2-0.3,0.2-0.4c0.1-0.1,0.1-0.1,0.2-0.1c0.2-0.2,0.4-0.3,0.8-0.2
		c0,0,0.1,0,0.2,0c0.2,0,0.3,0,0.4,0.1c0.4,0,0.5,0.5,0.5,1.4c-0.1,0.4-0.1,0.7-0.2,0.7c-0.1,0.1-0.3,0.1-0.6,0.2
		c-0.3,0.1-0.5,0.1-0.6,0.2c-0.4,0.2-0.7,0.5-0.9,0.9c0,0.1-0.1,0.3-0.1,0.4c0,0.2,0,0.3,0,0.4c0,0,0,0.1,0,0.2c0,0.3,0,0.5-0.1,0.7
		c0,0.2-0.1,0.6,0,1.1c0,0.5,0,0.9,0,1.1c0,0.2-0.1,0.3-0.1,0.3c0,0.1,0,0.1,0,0.1v0.1c0,0.1-0.2,0.3-0.4,0.5l-0.3,0
		c-0.3,0-0.4,0-0.5-0.1c-0.1-0.1-0.2-0.1-0.3-0.2C70.1,56,70,56,70,55.9c-0.1,0-0.2-0.1-0.2-0.2c-0.1-0.2-0.2-0.3-0.2-0.3
		c-0.1-0.5-0.2-0.9-0.2-1.3v-1c0-0.1,0-0.1,0-0.1v-0.2c0.1-0.1,0.1-0.1,0-0.2v-0.2c0,0,0-0.1,0-0.1c0-0.1,0-0.2,0-0.4
		c0-0.2,0-0.7-0.1-1.7c-0.1-0.1-0.1-0.3-0.3-0.8c0-0.1,0-0.2-0.1-0.3v-0.2C69.1,48.9,69,48.9,68.9,48.8
		C68.9,48.9,68.9,48.8,68.9,48.8z M80.9,49.8c0,0,0,0.1,0,0.2v0.2c0,0.8-0.3,1.5-0.7,2.1c-0.1,0.1-0.2,0.2-0.3,0.3l-0.4,0.4
		c-0.1,0.1-0.2,0.2-0.3,0.2l-0.4,0.1c0,0-0.1-0.1-0.3-0.1c-0.1,0.1-0.3,0-0.4,0c0,0-0.1,0-0.2-0.1c-0.1-0.1-0.3-0.1-0.4-0.1
		c0,0.2,0,0.4,0,0.7l0.2,0.9c0.1,0.3,0.3,0.4,0.4,0.5c0.1,0.1,0.3,0.1,0.4,0.1c0.2,0,0.3,0,0.4,0c0.1,0,0.2-0.1,0.4-0.2l0.4-0.2
		c0.3-0.2,0.5-0.1,0.7,0.1c0.1,0.1,0.1,0.3,0.1,0.4c0,0.2-0.1,0.4-0.2,0.5c-0.1,0.2-0.3,0.3-0.6,0.5c0,0-0.1,0-0.2,0.1
		c-0.6,0.3-1.2,0.3-1.9,0.1l-0.4-0.2c0,0-0.1,0-0.1-0.1c-0.2,0-0.3-0.1-0.5-0.3c-0.2-0.2-0.3-0.3-0.4-0.4c-0.1-0.1-0.1-0.2-0.1-0.2
		c0,0-0.1-0.1-0.1-0.2c-0.2-0.4-0.4-0.8-0.5-1.2l-0.1-0.5c0-0.1,0-0.2,0-0.4v-0.3c-0.1-0.2,0-0.7,0.2-1.4c0.2-1,0.4-1.5,0.5-1.7
		l0.2-0.5c0,0,0.1-0.1,0.2-0.3c0-0.1,0.2-0.2,0.4-0.4c0.1-0.1,0.1-0.1,0.2-0.1c0.1-0.1,0.1-0.1,0.2-0.1c0.1-0.1,0.3-0.1,0.5-0.2
		c0.2-0.1,0.5-0.1,0.9-0.1c0.9,0.1,1.5,0.5,1.8,1.1l0.1,0.4C80.8,49.6,80.9,49.7,80.9,49.8L80.9,49.8z M78.9,50.8
		c0.2-0.3,0.3-0.7,0.3-1.2v-0.2c0-0.1,0-0.2,0-0.2l-0.1,0c-0.1,0-0.2,0-0.2,0c-0.1,0-0.2,0.1-0.2,0.1c-0.2,0.1-0.3,0.2-0.3,0.4
		l-0.4,0.8c-0.2,0.4-0.3,0.9-0.3,1.5c0.3,0.1,0.6,0.1,0.7,0c0.1-0.1,0.2-0.2,0.2-0.3c0-0.1,0.1-0.2,0.2-0.3
		C78.7,51.4,78.8,51.2,78.9,50.8L78.9,50.8z M86.9,51.8c-0.2,0.4-0.5,0.6-0.8,0.6l-0.7,0.1c-0.4,0-0.7,0-0.9-0.1l0.1,0.4
		c0,1,0.3,1.7,0.9,2.1c0.2,0.1,0.3,0.1,0.4,0.1c0.1,0,0.2-0.1,0.4-0.2c0.1-0.1,0.1-0.1,0.1-0.2c0-0.1,0.1-0.2,0.2-0.2
		c0.5-0.7,0.9-0.9,1.2-0.8c0.3,0.2,0.4,0.3,0.4,0.4c0,0.1,0,0.1-0.1,0.2v0.1c0,0.1-0.1,0.4-0.2,0.7c-0.2,0.3-0.3,0.6-0.5,0.8
		c-0.1,0.2-0.2,0.3-0.3,0.4c-0.4,0.3-0.8,0.4-1.3,0.3c-0.1,0-0.2,0-0.2-0.1c-0.1,0-0.2,0-0.2,0l-0.2,0c-0.1,0-0.2,0-0.3-0.1
		c-0.1-0.1-0.2-0.1-0.3-0.1c-0.3-0.1-0.5-0.2-0.6-0.3c-0.1-0.1-0.1-0.1-0.2-0.1c-0.1,0-0.2-0.2-0.4-0.4c-0.2-0.1-0.3-0.2-0.3-0.3
		c-0.1-0.1-0.1-0.2-0.2-0.2c-0.1-0.1-0.1-0.2-0.1-0.3c-0.1-0.1-0.1-0.1-0.1-0.2l-0.1-0.2c0-0.1,0-0.2-0.1-0.2
		c-0.1-0.1-0.1-0.2-0.1-0.3v-0.2c-0.1,0-0.1-0.1,0-0.2v-0.5l0-0.2v-0.1c0-0.1,0-0.2,0-0.3l0-0.2c0,0,0-0.1,0.1-0.3
		c0.1-0.3,0.1-0.4,0.2-0.5V51c0,0,0-0.1,0-0.2c0-0.1,0-0.1,0-0.2c0-0.1,0.1-0.4,0.3-0.9l0.3-0.7c0.1-0.2,0.2-0.4,0.4-0.6
		c0-0.1,0.1-0.2,0.2-0.3l0.2-0.2c0.1-0.1,0.2-0.2,0.3-0.2c0.2-0.1,0.3-0.1,0.4-0.1l0.5-0.1c0.1,0,0.1,0,0.1,0h0.2
		c0.3,0,0.5,0.1,0.7,0.2c0.4,0.1,0.7,0.3,0.8,0.4c0.4,0.4,0.6,0.9,0.6,1.3c0,0.4-0.1,0.8-0.2,1C87.3,51.1,87,51.6,86.9,51.8
		L86.9,51.8z M85.5,51.1c0.3-0.3,0.5-0.8,0.6-1.4c0.1-0.2,0-0.4,0-0.7c-0.1-0.1-0.2-0.1-0.4-0.1c-0.2,0-0.4,0.2-0.5,0.5
		c-0.2,0.3-0.4,0.6-0.5,1h0c-0.1,0.5-0.2,0.8-0.2,0.9c0.2,0.1,0.4,0.1,0.5,0.1C85.2,51.3,85.3,51.2,85.5,51.1L85.5,51.1z"/>
	<g>
		<defs>
			<rect id="SVGID_1_" x="0" y="34" width="100" height="32"/>
		</defs>
		<clipPath id="SVGID_2_">
			<use xlink:href="#SVGID_1_"  style="overflow:visible;"/>
		</clipPath>
		<line class="st1" x1="79.1" y1="35.2" x2="85.6" y2="35.2"/>
		<path class="st1" d="M94.1,35.2c2.5,0,4.6,2.1,4.6,4.6v20.3c0,2.5-2.1,4.6-4.6,4.6H5.9c-2.5,0-4.6-2.1-4.6-4.6V39.9
			c0-2.5,2.1-4.6,4.6-4.6h65.4"/>
	</g>
</g>
</svg>
